<?xml version="1.0" encoding="UTF-8"?>
<svg version="1.1" xmlns="http://www.w3.org/2000/svg" width="7681" height="4320">
<path d="M0 0 C10.54016315 8.33373579 10.54016315 8.33373579 12 13 C11.71823584 17.50223166 10.44672961 20.36438711 7.9375 24.0625 C5.2142252 28.16690395 2.56527774 32.29454468 0 36.5 C-2.94198054 41.29475454 -5.92845188 46.0564899 -8.95703125 50.796875 C-16.4027802 62.47089821 -23.77609494 74.18732506 -31 86 C-35.35332564 93.10678305 -39.74165916 100.1850334 -44.23046875 107.20703125 C-46.80468545 111.27008852 -49.31275724 115.37299679 -51.828125 119.47265625 C-58.72346956 130.69192991 -65.72925612 141.8473317 -72.87890625 152.90625 C-80.13731135 164.04558163 -80.13731135 164.04558163 -82 177 C-81.38318253 179.12013773 -81.38318253 179.12013773 -80 181 C-71.03473636 184.91344043 -59.78409688 185.30720579 -50.125 186.5625 C-48.4676001 186.78296087 -46.81021086 187.00350191 -45.15283203 187.22412109 C-36.4071186 188.37496613 -27.66796676 189.40138927 -18.875 190.125 C14.71085336 192.89006836 14.71085336 192.89006836 24 200.4375 C28.2218815 205.84678568 30.30227698 210.04762951 30 217 C28.06091403 227.57114611 20.87589452 235.50852435 12.5 241.875 C-9.19187648 255.96195978 -37.40229215 260.6089778 -62.53540039 255.30932617 C-92.05035768 248.31635472 -118.94655069 232.67517013 -136 207 C-140.6879959 199.14233359 -144.69613777 191.12703562 -146 182 C-165.84479536 191.68489348 -185.51264632 202.28948879 -203.46875 215.203125 C-206.66544872 217.47238644 -209.92202878 219.6438251 -213.1875 221.8125 C-213.82292725 222.23450684 -214.45835449 222.65651367 -215.11303711 223.09130859 C-216.41750317 223.95724227 -217.72211091 224.82296256 -219.02685547 225.68847656 C-220.99078044 226.99387188 -222.95105084 228.30457215 -224.91015625 229.6171875 C-243.32582252 241.95100017 -261.98200282 254.40984839 -282 264 C-283.02738281 264.51046875 -284.05476563 265.0209375 -285.11328125 265.546875 C-301.20423705 273.35072008 -318.10341666 280.14038393 -335.71191406 283.52392578 C-337.46350983 283.88837432 -339.20354414 284.30879092 -340.93652344 284.75341797 C-350.22209721 287.02702396 -358.99850611 287.4646064 -368.52246094 287.39111328 C-370.99730517 287.37501753 -373.47051711 287.3910591 -375.9453125 287.41015625 C-385.71964832 287.42325899 -394.51645999 286.5411044 -404 284 C-404.7719873 283.80664062 -405.54397461 283.61328125 -406.33935547 283.4140625 C-421.41140195 279.49981855 -434.57286289 272.65428726 -446 262 C-446.72832031 261.32582031 -447.45664062 260.65164063 -448.20703125 259.95703125 C-461.25112968 246.66352367 -463.40767229 229.85821036 -463.36572266 212.06494141 C-463.23346466 202.37127978 -462.10952672 194.21411905 -459 185 C-458.50786035 183.36873548 -458.02120628 181.73580934 -457.5390625 180.1015625 C-455.41942494 173.04192099 -453.31414127 166.31029567 -449.90136719 159.75537109 C-448.82408924 157.65742189 -447.95665091 155.51835503 -447.125 153.3125 C-445.56008154 149.28577306 -443.79393285 145.40080087 -441.9375 141.5 C-437.60474209 132.16874555 -435.48368074 123.15884927 -434 113 C-439.08949309 115.14294446 -442.97069865 118.26877097 -447.2265625 121.7578125 C-450.09989121 124.08075712 -453.03418735 126.29660705 -456 128.5 C-465.15442188 135.33390936 -473.94796123 142.58846451 -482.75390625 149.86157227 C-486.53834285 152.98465509 -490.33727992 156.08300794 -494.1875 159.125 C-498.83889674 162.81759094 -503.32375576 166.6917169 -507.82006836 170.56982422 C-512.78284436 174.83988363 -517.85883847 178.94655529 -523 183 C-524.68825687 184.35322295 -526.37574975 185.70739956 -528.0625 187.0625 C-531.92086751 190.15039786 -535.81202671 193.19241505 -539.71875 196.21875 C-542.16185175 198.12637739 -544.58250685 200.06003636 -547 202 C-551.63046034 205.71438782 -556.30729046 209.36480247 -561 213 C-561.7528125 213.5878125 -562.505625 214.175625 -563.28125 214.78125 C-567.42111298 218.01374575 -571.58210255 221.21210012 -575.79296875 224.3515625 C-577.42455927 225.57020179 -579.0514634 226.79512123 -580.67578125 228.0234375 C-587.82956231 233.42430532 -595.07295806 238.68114008 -602.38964844 243.85839844 C-603.84909365 244.8930203 -605.30373749 245.93440676 -606.7578125 246.9765625 C-625.43955544 260.27046735 -642.99157807 265.31985246 -666 262 C-679.77776251 258.39797058 -688.60521466 250.99112126 -696 239 C-706.28800922 220.96628407 -707.17944345 200.87220299 -707 180.625 C-706.97334485 177.57552442 -706.95342122 174.52611082 -706.9375 171.4765625 C-706.92920166 170.78486969 -706.92090332 170.09317688 -706.91235352 169.38052368 C-706.89563426 166.10003156 -706.98485083 163.13637131 -708 160 C-713.95468403 159.20181895 -718.09124194 159.55297002 -723.125 163 C-730.74128381 168.94093901 -736.84411721 175.83233088 -742.82421875 183.38671875 C-746.06701174 187.28156347 -749.60313085 190.76486335 -753.5 194 C-756.4894431 196.53200676 -759.26224004 199.19379604 -762 202 C-769.23089516 209.40943578 -776.97337715 216.01216922 -785.00390625 222.5390625 C-788.24219084 225.1989312 -791.43547862 227.90712259 -794.625 230.625 C-798.95386835 234.30719307 -803.33827338 237.88953594 -807.8515625 241.34375 C-810.117752 243.09077609 -812.33970924 244.8856364 -814.5625 246.6875 C-825.77964003 255.66468482 -837.30698615 264.11842608 -849.36572266 271.92871094 C-850.784285 272.85859614 -852.18139019 273.82105722 -853.57421875 274.7890625 C-863.33166369 281.41972557 -874.31101091 286.08403675 -885 291 C-885.78826172 291.36311279 -886.57652344 291.72622559 -887.38867188 292.1003418 C-899.44531459 297.56334407 -912.00986273 301.72604734 -924.875 304.8125 C-926.08397949 305.10435181 -926.08397949 305.10435181 -927.31738281 305.40209961 C-939.89662912 308.2809384 -952.24326763 309.35140759 -965.10742188 309.31567383 C-967.52517968 309.3124666 -969.94176323 309.33624613 -972.359375 309.36132812 C-973.91666515 309.36359756 -975.47395853 309.36430627 -977.03125 309.36328125 C-977.74381958 309.372491 -978.45638916 309.38170074 -979.19055176 309.39118958 C-984.51383558 309.3420749 -988.62711131 308.15978946 -992.609375 304.53515625 C-1000.75089817 294.02366915 -999.79788506 281.99346556 -998.375 269.1875 C-996.32402341 255.19431217 -993.24922621 240.49578735 -987.17578125 227.66015625 C-986.16931467 225.38306742 -985.37064799 223.17146858 -984.6015625 220.80859375 C-982.96236127 215.78486597 -981.04074102 210.89850158 -979.0625 206 C-978.72798828 205.16210938 -978.39347656 204.32421875 -978.04882812 203.4609375 C-976.14836517 198.72991988 -974.16316488 194.04901481 -972.07397461 189.3984375 C-970.86090313 186.68936403 -969.67167723 183.97046398 -968.484375 181.25 C-964.28103686 171.63701538 -960.07775696 162.03387194 -955.5625 152.5625 C-949.5682166 141.30906094 -949.5682166 141.30906094 -948 129 C-960.46643003 124.29462566 -976.1450773 126.72547282 -988.125 132.0625 C-990.0862915 133.03572785 -992.04399246 134.0161955 -994 135 C-995.71026218 135.80629111 -997.42272341 136.60792548 -999.13671875 137.40625 C-1001.02877856 138.29138301 -1002.92070416 139.17680294 -1004.8125 140.0625 C-1005.72080566 140.4860376 -1006.62911133 140.9095752 -1007.56494141 141.34594727 C-1012.31847266 143.59796674 -1016.66952049 145.98940539 -1021 149 C-1022.73706008 149.98159312 -1024.48703402 150.9407336 -1026.25 151.875 C-1031.60263266 154.76051626 -1036.81472338 157.82518243 -1042 161 C-1042.88171875 161.53753906 -1043.7634375 162.07507812 -1044.671875 162.62890625 C-1047.38770585 164.29217302 -1050.09840871 165.96344048 -1052.80566406 167.640625 C-1054.4424442 168.65459828 -1056.07992766 169.66743642 -1057.71777344 170.6796875 C-1074.21148507 180.88090379 -1074.21148507 180.88090379 -1090.25048828 191.7734375 C-1092.38032192 193.26663931 -1094.53086594 194.72750072 -1096.68359375 196.1875 C-1097.51979248 196.7551709 -1098.35599121 197.3228418 -1099.2175293 197.90771484 C-1100.8491869 199.01415267 -1102.48206994 200.11878657 -1104.11645508 201.22119141 C-1109.58480794 204.94011146 -1114.81591285 208.89623481 -1120 213 C-1121.49907659 214.16785293 -1122.99897221 215.33465598 -1124.5 216.5 C-1125.2528125 217.08652344 -1126.005625 217.67304688 -1126.78125 218.27734375 C-1128.17311292 219.35799789 -1129.56843782 220.43422333 -1130.96875 221.50390625 C-1137.02106457 226.14789378 -1142.8854514 231.01145863 -1148.76391602 235.87182617 C-1153.11800077 239.46646075 -1157.50355121 243.00416364 -1161.98046875 246.4453125 C-1170.54054603 253.03508186 -1178.78211156 259.99289763 -1187 267 C-1186.154375 267.969375 -1185.30875 268.93875 -1184.4375 269.9375 C-1183.28777245 271.28836193 -1182.14224391 272.64280428 -1181 274 C-1180.40058594 274.71027344 -1179.80117187 275.42054688 -1179.18359375 276.15234375 C-1170.10129062 287.31396466 -1166.409265 300.12347176 -1166.5 314.4375 C-1166.50499512 315.50299072 -1166.50999023 316.56848145 -1166.51513672 317.66625977 C-1166.92129015 336.96975215 -1171.056414 356.02382735 -1178 374 C-1178.3609375 374.95390625 -1178.721875 375.9078125 -1179.09375 376.890625 C-1180.02470021 379.27806183 -1181.00687989 381.63787766 -1182 384 C-1182.35449219 384.90363281 -1182.70898438 385.80726563 -1183.07421875 386.73828125 C-1194.25433442 414.78142852 -1212.23612078 440.16535088 -1231.04296875 463.5390625 C-1232.83533377 465.79293468 -1234.5755458 468.07840662 -1236.3125 470.375 C-1244.26722912 480.65214428 -1253.32941201 490.55321156 -1264 498 C-1264.72960938 498.51949219 -1265.45921875 499.03898437 -1266.2109375 499.57421875 C-1280.3282914 508.88416808 -1297.34933638 510.01467067 -1313.60449219 506.96728516 C-1325.52590426 504.37083742 -1336.29961262 498.62644641 -1345 490 C-1346.299375 488.7315625 -1346.299375 488.7315625 -1347.625 487.4375 C-1348.40875 486.633125 -1349.1925 485.82875 -1350 485 C-1351.175625 483.88625 -1351.175625 483.88625 -1352.375 482.75 C-1372.88230055 461.26616133 -1379.72331212 435.34568525 -1379.2421875 406.3828125 C-1378.27192599 373.69172426 -1362.00496849 349.41601488 -1342.46484375 324.4453125 C-1340.35451743 321.74580292 -1338.25905509 319.03701822 -1336.19140625 316.3046875 C-1331.09083611 309.56593539 -1325.72316061 303.21709192 -1320 297 C-1318.82848346 295.67092593 -1317.66155394 294.33778972 -1316.5 293 C-1313.03199814 289.01220395 -1309.47924824 285.1037541 -1305.91796875 281.19921875 C-1303.87480508 278.95177481 -1303.87480508 278.95177481 -1302 276 C-1307.16530493 271.08422671 -1312.29540558 267.02109083 -1318.484375 263.48046875 C-1321.85564816 261.49644308 -1324.99659475 259.24087791 -1328.18359375 256.9765625 C-1338.58118518 249.67950111 -1349.29139011 242.82849379 -1360 236 C-1360.96808594 235.38253906 -1361.93617188 234.76507812 -1362.93359375 234.12890625 C-1366.55562185 231.82211105 -1370.17991129 229.5189713 -1373.80859375 227.22265625 C-1374.73800781 226.63355469 -1375.66742187 226.04445313 -1376.625 225.4375 C-1377.52605469 224.86902344 -1378.42710937 224.30054687 -1379.35546875 223.71484375 C-1381.11113022 222.57638675 -1382.84383964 221.40168798 -1384.55078125 220.19140625 C-1385.33839844 219.63324219 -1386.12601563 219.07507812 -1386.9375 218.5 C-1387.62714844 217.9946875 -1388.31679687 217.489375 -1389.02734375 216.96875 C-1390.93042488 215.83432766 -1390.93042488 215.83432766 -1392.9765625 216.109375 C-1395.59566716 217.26218555 -1397.33486166 218.81134559 -1399.4375 220.75 C-1400.22125 221.46671875 -1401.005 222.1834375 -1401.8125 222.921875 C-1403.56092981 224.58288332 -1405.26295337 226.26564814 -1406.9375 228 C-1409 230 -1409 230 -1411 230 C-1411.35578125 230.86044922 -1411.35578125 230.86044922 -1411.71875 231.73828125 C-1413.27940669 234.49322096 -1415.11049981 236.11181075 -1417.5 238.1875 C-1418.39847656 238.97511719 -1419.29695313 239.76273438 -1420.22265625 240.57421875 C-1421.13917969 241.37472656 -1422.05570313 242.17523437 -1423 243 C-1424.64760333 244.49805561 -1426.29347475 245.99801853 -1427.9375 247.5 C-1431.31652431 250.54743781 -1434.76709535 253.46076148 -1438.3125 256.3125 C-1443.12585437 260.20255931 -1447.6476145 264.32871834 -1452.16113281 268.55566406 C-1456.37393141 272.47878593 -1460.76395352 276.11896414 -1465.25390625 279.72265625 C-1468.26320269 282.21827478 -1471.13920076 284.83784189 -1474 287.5 C-1478.52581889 291.70657926 -1483.193432 295.67053226 -1488.0078125 299.54296875 C-1491.63244368 302.51933039 -1495.15816634 305.59933305 -1498.6875 308.6875 C-1503.05258571 312.50261095 -1507.42758322 316.16988833 -1512.1328125 319.5625 C-1514.43877229 321.33779959 -1516.54603175 323.27957554 -1518.6875 325.25 C-1522.98917107 329.18220239 -1527.46653798 332.74829606 -1532.10546875 336.26416016 C-1536.62462594 339.6920738 -1541.02113569 343.25157005 -1545.3984375 346.859375 C-1556.29799862 355.82778265 -1567.45432094 364.49419681 -1578.61328125 373.13671875 C-1580.47278324 374.58840852 -1582.32268072 376.04994364 -1584.16796875 377.51953125 C-1600.5840123 390.56853751 -1617.43517326 403.07476041 -1637 411 C-1637.63856934 411.25974609 -1638.27713867 411.51949219 -1638.93505859 411.78710938 C-1654.87298781 417.99161722 -1673.75827567 418.880108 -1689.78515625 412.5703125 C-1694.81758689 410.11218721 -1699.44646471 407.25135524 -1704 404 C-1704.99 403.34 -1705.98 402.68 -1707 402 C-1707 401.34 -1707 400.68 -1707 400 C-1707.99 399.67 -1708.98 399.34 -1710 399 C-1719.479386 385.84148597 -1720.65233345 372.91624224 -1720 357 C-1719.97486328 356.2467041 -1719.94972656 355.4934082 -1719.92382812 354.71728516 C-1718.94579241 330.66060066 -1711.26229453 307.05736436 -1702 285 C-1701.44046631 283.65639404 -1701.44046631 283.65639404 -1700.86962891 282.28564453 C-1698.31027762 276.16190482 -1695.67855347 270.07243984 -1693 264 C-1692.48824219 262.83210938 -1691.97648437 261.66421875 -1691.44921875 260.4609375 C-1679.26115771 233.33821011 -1662.84323729 209.48903191 -1643.54296875 186.97265625 C-1641.80627299 184.94250959 -1640.1044007 182.90220989 -1638.41796875 180.83203125 C-1633.20425489 174.72550048 -1626.70889614 170.62241892 -1619.75 166.75 C-1619.17910645 166.42080566 -1618.60821289 166.09161133 -1618.02001953 165.75244141 C-1607.59269528 160.17238301 -1596.14763611 159.52584366 -1584.56713867 159.66381836 C-1582.40832288 159.68782445 -1580.250716 159.6842994 -1578.09179688 159.67773438 C-1566.35066171 159.72488413 -1566.35066171 159.72488413 -1563 162 C-1561.46439577 165.07120847 -1561.44991765 167.68303207 -1562 171 C-1563.55625659 175.27894572 -1565.51904158 179.34104085 -1567.5 183.4375 C-1568.32105225 185.17531738 -1568.32105225 185.17531738 -1569.15869141 186.94824219 C-1572.45379748 193.89091353 -1575.84516783 200.78317354 -1579.33300781 207.63085938 C-1582.53751254 213.95865646 -1585.26974885 220.45567072 -1588 227 C-1590.69730119 233.37642 -1593.75834638 239.54931337 -1596.87329102 245.72973633 C-1599.39442639 250.74713697 -1601.80723579 255.80627585 -1604.16357422 260.90356445 C-1606.70692633 266.3965082 -1609.3177162 271.85565175 -1611.9375 277.3125 C-1616.4505363 286.7247363 -1620.91905402 296.15755238 -1625.3664856 305.60092163 C-1626.07340292 307.10191488 -1626.78065116 308.60275233 -1627.48825073 310.10342407 C-1631.07024827 317.70177126 -1634.63358356 325.30287392 -1638 333 C-1629.0592114 328.02701699 -1620.46036195 322.7653273 -1612 317 C-1610.12529516 315.7703832 -1608.25028866 314.54122622 -1606.375 313.3125 C-1583.33279731 297.93100355 -1561.4990379 280.72295384 -1540.44262695 262.74169922 C-1537.50190678 260.23870403 -1534.51725399 257.82913294 -1531.4375 255.5 C-1527.25581089 252.3044862 -1523.42582907 248.76844219 -1519.57958984 245.18530273 C-1516.33597287 242.17908612 -1513.01463471 239.33124269 -1509.5625 236.5625 C-1504.14091657 232.19859541 -1499.07157883 227.5157847 -1493.984375 222.7734375 C-1489.37851774 218.48018201 -1484.6189993 214.37670578 -1479.82421875 210.296875 C-1478.63254314 209.28156606 -1477.4411459 208.26593033 -1476.25 207.25 C-1475.64639648 206.73526123 -1475.04279297 206.22052246 -1474.42089844 205.69018555 C-1470.47534047 202.30910541 -1466.61891344 198.84903479 -1462.8125 195.3125 C-1458.30842151 191.12818518 -1453.63164159 187.22493801 -1448.83984375 183.375 C-1445.65624162 180.71251018 -1442.64348863 177.90851643 -1439.625 175.0625 C-1434.30913143 170.05783141 -1428.74550744 165.59074362 -1422.875 161.25390625 C-1420.0090485 159.00709373 -1417.57109954 156.57495426 -1415 154 C-1412.48366959 151.83811737 -1409.90075314 149.76238567 -1407.3125 147.6875 C-1406.60641602 147.11789551 -1405.90033203 146.54829102 -1405.17285156 145.96142578 C-1403.11755774 144.3047031 -1401.05912813 142.65195298 -1399 141 C-1397.9569185 140.16029628 -1396.91393626 139.32046925 -1395.87109375 138.48046875 C-1393.5868165 136.64555752 -1391.3026586 134.81178177 -1389 133 C-1388.29359375 132.43539062 -1387.5871875 131.87078125 -1386.859375 131.2890625 C-1385 130 -1385 130 -1383 130 C-1383 129.34 -1383 128.68 -1383 128 C-1380.98046875 126.3359375 -1380.98046875 126.3359375 -1378.1875 124.375 C-1377.17816406 123.65957031 -1376.16882812 122.94414062 -1375.12890625 122.20703125 C-1374.09636719 121.47871094 -1373.06382812 120.75039062 -1372 120 C-1370.20638103 118.69016922 -1368.41466291 117.37773092 -1366.625 116.0625 C-1361.51369741 112.34386331 -1356.32871707 108.73774695 -1351.12109375 105.15625 C-1348.39608652 103.27364175 -1345.69652639 101.36046858 -1343 99.4375 C-1337.85347395 95.84310085 -1332.56326326 92.52714563 -1327.17675781 89.3046875 C-1325.56392502 88.33800082 -1323.95440035 87.36579013 -1322.34667969 86.390625 C-1298.55656948 71.99071899 -1276.39440145 59.94653979 -1247.7421875 66.8984375 C-1231.91744645 71.55665981 -1217.15175251 77.40899835 -1208 92 C-1206.50218026 96.49345922 -1206.73377753 100.91703242 -1206.6875 105.625 C-1206.65849609 106.58535156 -1206.62949219 107.54570312 -1206.59960938 108.53515625 C-1206.53992366 115.30259804 -1207.79626442 120.06798436 -1211 126 C-1211.46921875 126.96808594 -1211.9384375 127.93617188 -1212.421875 128.93359375 C-1215.95934126 135.60275808 -1220.17079581 141.22123319 -1225 147 C-1227.05186101 149.65249669 -1229.10167243 152.30631606 -1231.140625 154.96875 C-1233.63162623 157.69001184 -1235.58781006 158.78693275 -1239.2265625 159.3359375 C-1247.46647652 159.47013805 -1253.82537258 156.91601447 -1260.875 152.8125 C-1268.48225051 148.4002947 -1279.11915645 148.86101516 -1287.4921875 151.0546875 C-1297.16770716 154.701846 -1309.95503971 160.57699044 -1315.08984375 170 C-1316.58865711 174.54078368 -1315.7793261 177.98412954 -1314.01953125 182.3359375 C-1312.95669522 184.33198057 -1312.95669522 184.33198057 -1310 186 C-1310 186.66 -1310 187.32 -1310 188 C-1308.95585937 188.37898438 -1308.95585937 188.37898438 -1307.890625 188.765625 C-1304.62674561 190.15938971 -1301.76189263 191.87302343 -1298.75 193.75 C-1298.17427246 194.10852051 -1297.59854492 194.46704102 -1297.00537109 194.83642578 C-1292.27176425 197.7977406 -1287.62270434 200.86966478 -1283 204 C-1260.96898247 221.02195466 -1260.96898247 221.02195466 -1235 225 C-1224.742172 221.36313371 -1216.11519649 214.00200081 -1208 207 C-1205.47457204 204.93790241 -1202.9259076 202.90544931 -1200.375 200.875 C-1199.7346582 200.36445068 -1199.09431641 199.85390137 -1198.43457031 199.32788086 C-1197.19431378 198.33942137 -1195.95360674 197.35152682 -1194.71240234 196.36425781 C-1193.17602833 195.14024042 -1191.6443456 193.91034003 -1190.11328125 192.6796875 C-1188.91251953 191.72449219 -1188.91251953 191.72449219 -1187.6875 190.75 C-1186.67236328 189.93789062 -1186.67236328 189.93789062 -1185.63671875 189.109375 C-1184 188 -1184 188 -1182 188 C-1182 187.34 -1182 186.68 -1182 186 C-1180.34765625 184.51953125 -1180.34765625 184.51953125 -1178.0625 182.8125 C-1177.23363281 182.18601562 -1176.40476562 181.55953125 -1175.55078125 180.9140625 C-1174.70902344 180.28242188 -1173.86726563 179.65078125 -1173 179 C-1171.5809591 177.89888629 -1170.16424983 176.79476053 -1168.75 175.6875 C-1159.50481336 168.50212178 -1150.20779066 161.40010705 -1140.81787109 154.4050293 C-1136.81255332 151.40564645 -1132.90876406 148.32573722 -1129.0625 145.125 C-1125.36363821 142.05631466 -1121.61026225 139.3239841 -1117.57421875 136.72265625 C-1114.160094 134.43793848 -1110.8664074 132.00290009 -1107.5625 129.5625 C-1101.76592646 125.28758938 -1095.92959152 121.08937346 -1090 117 C-1088.73954099 116.12506099 -1087.47912817 115.25005545 -1086.21875 114.375 C-1079.37307011 109.63361834 -1072.50239407 104.97071718 -1065.4453125 100.546875 C-1063.07984732 99.05051044 -1060.75632159 97.50492644 -1058.4375 95.9375 C-1054.55970653 93.33393707 -1050.5865992 90.92962613 -1046.5703125 88.546875 C-1044.01762214 87.01060542 -1041.50682426 85.42238714 -1039 83.8125 C-961.09616764 34.02844982 -961.09616764 34.02844982 -915.66796875 44.0234375 C-901.42933858 47.8143401 -889.64911611 57.9696367 -882.22265625 70.58203125 C-868.96540913 96.80003753 -870.54352917 125.58398747 -879.4375 152.9375 C-881.26695035 158.50563698 -883.27752572 163.75717626 -885.99047852 168.95336914 C-887.09368074 171.18992157 -888.00418807 173.45650229 -888.90625 175.78125 C-891.54054098 182.51104025 -894.76253909 188.94459634 -897.93359375 195.43359375 C-900.53056868 200.79300184 -902.94162276 206.16328936 -905.10351562 211.71289062 C-906.32983571 214.84147628 -907.66023522 217.91854101 -909 221 C-894.09266725 216.69828297 -880.11560888 211.40057837 -867 203 C-864.83375771 201.6867997 -862.66706431 200.37434335 -860.5 199.0625 C-854.84548028 195.57058607 -849.37349487 191.90875717 -844 188 C-843.08992188 187.34644531 -842.17984375 186.69289063 -841.2421875 186.01953125 C-831.81060912 179.11561587 -823.0751557 171.44232698 -814.375 163.6484375 C-813.67375 163.02195312 -812.9725 162.39546875 -812.25 161.75 C-811.67765625 161.22921875 -811.1053125 160.7084375 -810.515625 160.171875 C-809 159 -809 159 -806 158 C-805.67 157.01 -805.34 156.02 -805 155 C-803.57421875 153.5625 -803.57421875 153.5625 -801.6875 152 C-798.03866128 148.90242468 -794.46567571 145.73393148 -790.9375 142.5 C-790.16466675 141.79363403 -790.16466675 141.79363403 -789.3762207 141.07299805 C-785.89665695 137.87464485 -782.54400025 134.5852938 -779.3046875 131.14453125 C-778 130 -778 130 -776 130 C-776 129.34 -776 128.68 -776 128 C-775.34 128 -774.68 128 -774 128 C-774 127.34 -774 126.68 -774 126 C-772.35648543 124.63823078 -770.68477344 123.31037934 -769 122 C-766.35592746 119.48813108 -763.97439078 116.96816151 -761.6875 114.125 C-759.12825182 110.98992098 -756.17977498 108.47020233 -753.10546875 105.8515625 C-750.97619202 103.97906311 -748.98702996 102.02216408 -747 100 C-743.73372352 96.68238715 -740.32365033 93.61027707 -736.79296875 90.578125 C-735.34479809 89.30348242 -733.97133859 87.94426856 -732.625 86.5625 C-729.46836945 83.48102732 -726.06529142 80.82748576 -722.59765625 78.10546875 C-720.19257393 76.15608624 -717.94511943 74.11625836 -715.6875 72 C-701.55478738 59.40183761 -682.86012202 52.15318255 -663.8125 53.125 C-658.04923732 53.77042467 -653.2120172 55.52650031 -648 58 C-647.30132813 58.2990625 -646.60265625 58.598125 -645.8828125 58.90625 C-634.43076319 64.07526836 -626.92142211 73.69695362 -622 85 C-618.90040898 93.98881397 -618.88514083 102.55914221 -619.3125 111.9375 C-619.35882568 113.04488525 -619.40515137 114.15227051 -619.45288086 115.29321289 C-619.74412988 121.55211338 -620.22273415 127.72936455 -621.0625 133.9375 C-622.22141717 142.64225561 -622.18458289 151.23231288 -622 160 C-618.52035026 158.74563753 -615.91212243 157.34741174 -613.0625 155 C-609.13496495 151.8527265 -605.10908308 148.90201589 -601 146 C-596.25383778 142.64148959 -591.5991005 139.21056854 -587.0625 135.5703125 C-585.45459734 134.34611389 -583.79121015 133.1946846 -582.109375 132.07421875 C-579.06663808 130.04445329 -576.16044927 127.90180127 -573.25 125.6875 C-568.72411707 122.27216048 -564.1448355 118.96646647 -559.484375 115.73828125 C-556.85914331 113.90144461 -554.27205319 112.01859605 -551.6875 110.125 C-544.49718439 104.87637299 -537.15596843 99.8470421 -529.8125 94.81640625 C-523.97043214 90.7999846 -518.20356883 86.70984645 -512.5 82.5 C-504.72871206 76.76395474 -496.79796943 71.28530912 -488.828125 65.828125 C-482.26121756 61.31137403 -475.79743935 56.68390626 -469.38427734 51.95239258 C-465.097987 48.79304822 -460.76596309 45.71099095 -456.390625 42.67578125 C-453.73661995 40.81537575 -451.11723939 38.91175447 -448.5 37 C-403.67776406 4.36791191 -403.67776406 4.36791191 -375 7 C-365.30318159 8.77062003 -358.61545565 14.60811256 -352.328125 21.953125 C-345.84395495 31.94637531 -347.62843274 45.31294891 -349.828125 56.4140625 C-351.37635104 63.58780081 -353.37105021 70.47469881 -356.01953125 77.32421875 C-357.06878907 80.18773113 -357.88570001 83.057648 -358.6875 86 C-360.65272199 93.06396723 -362.96962048 99.99058979 -365.3125 106.9375 C-368.85918626 117.46708824 -372.19788799 128.03931321 -375.39453125 138.6796875 C-376.84532725 143.50875324 -378.34726115 148.31979537 -379.875 153.125 C-382.33436459 160.87804886 -384.77542197 168.63673717 -387.19659424 176.40179443 C-387.60398685 177.70697684 -388.01229744 179.01187311 -388.42156982 180.31646729 C-388.9983336 182.15552621 -389.57149341 183.9957142 -390.14453125 185.8359375 C-390.47815674 186.90376465 -390.81178223 187.9715918 -391.15551758 189.07177734 C-393.50038124 197.20253616 -394.00321536 204.34726703 -390 212 C-386.50405235 216.46704422 -383.5914836 218.11246292 -378 219 C-371.13161778 219.07760884 -365.21456279 218.08147235 -358.94921875 215.296875 C-355.8480067 213.93316321 -352.71114846 212.72451687 -349.54492188 211.52197266 C-342.31559089 208.77129308 -335.24027657 205.83600637 -328.25 202.515625 C-325.94691985 201.44159243 -323.65071735 200.41186557 -321.3125 199.421875 C-311.25005878 195.15808593 -301.64763488 190.23331962 -292.01904297 185.0703125 C-289.59923924 183.78755319 -287.15063618 182.57218934 -284.6875 181.375 C-280.10053267 179.11348126 -275.68037326 176.57483694 -271.25415039 174.01782227 C-267.57341721 171.89194649 -263.86789756 169.8267084 -260.125 167.8125 C-246.40991444 160.35864915 -233.57060294 151.19387654 -220.79541016 142.25537109 C-219.51235895 141.35824718 -218.22803565 140.46294149 -216.94287109 139.56884766 C-208.4075716 133.62834035 -200.0275197 127.61991642 -192 121 C-190.35594021 119.68527911 -188.71006333 118.37282771 -187.0625 117.0625 C-178.57063089 110.26108072 -170.18682231 103.35261267 -161.94628906 96.24902344 C-159.22760859 93.90544207 -156.49990901 91.57728552 -153.734375 89.2890625 C-150.98479002 86.98726707 -148.50429442 84.56537478 -146 82 C-144.23445168 80.2303742 -142.46481431 78.46489047 -140.6953125 76.69921875 C-139.24576936 75.24633565 -137.80904173 73.78068559 -136.375 72.3125 C-134 70 -134 70 -131.5 68.0625 C-129.42100476 66.34732893 -127.97235432 64.82846861 -126.3125 62.75 C-125.549375 61.8425 -124.78625 60.935 -124 60 C-123.34 60 -122.68 60 -122 60 C-121.72760498 59.40541992 -121.45520996 58.81083984 -121.17456055 58.19824219 C-120.02970512 56.05559444 -118.87355302 54.57993363 -117.20703125 52.828125 C-116.65853516 52.24546875 -116.11003906 51.6628125 -115.54492188 51.0625 C-114.97322266 50.464375 -114.40152344 49.86625 -113.8125 49.25 C-109.70257911 44.91468088 -105.68563154 40.52593105 -101.76586914 36.01757812 C-92.87017056 25.85387661 -83.7656153 16.20744928 -73 8 C-72.16082031 7.35675781 -71.32164063 6.71351562 -70.45703125 6.05078125 C-50.6260583 -8.48352484 -21.8363929 -14.73865989 0 0 Z M-1255 317 C-1256.80483067 318.81442892 -1256.80483067 318.81442892 -1258.5625 321.25 C-1261.63896188 325.25392465 -1264.79266552 329.15196308 -1268.0625 333 C-1272.37251248 338.13104436 -1276.22689527 343.46710729 -1280 349 C-1291.25241476 365.17585399 -1291.25241476 365.17585399 -1297.34375 372.89453125 C-1305.4747337 383.23085251 -1311.88346714 392.30625932 -1311 406 C-1309.57423075 414.39765008 -1306.21849261 421.27526066 -1301 428 C-1297.26327521 430.49114986 -1295.42695151 430.43270955 -1291 430 C-1266.26012702 415.98194606 -1248.83770565 381.16886846 -1241 355 C-1240.01611236 350.36078298 -1239.78579098 345.79138265 -1239.75 341.0625 C-1239.729375 340.38509766 -1239.70875 339.70769531 -1239.6875 339.00976562 C-1239.63941582 332.74079079 -1241.20816884 328.20408217 -1245.15625 323.34765625 C-1245.9296875 322.59355469 -1246.703125 321.83945313 -1247.5 321.0625 C-1248.2734375 320.29035156 -1249.046875 319.51820313 -1249.84375 318.72265625 C-1251.93066081 316.68791145 -1251.93066081 316.68791145 -1255 317 Z " fill="#FEFEFE" transform="translate(5013,2019)"/>
<path d="M0 0 C2.32574272 1.80057501 2.84166078 3.16467981 3.3828125 6.01953125 C3.73033591 10.45423211 3.26065136 13.30998067 0.4375 16.8125 C-5.68398946 22.99080142 -13.96949152 26.02664026 -22 29 C-22.66 29 -23.32 29 -24 29 C-24 29.66 -24 30.32 -24 31 C-22.186287 30.35758106 -20.37405876 29.71096881 -18.5625 29.0625 C-17.55316406 28.70285156 -16.54382812 28.34320312 -15.50390625 27.97265625 C-13.09686255 27.23122361 -13.09686255 27.23122361 -12 26 C-9.66702567 25.95907063 -7.33294775 25.95758277 -5 26 C-5 26.99 -5 27.98 -5 29 C-4.43152344 28.6390625 -3.86304687 28.278125 -3.27734375 27.90625 C1.79303114 24.85894623 5.07906443 23.37011324 11 24 C12.24366879 27.50634363 11.77319619 29.31540953 10.3125 32.6875 C9.93867188 33.56792969 9.56484375 34.44835938 9.1796875 35.35546875 C8.44276683 37.00743992 7.69908861 38.65643263 6.9453125 40.30078125 C5.17020146 44.17437628 3.71377809 47.87410408 2.625 52 C0.34400818 59.72009749 -3.20429397 65.29996177 -10.23046875 69.44140625 C-12.20565185 70.50155892 -14.19183527 71.54142496 -16.1875 72.5625 C-18.2591214 73.67614619 -20.32817385 74.79458541 -22.39453125 75.91796875 C-23.37244629 76.44696777 -24.35036133 76.9759668 -25.35791016 77.52099609 C-30.24304213 80.25562273 -34.63101294 83.50326654 -39 87 C-40.58290603 88.2297169 -42.1662308 89.45889499 -43.75 90.6875 C-44.471875 91.25597656 -45.19375 91.82445312 -45.9375 92.41015625 C-47.83945887 93.87624955 -49.77553339 95.25904357 -51.75 96.625 C-54.04330449 98.22818971 -55.73084776 99.73084776 -57.75 101.75 C-60 104 -60 104 -63 105 C-63.27199219 105.57621094 -63.54398438 106.15242188 -63.82421875 106.74609375 C-65.48592629 109.93149326 -68.06966946 111.83792407 -70.8125 114.0625 C-71.9898114 115.03618264 -73.16688794 116.01014931 -74.34375 116.984375 C-74.94832031 117.48130859 -75.55289063 117.97824219 -76.17578125 118.49023438 C-77.95419244 119.96208861 -79.71448511 121.45260914 -81.46875 122.953125 C-82.31022583 123.67230103 -82.31022583 123.67230103 -83.16870117 124.40600586 C-83.71115479 124.87014893 -84.2536084 125.33429199 -84.8125 125.8125 C-89.40846825 129.74255824 -94.14138209 133.40130052 -99 137 C-100.33401455 137.99909106 -101.66735265 138.99908601 -103 140 C-108.33333333 144 -113.66666667 148 -119 152 C-119.99084595 152.74334595 -119.99084595 152.74334595 -121.00170898 153.50170898 C-122.3287986 154.49674246 -123.65643151 155.49105179 -124.98461914 156.48461914 C-129.82425371 160.10706452 -134.63710717 163.7632398 -139.4375 167.4375 C-140.18467285 168.00879639 -140.9318457 168.58009277 -141.70166016 169.16870117 C-145.44145145 172.03081962 -149.17029448 174.90500959 -152.875 177.8125 C-156.88204712 180.94276522 -160.99194428 183.92095835 -165.11328125 186.8984375 C-168.09740858 189.0709145 -171.05121413 191.27982746 -174 193.5 C-177.78632216 196.35070587 -181.59370536 199.16483536 -185.4375 201.9375 C-190.08097258 205.29817152 -194.62452617 208.77223948 -199.1550293 212.28222656 C-203.52380299 215.65771327 -207.97500398 218.90755345 -212.453125 222.13671875 C-215.58673318 224.42925112 -218.6348165 226.82021297 -221.6875 229.21875 C-225.17163732 231.90247739 -228.74748457 234.45651664 -232.3125 237.03125 C-234.74468787 238.81296902 -237.1294823 240.63745038 -239.5 242.5 C-244.56519101 246.47464277 -249.77902538 250.23369693 -255 254 C-262.53466143 259.45294367 -262.53466143 259.45294367 -270 265 C-276.91980115 270.207396 -283.92642275 275.28032345 -291.0625 280.1875 C-298.68543614 285.42999272 -306.16406428 290.86885743 -313.65185547 296.30175781 C-315.98260147 297.98741691 -318.32014664 299.66316744 -320.66015625 301.3359375 C-329.39477637 307.58856379 -337.9468998 314.00369389 -346.34863281 320.69580078 C-349.10334102 322.87138494 -351.89731267 324.99525595 -354.6875 327.125 C-359.52732466 330.83139317 -364.2766059 334.63430325 -368.98046875 338.51171875 C-378.22399007 346.1289543 -387.50293704 353.70029671 -397 361 C-398.43772387 362.12471388 -399.8752159 363.24972419 -401.3125 364.375 C-406.81964955 368.6572669 -412.40062074 372.83935014 -418 377 C-418.7425 377.55558594 -419.485 378.11117187 -420.25 378.68359375 C-424.75956091 382 -424.75956091 382 -427 382 C-427 382.66 -427 383.32 -427 384 C-428.8359375 385.48046875 -428.8359375 385.48046875 -431.375 387.1875 C-432.29023438 387.81011719 -433.20546875 388.43273438 -434.1484375 389.07421875 C-435.08945313 389.70972656 -436.03046875 390.34523438 -437 391 C-438.66907581 392.16321745 -440.3358191 393.32979026 -442 394.5 C-443.24330078 395.37011719 -443.24330078 395.37011719 -444.51171875 396.2578125 C-446.13981478 397.39773531 -447.76743821 398.53833349 -449.39453125 399.6796875 C-456.80295297 404.87396057 -464.24416369 410.02057408 -471.68652344 415.16601562 C-477.07108341 418.88921514 -482.45532651 422.61243668 -487.8125 426.375 C-496.84619506 432.70593101 -505.91982678 438.98314764 -515.125 445.0625 C-520.07322626 448.34346193 -524.90935343 451.75908422 -529.72802734 455.22558594 C-533.5393997 457.96543368 -537.38045415 460.65492512 -541.25 463.3125 C-547.48241384 467.60542959 -553.61491213 472.03010804 -559.73339844 476.48364258 C-563.76750221 479.41432138 -567.84324454 482.24433275 -572 485 C-573.75726917 486.26076264 -575.50735303 487.5316023 -577.25 488.8125 C-582.45242398 492.61265336 -587.70794662 496.32604861 -593 500 C-593.98613281 500.68835937 -594.97226563 501.37671875 -595.98828125 502.0859375 C-602.481125 506.60476648 -609.02500864 511.03572384 -615.61938477 515.4050293 C-619.16245138 517.75743458 -622.66192732 520.15538577 -626.125 522.625 C-630.90894063 526.0079863 -635.88331125 529.04038511 -640.88671875 532.0859375 C-646.23669397 535.3751318 -651.44045483 538.8429257 -656.5 542.5625 C-658.90185135 544.29444723 -661.33303453 545.7794147 -663.9375 547.1875 C-668.26771366 549.52875111 -672.40732331 552.11609297 -676.5625 554.75 C-682.75717843 558.67002416 -689.05699703 562.32673185 -695.47070312 565.87475586 C-699.84059097 568.30640456 -704.02342694 570.90848534 -708.14453125 573.74609375 C-710.33959405 575.22949408 -712.62474194 576.52618706 -714.9375 577.81640625 C-720.03732486 580.74301029 -725.00711453 583.89552438 -730 587 C-730.95648437 587.59167969 -731.91296875 588.18335937 -732.8984375 588.79296875 C-739.48364499 592.91579923 -745.76547289 597.36700279 -752 602 C-752.69867187 602.50273437 -753.39734375 603.00546875 -754.1171875 603.5234375 C-762.30470442 609.47500603 -769.79368329 616.4080302 -776.6875 623.8125 C-778 625 -778 625 -780 625 C-780.226875 625.70125 -780.45375 626.4025 -780.6875 627.125 C-781.95907517 629.91035513 -783.47509717 631.75159831 -785.46362305 634.04150391 C-792.77476169 643.36137586 -798.03153285 654.46780543 -803.50268555 664.92138672 C-807.66398545 672.85518092 -812.10424143 680.49465538 -817 688 C-818.39232408 690.23988636 -819.75711606 692.49499468 -821.125 694.75 C-823.21625586 698.16692672 -825.30764735 701.52712745 -827.6875 704.75 C-829.96874639 707.95607601 -831.8337926 711.20323395 -833.7109375 714.65234375 C-838.25788405 722.93329792 -843.42047372 730.85779033 -848.47265625 738.83520508 C-852.70603327 745.52255234 -856.87473873 752.2452783 -861 759 C-861.84889568 760.38805915 -862.69785828 761.77607738 -863.546875 763.1640625 C-867.30100994 769.30346951 -871.05263056 775.44439906 -874.796875 781.58984375 C-879.67740638 789.59546186 -884.59572839 797.57453526 -889.57788086 805.51733398 C-892.2701262 809.81508146 -894.90806501 814.1408366 -897.5 818.5 C-899.34767741 821.57946235 -901.23628089 824.63313434 -903.125 827.6875 C-906.13105222 832.55327861 -906.13105222 832.55327861 -909 837.5 C-911.13088132 841.29650471 -913.43955533 844.98163602 -915.72875977 848.68408203 C-919.49964485 854.79162299 -923.18423775 860.94982109 -926.86767578 867.11035156 C-927.96905716 868.94836189 -929.07538425 870.78328756 -930.18359375 872.6171875 C-934.84491935 880.33916888 -939.39689481 888.11858363 -943.90258789 895.93237305 C-948.18153036 903.34144271 -952.57507115 910.6774846 -957 918 C-958.00073026 919.66622829 -959.00080527 921.33285044 -960 923 C-960.46535156 923.77085937 -960.93070313 924.54171875 -961.41015625 925.3359375 C-962.66386504 927.43674682 -963.89675189 929.54619432 -965.12109375 931.6640625 C-975.34628801 949.22533796 -975.34628801 949.22533796 -983 954 C-985.359375 954.29296875 -985.359375 954.29296875 -987.75 954.1875 C-988.54921875 954.16042969 -989.3484375 954.13335938 -990.171875 954.10546875 C-991.07679688 954.05326172 -991.07679688 954.05326172 -992 954 C-993.06351675 950.61608307 -993.21442982 949.4195366 -991.5625 946.1875 C-991.046875 945.465625 -990.53125 944.74375 -990 944 C-995.66429439 948.17764108 -995.66429439 948.17764108 -1001.0625 952.6875 C-1008.27873603 958.36836666 -1015.04503764 958.67018554 -1024 959 C-1025.794375 959.07927734 -1025.794375 959.07927734 -1027.625 959.16015625 C-1036.43663018 959.38634765 -1036.43663018 959.38634765 -1038.703125 957.83203125 C-1044.57051954 949.54345282 -1046.9431665 939.422076 -1045.5625 929.4375 C-1043.08813036 918.78256134 -1037.12541308 908.3890044 -1031.3671875 899.19140625 C-1028.69508457 894.90840698 -1026.31110102 890.44994059 -1023.9296875 886 C-1019.65642741 878.11090445 -1014.79323816 870.57917094 -1010 863 C-1009.42378906 862.08476562 -1008.84757812 861.16953125 -1008.25390625 860.2265625 C-1003.8248616 853.22403306 -999.29181644 846.28888315 -994.77172852 839.3449707 C-990.8089757 833.25421102 -986.88393686 827.14135193 -983 821 C-981.83384553 819.16634082 -980.66716567 817.33301569 -979.5 815.5 C-978.9225 814.5925 -978.345 813.685 -977.75 812.75 C-976 810 -974.25 807.25 -972.5 804.5 C-971.92121094 803.58992188 -971.34242188 802.67984375 -970.74609375 801.7421875 C-969.5944743 799.93360393 -968.44087123 798.1262817 -967.28515625 796.3203125 C-963.52023169 790.42961421 -959.83176709 784.49643013 -956.1796875 778.53515625 C-954.61690461 775.99147771 -953.03595453 773.45994255 -951.4453125 770.93359375 C-951.00807861 770.23838623 -950.57084473 769.54317871 -950.12036133 768.8269043 C-949.27841902 767.4898867 -948.43464964 766.154017 -947.58862305 764.81958008 C-945.00870307 760.71945373 -942.60756486 756.54841476 -940.2746582 752.30322266 C-938.13651957 748.43974826 -935.90775232 744.62917794 -933.6875 740.8125 C-929.0923822 732.89325443 -924.52237194 724.96104184 -920 717 C-919.56429687 716.24203125 -919.12859375 715.4840625 -918.6796875 714.703125 C-914.47632591 707.29852776 -910.77745813 699.62729456 -907 692 C-905.56492999 689.10295242 -904.12702365 686.20733671 -902.6875 683.3125 C-902.36225342 682.6537085 -902.03700684 681.99491699 -901.7019043 681.31616211 C-899.94293169 677.77948985 -898.08495882 674.35517988 -896 671 C-897.03253906 671.23074219 -898.06507813 671.46148438 -899.12890625 671.69921875 C-909.94879737 674.11299309 -920.77151462 676.51437189 -931.61328125 678.828125 C-934.73058838 679.49554083 -937.8297528 680.19366048 -940.91796875 680.984375 C-956.46657088 684.70901189 -975.18629052 685.68583348 -990 679 C-990.89460938 678.62617188 -991.78921875 678.25234375 -992.7109375 677.8671875 C-1010.86671982 669.63438531 -1022.51949002 649.69942094 -1030 632 C-1031.56158221 627.38203154 -1032.8415795 622.73392992 -1034 618 C-1034.226875 617.08992188 -1034.45375 616.17984375 -1034.6875 615.2421875 C-1037.90032183 601.00760188 -1034.94655456 587.84717276 -1028.08984375 575.11328125 C-1026.57234393 572.17074576 -1025.81490131 569.20527847 -1025 566 C-1020.56723407 549.40442311 -1013.44579495 538.28092854 -999 529 C-997.91460938 528.30261719 -996.82921875 527.60523437 -995.7109375 526.88671875 C-981.59475367 517.9781341 -981.59475367 517.9781341 -976.21875 518.0234375 C-972.37408847 519.71563007 -971.78688287 522.92634518 -970.26171875 526.640625 C-962.64988286 546.90743262 -961.65659457 564.67853441 -961.61914062 586.17553711 C-961.60960102 589.43641402 -961.57584338 592.69636349 -961.5390625 595.95703125 C-961.54663071 597.44164604 -961.54663071 597.44164604 -961.55435181 598.95625305 C-961.46774786 605.08399209 -960.71529663 609.98211911 -957 615 C-954.19836229 617.39709398 -952.85911327 618.00706446 -949.17944336 617.97680664 C-948.15987549 617.78981201 -947.14030762 617.60281738 -946.08984375 617.41015625 C-944.37196655 617.10368164 -944.37196655 617.10368164 -942.61938477 616.79101562 C-941.40436279 616.55060547 -940.18934082 616.31019531 -938.9375 616.0625 C-937.06179321 615.70768555 -937.06179321 615.70768555 -935.14819336 615.34570312 C-919.90903512 612.35545139 -905.36249752 607.89819898 -891 602 C-890.03320312 601.62359375 -889.06640625 601.2471875 -888.0703125 600.859375 C-873.59037583 595.09812699 -860.55845102 587.29835981 -848.1875 577.875 C-847.63562012 577.45492676 -847.08374023 577.03485352 -846.51513672 576.60205078 C-844.10834826 574.7412229 -841.87097542 572.86852418 -839.73828125 570.6953125 C-838 569 -838 569 -836 569 C-835.75636719 568.43539062 -835.51273438 567.87078125 -835.26171875 567.2890625 C-833.76470019 564.57310932 -831.94366063 562.62720762 -829.8125 560.375 C-821.66462913 551.46979498 -815.47167225 541.39403451 -809.71875 530.82421875 C-804.9722937 522.11446678 -800.09555196 513.80678681 -794.26855469 505.76464844 C-792.80851859 503.73363595 -791.37610279 501.68452851 -789.9453125 499.6328125 C-788.88034625 498.10927859 -787.81524321 496.58584028 -786.75 495.0625 C-786.2545166 494.352146 -785.7590332 493.64179199 -785.24853516 492.90991211 C-782.33335404 488.76855072 -779.26486677 484.87027253 -776 481 C-774.8161115 479.40850076 -773.64920472 477.80422209 -772.5 476.1875 C-769.96665676 472.66305874 -767.38890918 469.18815258 -764.734375 465.75390625 C-764.16009766 465.01052002 -763.58582031 464.26713379 -762.99414062 463.5012207 C-761.8558967 462.03205116 -760.71412408 460.56560678 -759.56835938 459.10229492 C-756.30479941 454.88620559 -753.54953009 450.6824703 -751 446 C-745.21752521 436.19493406 -739.11824682 426.59750736 -733 417 C-731.83316556 415.16677344 -730.66649743 413.33344102 -729.5 411.5 C-728.95432373 410.64253174 -728.40864746 409.78506348 -727.84643555 408.90161133 C-726.68777402 407.08081372 -725.52922768 405.2599428 -724.37084961 403.43896484 C-721.42861982 398.8141596 -718.48432118 394.19069884 -715.53515625 389.5703125 C-709.86695503 380.6851761 -704.21700166 371.79470973 -698.72265625 362.80078125 C-696.44754964 359.1017984 -694.10588442 355.44703555 -691.765625 351.7890625 C-689.8961227 348.83591064 -688.07104496 345.85825658 -686.25 342.875 C-683.00221163 337.58230784 -679.68024103 332.3421638 -676.3125 327.125 C-675.86100586 326.42358887 -675.40951172 325.72217773 -674.94433594 324.99951172 C-673.64263941 322.99062056 -672.32723979 320.99209917 -671 319 C-670.5467334 318.31905273 -670.0934668 317.63810547 -669.62646484 316.93652344 C-668.47162957 315.25268819 -667.24193992 313.62065755 -666 312 C-665.34 312 -664.68 312 -664 312 C-663.71785645 311.27796387 -663.43571289 310.55592773 -663.14501953 309.81201172 C-655.80203705 291.77864877 -646.17259801 274.67744563 -636.71508789 257.69238281 C-630.02439158 245.66688211 -623.72580173 233.56837651 -617.95703125 221.07128906 C-616.74829297 218.45523406 -615.52779702 215.84476461 -614.30688477 213.234375 C-613.44145919 211.38346763 -612.57783839 209.53172942 -611.71484375 207.6796875 C-610.27030102 204.57964771 -608.82447477 201.48020945 -607.37792969 198.38110352 C-606.79116283 197.12386251 -606.20457517 195.86653784 -605.61816406 194.60913086 C-604.20060055 191.56986525 -602.78032548 188.53195239 -601.35546875 185.49609375 C-600.80503906 184.32175781 -600.25460937 183.14742187 -599.6875 181.9375 C-599.26488892 181.03753296 -599.26488892 181.03753296 -598.83374023 180.11938477 C-597.05555428 176.31526889 -595.32303258 172.49338525 -593.6171875 168.65625 C-580.85570729 140.0192324 -580.85570729 140.0192324 -575.51953125 136.24609375 C-571.7614076 132.89582848 -570.69539928 128.84559536 -569 124.1875 C-564.56836374 112.71575685 -558.84897542 102.30097512 -552.60791016 91.72802734 C-551.08035017 89.13632445 -549.57300321 86.53420825 -548.07421875 83.92578125 C-543.22399611 75.48792015 -538.30486119 67.09104824 -533.34692383 58.71606445 C-531.3201474 55.28403463 -529.35785707 51.83983003 -527.5 48.3125 C-524.2910407 42.53637325 -520.52385486 37.20819194 -516.49267578 31.98681641 C-515.4645706 30.61836368 -514.47234937 29.22245513 -513.51123047 27.80615234 C-509.14323726 21.41346256 -504.71042919 15.04747999 -496.79638672 13.28759766 C-487.46043383 12.41061138 -478.04528802 13.08148589 -468.82421875 14.71484375 C-467.89222656 14.80894531 -466.96023438 14.90304687 -466 15 C-463.75808599 12.67678298 -463.75808599 12.67678298 -462 10 C-460 9 -460 9 -458 9 C-455.91015625 10.19921875 -455.91015625 10.19921875 -454 12 C-452.10952079 19.36635004 -454.92851264 26.50650714 -457.5703125 33.3125 C-459.03535462 37.09118786 -460.3147836 40.89625665 -461.5625 44.75 C-463.24334731 49.83996395 -465.07197625 54.81347794 -467.109375 59.76953125 C-468.22768707 62.57021631 -469.16253747 65.41133105 -470.09765625 68.27734375 C-473.60852587 78.87074687 -477.42795259 89.33013041 -481.640625 99.6640625 C-482.74394841 102.37164351 -483.81492245 105.08791473 -484.875 107.8125 C-488.00491536 115.64383635 -491.54268354 123.30934688 -495 131 C-495.66708984 132.48886719 -495.66708984 132.48886719 -496.34765625 134.0078125 C-497.55211403 136.67803415 -498.77314061 139.33999513 -500 142 C-500.27247559 142.59538574 -500.54495117 143.19077148 -500.82568359 143.80419922 C-506.1535738 155.42319777 -511.95809094 166.73807395 -518 178 C-518.81742676 179.52802246 -518.81742676 179.52802246 -519.65136719 181.08691406 C-531.40693931 203.05386634 -543.40466497 224.85977329 -556.06933594 246.31689453 C-559.32655638 251.83973699 -562.5437923 257.38491384 -565.75 262.9375 C-571.08498371 272.16635046 -576.50086557 281.30767702 -582.2890625 290.26171875 C-583.91400746 292.86237266 -585.44451185 295.50452715 -586.95556641 298.17260742 C-588.71345885 301.24830283 -590.54642976 304.27847481 -592.375 307.3125 C-592.7671167 307.96476562 -593.1592334 308.61703125 -593.56323242 309.2890625 C-595.29942151 312.17689638 -597.03810119 315.06322286 -598.77734375 317.94921875 C-599.28394531 318.79097656 -599.79054688 319.63273437 -600.3125 320.5 C-600.74175781 321.2115625 -601.17101563 321.923125 -601.61328125 322.65625 C-603.44418949 325.75074279 -605.22060847 328.87574376 -607 332 C-607.64839844 333.13179687 -608.29679687 334.26359375 -608.96484375 335.4296875 C-612.206749 341.09178736 -615.43958724 346.75715797 -618.59375 352.46875 C-620.52580842 355.94645516 -622.4832862 359.40970933 -624.4375 362.875 C-626.95268852 367.33558163 -629.44795797 371.80312626 -631.875 376.3125 C-634.67223107 381.46159295 -637.57694094 386.54663809 -640.5 391.625 C-640.95101074 392.41302002 -641.40202148 393.20104004 -641.86669922 394.01293945 C-646.15693828 401.43370508 -650.63155589 408.62733372 -656.25 415.125 C-664.19816958 424.68952004 -670.67077435 435.32249561 -677.12109375 445.9296875 C-679.47695127 449.77938399 -681.91103509 453.57582618 -684.359375 457.3671875 C-685.59294353 459.34677128 -686.749949 461.37438352 -687.8671875 463.421875 C-689.96826253 467.12888645 -692.55387762 470.19916941 -695.375 473.375 C-703.43149468 482.21822107 -703.43149468 482.21822107 -708 493 C-707.23558594 492.46632813 -706.47117187 491.93265625 -705.68359375 491.3828125 C-699.10392619 486.80634096 -692.48317919 482.30369047 -685.80273438 477.87573242 C-681.14455428 474.781183 -676.53530075 471.62089162 -671.9375 468.4375 C-665.74413824 464.15447233 -659.46300045 460.03484159 -653.11328125 455.98828125 C-647.44401314 452.36763198 -641.8728142 448.62550837 -636.375 444.75 C-632.25170705 441.84842348 -628.07625251 439.03654503 -623.875 436.25 C-617.28848835 431.87867912 -610.76456562 427.42252938 -604.2578125 422.93359375 C-599.55702028 419.69086638 -594.8405869 416.47115548 -590.125 413.25 C-583.72169251 408.8728706 -577.34029771 404.46807212 -571 400 C-569.47939053 398.93717965 -567.95854525 397.8746966 -566.4375 396.8125 C-564.62455487 395.54230176 -562.81212335 394.27137036 -561 393 C-560.38737305 392.57058105 -559.77474609 392.14116211 -559.14355469 391.69873047 C-546.92815714 383.13029137 -534.83965808 374.40663498 -522.91796875 365.43359375 C-515.03070643 359.5382266 -506.99527126 353.85469284 -498.92602539 348.21240234 C-495.18117632 345.58384393 -491.55370862 342.8849703 -488 340 C-485.23939486 337.8616265 -482.46306601 335.74390176 -479.6875 333.625 C-478.96626953 333.07328125 -478.24503906 332.5215625 -477.50195312 331.953125 C-473.92088922 329.21674254 -470.33087018 326.49346909 -466.72265625 323.79296875 C-464.04173546 321.78632115 -461.38217846 319.75793305 -458.75 317.6875 C-453.22788435 313.37662561 -447.61184053 309.19291751 -442 305 C-440.70294326 304.02758611 -439.4060798 303.0549144 -438.109375 302.08203125 C-435.46657991 300.09922981 -432.82214038 298.11866689 -430.17578125 296.140625 C-422.7634551 290.59655403 -415.38264074 285.01688419 -408.0625 279.3515625 C-405.77051529 277.59164567 -403.46977223 275.848356 -401.15625 274.1171875 C-396.91367951 270.94231714 -392.70489731 267.72452053 -388.5 264.5 C-384.30659729 261.2842941 -380.10939955 258.07567997 -375.875 254.9140625 C-372.36988051 252.29124247 -368.92774079 249.59770809 -365.5 246.875 C-360.33303898 242.78870594 -355.09809657 238.80639396 -349.8125 234.875 C-344.27290383 230.75346127 -338.89008439 226.49541068 -333.578125 222.08203125 C-330.05026569 219.23301759 -326.37578533 216.61018251 -322.69140625 213.96875 C-319.26873353 211.4650823 -315.9693118 208.82735853 -312.6796875 206.15234375 C-308.82291103 203.0545539 -304.90875732 200.03177721 -301 197 C-299.49981726 195.83356832 -297.99981463 194.66690496 -296.5 193.5 C-293.5 191.16666667 -290.5 188.83333333 -287.5 186.5 C-286.76281738 185.92644775 -286.02563477 185.35289551 -285.26611328 184.76196289 C-283.71313294 183.55447969 -282.15938279 182.3479861 -280.60498047 181.14233398 C-276.74923504 178.14992812 -272.91192822 175.14190605 -269.125 172.0625 C-264.73049115 168.53326654 -260.21069376 165.21360597 -255.63671875 161.921875 C-253.30199042 160.22011746 -251.01893431 158.47540321 -248.75 156.6875 C-244.68680477 153.49708497 -240.54192501 150.42771662 -236.375 147.375 C-235.75334961 146.91955811 -235.13169922 146.46411621 -234.49121094 145.99487305 C-232.66352799 144.65946347 -230.83230468 143.32905916 -229 142 C-228.38318359 141.54963379 -227.76636719 141.09926758 -227.13085938 140.63525391 C-224.08610977 138.4298457 -221.08736975 136.37252038 -217.75 134.625 C-206.07900714 128.2842229 -195.11235576 120.65378906 -184.8125 112.28515625 C-183 111 -183 111 -181 111 C-181 110.34 -181 109.68 -181 109 C-179.59334152 108.01512817 -178.17917977 107.03922151 -176.72900391 106.11962891 C-173.92758745 104.30555155 -171.31916723 102.2358064 -168.6875 100.1875 C-167.83720215 99.52947388 -167.83720215 99.52947388 -166.96972656 98.8581543 C-165.31156263 97.57413415 -163.65550628 96.28744393 -162 95 C-161.16597656 94.35289063 -160.33195312 93.70578125 -159.47265625 93.0390625 C-156.58832136 90.7985071 -153.70603476 88.5556519 -150.8359375 86.296875 C-145.87265605 82.40341747 -140.81237484 78.67058601 -135.69921875 74.9765625 C-132.44388735 72.59277424 -129.26508748 70.12166786 -126.08984375 67.6328125 C-119.67241365 62.61882038 -113.07236455 57.84565983 -106.50073242 53.03710938 C-103.21276732 50.62969484 -99.93571782 48.21097155 -96.6875 45.75 C-94.06158455 43.76943666 -91.39240379 41.87120057 -88.6875 40 C-83.55092912 36.43227325 -78.52830206 32.71764867 -73.5 29 C-71.82564622 27.76805873 -70.15117029 26.53628346 -68.4765625 25.3046875 C-66.0177614 23.49522836 -63.57399804 21.67437111 -61.1484375 19.8203125 C-48.84401061 10.6448464 -34.86251133 5.96200189 -20.08105469 2.50830078 C-17.270545 1.8218295 -14.51632666 0.97005595 -11.75 0.125 C-7.37551632 -1.06371839 -4.3585498 -1.36204681 0 0 Z " fill="#FEFEFE" transform="translate(3585,1681)"/>
<path d="M0 0 C0.80131348 -0.02143066 1.60262695 -0.04286133 2.42822266 -0.06494141 C7.35120568 -0.09289525 10.82566971 0.3619459 15 3.25 C20.05220189 8.52993052 19.65532324 14.21895118 19.5625 21.125 C19.55444336 22.23746094 19.54638672 23.34992187 19.53808594 24.49609375 C19.31325806 33.84676646 17.58849453 41.66656927 14 50.25 C13.49919922 51.54550781 13.49919922 51.54550781 12.98828125 52.8671875 C2.9160277 77.43158645 -18.04283611 93.92987648 -40.16162109 107.14941406 C-41.80964151 108.13603771 -43.44660977 109.14106761 -45.08203125 110.1484375 C-52.78254843 114.80456417 -60.81991698 118.58852568 -68.99267578 122.32421875 C-70.77334365 123.14546571 -72.54194857 123.99275681 -74.30859375 124.84375 C-107.98157423 140.97246422 -146.23258213 150.13194987 -183.26513672 153.94677734 C-188.02610305 154.47464024 -192.7612963 155.17824232 -197.5 155.875 C-199.1561812 156.11765753 -200.81242735 156.35987238 -202.46875 156.6015625 C-203.15388672 156.70291504 -203.83902344 156.80426758 -204.54492188 156.90869141 C-205.35509766 157.02132324 -206.16527344 157.13395508 -207 157.25 C-208.08555176 157.42418457 -209.17110352 157.59836914 -210.28955078 157.77783203 C-217.11794909 158.61648528 -224.0288579 158.4358678 -230.8984375 158.453125 C-232.04524931 158.45736607 -232.04524931 158.45736607 -233.21522903 158.46169281 C-237.26897773 158.47663088 -241.32269139 158.48589178 -245.37646484 158.49023438 C-249.5088664 158.4956821 -253.64093233 158.5196466 -257.7732296 158.54820633 C-260.99769947 158.56708299 -264.22209292 158.57205158 -267.44661331 158.57357025 C-268.96685221 158.57654611 -270.48709151 158.58439642 -272.00727463 158.59775543 C-302.04859435 158.84271018 -335.40026807 151.1630072 -362 137.25 C-363.27810547 136.63705078 -363.27810547 136.63705078 -364.58203125 136.01171875 C-383.87677138 126.71915564 -401.59691468 112.55324774 -413 94.25 C-413.433125 93.63511719 -413.86625 93.02023438 -414.3125 92.38671875 C-424.34495109 77.74561044 -430.06551799 55.89615372 -428 38.25 C-427.03844914 33.38661879 -425.16840341 29.36940151 -421.0625 26.3515625 C-413.94489763 22.55011578 -405.88382514 19.85669594 -398 22.25 C-393.63975855 25.93045577 -391.50761889 29.74888285 -389.1875 34.8125 C-377.96862684 58.04478408 -361.86878014 72.71546941 -337.48144531 81.41650391 C-320.23866277 87.20820595 -303.13045847 89.61182626 -285 90.25 C-284.07010254 90.28319336 -283.14020508 90.31638672 -282.18212891 90.35058594 C-275.7785671 90.53861875 -269.40217289 90.4497359 -263 90.25 C-261.96198242 90.22486328 -260.92396484 90.19972656 -259.85449219 90.17382812 C-244.10568778 89.71707085 -229.02431563 87.59742381 -213.625 84.4375 C-212.80564972 84.2710498 -211.98629944 84.10459961 -211.14212036 83.93310547 C-200.46271841 81.73692677 -190.27897681 78.88412374 -180 75.25 C-178.00175924 74.59874386 -176.00204494 73.95196599 -174 73.3125 C-144.15691857 63.29857654 -117.26370471 47.73775792 -91.5625 29.75 C-71.31873175 15.72396057 -48.98112989 3.45326437 -24 1.25 C-22.93394531 1.14171875 -21.86789062 1.0334375 -20.76953125 0.921875 C-13.85815612 0.31742792 -6.93477074 0.10258931 0 0 Z " fill="#FEFEFE" transform="translate(4540,2343.75)"/>
<path d="M0 0 C1.71875 1.2421875 1.71875 1.2421875 3 3 C3.83299641 9.85920484 0.88164367 15.98465978 -1.85546875 22.08203125 C-3.43726731 26.11480779 -3.7845937 29.69187391 -4 34 C-3.195625 33.195625 -2.39125 32.39125 -1.5625 31.5625 C2 28 2 28 3.84765625 27.90234375 C5.8984375 27.93489583 7.94921875 27.96744792 10 28 C11.24502747 30.49005493 11.06272068 32.01175502 10.96020508 34.79174805 C10.92392502 35.78511673 10.88764496 36.77848541 10.8502655 37.80195618 C10.8029982 38.88180283 10.7557309 39.96164948 10.70703125 41.07421875 C10.63582817 42.75568245 10.63582817 42.75568245 10.56318665 44.47111511 C10.01351833 56.29464234 8.89124681 68.04082903 7.6875 79.8125 C7.23408274 84.35127599 6.78530632 88.89050917 6.3359375 93.4296875 C6.22310928 94.56174118 6.11028107 95.69379486 5.99403381 96.8601532 C5.23871605 104.46841215 4.52760938 112.07961635 3.8515625 119.6953125 C3.71784996 121.19788857 3.71784996 121.19788857 3.58143616 122.7308197 C3.24264209 126.54891068 2.90498141 130.36707614 2.57504272 134.1859436 C1.18332075 150.28368124 1.18332075 150.28368124 0.05078125 157.16796875 C-1.49133378 166.56329521 -2.33887602 176.04918614 -3.28710938 185.51904297 C-3.62361172 188.86121145 -3.97173661 192.20204073 -4.3203125 195.54296875 C-6.68242668 215.89918998 -6.68242668 215.89918998 -4.52148438 236.12109375 C-3.81768565 240.00648447 -3.59145373 243.87418748 -3.359375 247.8125 C-3.31106033 248.62235855 -3.26274567 249.4322171 -3.21296692 250.26661682 C-3.11217632 251.9663105 -3.01170508 253.66602314 -2.91152954 255.36575317 C-1.53081917 277.88257519 0.21389125 300.7073507 13 320 C13.51949219 320.85207031 14.03898437 321.70414063 14.57421875 322.58203125 C19.66819392 330.11392905 28.43412861 335.8749866 36.875 339.09765625 C37.57625 339.39542969 38.2775 339.69320312 39 340 C39.875 342.5 39.875 342.5 40 345 C39.67 345.66 39.34 346.32 39 347 C39.55816406 347.05671875 40.11632813 347.1134375 40.69140625 347.171875 C44.05592063 348.37877356 45.61143893 350.56911605 47.9375 353.25 C50.41780395 356.08682368 52.8779819 358.8779819 55.54296875 361.54296875 C65.72409375 371.72409375 76.07665044 384.62178853 76.5 399.5625 C76.38916549 405.28677656 76.38916549 405.28677656 74.97265625 407.8828125 C69.78025115 412.68686597 62.1795677 412.94237121 55.5 413.4375 C51.04024278 413.77912486 47.35750116 414.77813013 43.17578125 416.30078125 C39.49572351 417.48342099 35.84235591 417.77782296 32 418 C31.24203125 418.06445312 30.4840625 418.12890625 29.703125 418.1953125 C15.05578762 418.91331923 -0.64189392 411.69819125 -11.6875 402.3125 C-14.39968546 399.73475477 -16.72862751 396.97628119 -19 394 C-20.6454378 392.31237149 -22.31288577 390.6459651 -24 389 C-25.66666667 387.33333333 -27.33333333 385.66666667 -29 384 C-29.54785156 383.47535156 -30.09570312 382.95070313 -30.66015625 382.41015625 C-34.95829233 378.24427051 -38.55115809 373.88518313 -42 369 C-42.70253906 368.01773438 -43.40507812 367.03546875 -44.12890625 366.0234375 C-56.86034492 348.06549418 -64.55752348 330.49665028 -69 309 C-69.15597656 308.27393555 -69.31195312 307.54787109 -69.47265625 306.79980469 C-74.5099658 282.89527491 -74.43065042 257.33318236 -75 233 C-75.02336426 232.0095166 -75.04672852 231.0190332 -75.07080078 229.99853516 C-75.65277946 200.47412089 -74.82577099 170.15946514 -70 141 C-69.74751261 139.40643735 -69.49620622 137.81268712 -69.24609375 136.21875 C-68.87686976 133.8735611 -68.50477031 131.52911023 -68.12084961 129.1862793 C-67.28437371 124.03744925 -66.60209883 118.88352376 -65.9765625 113.70507812 C-64.49339822 101.50193201 -62.19443167 89.59222814 -59.55810547 77.58984375 C-58.83537054 74.23605015 -58.19838362 70.87131196 -57.5625 67.5 C-57.05551961 64.99608017 -56.5372198 62.49739207 -56 60 C-55.80857422 59.10812988 -55.61714844 58.21625977 -55.41992188 57.29736328 C-47.91660785 23.11248858 -47.91660785 23.11248858 -36.390625 14.4453125 C-28.63984452 9.75938313 -20.47629996 5.97691141 -11.98828125 2.82421875 C-4.25819929 -0.38019637 -4.25819929 -0.38019637 0 0 Z " fill="#FEFEFE" transform="translate(3070,2174)"/>
<path d="M0 0 C0.73089844 0.07734375 1.46179687 0.1546875 2.21484375 0.234375 C13.65200034 2.07836954 26.49545177 9.28740254 34 18 C36.65495282 22.49365801 36.5493493 26.42166716 35.46484375 31.51171875 C33.98648747 37.17471191 32.0514731 42.57788526 29.953125 48.03515625 C28.86621685 51.41615333 28.32813652 54.74782688 27.75 58.25 C26.55529278 64.19124671 25.06365601 66.76672672 20.19921875 70.2734375 C16.73499636 72.99312897 14.31142716 76.46979127 11.6640625 79.9609375 C10 82 10 82 8 83 C-4.83612981 84.1772112 -17.34604509 80.10263661 -28 73 C-33.29612951 67.70387049 -34.05387177 61.8346717 -35.1875 54.6875 C-35.35894531 53.61242188 -35.53039063 52.53734375 -35.70703125 51.4296875 C-37.83938581 37.29860769 -39.47013315 20.2866927 -31.45703125 7.546875 C-27.68981412 3.44345313 -23.33141783 1.39080465 -18 0 C-17.0925 -0.2475 -16.185 -0.495 -15.25 -0.75 C-10.10413396 -1.14583585 -5.11365869 -0.61337236 0 0 Z " fill="#FEFEFE" transform="translate(3524,1962)"/>
<path d="M0 0 C8.30585792 5.83482533 14.32645608 14.97617276 16.12890625 24.97265625 C17.71506749 39.44637757 17.52559444 54.55709665 8.53515625 66.6796875 C1.34880785 73.6668104 -8.53535512 75.70291912 -18.27734375 76.1171875 C-24.39862043 75.88884719 -27.83903767 74.26323923 -32.1640625 70.0078125 C-36.30693893 65.20393781 -39.06610024 59.80456258 -41.77734375 54.1171875 C-42.11499756 53.40925049 -42.45265137 52.70131348 -42.80053711 51.97192383 C-44.63445486 47.96495505 -45.97445923 44.09101949 -46.95288086 39.7980957 C-47.5304889 37.40805993 -48.2384336 35.08095509 -48.97265625 32.734375 C-49.23691406 31.88488281 -49.50117188 31.03539062 -49.7734375 30.16015625 C-50.32063809 28.4138271 -50.87277772 26.66903839 -51.4296875 24.92578125 C-54.23159069 15.85755271 -54.23159069 15.85755271 -53.46484375 11.6796875 C-51.3046875 9.046875 -51.3046875 9.046875 -48.40234375 6.5546875 C-47.89646729 6.12019287 -47.39059082 5.68569824 -46.86938477 5.23803711 C-32.93782081 -6.50094551 -16.36283159 -8.76487651 0 0 Z " fill="#FEFEFE" transform="translate(5125.46484375,1834.3203125)"/>
</svg>
