 <svg  version="1.0" xmlns="http://www.w3.org/2000/svg"  width="900.000000pt" height="600.000000pt" viewBox="0 0 900.000000 600.000000"  preserveAspectRatio="xMidYMid meet">  <g transform="translate(0.000000,600.000000) scale(0.100000,-0.100000)" fill="#320107" stroke="none"> <path d="M0 3000 l0 -3000 4500 0 4500 0 0 3000 0 3000 -4500 0 -4500 0 0 -3000z m4218 734 c2 -15 -9 -31 -40 -55 -24 -19 -47 -39 -53 -45 -5 -6 -46 -38 -90 -70 -44 -32 -94 -69 -110 -82 -17 -12 -48 -34 -70 -49 -22 -14 -50 -36 -63 -49 -13 -12 -62 -48 -110 -80 -48 -32 -93 -64 -101 -72 -13 -12 -116 -82 -136 -92 -42 -20 -145 -97 -154 -114 -6 -12 -20 -34 -31 -51 -11 -16 -24 -39 -30 -50 -6 -11 -18 -32 -28 -47 -9 -15 -40 -65 -69 -111 -57 -93 -76 -112 -98 -103 -23 8 -18 42 12 89 37 56 51 79 59 96 4 8 22 37 41 65 46 70 44 76 -25 76 -53 0 -60 3 -80 30 -27 36 -28 67 -3 99 26 34 51 22 51 -23 0 -19 5 -38 12 -42 22 -14 79 -4 109 19 27 19 169 198 169 212 0 4 11 21 24 38 25 34 80 132 168 305 50 99 77 130 98 117 6 -3 10 -13 10 -21 0 -15 -89 -200 -121 -249 -10 -16 -22 -37 -26 -45 -15 -31 -96 -166 -115 -189 -33 -42 -4 -43 58 -2 32 22 203 148 379 280 207 156 327 240 340 238 12 -1 21 -11 23 -23z m1830 -173 c7 -44 -43 -56 -58 -15 -13 33 -4 46 28 42 20 -2 28 -10 30 -27z m-1874 -127 c31 -12 13 -74 -21 -74 -19 0 -32 32 -22 58 9 23 17 26 43 16z m1724 -79 c1 -11 -8 -31 -21 -45 -41 -44 -68 -98 -65 -127 3 -25 8 -29 56 -37 58 -11 67 -27 23 -46 -44 -18 -106 4 -132 47 -24 38 -28 39 -60 14 -38 -29 -120 -75 -164 -90 -48 -17 -87 -16 -126 5 -43 22 -55 54 -35 92 37 72 13 85 -54 30 -29 -24 -60 -48 -69 -53 -9 -6 -35 -23 -58 -38 -72 -46 -103 -33 -103 45 0 41 -3 48 -20 48 -11 0 -25 -9 -32 -21 -19 -29 -146 -122 -195 -142 -31 -12 -49 -14 -68 -7 -30 11 -42 37 -26 53 6 6 11 23 11 37 0 14 7 36 16 48 8 12 14 32 12 45 -2 18 -9 21 -31 19 -30 -3 -117 -52 -187 -106 l-45 -35 0 -68 c-1 -74 -19 -119 -73 -182 -23 -28 -36 -35 -66 -35 -56 0 -81 31 -80 98 0 44 5 60 32 93 18 23 32 48 32 56 0 13 -83 77 -100 77 -6 0 -30 -20 -100 -83 -124 -111 -193 -154 -230 -142 -62 20 -29 182 50 249 59 49 80 27 43 -43 -12 -24 -23 -49 -23 -54 0 -6 -7 -18 -16 -28 -17 -19 -12 -39 10 -39 8 0 20 7 27 16 8 9 50 44 94 77 44 33 87 68 96 76 34 34 96 87 126 109 42 29 103 30 128 2 18 -20 18 -21 -8 -47 -21 -22 -29 -24 -41 -14 -12 10 -20 9 -40 -4 -33 -22 -33 -38 2 -70 50 -46 63 -45 129 15 36 33 75 61 199 138 63 40 111 42 143 8 27 -29 24 -51 -15 -129 -20 -41 -21 -49 -9 -54 19 -7 60 22 170 120 55 49 96 77 110 77 34 0 66 -44 58 -81 -4 -22 -2 -29 11 -29 13 0 132 81 200 136 27 23 79 29 94 12 9 -12 8 -27 -4 -69 -33 -117 -36 -139 -24 -154 10 -12 17 -12 48 2 95 41 252 139 252 158 0 7 20 31 45 54 51 47 97 54 103 16z m-2278 -350 l0 -164 40 -47 c23 -25 39 -51 37 -58 -2 -6 -17 -12 -33 -14 -47 -5 -101 55 -109 122 -14 126 -1 275 27 312 11 13 24 22 29 19 5 -4 9 -80 9 -170z m1740 -44 c0 -22 -9 -36 -37 -58 -74 -57 -116 -68 -249 -67 -108 0 -125 3 -158 23 -46 29 -73 68 -58 83 8 8 23 0 54 -26 l43 -37 80 4 c105 5 139 16 211 65 32 22 71 41 87 41 23 1 27 -3 27 -28z"/> <path d="M4396 2975 c-61 -80 -34 -143 31 -72 24 27 33 46 33 72 0 47 -28 47 -64 0z"/> </g> </svg> 