<?xml version="1.0" encoding="UTF-8"?>
<svg version="1.1" xmlns="http://www.w3.org/2000/svg" width="7681" height="4320">
<path d="M0 0 C6.73698716 5.01304432 6.73698716 5.01304432 8.3203125 9.6640625 C8.3203125 17.04207958 2.05284193 23.82520083 -1.8671875 29.7265625 C-6.6866109 37.04270625 -11.28427269 44.36053189 -15.53515625 52.01953125 C-20.01350445 59.91843779 -25.10956155 67.47343291 -30.00927734 75.11425781 C-36.40467566 85.11583074 -42.6099278 95.23372352 -48.78808594 105.37036133 C-52.80051375 111.94501903 -56.92247414 118.44444718 -61.09228516 124.92041016 C-62.70969618 127.43599303 -64.31990211 129.95609439 -65.9296875 132.4765625 C-66.44974365 133.28150146 -66.9697998 134.08644043 -67.50561523 134.91577148 C-72.08027622 142.09560264 -75.55196758 148.00376171 -74.6796875 156.7265625 C-72.59698979 159.49073115 -70.85668475 160.17291113 -67.4921875 160.68359375 C-66.59064941 160.82337646 -65.68911133 160.96315918 -64.76025391 161.10717773 C-63.74366699 161.24969971 -62.72708008 161.39222168 -61.6796875 161.5390625 C-60.59478027 161.70156494 -59.50987305 161.86406738 -58.39208984 162.03149414 C-49.95755706 163.24559797 -41.50112204 164.2086128 -33.03125 165.140625 C-30.75520742 165.39476721 -28.47916576 165.64891768 -26.203125 165.90307617 C-21.65567946 166.40975411 -17.10640906 166.89017285 -12.5546875 167.35668945 C13.65504718 170.16246607 13.65504718 170.16246607 21.3203125 178.7265625 C24.18091181 184.36576942 24.42461885 190.83353317 22.703125 196.90234375 C16.6174027 210.33940316 4.06539424 217.01302311 -8.8671875 222.5390625 C-32.12919312 230.95660977 -58.35730537 229.06506135 -80.6796875 218.7265625 C-81.31745117 218.43765137 -81.95521484 218.14874023 -82.61230469 217.85107422 C-91.51837128 213.78232355 -99.44091999 209.42912501 -106.6796875 202.7265625 C-107.1535791 202.29359863 -107.6274707 201.86063477 -108.11572266 201.41455078 C-120.55626868 189.9404934 -128.44472654 177.34403706 -134.6796875 161.7265625 C-138.35249778 163.67944678 -142.02366926 165.63525949 -145.69140625 167.59765625 C-147.91776822 168.7886948 -150.14734984 169.97017881 -152.38671875 171.13671875 C-167.74099268 179.24794262 -182.1725121 188.94362162 -196.36328125 198.91235352 C-210.02787081 208.50607273 -224.02639165 217.25302243 -238.54443359 225.49365234 C-240.39782478 226.56381305 -242.22326172 227.68210845 -244.04296875 228.80859375 C-266.51240762 242.54769024 -296.08034497 253.77123118 -322.6484375 253.9296875 C-323.405802 253.93538757 -324.1631665 253.94108765 -324.94348145 253.94696045 C-326.54368716 253.95637052 -328.14391191 253.96292847 -329.74414062 253.96679688 C-332.14489464 253.97642299 -334.54476177 254.00745031 -336.9453125 254.0390625 C-346.62819148 254.10585609 -355.28302063 253.26641341 -364.6796875 250.7265625 C-365.42669922 250.53304199 -366.17371094 250.33952148 -366.94335938 250.14013672 C-384.25564652 245.3922107 -399.32394653 236.35749558 -408.6796875 220.7265625 C-418.06575313 203.12148172 -418.14422378 182.21760681 -412.51074219 163.29101562 C-408.27878005 150.23210544 -403.05529466 137.52797275 -397.2421875 125.1015625 C-393.53863172 117.18117656 -391.8096807 109.36630215 -390.6796875 100.7265625 C-401.31866144 107.48932113 -411.10569461 115.37195968 -420.8125 123.390625 C-423.42321037 125.51760702 -426.06318837 127.59649617 -428.72167969 129.6628418 C-434.83327612 134.4134029 -440.77652862 139.31349643 -446.63110352 144.37719727 C-454.20364122 150.92512099 -461.99443014 157.19714845 -469.82421875 163.43359375 C-472.03914884 165.21220383 -474.24336215 167.00148525 -476.44140625 168.80078125 C-483.4536899 174.53787438 -490.49678742 180.17586003 -497.77734375 185.5703125 C-500.80935897 187.82289985 -503.81051575 190.11142855 -506.8046875 192.4140625 C-507.59480225 193.02133179 -507.59480225 193.02133179 -508.40087891 193.64086914 C-511.6431237 196.13868689 -514.86729885 198.65827193 -518.08203125 201.19140625 C-526.41092814 207.74262864 -534.71705401 214.05883405 -543.6796875 219.7265625 C-544.71222656 220.41363281 -545.74476562 221.10070313 -546.80859375 221.80859375 C-558.36393817 229.30357647 -568.21397111 233.1346264 -581.9296875 233.2265625 C-583.29565063 233.23623047 -583.29565063 233.23623047 -584.68920898 233.24609375 C-597.28896369 233.00855645 -606.53043966 228.55555046 -615.8046875 220.2265625 C-631.9356537 203.13351084 -632.25002356 178.02540455 -632.49169922 155.99389648 C-632.50488693 154.80227402 -632.50488693 154.80227402 -632.51834106 153.58657837 C-632.53188625 152.07707762 -632.53983358 150.56751351 -632.54147339 149.05795288 C-632.49842093 145.2664842 -632.49842093 145.2664842 -633.6796875 141.7265625 C-636.24110369 140.63990109 -637.96586754 140.48429633 -640.61328125 141.3828125 C-645.13751272 143.50381326 -648.23003803 146.07399248 -651.6796875 149.7265625 C-652.3396875 149.7265625 -652.9996875 149.7265625 -653.6796875 149.7265625 C-653.94217285 150.31050781 -654.2046582 150.89445312 -654.47509766 151.49609375 C-655.74226898 153.84244097 -657.12064761 155.48290157 -658.953125 157.4140625 C-659.60708252 158.10693359 -660.26104004 158.79980469 -660.93481445 159.51367188 C-661.63437256 160.24392578 -662.33393066 160.97417969 -663.0546875 161.7265625 C-664.13399536 162.86061523 -664.13399536 162.86061523 -665.23510742 164.01757812 C-667.37652171 166.26053422 -669.52634768 168.49505874 -671.6796875 170.7265625 C-672.25702637 171.32726563 -672.83436523 171.92796875 -673.42919922 172.546875 C-679.29521312 178.62721364 -685.34585795 184.25791028 -691.97265625 189.51953125 C-694.77247903 191.80221505 -697.41042719 194.20348453 -700.0546875 196.6640625 C-704.36355596 200.62553986 -708.82977625 204.24932869 -713.50268555 207.77197266 C-717.19996207 210.56551832 -720.80521551 213.44768254 -724.37841797 216.39819336 C-765.69954646 250.49091427 -811.59884651 273.27885413 -865.9296875 274.0390625 C-866.77499023 274.05694824 -867.62029297 274.07483398 -868.49121094 274.09326172 C-875.66217028 274.08327431 -882.10962241 272.96853418 -887.6171875 268.1640625 C-892.35441351 261.56834739 -892.00209533 252.35492849 -891.5546875 244.6015625 C-891.50465576 243.68705322 -891.45462402 242.77254395 -891.40307617 241.83032227 C-890.88855939 234.18998157 -889.48932074 227.08575122 -887.27880859 219.75634766 C-886.66502356 217.67688198 -886.11624609 215.58750898 -885.57421875 213.48828125 C-878.04117344 185.35317648 -864.57556075 158.5700433 -852.25393677 132.29266357 C-851.38794094 130.44082521 -850.53161828 128.58490826 -849.6796875 126.7265625 C-849.24491592 125.79219864 -849.24491592 125.79219864 -848.80136108 124.83895874 C-846.88263229 120.58459478 -846.39356547 117.39988901 -846.6796875 112.7265625 C-882.11625034 104.98464913 -922.67050119 137.85112682 -950.6796875 155.7265625 C-951.50291504 156.25056641 -952.32614258 156.77457031 -953.17431641 157.31445312 C-961.88565374 162.86845386 -970.48711555 168.55031213 -978.93408203 174.50048828 C-980.8741682 175.86316139 -982.82175519 177.21474992 -984.76953125 178.56640625 C-996.97930871 187.07013763 -1008.63941984 196.06020785 -1019.93115234 205.74682617 C-1023.37353413 208.68063865 -1026.90381691 211.42686052 -1030.5546875 214.1015625 C-1035.4263813 217.69532863 -1040.04402449 221.51032818 -1044.6171875 225.4765625 C-1045.55763916 226.29133057 -1045.55763916 226.29133057 -1046.51708984 227.12255859 C-1050.0395284 230.20528461 -1053.41032061 233.37654709 -1056.6796875 236.7265625 C-1056.24398437 237.12746094 -1055.80828125 237.52835938 -1055.359375 237.94140625 C-1044.15476421 248.63671655 -1039.65370044 260.07960986 -1039.20727539 275.46728516 C-1039.04715887 294.02096444 -1041.67084168 312.47032829 -1048.6796875 329.7265625 C-1049.02273926 330.57154297 -1049.36579102 331.41652344 -1049.71923828 332.28710938 C-1060.58135391 358.68034668 -1074.2367303 382.18003166 -1091.6796875 404.7265625 C-1092.15970215 405.35224121 -1092.6397168 405.97791992 -1093.13427734 406.62255859 C-1098.41507712 413.50218217 -1103.80499335 420.1775933 -1109.70703125 426.54296875 C-1111.7330375 428.72461831 -1111.7330375 428.72461831 -1113.58203125 431.22265625 C-1123.19236923 442.69421425 -1138.03278585 449.49105676 -1152.69921875 451.046875 C-1170.58592228 451.72184494 -1186.34285356 446.13928743 -1199.62890625 434.296875 C-1218.28196673 416.84909629 -1228.62868011 394.6516613 -1229.8046875 369 C-1230.31854647 344.65593148 -1223.33695656 321.11464021 -1208.6796875 301.7265625 C-1208.2770166 301.1917627 -1207.8743457 300.65696289 -1207.45947266 300.10595703 C-1204.98702051 296.8358763 -1202.47803207 293.59556835 -1199.95458984 290.36474609 C-1198.23273612 288.15225309 -1196.52969967 285.92558947 -1194.82617188 283.69897461 C-1192.78562986 281.03506424 -1190.73302349 278.38062653 -1188.6796875 275.7265625 C-1188.01324219 274.86289063 -1187.34679688 273.99921875 -1186.66015625 273.109375 C-1182.16066848 267.37275719 -1177.33609841 261.98351417 -1172.37890625 256.64453125 C-1168.75265464 252.72440107 -1165.21034727 248.73269794 -1161.6796875 244.7265625 C-1163.02238698 240.69846405 -1165.62518847 239.52485713 -1169.0546875 237.3515625 C-1170.43321778 236.45715495 -1171.8107769 235.56124927 -1173.1875 234.6640625 C-1173.92000977 234.18839844 -1174.65251953 233.71273437 -1175.40722656 233.22265625 C-1178.49191494 231.19182574 -1181.52628354 229.09173968 -1184.56274414 226.98974609 C-1192.4107035 221.55810016 -1200.35670146 216.32958121 -1208.44824219 211.26855469 C-1214.56624869 207.44130861 -1220.63264361 203.53993573 -1226.6796875 199.6015625 C-1227.5348999 199.0446875 -1228.3901123 198.4878125 -1229.27124023 197.9140625 C-1232.41587795 195.86375234 -1235.55614219 193.80892604 -1238.6796875 191.7265625 C-1243.3808916 191.89583662 -1245.37322724 194.01593779 -1248.4921875 197.3515625 C-1252.03108406 201.03639293 -1255.60677284 204.49611128 -1259.484375 207.81640625 C-1262.26391282 210.2349009 -1264.97097573 212.72954102 -1267.6796875 215.2265625 C-1272.28721293 219.46486105 -1276.9430434 223.63326565 -1281.6796875 227.7265625 C-1282.79054872 228.69119424 -1283.90120626 229.65606056 -1285.01171875 230.62109375 C-1291.7895719 236.50752251 -1298.5873663 242.36983076 -1305.40869141 248.20581055 C-1309.68013612 251.86285296 -1313.93309455 255.540706 -1318.1796875 259.2265625 C-1338.52291654 276.86966626 -1338.52291654 276.86966626 -1347.06640625 283.609375 C-1350.26981589 286.20466353 -1353.37752949 288.90100423 -1356.4921875 291.6015625 C-1361.53435092 295.96459135 -1366.68485652 300.1222623 -1371.99755859 304.15014648 C-1375.42993385 306.75446774 -1378.79303903 309.42309797 -1382.1171875 312.1640625 C-1391.72412214 320.08385768 -1401.58088245 327.69324181 -1411.46875 335.2578125 C-1413.62293649 336.90782769 -1415.76168311 338.57536602 -1417.890625 340.2578125 C-1440.92749636 358.39537652 -1464.65697599 370.74954965 -1494.6796875 368.7265625 C-1499.06023162 367.95707009 -1502.70408546 366.69687553 -1506.6796875 364.7265625 C-1507.70320313 364.22898437 -1508.72671875 363.73140625 -1509.78125 363.21875 C-1519.28080424 358.1507496 -1526.99742475 351.06241885 -1530.6796875 340.7265625 C-1541.74908034 303.16255791 -1520.8895478 257.74250785 -1504.6796875 224.7265625 C-1504.06059768 223.42736919 -1503.44212957 222.12787947 -1502.82421875 220.828125 C-1488.54012409 191.12816538 -1465.4803794 153.54496494 -1433.35546875 141.8828125 C-1425.10289286 139.60623984 -1416.42472063 139.61840237 -1407.9296875 139.5390625 C-1407.11330811 139.52601074 -1406.29692871 139.51295898 -1405.45581055 139.49951172 C-1400.03929923 139.49175088 -1395.4741498 140.01382754 -1390.7421875 142.9140625 C-1388.98005822 145.92004775 -1390.00159457 148.39497101 -1390.6796875 151.7265625 C-1391.68275946 154.38843476 -1392.92800625 156.89870785 -1394.21484375 159.43359375 C-1394.74604576 160.51047707 -1394.74604576 160.51047707 -1395.28797913 161.6091156 C-1396.04175594 163.1351555 -1396.79981233 164.65908795 -1397.56182861 166.18103027 C-1399.15644656 169.3666381 -1400.73010161 172.56238721 -1402.30210876 175.75920105 C-1403.04777099 177.27404142 -1403.79608717 178.78757963 -1404.54762268 180.29951477 C-1407.75339654 186.77493653 -1410.67282578 193.36426484 -1413.546875 199.9921875 C-1416.49512211 206.65337397 -1419.74032377 213.17850831 -1422.9296875 219.7265625 C-1428.65229504 231.4801382 -1434.23091938 243.28847603 -1439.671875 255.17578125 C-1441.8618886 259.9604689 -1444.07965569 264.73131313 -1446.3125 269.49609375 C-1446.92176551 270.79855907 -1447.53097822 272.10104908 -1448.14013672 273.40356445 C-1449.02854075 275.30302418 -1449.91807393 277.20190507 -1450.81158447 279.09896851 C-1451.63037565 280.83782808 -1452.44421611 282.57901627 -1453.2578125 284.3203125 C-1453.72606445 285.31740234 -1454.19431641 286.31449219 -1454.67675781 287.34179688 C-1455.80891044 289.60264899 -1455.80891044 289.60264899 -1455.6796875 291.7265625 C-1441.80405716 283.53766591 -1428.55277147 274.746823 -1415.61181641 265.14990234 C-1413.69982053 263.74139388 -1411.77622295 262.35055464 -1409.84765625 260.96484375 C-1403.2490961 256.21065957 -1396.88551243 251.32051602 -1390.73828125 245.99438477 C-1386.31717182 242.19112807 -1381.71430983 238.66902468 -1377.0546875 235.1640625 C-1371.15033227 230.71226234 -1365.61400484 226.10791403 -1360.21484375 221.05078125 C-1357.63437525 218.68502045 -1354.9705831 216.48186977 -1352.2421875 214.2890625 C-1347.11573266 210.1512811 -1342.28131326 205.76094498 -1337.453125 201.28515625 C-1334.58938286 198.64325329 -1331.67191007 196.07713844 -1328.7265625 193.52734375 C-1326.23894024 191.33880585 -1323.80615298 189.09417059 -1321.3671875 186.8515625 C-1317.74444845 183.54319336 -1314.06275859 180.36643892 -1310.2421875 177.2890625 C-1305.11221623 173.14844283 -1300.2750395 168.7538893 -1295.44140625 164.27734375 C-1291.91476224 161.02006151 -1288.31765019 157.85837386 -1284.6796875 154.7265625 C-1284.17711426 154.29230957 -1283.67454102 153.85805664 -1283.15673828 153.41064453 C-1276.34817965 147.52954324 -1269.49486216 141.7227989 -1262.50390625 136.05859375 C-1259.8791626 133.8912743 -1257.3085648 131.6752796 -1254.74365234 129.43823242 C-1247.37657387 123.02721055 -1239.72038225 117.13338371 -1231.85742188 111.34667969 C-1229.59755467 109.66546009 -1227.36347782 107.95412164 -1225.1328125 106.234375 C-1211.78647574 95.98785908 -1197.87999548 86.73891445 -1183.6796875 77.7265625 C-1182.7937793 77.16356445 -1181.90787109 76.60056641 -1180.99511719 76.02050781 C-1160.83175255 63.27446597 -1140.2210976 51.74233237 -1115.53320312 56.10595703 C-1101.40535559 59.32262507 -1084.74694954 66.04066801 -1076.54296875 78.4453125 C-1072.71493123 86.34388764 -1073.53134436 98.36674727 -1076.1796875 106.4765625 C-1078.86442805 112.75342977 -1082.65800521 118.23940863 -1086.6796875 123.7265625 C-1087.12328613 124.33564453 -1087.56688477 124.94472656 -1088.02392578 125.57226562 C-1089.43328071 127.49176115 -1090.86408185 129.39293326 -1092.3046875 131.2890625 C-1092.9689978 132.18298706 -1092.9689978 132.18298706 -1093.64672852 133.0949707 C-1097.04020517 137.45353583 -1100.38315981 140.26369389 -1105.9609375 141.046875 C-1111.5225544 140.55729605 -1115.8427946 138.83024737 -1120.7421875 136.2265625 C-1126.10767311 133.37858998 -1130.52321703 131.37350326 -1136.6796875 131.7265625 C-1137.48148438 131.7678125 -1138.28328125 131.8090625 -1139.109375 131.8515625 C-1150.064339 133.15185496 -1162.24619269 139.01010619 -1169.61328125 147.28125 C-1172.1762709 150.75489897 -1172.16853262 153.46662647 -1171.6796875 157.7265625 C-1168.38099379 163.85077665 -1162.272617 167.17414058 -1156.4921875 170.63232422 C-1152.79495571 172.86440839 -1149.14626249 175.17476571 -1145.4921875 177.4765625 C-1144.27426514 178.24154053 -1144.27426514 178.24154053 -1143.03173828 179.02197266 C-1136.88269244 182.9069245 -1130.86538206 186.95589475 -1124.9309082 191.16113281 C-1118.31745858 195.80789806 -1112.01440678 199.63397145 -1103.6796875 198.7265625 C-1094.49331405 195.4291601 -1087.00452219 190.07949355 -1079.6796875 183.7265625 C-1077.9134561 182.262659 -1076.14244302 180.80450938 -1074.3671875 179.3515625 C-1073.44679688 178.59617187 -1072.52640625 177.84078125 -1071.578125 177.0625 C-1068.05384601 174.22217812 -1064.46196006 171.47689226 -1060.86132812 168.734375 C-1056.45556077 165.36193231 -1052.15623522 161.87071445 -1047.8671875 158.3515625 C-1041.96174743 153.51559487 -1035.95016516 148.86224056 -1029.81884766 144.31689453 C-1024.7265847 140.53573158 -1019.72841119 136.64610828 -1014.7421875 132.7265625 C-1007.57065025 127.10635618 -1000.22876731 121.79311486 -992.75390625 116.5859375 C-988.88620017 113.88758036 -985.09147227 111.09930087 -981.3046875 108.2890625 C-961.29555482 93.50901171 -940.27615565 80.19447862 -919.08056641 67.19873047 C-917.59989762 66.29081581 -916.12019488 65.38132083 -914.64208984 64.46923828 C-910.35629311 61.8265369 -906.0353813 59.25233743 -901.6796875 56.7265625 C-900.44847168 56.00871582 -900.44847168 56.00871582 -899.19238281 55.27636719 C-887.03919694 48.24541635 -875.23965631 42.44330094 -861.6796875 38.7265625 C-860.5246875 38.40171875 -859.3696875 38.076875 -858.1796875 37.7421875 C-840.09540301 32.94985211 -821.21331923 32.90179954 -804.4296875 42.0078125 C-791.02585994 50.38520473 -783.65145096 63.73635849 -779.6796875 78.7265625 C-776.20599638 95.14830981 -777.34492486 111.72086043 -782.08935547 127.72705078 C-782.65861796 129.65519794 -783.18754964 131.59511188 -783.71484375 133.53515625 C-787.35661557 146.09357394 -793.19867096 157.75034346 -798.85449219 169.49560547 C-799.5372429 170.9136727 -800.21986252 172.33180306 -800.90234375 173.75 C-801.23076263 174.43222626 -801.55918152 175.11445251 -801.89755249 175.81735229 C-804.71006088 181.70166955 -807.26099056 187.66858557 -809.6796875 193.7265625 C-798.69960789 190.4451594 -788.7300904 186.20838424 -778.6796875 180.7265625 C-777.98584961 180.34870605 -777.29201172 179.97084961 -776.57714844 179.58154297 C-761.41063722 171.2172992 -747.9037817 160.87151441 -734.6796875 149.7265625 C-734.15729492 149.28908691 -733.63490234 148.85161133 -733.09667969 148.40087891 C-720.8325667 138.11404128 -709.11869735 127.282754 -697.875 115.890625 C-695.24821087 113.30122789 -692.48789427 110.9096272 -689.6875 108.51171875 C-685.84524556 105.09555089 -682.28219676 101.39178469 -678.6796875 97.7265625 C-677.01302083 96.05989583 -675.34635417 94.39322917 -673.6796875 92.7265625 C-673.01324219 92.04851563 -672.34679688 91.37046875 -671.66015625 90.671875 C-667.53432071 86.49683869 -663.35453969 82.47935685 -658.89453125 78.6640625 C-656.70310844 76.74705066 -654.57768949 74.76869993 -652.45507812 72.77612305 C-636.08417842 57.48735868 -617.86938122 44.81822137 -594.6796875 44.7265625 C-583.31439316 45.32473589 -572.59877472 51.03114884 -564.390625 58.7890625 C-554.95410285 69.47516978 -553.19515984 81.02908874 -553.4296875 94.8515625 C-553.43742187 96.68654297 -553.43742187 96.68654297 -553.4453125 98.55859375 C-553.52917519 108.25521706 -553.52917519 108.25521706 -554.16015625 112.8125 C-554.88484241 118.27216567 -555.04151251 123.7260938 -555.2421875 129.2265625 C-555.28537109 130.33515625 -555.32855469 131.44375 -555.37304688 132.5859375 C-555.47830964 135.29937756 -555.58044596 138.01289667 -555.6796875 140.7265625 C-549.88984905 136.57273051 -544.17527812 132.35679579 -538.5546875 127.9765625 C-532.95654559 123.62739838 -527.20534625 119.52797835 -521.39550781 115.4675293 C-515.96483763 111.66208298 -510.62513274 107.74674812 -505.3046875 103.7890625 C-498.23393019 98.53915675 -491.04614993 93.50182118 -483.75463867 88.56420898 C-475.89814512 83.23130159 -468.22423992 77.65760095 -460.54345703 72.07617188 C-455.48688879 68.4145647 -450.35561286 64.8630497 -445.19140625 61.35546875 C-436.90870354 55.7172056 -428.79351594 49.89715746 -420.75048828 43.921875 C-415.13989662 39.76705971 -409.45162527 35.75605407 -403.66796875 31.84643555 C-400.13553944 29.4491158 -396.66549406 26.99407485 -393.24609375 24.4375 C-376.8578694 12.20126385 -360.07325163 1.76011762 -338.6796875 3.7265625 C-330.46289914 5.0126685 -323.24200846 8.5029866 -317.6796875 14.7265625 C-310.9737289 25.48367861 -310.5704415 36.70875883 -313.14160156 48.92041016 C-314.20028231 53.06706756 -315.49588254 57.12825795 -316.84667969 61.18896484 C-317.87477115 64.32084721 -318.85533823 67.46619371 -319.8359375 70.61328125 C-323.51229261 82.40781119 -327.22183021 94.19190528 -330.9296875 105.9765625 C-331.30619446 107.17366852 -331.68270142 108.37077454 -332.07061768 109.60415649 C-336.68400328 124.26952662 -341.29948541 138.9336687 -346.07910156 153.54589844 C-351.83055394 169.99806753 -351.83055394 169.99806753 -349.66015625 186.84375 C-348.76865856 188.95374635 -348.76865856 188.95374635 -346.3046875 190.1640625 C-345.4384375 190.3496875 -344.5721875 190.5353125 -343.6796875 190.7265625 C-342.9163208 191.08049072 -342.1529541 191.43441895 -341.36645508 191.79907227 C-333.11603604 194.64717239 -323.02478828 189.61068571 -315.4921875 186.2890625 C-313.95739746 185.62970703 -313.95739746 185.62970703 -312.39160156 184.95703125 C-310.23767767 184.02858186 -308.08649356 183.09375258 -305.93798828 182.15283203 C-302.72129899 180.74477727 -299.4964685 179.35703847 -296.26953125 177.97265625 C-274.99575295 168.79461052 -254.72104276 158.3432525 -234.6796875 146.7265625 C-233.58285645 146.09403564 -233.58285645 146.09403564 -232.46386719 145.44873047 C-223.31169185 140.15255907 -214.56900557 134.36711267 -205.91601562 128.29345703 C-203.46250323 126.57439125 -201.00116069 124.86690026 -198.5390625 123.16015625 C-196.77321125 121.93261708 -195.00758335 120.70475653 -193.2421875 119.4765625 C-192.42596924 118.91042236 -191.60975098 118.34428223 -190.76879883 117.76098633 C-182.27264103 111.82552775 -174.2140376 105.40584557 -166.2421875 98.7890625 C-161.76648834 95.07965729 -157.28569126 91.39889644 -152.6796875 87.8515625 C-145.69792644 82.30165413 -139.36465243 75.99077542 -132.9140625 69.84326172 C-130.71416261 67.75922194 -128.49772782 65.69468379 -126.2734375 63.63671875 C-125.21020264 62.65070679 -125.21020264 62.65070679 -124.12548828 61.64477539 C-122.79317211 60.41063154 -121.45840292 59.1791278 -120.12060547 57.95092773 C-116.27248243 54.37376361 -112.75367015 50.63247392 -109.33203125 46.64599609 C-106.95196637 43.88121032 -104.475443 41.21093054 -101.9921875 38.5390625 C-101.48743896 37.9937085 -100.98269043 37.44835449 -100.46264648 36.88647461 C-98.32568766 34.57779294 -96.18603444 32.27162653 -94.04492188 29.96679688 C-92.96385393 28.80286863 -91.88336193 27.63840514 -90.8034668 26.47338867 C-89.79585742 25.38636802 -88.7869955 24.30050643 -87.77661133 23.21606445 C-85.51246219 20.77257676 -83.36888899 18.33424306 -81.296875 15.71875 C-78.23920675 12.22296809 -74.96069535 9.54592603 -71.2421875 6.7890625 C-70.54134033 6.26836182 -69.84049316 5.74766113 -69.1184082 5.21118164 C-47.74575254 -10.29116292 -22.85845685 -15.66104186 0 0 Z M-1118.6796875 280.7265625 C-1120.52306404 282.80767203 -1120.52306404 282.80767203 -1122.3046875 285.5390625 C-1125.02568835 289.4304394 -1127.80651568 293.15909445 -1130.8671875 296.7890625 C-1136.68612809 303.80602027 -1141.91161763 311.24822564 -1147.20507812 318.66455078 C-1149.11958628 321.34169248 -1151.05364306 324.00428795 -1152.9921875 326.6640625 C-1153.59933594 327.50066406 -1154.20648437 328.33726562 -1154.83203125 329.19921875 C-1156.16824953 331.02698456 -1157.51610657 332.84626075 -1158.87109375 334.66015625 C-1159.59167969 335.63082031 -1160.31226562 336.60148437 -1161.0546875 337.6015625 C-1162.02535156 338.89707031 -1162.02535156 338.89707031 -1163.015625 340.21875 C-1167.22725876 346.56586003 -1168.42287094 353.83758122 -1167.28125 361.34765625 C-1165.41953049 368.36743393 -1161.82136285 374.58488715 -1156.6796875 379.7265625 C-1152.98240706 380.21849757 -1151.17892699 380.03085401 -1147.96875 378.07421875 C-1137.46637943 369.0655871 -1129.81816927 359.49336018 -1122.6796875 347.7265625 C-1122.32874023 347.15776367 -1121.97779297 346.58896484 -1121.61621094 346.00292969 C-1111.83869254 330.08111939 -1103.39625327 312.4251728 -1106.1796875 293.2890625 C-1108.29553353 288.26392817 -1111.57333387 284.31250696 -1115.6796875 280.7265625 C-1116.6696875 280.7265625 -1117.6596875 280.7265625 -1118.6796875 280.7265625 Z " fill="#FEFEFE" transform="translate(4885.6796875,2036.2734375)"/>
<path d="M0 0 C2.87302585 2.72181397 4.43316269 5.09103101 5 9 C3.306434 14.87492206 -0.17109448 18.48806872 -5 22 C-4.01 22.99 -3.02 23.98 -2 25 C-1.154375 24.505 -0.30875 24.01 0.5625 23.5 C4.33796832 21.85252292 6.92817548 21.75569053 11 22 C11.3000638 27.44999591 10.44264026 31.1814021 8.3125 36.1875 C8.04066895 36.83315918 7.76883789 37.47881836 7.48876953 38.14404297 C6.93308612 39.46269625 6.37288969 40.7794572 5.80810547 42.09423828 C5.0538938 43.8729018 4.33977967 45.66842004 3.62890625 47.46484375 C3.00822266 49.02912109 3.00822266 49.02912109 2.375 50.625 C2.01148437 51.54539062 1.64796875 52.46578125 1.2734375 53.4140625 C-2.13877045 60.34314736 -6.86503269 62.84745266 -13.5 66.25 C-21.64998956 70.58382877 -28.81021693 75.19097088 -36 81 C-37.12395789 81.86373612 -38.25037882 82.72427413 -39.37890625 83.58203125 C-45.91994544 88.58129277 -52.10635811 93.81871029 -58.11181641 99.44848633 C-68.5740624 109.24954362 -79.59813106 118.09933022 -91.12744141 126.60791016 C-93.86265157 128.6413089 -96.55557998 130.72527323 -99.25 132.8125 C-104.79415896 137.09474218 -110.39079252 141.3033968 -116 145.5 C-124.49459479 151.85685064 -132.96745823 158.23962691 -141.296875 164.8125 C-145.71441708 168.29494193 -150.22625911 171.61853416 -154.8125 174.875 C-162.97827695 180.67363375 -170.97413398 186.6814339 -178.92578125 192.76953125 C-187.2658056 199.15080453 -195.59763325 205.51392466 -204.18408203 211.56103516 C-208.4903863 214.60371346 -212.66178438 217.79756731 -216.82177734 221.03613281 C-223.74581547 226.39627541 -230.8872379 231.45980092 -238.00097656 236.56347656 C-240.50827124 238.36525012 -243.00532338 240.18080505 -245.5 242 C-267.33144599 257.88657531 -267.33144599 257.88657531 -275.875 263.75 C-286.77911977 271.25931286 -297.16926381 279.43455611 -307.6015625 287.578125 C-310.25203387 289.64505873 -312.9096691 291.70095812 -315.5859375 293.734375 C-321.01175121 297.85715484 -326.32436984 302.06848729 -331.5 306.5 C-337.2450962 311.41811804 -343.169532 316.06811965 -349.19873047 320.6328125 C-351.14925339 322.1132853 -353.09275814 323.60263464 -355.03515625 325.09375 C-381.12722208 345.11971112 -381.12722208 345.11971112 -393.53125 353.59375 C-397.70274153 356.46287445 -401.78230182 359.45766429 -405.875 362.4375 C-412.5076294 367.25498571 -419.2316361 371.88611519 -426.07421875 376.3984375 C-436.64673306 383.37766114 -447.09658144 390.54442641 -457.29296875 398.0625 C-460.49655551 400.35539904 -463.77205242 402.52205747 -467.0625 404.6875 C-473.51116899 408.93655902 -479.77076621 413.41124399 -486.01025391 417.96044922 C-491.5859083 422.01233706 -497.23703794 425.93848719 -502.9375 429.8125 C-508.75959284 433.76989458 -514.51974202 437.7831085 -520.1953125 441.94921875 C-535.46888548 453.11722128 -551.21519916 463.57550672 -567 474 C-567.81500977 474.54043945 -568.63001953 475.08087891 -569.46972656 475.63769531 C-579.52719884 482.29878417 -589.80733004 488.55146311 -600.18603516 494.69995117 C-605.58037263 497.90345692 -610.88470197 501.17604539 -616.0625 504.72045898 C-618.71344879 506.47116748 -621.47972257 507.96564147 -624.265625 509.48828125 C-662.91755786 530.85727842 -692.25753738 553.66561239 -713.16894531 593.15893555 C-716.80932452 599.98941293 -720.78037299 606.51375125 -725 613 C-728.6622467 618.85248355 -732.25737725 624.74374721 -735.7890625 630.67578125 C-741.06282194 639.53038193 -746.42336169 648.29429814 -752.06567383 656.91918945 C-756.15743667 663.19164988 -760.00103461 669.59530175 -763.82568359 676.03271484 C-769.69427705 685.86413398 -775.72480576 695.59275352 -781.875 705.25 C-786.80654722 713.00014632 -791.49927255 720.87383173 -796.13964844 728.80102539 C-799.68742463 734.83998514 -803.35185822 740.78706579 -807.125 746.6875 C-811.55526932 753.622809 -815.76084666 760.65635139 -819.8515625 767.79663086 C-823.20995769 773.65512448 -826.64350189 779.46384045 -830.125 785.25 C-830.63305176 786.09457764 -831.14110352 786.93915527 -831.66455078 787.80932617 C-833.49996763 790.85735483 -835.33775331 793.90394329 -837.17773438 796.94921875 C-838.24472506 798.7154044 -839.31025544 800.48245948 -840.375 802.25 C-840.72119385 802.82363281 -841.0673877 803.39726562 -841.42407227 803.98828125 C-843.78864174 807.92589282 -846.09683353 811.89347077 -848.38671875 815.875 C-849.29574951 817.45039551 -849.29574951 817.45039551 -850.22314453 819.05761719 C-851.41309172 821.12288788 -852.59800905 823.19106831 -853.77685547 825.26269531 C-865.39266628 845.40390255 -865.39266628 845.40390255 -873 850 C-875.80639485 850.37758767 -878.14881789 850.24579156 -881 850 C-881.66 848.02 -882.32 846.04 -883 844 C-883.51949219 844.48210938 -884.03898437 844.96421875 -884.57421875 845.4609375 C-893.26179467 853.32953676 -901.22235264 854.17915558 -912.6875 854.4375 C-913.94916992 854.50614258 -913.94916992 854.50614258 -915.23632812 854.57617188 C-917.63170393 854.61986231 -919.67392172 854.57852572 -922 854 C-924.47265625 851.2265625 -924.47265625 851.2265625 -926 848 C-926.34546875 847.30777344 -926.6909375 846.61554687 -927.046875 845.90234375 C-930.67113306 835.77455595 -929.8587031 826.24085488 -925.67578125 816.4375 C-922.7737878 810.48469293 -919.52019071 804.75993446 -916.18066406 799.04394531 C-915.02915181 797.05046711 -913.91117388 795.04220248 -912.8046875 793.0234375 C-908.56811444 785.3071623 -904.05895954 777.85108524 -899.22485352 770.49414062 C-895.89169144 765.41437621 -892.70002154 760.26502585 -889.5625 755.0625 C-885.87219567 748.96069663 -882.04461075 742.9779123 -878.0625 737.0625 C-857.8182336 706.97406488 -839.09985502 675.69438208 -821.22216797 644.14990234 C-819.73877417 641.5404805 -818.24583392 638.93658295 -816.75390625 636.33203125 C-815.58571273 634.28398236 -814.41774487 632.23580474 -813.25 630.1875 C-812.69465576 629.22054199 -812.13931152 628.25358398 -811.56713867 627.25732422 C-808.7914412 622.37434713 -806.21313335 617.50544841 -804.00292969 612.34106445 C-802.79434175 609.5199472 -801.52369769 606.72978582 -800.25 603.9375 C-799.82203125 602.99777344 -799.3940625 602.05804687 -798.953125 601.08984375 C-798.63859375 600.40019531 -798.3240625 599.71054688 -798 599 C-799.03705078 599.23187012 -800.07410156 599.46374023 -801.14257812 599.70263672 C-805.06981421 600.57861445 -808.99918452 601.44468746 -812.92919922 602.30810547 C-814.61499795 602.6798457 -816.3002431 603.05410727 -817.98486328 603.43115234 C-866.88165961 614.36514079 -866.88165961 614.36514079 -887.1484375 601.65234375 C-889.18914593 600.18631758 -891.09823131 598.64152666 -893 597 C-893.56074219 596.53335938 -894.12148437 596.06671875 -894.69921875 595.5859375 C-908.93387901 582.64533726 -919.16769345 561.25621103 -920.3828125 542.24609375 C-920.82878393 529.96360189 -918.16587126 520.49167366 -912.9921875 509.40234375 C-911.80470057 506.52712934 -910.97761865 503.61621171 -910.125 500.625 C-905.94203042 486.69261882 -898.84000562 477.97382984 -886.625 470.375 C-885.50508667 469.66887573 -885.50508667 469.66887573 -884.36254883 468.94848633 C-882.89975001 468.03122973 -881.43380933 467.11895923 -879.96435547 466.21240234 C-878.31276791 465.1930407 -876.6725638 464.15526787 -875.03515625 463.11328125 C-873.87306641 462.40751953 -873.87306641 462.40751953 -872.6875 461.6875 C-871.73423828 461.10548828 -871.73423828 461.10548828 -870.76171875 460.51171875 C-869 460 -869 460 -866.9921875 460.4921875 C-859.60307809 466.08472913 -856.00211682 480.21850597 -854.70849609 488.97265625 C-853.48216019 498.18975566 -852.97254502 507.42151322 -852.76171875 516.7109375 C-852.74377258 517.4695256 -852.72582642 518.22811371 -852.70733643 519.00968933 C-852.62061388 522.8223842 -852.55409137 526.63400766 -852.51708984 530.44750977 C-852.49217498 531.86995994 -852.4669601 533.29240491 -852.44140625 534.71484375 C-852.42122437 536.60384399 -852.42122437 536.60384399 -852.40063477 538.53100586 C-851.96068148 542.34044905 -851.07029216 544.78182606 -849 548 C-833.7090713 552.41368594 -812.41081232 542.60934071 -798 538 C-797.18015625 537.73815918 -796.3603125 537.47631836 -795.515625 537.20654297 C-762.64311898 526.45350874 -735.04324369 502.8532182 -719.3984375 472.08276367 C-718.99882812 471.29232666 -718.59921875 470.50188965 -718.1875 469.6875 C-713.10390416 459.68673557 -706.77003965 450.91438702 -700 442 C-698.92713183 440.5686471 -697.85549867 439.13636759 -696.78515625 437.703125 C-694.76908072 435.00579405 -692.74662532 432.31346851 -690.71875 429.625 C-687.69118855 425.60230693 -684.74213521 421.5246079 -681.796875 417.44140625 C-680.06096082 415.0828272 -678.26283349 412.78974356 -676.4375 410.5 C-671.06115456 403.62552684 -666.6773939 396.11674852 -662.14794922 388.67236328 C-661.68662598 387.9142334 -661.22530273 387.15610352 -660.75 386.375 C-660.27965332 385.60140137 -659.80930664 384.82780273 -659.32470703 384.03076172 C-656.17082405 378.86258029 -652.93417378 373.75743576 -649.625 368.6875 C-645.51379627 362.3875395 -641.51055679 356.02845567 -637.5625 349.625 C-628.75369965 335.34284596 -619.79247832 321.17575052 -610.58300781 307.1484375 C-607.44663137 302.33667061 -604.5073633 297.47476109 -601.75 292.4375 C-599.3916705 288.17379782 -596.95383343 284.66871645 -593.6875 281.0625 C-587.12664206 273.40816574 -583.5569195 264.00062935 -579.37304688 254.91845703 C-577.3069261 250.52684826 -575.08416248 246.22568559 -572.8125 241.9375 C-572.4002417 241.15914795 -571.9879834 240.3807959 -571.56323242 239.57885742 C-569.08421397 234.93892246 -566.51090271 230.36495576 -563.875 225.8125 C-561.21096768 221.20208436 -558.69083135 216.54837465 -556.31640625 211.78125 C-555.97387314 211.09452713 -555.63134003 210.40780426 -555.27842712 209.70027161 C-551.44601242 201.96050292 -547.84542657 194.11550185 -544.24588013 186.26550293 C-537.83608458 172.30171283 -531.3483704 158.37543054 -524.66720581 144.53921509 C-523.93655652 143.02513472 -523.2081051 141.50999157 -522.48196411 139.9937439 C-521.47508826 137.89358154 -520.4596608 135.79778941 -519.44140625 133.703125 C-518.87107666 132.52395508 -518.30074707 131.34478516 -517.71313477 130.12988281 C-515.34844793 125.80961985 -513.11030036 122.74020024 -509 120 C-508.12359962 117.82390382 -507.35020431 115.60604257 -506.625 113.375 C-500.42505235 95.63940465 -489.79203279 79.35548023 -480.29980469 63.21728516 C-479.00501308 61.00855162 -477.72369943 58.79248046 -476.4453125 56.57421875 C-468.69811817 43.17658917 -460.89765261 30.11019548 -450 19 C-449.5982959 18.47414307 -449.1965918 17.94828613 -448.78271484 17.40649414 C-446.59079029 14.7535851 -445.02594048 13.21006858 -441.58789062 12.50610352 C-438.74420631 12.37238876 -435.96839512 12.42737212 -433.125 12.5625 C-432.16980469 12.58119141 -431.21460937 12.59988281 -430.23046875 12.61914062 C-425.90396721 12.72893525 -421.7085895 13.00658663 -417.43359375 13.68359375 C-416.30050781 13.78800781 -415.16742187 13.89242188 -414 14 C-412.64172029 12.35360035 -411.30745749 10.68704193 -410 9 C-406.3125 9.0625 -406.3125 9.0625 -403 10 C-399.65793694 16.68412611 -403.20366153 24.53255523 -405.34933472 31.06503296 C-407.51340433 37.50060511 -409.85800991 43.87296409 -412.1875 50.25 C-413.35633762 53.45931946 -414.52384236 56.66912323 -415.69140625 59.87890625 C-416.12202362 61.06103447 -416.12202362 61.06103447 -416.56134033 62.26704407 C-418.22596244 66.84361841 -419.8614139 71.42886615 -421.46484375 76.02734375 C-429.42393109 98.81412582 -439.57208795 120.38582064 -450.125 142.0625 C-450.82863174 143.51142639 -450.82863174 143.51142639 -451.54647827 144.98962402 C-457.03181839 156.26429346 -462.71366208 167.35005166 -468.97613525 178.21279907 C-470.6062888 181.05830375 -472.18868662 183.92981013 -473.7734375 186.80078125 C-482.43509272 202.46251617 -491.16612936 218.07686618 -500.43359375 233.390625 C-502.52266431 236.87067272 -504.57187392 240.3736619 -506.625 243.875 C-513.56535744 255.69656084 -520.54967417 267.49817687 -527.8125 279.125 C-532.50434822 286.70639984 -536.90847826 294.45532884 -541.34838867 302.18603516 C-545.42992749 309.29152323 -549.54122308 316.37663227 -553.76708984 323.39746094 C-556.29555562 327.64382625 -558.53010264 331.99496564 -560.71875 336.42529297 C-567.08217022 349.2127605 -573.96056935 360.93658908 -583 372 C-588.96209797 379.65016185 -594.00372716 387.75840843 -599.07250977 396.01513672 C-605.80928138 406.97861526 -612.53407341 417.69974503 -620.9921875 427.4375 C-623.37674291 430.48082363 -625.14659619 433.60901904 -627 437 C-626.51756836 436.67837891 -626.03513672 436.35675781 -625.53808594 436.02539062 C-602.625 420.75 -602.625 420.75 -599.97460938 418.9831543 C-598.0801396 417.72012262 -596.18576115 416.45695392 -594.29150391 415.19360352 C-589.02485893 411.68144105 -583.75622502 408.1723141 -578.484375 404.66796875 C-563.21685813 394.52320783 -563.21685813 394.52320783 -548.07519531 384.19213867 C-541.90795839 379.92530883 -535.70391456 375.71327038 -529.5 371.5 C-526.289858 369.31716064 -523.07998046 367.13393279 -519.87011719 364.95068359 C-517.41757848 363.28380844 -514.96295592 361.62006488 -512.5078125 359.95703125 C-504.4893456 354.50640284 -496.65391113 348.84089235 -488.86938477 343.06103516 C-483.30591262 338.9366964 -477.66268942 334.96880919 -471.94921875 331.0546875 C-468.03563977 328.32814108 -464.2361978 325.46440272 -460.43359375 322.5859375 C-456.12915303 319.33253571 -451.78213954 316.13689983 -447.4375 312.9375 C-446.19649536 312.02291016 -446.19649536 312.02291016 -444.93041992 311.08984375 C-440.69882377 307.97453751 -436.45404075 304.87986509 -432.1875 301.8125 C-427.60839925 298.49563223 -423.17952729 295.00267271 -418.75268555 291.48754883 C-413.75293528 287.54087306 -408.64109524 283.75998177 -403.5 280 C-397.41468469 275.54615905 -391.40581984 271.02583778 -385.50146484 266.33520508 C-380.09585513 262.04931765 -374.61440431 257.86531891 -369.125 253.6875 C-368.24473145 253.01734863 -367.36446289 252.34719727 -366.45751953 251.65673828 C-362.56689394 248.69874132 -358.67064458 245.74888098 -354.7578125 242.8203125 C-351.39852039 240.30527353 -348.0700426 237.75414832 -344.75 235.1875 C-340.523335 231.92636686 -336.2763603 228.6959571 -332 225.5 C-321.88192537 217.93125749 -311.91897812 210.16376106 -301.95263672 202.3972168 C-296.65797856 198.27610536 -291.33654564 194.19167628 -286 190.125 C-280.75438612 186.12670291 -275.55956305 182.07903826 -270.42578125 177.9375 C-263.99736918 172.80305171 -257.42442227 167.8483779 -250.8828125 162.859375 C-249.44263939 161.76050701 -248.00253627 160.66154731 -246.5625 159.5625 C-245.83716064 159.00916992 -245.11182129 158.45583984 -244.36450195 157.88574219 C-240.48078291 154.91719482 -236.62046188 151.92333288 -232.79150391 148.88452148 C-218.38321134 137.45456188 -203.56802826 126.79167322 -188 117 C-175.04700966 108.84453663 -162.9836864 99.78609477 -150.92602539 90.37329102 C-145.22979295 85.93372975 -139.47674638 81.57712581 -133.68847656 77.25854492 C-129.59909863 74.2057886 -125.5371461 71.12145961 -121.5 68 C-111.47780801 60.26575259 -101.35340883 52.66662084 -91.09375 45.25 C-87.77543781 42.83668205 -84.47447133 40.40078631 -81.17456055 37.96240234 C-73.48751898 32.28333345 -65.79728544 26.61077823 -57.984375 21.10546875 C-56.21150206 19.85471153 -54.44736762 18.59116482 -52.703125 17.30078125 C-42.24803071 9.81320432 -30.2503105 5.81826302 -17.9375 2.5625 C-16.96216309 2.30339844 -15.98682617 2.04429688 -14.98193359 1.77734375 C-9.8867628 0.49717659 -5.25576776 -0.53319383 0 0 Z " fill="#FEFEFE" transform="translate(3613,1733)"/>
<path d="M0 0 C2.4218771 -0.07812507 4.84287542 -0.12956482 7.265625 -0.171875 C8.01593994 -0.1934668 8.76625488 -0.21505859 9.53930664 -0.23730469 C14.30626718 -0.26522247 17.61896271 0.35535014 21.703125 3.078125 C26.80587603 10.49155574 25.31355978 22.06646951 24.015625 30.453125 C20.36494281 47.77498257 13.16438689 61.39104123 0.703125 74.078125 C-0.07490479 74.88793823 -0.07490479 74.88793823 -0.86865234 75.71411133 C-4.919154 79.86994653 -9.14763836 83.54608001 -13.796875 87.015625 C-14.48974609 87.53286133 -15.18261719 88.05009766 -15.89648438 88.58300781 C-22.08859865 93.10195769 -28.53261172 96.76100862 -35.39941406 100.14257812 C-37.34010783 101.09944103 -39.26831362 102.07837812 -41.1953125 103.0625 C-44.54690236 104.76850808 -47.91712644 106.43350417 -51.29492188 108.08691406 C-53.21868112 109.03940949 -55.12509831 110.02066244 -57.03125 111.0078125 C-88.54374168 126.99165079 -125.23764838 134.35812865 -160.06005859 138.67236328 C-162.21078425 138.94197454 -164.35966903 139.2267189 -166.50634766 139.52685547 C-183.16545668 141.85377056 -199.62207376 142.36625742 -216.421875 142.390625 C-217.4159436 142.39421021 -218.41001221 142.39779541 -219.4342041 142.40148926 C-236.39145473 142.43442957 -253.16734848 141.55061677 -269.796875 138.015625 C-270.78042969 137.80719971 -271.76398438 137.59877441 -272.77734375 137.3840332 C-294.82653963 132.45097519 -317.29209125 125.12483232 -335.296875 111.078125 C-336.21082031 110.3665625 -337.12476562 109.655 -338.06640625 108.921875 C-358.19887921 92.83792944 -371.24225293 72.06126831 -374.296875 46.078125 C-374.85025941 39.0006297 -374.44638518 33.48962786 -371.296875 27.078125 C-366.72024685 21.74039457 -360.56311164 19.79244112 -353.75390625 18.65234375 C-349.91971924 18.42755892 -347.90844993 18.67040838 -344.671875 20.828125 C-340.34969148 26.07436155 -337.17181525 32.46385339 -334.0546875 38.47265625 C-324.74156715 56.29604174 -308.84545063 66.77716346 -290.0546875 72.84765625 C-238.27585398 88.55882575 -183.51760766 77.96080791 -133.984375 59.515625 C-132.16873047 58.84527222 -132.16873047 58.84527222 -130.31640625 58.16137695 C-123.992627 55.75078822 -118.19407132 53.1022276 -112.48535156 49.45581055 C-110.16554865 47.99545269 -107.79061893 46.71775384 -105.359375 45.453125 C-94.96401541 39.84081548 -84.82694777 33.41028668 -75.234375 26.515625 C-51.5099621 9.64034695 -29.23023423 0.99422565 0 0 Z " fill="#FEFEFE" transform="translate(4455.296875,2322.921875)"/>
<path d="M0 0 C1.9375 1.0625 1.9375 1.0625 3 3 C3.3924845 8.52921143 2.38591965 12.66311402 0.5 17.75 C-1.37894789 22.73869395 -1.37894789 22.73869395 -2 28 C-1.62875 27.525625 -1.2575 27.05125 -0.875 26.5625 C1.68889633 24.42591972 3.70555942 24.20590254 7 24 C7.99 24.66 8.98 25.32 10 26 C11.18887631 35.62807709 9.66839553 45.94775876 8.8125 55.5625 C8.67930802 57.10309 8.54634111 58.64369948 8.41357422 60.18432617 C7.9551593 65.45738436 7.47896701 70.72877393 7 76 C6.86564545 77.48246216 6.86564545 77.48246216 6.72857666 78.99487305 C4.10130656 107.93196052 1.24247676 136.83948872 -1.88671875 165.7265625 C-2.02608856 167.01887535 -2.02608856 167.01887535 -2.16827393 168.33729553 C-2.63489861 172.65911548 -3.1095066 176.97981676 -3.59716797 181.29931641 C-3.78489922 182.9964117 -3.97256469 184.69351426 -4.16015625 186.390625 C-4.29305305 187.53720078 -4.29305305 187.53720078 -4.42863464 188.7069397 C-5.29253597 196.61283909 -4.9578449 204.21479552 -3.0078125 211.9375 C-1.65665653 217.84634177 -1.50620749 223.80595353 -1.22396851 229.84335327 C-0.39333801 246.89471433 1.15657147 263.54181433 9 279 C9.45246094 279.89203125 9.90492188 280.7840625 10.37109375 281.703125 C15.70911851 291.3665411 22.35778798 296.14014208 32.4609375 300.34765625 C35.79089423 302.51468963 35.7916865 304.26805018 37 308 C38.98206138 310.61456346 41.2647781 312.91257924 43.5625 315.25 C44.83496062 316.58302298 46.10709595 317.91635655 47.37890625 319.25 C48.58500072 320.5009039 49.79195704 321.75097773 51 323 C59.95648051 332.27865607 67.76133623 342.22069718 68.3125 355.625 C68.21327076 359.50817091 67.57740847 361.96234001 65 365 C62.24727635 366.62951929 59.9848637 367.29091331 56.8125 367.5625 C55.64074219 367.67464844 55.64074219 367.67464844 54.4453125 367.7890625 C52.81510417 367.9296875 51.18489583 368.0703125 49.5546875 368.2109375 C48.38292969 368.32308594 48.38292969 368.32308594 47.1875 368.4375 C46.47980469 368.49808594 45.77210938 368.55867188 45.04296875 368.62109375 C42.74707402 369.04690979 41.05869243 369.91819381 39 371 C37.0761253 371.43958773 35.13563789 371.80989682 33.1875 372.125 C32.19105469 372.29257813 31.19460937 372.46015625 30.16796875 372.6328125 C22.68441203 373.50020378 17.18715889 372.42638553 10.1875 369.9375 C8.92969727 369.52467773 8.92969727 369.52467773 7.64648438 369.10351562 C-3.72727731 365.12575885 -11.80537989 357.66785466 -20.125 349.1875 C-20.96675781 348.34896484 -21.80851562 347.51042969 -22.67578125 346.64648438 C-58.2704004 310.74834522 -64.55568858 270.52799099 -67.125 221.875 C-67.16965393 221.03656555 -67.21430786 220.1981311 -67.26031494 219.33428955 C-68.07497747 203.81312465 -68.08192198 188.46013516 -67.25 172.9375 C-67.20743073 172.14064789 -67.16486145 171.34379578 -67.1210022 170.52279663 C-66.17709438 153.32291129 -64.46014564 136.25337711 -62.2767334 119.16943359 C-62.00516702 117.04050655 -61.73916161 114.91093733 -61.47363281 112.78125 C-59.28849173 95.44849907 -56.21657179 78.38255148 -52.5 61.3125 C-52.31458649 60.4529068 -52.12917297 59.5933136 -51.93814087 58.70767212 C-43.96030924 22.00206256 -43.96030924 22.00206256 -32.640625 12.69140625 C-28.0160529 9.72921732 -22.98003955 7.7306991 -17.90234375 5.67578125 C-15.20458918 4.57385793 -12.73957939 3.31465056 -10.23828125 1.8203125 C-6.45746901 -0.30496917 -4.27241439 -0.57513271 0 0 Z " fill="#FEFEFE" transform="translate(3156,2172)"/>
<path d="M0 0 C6.08146352 3.31215542 12.51704823 7.84378636 16 14 C17.87880939 20.88247791 15.45760037 27.05254109 13.61914062 33.69580078 C12.97886575 36.07865341 12.39941101 38.47083273 11.828125 40.87109375 C11.42783786 42.47675079 11.02681262 44.08222403 10.625 45.6875 C10.45274902 46.4412793 10.28049805 47.19505859 10.10302734 47.97167969 C8.68759305 53.40547678 6.59847962 55.5772022 2 59 C0.53388294 60.70878471 -0.88708506 62.45782051 -2.25 64.25 C-5.79904306 68.89952153 -5.79904306 68.89952153 -8 70 C-20.05880441 70.99218011 -32.03209141 68.07399964 -42 61 C-46.01517519 55.48800155 -47.1461658 49.96332815 -48.25 43.3125 C-48.41693359 42.33079834 -48.58386719 41.34909668 -48.75585938 40.33764648 C-50.81169275 27.67644001 -51.65132059 13.38922746 -44.11328125 2.19921875 C-42.09165388 0.09538102 -40.56842482 -1.05366424 -37.9375 -2.25 C-37.26589844 -2.56453125 -36.59429688 -2.8790625 -35.90234375 -3.203125 C-24.28089657 -8.07124661 -11.10597431 -4.68551732 0 0 Z " fill="#FEFEFE" transform="translate(3575,1988)"/>
<path d="M0 0 C7.71103128 5.97555621 10.91430258 13.90598632 12.83984375 23.18359375 C13.91311038 35.84813994 13.47443489 49.28458438 4.96484375 59.49609375 C-2.89827385 66.13605972 -12.66349349 68.70586119 -22.84765625 67.87109375 C-30.01828302 65.5296646 -34.14747125 60.04426753 -37.6015625 53.59765625 C-41.38421675 45.64817193 -44.14780073 37.31998062 -46.78515625 28.93359375 C-47.09195313 27.97509521 -47.39875 27.01659668 -47.71484375 26.02905273 C-49.50200907 20.10392026 -50.3403891 15.06371159 -49.84765625 8.87109375 C-47.84765625 6.18359375 -47.84765625 6.18359375 -44.84765625 3.87109375 C-44.0278125 3.13246094 -44.0278125 3.13246094 -43.19140625 2.37890625 C-30.73242233 -8.23234701 -13.72089959 -8.38338263 0 0 Z " fill="#FEFEFE" transform="translate(4984.84765625,1871.12890625)"/>
</svg>
