<?xml version="1.0" encoding="UTF-8"?>
<svg version="1.1" xmlns="http://www.w3.org/2000/svg" width="7681" height="4320">
<path d="M0 0 C1.30009791 0.94686376 2.59299292 1.90378252 3.875 2.875 C4.865 3.535 5.855 4.195 6.875 4.875 C6.875 5.535 6.875 6.195 6.875 6.875 C7.535 6.875 8.195 6.875 8.875 6.875 C11.35199223 10.59048835 11.13592524 12.16765985 10.52734375 16.44140625 C9.59871399 19.90569572 7.88781965 22.31817678 5.79296875 25.19921875 C3.45565872 28.46002806 1.35758967 31.83794951 -0.75 35.25 C-4.0253422 40.52060803 -7.32455208 45.77495452 -10.64990234 51.01416016 C-15.08887608 58.01023086 -19.45637321 65.0360609 -23.68505859 72.16113281 C-27.30807483 78.23918707 -31.10253537 84.20612361 -34.89453125 90.1796875 C-37.35046381 94.05250423 -39.78969778 97.92771926 -42.125 101.875 C-44.85037315 106.47258601 -47.70315978 110.98508191 -50.5625 115.5 C-55.44955189 123.22162012 -60.32912367 130.94779486 -65.1875 138.6875 C-65.83066162 139.70730957 -66.47382324 140.72711914 -67.13647461 141.77783203 C-74.01343199 152.03713684 -74.01343199 152.03713684 -75.125 163.875 C-70.82663021 168.79908185 -65.3833862 169.01665665 -59.25 169.8125 C-58.1161084 169.97234375 -56.9822168 170.1321875 -55.81396484 170.296875 C-47.67408273 171.39802337 -39.51521748 172.26704071 -31.34375 173.09765625 C-30.31120087 173.20351547 -29.27865173 173.30937469 -28.21481323 173.41844177 C-23.01619942 173.94944401 -17.81684767 174.46362336 -12.61376953 174.94897461 C15.96283098 177.7159678 15.96283098 177.7159678 24.625 186.6875 C27.74029161 192.13926031 28.33748426 196.81613664 26.875 202.875 C23.91065429 213.41044487 15.61261058 221.00484969 6.35424805 226.28833008 C-15.09324787 237.74830274 -40.6450857 240.49088745 -64.125 233.875 C-88.53015371 226.38665182 -113.82023971 211.989332 -126.359375 188.8984375 C-129.73771615 182.36924529 -132.6186961 175.78655586 -135.125 168.875 C-136.16398437 169.39449219 -137.20296875 169.91398437 -138.2734375 170.44921875 C-141.06510417 171.84505208 -143.85677083 173.24088542 -146.6484375 174.63671875 C-147.37216553 175.00031494 -148.09589355 175.36391113 -148.84155273 175.73852539 C-150.39545086 176.51190246 -151.95515383 177.27370065 -153.51977539 178.02514648 C-159.90757141 181.12426353 -165.85491668 184.70743742 -171.8125 188.5625 C-173.24770996 189.48397827 -173.24770996 189.48397827 -174.71191406 190.42407227 C-184.24669583 196.56214804 -193.74841885 202.75285049 -203 209.3125 C-210.22066424 214.40032777 -217.67079571 219.13917933 -225.125 223.875 C-225.83688477 224.3292334 -226.54876953 224.7834668 -227.28222656 225.25146484 C-268.60695438 251.49825143 -318.15864882 273.2211626 -368.125 262.875 C-387.11630171 258.59740029 -405.15657892 250.30719568 -417.05859375 234.26953125 C-418.55990256 231.85470786 -419.86901321 229.42465318 -421.125 226.875 C-421.51171875 226.18277344 -421.8984375 225.49054687 -422.296875 224.77734375 C-430.16986089 209.51630226 -428.21577543 187.67687079 -423.40625 171.75390625 C-422.98120191 170.46026701 -422.5539915 169.1673369 -422.125 167.875 C-421.89039062 167.13878418 -421.65578125 166.40256836 -421.4140625 165.64404297 C-418.24131418 155.73533735 -414.48299323 146.3250142 -410 136.9375 C-405.05314468 126.55077506 -402.31272633 116.13603344 -400.125 104.875 C-413.89220453 114.63016415 -427.2663517 124.7169503 -440.32275391 135.40478516 C-442.68090241 137.32848744 -445.05706279 139.22897609 -447.4375 141.125 C-457.91856402 149.48277812 -457.91856402 149.48277812 -468 158.3125 C-472.23346011 162.17024891 -476.67404412 165.68747833 -481.2355957 169.14208984 C-484.78566074 171.83265448 -488.25648581 174.59480092 -491.6875 177.4375 C-496.33418237 181.27168444 -501.11001607 184.89244051 -505.9453125 188.484375 C-509.43840113 191.11062837 -512.88076229 193.79441946 -516.3125 196.5 C-516.91255859 196.97308594 -517.51261719 197.44617187 -518.13085938 197.93359375 C-519.28501616 198.84416606 -520.43899551 199.75496332 -521.59277344 200.66601562 C-525.08738397 203.42339475 -528.60300631 206.15273721 -532.125 208.875 C-533.04369873 209.59091309 -533.04369873 209.59091309 -533.98095703 210.32128906 C-541.69766922 216.33060415 -549.3507136 222.2832841 -557.70703125 227.390625 C-560.12973743 228.87790828 -562.46846723 230.45470842 -564.8125 232.0625 C-580.02363828 242.22127086 -596.36830213 244.32656074 -614.43164062 241.51611328 C-625.92768141 238.83428614 -634.4149303 229.96006577 -640.66796875 220.3828125 C-649.64719838 204.92794542 -650.71173056 187.42216262 -650.75 170 C-650.76639326 167.29173621 -650.78836906 164.5838126 -650.82162476 161.8757019 C-650.84114267 160.20971541 -650.85060185 158.54357147 -650.84854126 156.87747192 C-650.88453696 153.02009756 -650.93481243 151.16028135 -653.125 147.875 C-657.29636399 147.22771938 -659.70822486 147.02047653 -663.359375 149.22265625 C-664.75506639 150.29998738 -666.12453358 151.41244723 -667.4609375 152.5625 C-669.125 153.875 -669.125 153.875 -671.125 153.875 C-671.125 154.535 -671.125 155.195 -671.125 155.875 C-672.25873639 157.04309204 -673.40026067 158.20437011 -674.57421875 159.33203125 C-678.23004242 162.96943767 -681.52868559 166.97824546 -684.84765625 170.921875 C-688.33867546 175.0252142 -691.981895 178.61109595 -696.08984375 182.09375 C-698.19868528 183.9394923 -700.16098542 185.87639417 -702.125 187.875 C-709.29226072 195.12576279 -717.22122153 201.45181915 -725.125 207.875 C-726.85462953 209.29110152 -728.58379335 210.70777203 -730.3125 212.125 C-731.21484375 212.86234375 -732.1171875 213.5996875 -733.046875 214.359375 C-734.69042838 215.7025836 -736.33365362 217.04619732 -737.97460938 218.39257812 C-746.54885379 225.42633638 -755.16549732 232.33444562 -764.125 238.875 C-764.66302246 239.27283691 -765.20104492 239.67067383 -765.75537109 240.08056641 C-774.56490078 246.589308 -783.59371946 252.47877478 -793.125 257.875 C-793.87040039 258.30425781 -794.61580078 258.73351563 -795.38378906 259.17578125 C-821.28900048 273.96658069 -851.05917569 284.4258094 -881.125 284.875 C-881.98931641 284.89933105 -882.85363281 284.92366211 -883.74414062 284.94873047 C-886.66273795 285.02880787 -889.58064557 285.08117821 -892.5 285.125 C-893.41604004 285.14667236 -894.33208008 285.16834473 -895.27587891 285.19067383 C-901.64706358 285.22021833 -908.59322567 284.78463578 -913.71606445 280.56420898 C-921.58841137 271.78400846 -919.69741114 258.81106545 -919.125 247.875 C-918.5989722 242.72409411 -917.52593547 237.84848169 -916.125 232.875 C-915.86154785 231.93140625 -915.5980957 230.9878125 -915.32666016 230.015625 C-911.46095362 216.40498561 -906.95807405 203.29417337 -901.21533203 190.36962891 C-899.57297305 186.61198804 -898.02108545 182.81807626 -896.45996094 179.02612305 C-892.92402579 170.4434071 -889.30950561 161.90260855 -885.5 153.4375 C-885.13664551 152.62901611 -884.77329102 151.82053223 -884.39892578 150.98754883 C-882.59276549 147.00275318 -880.73365374 143.05400212 -878.78515625 139.13671875 C-878.22465576 137.99577759 -878.22465576 137.99577759 -877.65283203 136.83178711 C-876.9530266 135.41540974 -876.24021045 134.00534483 -875.51123047 132.60375977 C-873.14535274 127.80591495 -872.79843392 124.21880859 -873.125 118.875 C-881.64160175 114.61669912 -895.8758874 118.09400883 -904.5 120.609375 C-913.06199705 123.59869294 -920.95279836 127.20936961 -928.875 131.625 C-929.83656006 132.15577148 -930.79812012 132.68654297 -931.78881836 133.23339844 C-934.57173778 134.7732136 -937.34943534 136.32197451 -940.125 137.875 C-940.83865723 138.27332031 -941.55231445 138.67164062 -942.28759766 139.08203125 C-950.10677984 143.45806809 -957.78280085 148.04351532 -965.3828125 152.7890625 C-967.24170809 153.9477463 -969.10502855 155.09909632 -970.96875 156.25 C-978.34468321 160.81733905 -985.63138597 165.49222273 -992.8293457 170.33544922 C-996.41242391 172.74442482 -1000.0244351 175.08826211 -1003.6875 177.375 C-1020.75592264 188.18416308 -1036.70899087 200.85413353 -1052.125 213.875 C-1059.91072462 220.30575045 -1067.77335783 226.63930148 -1075.69140625 232.90625 C-1080.96458804 237.09259279 -1086.1049662 241.38781895 -1091.125 245.875 C-1090.25875 246.865 -1089.3925 247.855 -1088.5 248.875 C-1087.37170025 250.20554216 -1086.24683199 251.53900009 -1085.125 252.875 C-1084.33609375 253.79539062 -1084.33609375 253.79539062 -1083.53125 254.734375 C-1072.2869022 268.61770239 -1071.72616222 287.04630687 -1073.44580078 304.04638672 C-1074.9191525 315.89227772 -1076.86995046 327.57038865 -1081.2734375 338.70947266 C-1082.30795258 341.34024924 -1083.2912433 343.98887755 -1084.28125 346.63671875 C-1096.25925252 378.13029057 -1114.5976877 406.08066687 -1136.125 431.875 C-1137.6679421 433.76979545 -1139.20960736 435.66563136 -1140.75 437.5625 C-1141.49765625 438.47 -1142.2453125 439.3775 -1143.015625 440.3125 C-1144.31009612 441.88504269 -1145.59396084 443.46648214 -1146.859375 445.0625 C-1151.5317916 450.75839833 -1157.05465358 454.75425389 -1163.125 458.875 C-1163.77082031 459.36097656 -1164.41664063 459.84695313 -1165.08203125 460.34765625 C-1176.85179625 468.73265223 -1192.62009288 469.35791711 -1206.421875 467.28515625 C-1221.40588072 464.57813933 -1232.43203992 456.51331122 -1243.125 445.875 C-1243.87136719 445.1634375 -1244.61773438 444.451875 -1245.38671875 443.71875 C-1262.30514424 426.47553798 -1269.66864239 402.04202236 -1269.55078125 378.32983398 C-1268.7682603 351.53120863 -1259.30222653 328.23005774 -1242.50390625 307.59570312 C-1240.4346057 305.01347397 -1238.44850312 302.36998593 -1236.453125 299.73046875 C-1217.96283536 275.29687173 -1217.96283536 275.29687173 -1208.91015625 266.609375 C-1206.92311407 264.678857 -1205.04451729 262.68084944 -1203.1875 260.625 C-1202.62160156 260.00109375 -1202.05570313 259.3771875 -1201.47265625 258.734375 C-1200.044281 256.76363118 -1199.54084437 255.25426147 -1199.125 252.875 C-1204.55520854 248.46379356 -1210.1208609 244.51494334 -1216.0546875 240.8125 C-1219.53314149 238.61744506 -1222.95675175 236.34971023 -1226.375 234.0625 C-1227.00728516 233.64009033 -1227.63957031 233.21768066 -1228.29101562 232.7824707 C-1231.51801237 230.62476262 -1234.74077517 228.46086035 -1237.9609375 226.29296875 C-1244.83474832 221.67450288 -1251.76338736 217.20003321 -1258.83984375 212.89453125 C-1262.50609786 210.64072225 -1266.13230391 208.33065368 -1269.75 206 C-1270.34240479 205.61835693 -1270.93480957 205.23671387 -1271.54516602 204.84350586 C-1274.08368248 203.20436215 -1276.61071401 201.55119066 -1279.125 199.875 C-1282.68171762 199.95744047 -1284.00641651 200.77114961 -1286.703125 203.1328125 C-1287.58484375 204.07898437 -1288.4665625 205.02515625 -1289.375 206 C-1293.34947069 210.16880814 -1297.37943177 213.84684969 -1302.0546875 217.2421875 C-1304.62316342 219.26789115 -1306.82694001 221.54665811 -1309.125 223.875 C-1311.37622317 226.02117537 -1313.65559721 228.13652043 -1315.9375 230.25 C-1316.56205078 230.8287085 -1317.18660156 231.40741699 -1317.83007812 232.00366211 C-1322.69070211 236.49569299 -1327.6227627 240.88345908 -1332.65527344 245.18212891 C-1334.43720146 246.70434067 -1336.21868601 248.22706974 -1338 249.75 C-1338.60884033 250.26997559 -1339.21768066 250.78995117 -1339.8449707 251.32568359 C-1343.38200261 254.35444776 -1346.86926485 257.42679463 -1350.3125 260.5625 C-1354.44927804 264.31649176 -1358.73221231 267.84646456 -1363.07421875 271.359375 C-1366.64556998 274.30425361 -1370.13703094 277.33229425 -1373.625 280.375 C-1379.69539366 285.66514329 -1385.86270588 290.81266643 -1392.125 295.875 C-1393.95926698 297.37385816 -1395.79258952 298.87387277 -1397.625 300.375 C-1398.53121094 301.11621094 -1399.43742187 301.85742188 -1400.37109375 302.62109375 C-1402.21837522 304.13298227 -1404.06471875 305.64601749 -1405.91015625 307.16015625 C-1411.00271239 311.33590903 -1416.11823535 315.47901178 -1421.26953125 319.58203125 C-1423.48446134 321.36064133 -1425.68867465 323.14992275 -1427.88671875 324.94921875 C-1434.95417651 330.73106663 -1442.05708437 336.40022146 -1449.3984375 341.83203125 C-1452.01923145 343.79574935 -1454.57781418 345.81703559 -1457.125 347.875 C-1481.51530077 367.51191947 -1507.53313783 385.64736713 -1540.125 383.875 C-1548.89577806 382.62051296 -1556.48201175 379.26103303 -1564.125 374.875 C-1564.8675 374.45734375 -1565.61 374.0396875 -1566.375 373.609375 C-1574.94657565 368.05124392 -1579.84943298 358.47190603 -1582.125 348.75 C-1589.65880872 310.23340291 -1570.01057188 264.29067781 -1552.125 230.875 C-1550.99693637 228.54314625 -1549.87195105 226.20980091 -1548.75 223.875 C-1542.48146024 211.36641384 -1534.73998084 199.88382742 -1526.125 188.875 C-1525.22733804 187.70873842 -1524.33022511 186.5420541 -1523.43359375 185.375 C-1510.24317849 168.2880978 -1495.83232668 150.87476975 -1473.19702148 147.59570312 C-1466.91662632 146.83345829 -1460.69714782 146.69157881 -1454.375 146.6875 C-1453.36050781 146.67525391 -1452.34601562 146.66300781 -1451.30078125 146.65039062 C-1450.31980469 146.64845703 -1449.33882812 146.64652344 -1448.328125 146.64453125 C-1447.44801758 146.64042236 -1446.56791016 146.63631348 -1445.66113281 146.63208008 C-1442.78208645 146.90784549 -1440.69980265 147.56163198 -1438.125 148.875 C-1436.125 151.875 -1436.125 151.875 -1436.33300781 155.18164062 C-1437.10956843 158.80303673 -1438.17927016 161.64823486 -1439.796875 164.96875 C-1440.33763672 166.09667969 -1440.87839844 167.22460938 -1441.43554688 168.38671875 C-1441.99306641 169.53785156 -1442.55058594 170.68898438 -1443.125 171.875 C-1444.15540191 174.09172844 -1445.18146578 176.31047862 -1446.203125 178.53125 C-1451.51758492 190.00384035 -1456.85707693 201.46172442 -1462.31762695 212.86572266 C-1465.79020389 220.13397171 -1469.17981776 227.43955174 -1472.5625 234.75 C-1477.88816972 246.25428785 -1483.31590235 257.70556381 -1488.80761719 269.13134766 C-1494.66871852 281.33799271 -1500.50268201 293.55618132 -1506.125 305.875 C-1498.31076929 301.58572883 -1490.89059444 297.15879335 -1483.75 291.79296875 C-1481.2087971 289.93622675 -1478.61798376 288.27238064 -1475.9375 286.625 C-1469.08105341 282.32634838 -1462.70099436 277.42371604 -1456.27490234 272.51611328 C-1454.08955179 270.84794085 -1451.89872924 269.18716524 -1449.70703125 267.52734375 C-1442.5720603 262.11196633 -1435.50660173 256.64211916 -1428.609375 250.92578125 C-1426.07650145 248.83496582 -1423.51159118 246.78977225 -1420.9375 244.75 C-1417.27712734 241.83206141 -1413.7382501 238.81421803 -1410.23828125 235.70703125 C-1407.8299731 233.61923731 -1405.35723238 231.62428015 -1402.875 229.625 C-1398.28825877 225.89985657 -1393.93543308 221.99319291 -1389.61523438 217.96850586 C-1386.3040308 214.90263627 -1382.89658451 212.01352293 -1379.375 209.1875 C-1376.10376346 206.55649119 -1373.04817709 203.88729834 -1370.125 200.875 C-1366.38144681 197.01754559 -1362.30670268 193.7230171 -1358.1171875 190.36328125 C-1354.82012294 187.62146647 -1351.68894463 184.74503172 -1348.5625 181.8125 C-1344.87751338 178.35930399 -1341.17935504 175.03936768 -1337.1875 171.9375 C-1332.96783128 168.64944646 -1329.07789283 165.1011409 -1325.1875 161.4375 C-1320.21853145 156.76318187 -1315.15074486 152.31196559 -1309.82421875 148.04296875 C-1306.95149967 145.73564735 -1304.13172321 143.37231861 -1301.3125 141 C-1291.52986394 132.83516422 -1281.42960605 125.06817647 -1271.3125 117.32421875 C-1269.23891641 115.73568763 -1267.17972828 114.132814 -1265.125 112.51953125 C-1248.444627 99.47735185 -1230.87233924 87.81346224 -1212.6796875 77.00390625 C-1210.60198174 75.76722868 -1208.55012857 74.51034275 -1206.5078125 73.21484375 C-1201.51930394 70.06553279 -1196.38395328 67.51387772 -1191 65.125 C-1190.34265869 64.83093262 -1189.68531738 64.53686523 -1189.00805664 64.23388672 C-1175.0527476 58.2094351 -1157.59881576 57.18355333 -1143.26953125 62.5546875 C-1142.23183594 62.99039063 -1141.19414062 63.42609375 -1140.125 63.875 C-1138.79613455 64.37908722 -1137.46667045 64.88159818 -1136.13671875 65.3828125 C-1125.93660277 69.37824416 -1117.42089346 74.5918658 -1111.125 83.875 C-1108.39694437 92.05916689 -1108.55818558 105.14274618 -1111.5 113.25 C-1112.609375 115.4375 -1112.609375 115.4375 -1114.125 117.875 C-1114.45822266 118.42285156 -1114.79144531 118.97070312 -1115.13476562 119.53515625 C-1130.17135758 143.99883436 -1130.17135758 143.99883436 -1138.125 146.875 C-1146.34221076 147.73996955 -1153.81820307 145.07817416 -1160.75 140.6875 C-1168.30140236 136.63211725 -1176.08357532 137.63088149 -1184.125 139.875 C-1194.71073231 143.41154262 -1203.81086946 148.40380418 -1210.125 157.875 C-1210.74171031 161.36969177 -1210.79006373 163.75408132 -1208.9453125 166.86328125 C-1204.26517199 172.62948307 -1198.44244573 176.1273627 -1192.125 179.875 C-1189.42925418 181.52848317 -1186.74525998 183.2005488 -1184.0625 184.875 C-1183.3720459 185.30449951 -1182.6815918 185.73399902 -1181.97021484 186.17651367 C-1177.37320088 189.05033229 -1172.91026159 192.06612032 -1168.49609375 195.21484375 C-1164.14007477 198.26477467 -1159.64678152 201.07958555 -1155.125 203.875 C-1154.17625 204.514375 -1153.2275 205.15375 -1152.25 205.8125 C-1146.03954298 207.92405539 -1139.46063315 208.07473726 -1133.2578125 205.84375 C-1123.73457168 200.87510262 -1115.24991466 193.87749016 -1107.28515625 186.73046875 C-1104.12210129 184.01355898 -1100.79485436 181.51858495 -1097.47607422 178.99731445 C-1092.17480699 174.95272817 -1087.00712715 170.75234945 -1081.85742188 166.51708984 C-1077.98805678 163.34575504 -1074.05324796 160.29335861 -1070.03833008 157.30859375 C-1067.19141249 155.17549434 -1064.41067095 152.96205251 -1061.625 150.75 C-1050.25318887 141.77794369 -1038.6141304 133.18286155 -1026.84570312 124.73974609 C-1021.7964267 121.10935549 -1016.82449418 117.38981968 -1011.875 113.625 C-1005.85378406 109.05894838 -999.66628441 104.89271238 -993.26953125 100.875 C-990.59479858 99.17380357 -988.01069811 97.41129173 -985.4375 95.5625 C-973.89485644 87.38252511 -961.64957077 80.15216962 -949.55810547 72.82055664 C-944.89623806 69.98605475 -940.31057522 67.05648967 -935.75 64.0625 C-930.71767265 60.77351463 -925.57278836 57.93059625 -920.13671875 55.359375 C-917.65597303 54.13669877 -915.32511829 52.82401386 -912.94140625 51.4296875 C-907.95250097 48.63860428 -902.83028891 46.90444554 -897.375 45.25 C-896.4063501 44.95077637 -895.4377002 44.65155273 -894.43969727 44.34326172 C-872.74578352 37.73043591 -851.54363554 34.5827154 -830.5234375 45.1875 C-819.97863248 51.74539994 -812.84081557 60.48586051 -808.125 71.875 C-807.73570313 72.7825 -807.34640625 73.69 -806.9453125 74.625 C-798.45489389 95.9440073 -801.42853039 119.41363909 -808.6875 140.5625 C-808.90875549 141.21618561 -809.13001099 141.86987122 -809.35797119 142.54336548 C-812.55538527 151.96624528 -816.20461741 161.01123622 -820.67578125 169.90625 C-823.91078432 176.35171756 -826.7771804 182.9662266 -829.6875 189.5625 C-830.23020039 190.78935336 -830.77300373 192.01616118 -831.31591797 193.24291992 C-832.58767553 196.11937645 -833.85741337 198.9967036 -835.125 201.875 C-811.14575999 197.24668639 -789.29332777 182.91639226 -770.43359375 167.9453125 C-769.79228516 167.43758301 -769.15097656 166.92985352 -768.49023438 166.40673828 C-767.22753239 165.40342113 -765.96951165 164.39417744 -764.71679688 163.37841797 C-760.34341929 159.875 -760.34341929 159.875 -758.125 159.875 C-757.795 158.885 -757.465 157.895 -757.125 156.875 C-755.67735738 155.58458086 -754.16410851 154.36732866 -752.625 153.1875 C-747.30229609 148.94466403 -742.32072141 144.4256902 -737.375 139.75 C-736.66666016 139.08137939 -735.95832031 138.41275879 -735.22851562 137.72387695 C-731.97359424 134.63451811 -728.7584613 131.51754451 -725.609375 128.3203125 C-723.2593294 125.95062214 -720.83935458 123.72931026 -718.3046875 121.55859375 C-712.42135673 116.48269549 -707.08659538 110.84479602 -701.6640625 105.28710938 C-700.849375 104.46146484 -700.0346875 103.63582031 -699.1953125 102.78515625 C-698.09340576 101.65799194 -698.09340576 101.65799194 -696.96923828 100.50805664 C-695.125 98.875 -695.125 98.875 -693.125 98.875 C-692.795 97.885 -692.465 96.895 -692.125 95.875 C-690.5234375 94.296875 -690.5234375 94.296875 -688.5 92.625 C-685.75640123 90.30124019 -683.13828204 87.94619176 -680.625 85.375 C-676.96163644 81.66235352 -673.08389417 78.26739684 -669.125 74.875 C-668.15433594 74.01519531 -667.18367188 73.15539063 -666.18359375 72.26953125 C-648.83792586 57.03497879 -630.63012521 47.52900131 -607.125 48.875 C-603.86003657 49.45609455 -601.11332019 50.45326777 -598.125 51.875 C-597.23167969 52.28878906 -596.33835938 52.70257812 -595.41796875 53.12890625 C-588.84334603 56.42970863 -583.91477561 60.30879958 -579.125 65.875 C-578.64289063 66.41769531 -578.16078125 66.96039062 -577.6640625 67.51953125 C-570.05703859 76.99373376 -569.55252804 88.54653321 -569.8125 100.1875 C-569.82700195 102.16459961 -569.82700195 102.16459961 -569.84179688 104.18164062 C-569.91159764 110.19361059 -570.2595564 115.92402904 -571.125 121.875 C-571.2619441 123.99690075 -571.36740034 126.12106678 -571.44140625 128.24609375 C-571.50424805 129.97182617 -571.50424805 129.97182617 -571.56835938 131.73242188 C-571.62733398 133.50456055 -571.62733398 133.50456055 -571.6875 135.3125 C-571.73068359 136.52099609 -571.77386719 137.72949219 -571.81835938 138.97460938 C-571.92389404 141.94130606 -572.02600714 144.90807902 -572.125 147.875 C-567.4139093 144.80731303 -562.91748423 141.51933562 -558.4375 138.125 C-552.04735756 133.30771445 -545.61286913 128.56013298 -539.125 123.875 C-537.37441732 122.60496943 -535.62443274 121.33411411 -533.875 120.0625 C-532.97394531 119.40765625 -532.07289062 118.7528125 -531.14453125 118.078125 C-528.90929408 116.44724044 -526.67765388 114.81200326 -524.44921875 113.171875 C-518.30446187 108.64996815 -512.15432405 104.14793984 -505.88671875 99.796875 C-502.2664863 97.27756189 -498.66471758 94.73247906 -495.0625 92.1875 C-494.3394165 91.67687012 -493.61633301 91.16624023 -492.87133789 90.64013672 C-490.62242714 89.05194384 -488.37368955 87.46350605 -486.125 85.875 C-469.535324 74.15581863 -469.535324 74.15581863 -464.125 70.375 C-453.85415747 63.19589068 -443.62370529 55.95935617 -433.43457031 48.66479492 C-428.12329536 44.86573698 -422.78777455 41.10139182 -417.44799805 37.3425293 C-414.09521324 34.98034863 -410.74895274 32.61074108 -407.42578125 30.20703125 C-369.37494175 2.68750874 -369.37494175 2.68750874 -346.015625 6.19140625 C-337.52242306 8.01843225 -329.60125433 12.13900213 -324.421875 19.1953125 C-318.25737874 29.53668707 -318.35072296 41.29493545 -321.23828125 52.734375 C-322.43432137 56.95459727 -323.82152771 61.10345057 -325.24414062 65.25195312 C-326.44428125 68.82576434 -327.51753111 72.43301518 -328.59399414 76.0456543 C-332.23033804 88.24293054 -336.14682119 100.34990809 -340.05859375 112.4609375 C-342.0649353 118.67581284 -344.0265046 124.90306584 -345.9609375 131.140625 C-346.79000465 133.80031693 -347.62755669 136.45608259 -348.4765625 139.109375 C-350.04793509 144.02450083 -351.59366613 148.94725695 -353.125 153.875 C-353.47062988 154.98601074 -353.81625977 156.09702148 -354.17236328 157.24169922 C-355.29324645 160.8660029 -356.39837977 164.49479918 -357.5 168.125 C-357.85811768 169.2797583 -358.21623535 170.4345166 -358.58520508 171.62426758 C-361.23776715 180.44780598 -362.6212934 186.36415892 -358.125 194.875 C-355.23092627 198.32921703 -352.3911431 200.59397306 -347.84130859 201.15820312 C-342.00570155 201.15353744 -337.20872059 200.40787378 -331.75 198.375 C-330.93692383 198.08165771 -330.12384766 197.78831543 -329.28613281 197.48608398 C-319.99611049 194.01270506 -310.93789702 189.95789515 -301.875 185.9375 C-301.11680969 185.60137695 -300.35861938 185.26525391 -299.57745361 184.91894531 C-284.77094921 178.33134125 -270.29859856 171.18391368 -256.0625 163.4375 C-254.52154663 162.59964966 -254.52154663 162.59964966 -252.94946289 161.74487305 C-240.22291127 154.78683779 -228.0198448 147.27511579 -216.01318359 139.14550781 C-214.10684056 137.862781 -212.19025922 136.59700681 -210.26953125 135.3359375 C-202.33283399 130.11737008 -194.67775474 124.64163031 -187.125 118.875 C-186.15046875 118.15699219 -185.1759375 117.43898438 -184.171875 116.69921875 C-178.20353189 112.30108109 -172.46984795 107.71564498 -166.84448242 102.89331055 C-163.6160257 100.12640823 -160.3456793 97.43822299 -157 94.8125 C-152.22011748 91.04344509 -147.80006667 86.95489243 -143.375 82.78125 C-141.125 80.875 -141.125 80.875 -139.125 80.875 C-138.76692261 80.01056274 -138.76692261 80.01056274 -138.40161133 79.12866211 C-136.85931233 76.40596905 -135.07448951 74.85225061 -132.69921875 72.81640625 C-127.38240723 68.14735721 -122.34705676 63.24986861 -117.35571289 58.23608398 C-115.93162508 56.80660283 -114.50221956 55.38259489 -113.07226562 53.95898438 C-108.43509034 49.31534612 -103.91884914 44.62934906 -99.6472168 39.64672852 C-97.36979835 36.99601068 -94.99654922 34.44185327 -92.625 31.875 C-89.53756835 28.5326861 -86.49824307 25.16458577 -83.5625 21.6875 C-74.83119475 11.66728778 -64.47873612 3.74375008 -52.5 -1.9375 C-51.5860144 -2.37280029 -51.5860144 -2.37280029 -50.65356445 -2.81689453 C-34.76752226 -10.05043154 -14.756229 -9.64830358 0 0 Z M-1154.125 291.875 C-1155.48245268 293.52208159 -1156.81121255 295.19288285 -1158.125 296.875 C-1159.45800303 298.47944115 -1160.79135628 300.08359136 -1162.125 301.6875 C-1170.43446424 311.8389637 -1178.16389052 322.44088778 -1185.75097656 333.13891602 C-1187.8983265 336.1661194 -1190.07050166 339.16721855 -1192.3125 342.125 C-1193.25042628 343.37468018 -1194.18790748 344.62469449 -1195.125 345.875 C-1195.723125 346.66261719 -1196.32125 347.45023438 -1196.9375 348.26171875 C-1203.36678363 357.00822335 -1206.48727385 364.88599096 -1205.125 375.875 C-1203.39747858 382.76651019 -1200.64044932 388.40892977 -1196.125 393.875 C-1193.03392213 395.42053893 -1190.53780453 395.14500036 -1187.125 394.875 C-1174.75259007 387.95574763 -1163.11225604 372.67263503 -1157.21484375 360.0625 C-1156.30142436 358.2291134 -1155.29030775 356.44484738 -1154.2578125 354.67578125 C-1150.25446127 347.72429737 -1147.23446945 340.25713035 -1144.125 332.875 C-1143.53912109 331.50794922 -1143.53912109 331.50794922 -1142.94140625 330.11328125 C-1139.98495027 322.00778231 -1138.93065965 310.20626675 -1142.26171875 302.11328125 C-1143.74085984 300.07509471 -1145.21440514 298.50957213 -1147.125 296.875 C-1147.68574219 296.35550781 -1148.24648437 295.83601563 -1148.82421875 295.30078125 C-1151.15555868 292.89861849 -1151.15555868 292.89861849 -1154.125 291.875 Z " fill="#FEFEFE" transform="translate(4919.125,2030.125)"/>
<path d="M0 0 C3.04103074 2.52183037 3.84085399 4.06501716 4.5 7.9375 C3.71150272 12.76704585 1.75483532 15.64764984 -2.12890625 18.640625 C-5.66515332 21.04084542 -9.17117523 23.08558762 -13 25 C-10.03 24.67 -7.06 24.34 -4 24 C-4 24.66 -4 25.32 -4 26 C-3.50371094 25.71125 -3.00742188 25.4225 -2.49609375 25.125 C2.31007855 22.498477 5.5337284 21.54447737 11 22 C11.34336587 29.76666707 8.8119101 35.43163347 5.875 42.5 C5.1634375 44.29630859 5.1634375 44.29630859 4.4375 46.12890625 C0.84893952 54.88693358 -2.47006087 61.99415537 -11.5 65.875 C-24.44223015 71.9476474 -35.25650308 80.34563368 -46.16503906 89.47363281 C-47.83388827 90.86182404 -49.51643507 92.22926647 -51.2109375 93.5859375 C-55.14629243 96.74500324 -58.98337262 99.8758052 -62.5 103.5 C-66.4743051 107.59587208 -70.88743195 111.09391829 -75.33691406 114.65771484 C-77.16042655 116.12948109 -78.96757381 117.6199184 -80.7734375 119.11328125 C-88.32488874 125.33944727 -95.9791995 131.28563216 -104.01171875 136.87890625 C-106.76279471 138.83163075 -109.38152304 140.87455905 -112 143 C-120.9647612 149.97961662 -130.04178886 156.80723795 -139.14111328 163.60986328 C-141.76282585 165.5704663 -144.38143878 167.53519084 -147 169.5 C-150.24479167 171.93359375 -153.48958333 174.3671875 -156.734375 176.80078125 C-157.38962158 177.29223633 -158.04486816 177.78369141 -158.7199707 178.29003906 C-160.0751986 179.30641924 -161.43050481 180.322695 -162.78588867 181.33886719 C-166.25624249 183.94091068 -169.72518624 186.54479546 -173.19140625 189.15234375 C-179.88374222 194.18421087 -186.59537955 199.18111046 -193.37890625 204.08984375 C-198.29361258 207.67150008 -203.14212017 211.34187353 -208 215 C-217.67198153 222.28081018 -227.37888696 229.50850798 -237.15429688 236.64990234 C-238.98511145 237.9891093 -240.81331571 239.33179625 -242.640625 240.67578125 C-255.32408208 250.00259942 -268.06436132 259.24887708 -280.9375 268.3125 C-291.24284378 275.57069048 -301.38201857 283.00334518 -311.34716797 290.72216797 C-312.96933138 291.97628958 -314.59518145 293.2254372 -316.22265625 294.47265625 C-326.98963542 302.72461308 -337.67876746 311.06101768 -348.15234375 319.68359375 C-352.01979682 322.82954666 -355.94216181 325.90293037 -359.86791992 328.97558594 C-363.36581004 331.71377729 -366.84839629 334.46903475 -370.3125 337.25 C-371.87475254 338.50030926 -373.43723896 339.75032636 -375 341 C-376.06734375 341.85658203 -376.06734375 341.85658203 -377.15625 342.73046875 C-381.98935632 346.55667792 -386.98212512 350.11084512 -392.06396484 353.59570312 C-396.47656976 356.62368513 -400.80989582 359.74691581 -405.12890625 362.90625 C-422.75902524 375.76304426 -440.81314867 388.01615558 -458.84375 400.30078125 C-467.28162236 406.05434473 -475.67931757 411.85699412 -484.01049805 417.76416016 C-488.13238441 420.68630996 -492.27317192 423.57615317 -496.4375 426.4375 C-501.74048361 430.0949598 -506.97029015 433.84633739 -512.1875 437.625 C-520.34878239 443.53573926 -528.53206249 449.37681465 -536.9375 454.9375 C-540.7738584 457.48207317 -544.5400803 460.08707174 -548.25 462.8125 C-566.95049358 476.5423164 -586.43075428 489.59602578 -606.39453125 501.41796875 C-609.53163275 503.32280549 -612.60908301 505.31498904 -615.6875 507.3125 C-625.8793737 513.90985019 -636.34794534 520.03581292 -646.8125 526.1875 C-647.53928955 526.61482422 -648.2660791 527.04214844 -649.01489258 527.48242188 C-649.71767334 527.89556641 -650.4204541 528.30871094 -651.14453125 528.734375 C-651.81436035 529.12818359 -652.48418945 529.52199219 -653.17431641 529.92773438 C-654.68157197 530.81297995 -656.19021139 531.69586889 -657.69921875 532.578125 C-670.90951415 540.38318918 -683.62307202 548.94059911 -696 558 C-696.8146875 558.5878125 -697.629375 559.175625 -698.46875 559.78125 C-711.66616603 569.43309157 -721.83064965 582.70679758 -729.75 596.875 C-730.52597534 598.24603882 -730.52597534 598.24603882 -731.31762695 599.64477539 C-733.80034958 604.04120787 -736.2546097 608.4525758 -738.68359375 612.87890625 C-742.77133815 620.3255663 -746.92756156 627.6356297 -751.59960938 634.73291016 C-755.05408328 640.00143981 -758.23442661 645.41670607 -761.375 650.87719727 C-763.91642712 655.26679014 -766.64047729 659.48471343 -769.47583008 663.68969727 C-772.03400984 667.56732903 -774.38400012 671.56578264 -776.75 675.5625 C-782.0484229 684.45198464 -787.48397901 693.2444461 -793 702 C-799.97026508 713.07933785 -806.81339661 724.22267119 -813.47265625 735.4921875 C-816.81510216 741.12464738 -820.30448037 746.6573382 -823.8125 752.1875 C-828.63678081 759.79587638 -833.33783167 767.46504499 -837.93652344 775.21142578 C-839.71897052 778.20917769 -841.51665707 781.19776149 -843.3125 784.1875 C-844.05731002 785.4296765 -844.80210113 786.67186433 -845.546875 787.9140625 C-847.34491959 790.91129881 -849.14820513 793.9053368 -850.953125 796.8984375 C-855.45555202 804.37239527 -859.95468281 811.84208251 -864.25 819.4375 C-868.00258904 826.06292174 -871.98774218 832.52970634 -876 839 C-878.93479114 843.79375588 -881.79433369 848.6199185 -884.53515625 853.52734375 C-895.76302873 873.50868582 -895.76302873 873.50868582 -904 879 C-907.5625 879.25 -907.5625 879.25 -911 879 C-911.66 878.34 -912.32 877.68 -913 877 C-912.625 873.375 -912.625 873.375 -912 870 C-914.66924365 872.05913082 -917.0489259 874.05421519 -919.3125 876.5625 C-925.57871698 882.24581308 -933.10432629 882.57099884 -941.1875 882.875 C-942.64446289 882.96394531 -942.64446289 882.96394531 -944.13085938 883.0546875 C-948.17345729 883.23201873 -951.2318171 883.29659571 -955.03515625 881.828125 C-960.0009198 877.20789172 -961.58952212 868.81997123 -962.01953125 862.21875 C-961.92647257 851.64728373 -956.86329964 843.07875098 -952 834 C-951.49404297 833.04561035 -950.98808594 832.0912207 -950.46679688 831.10791016 C-948.79835855 827.96343089 -947.12022442 824.82435598 -945.4375 821.6875 C-944.90793701 820.6979834 -944.37837402 819.7084668 -943.83276367 818.68896484 C-940.16875966 811.92924673 -936.18296415 805.44881117 -932 799 C-930.97659419 797.38704601 -929.955657 795.77252237 -928.9375 794.15625 C-928.45466553 793.39103027 -927.97183105 792.62581055 -927.47436523 791.83740234 C-926.74455444 790.68038818 -926.74455444 790.68038818 -926 789.5 C-917.59940279 776.1944083 -909.10126129 762.95650368 -900.54296875 749.75195312 C-897.35802614 744.8371832 -894.17692889 739.91995366 -891 735 C-890.04480469 733.52273438 -890.04480469 733.52273438 -889.0703125 732.015625 C-885.37793864 726.26436986 -881.84120592 720.43069385 -878.34423828 714.55957031 C-876.04274155 710.70503107 -873.68174172 706.89948607 -871.25 703.125 C-868.29335448 698.51452308 -865.62059366 693.80679544 -863 689 C-854.73215085 674.00625557 -854.73215085 674.00625557 -850.6875 667.875 C-847.10964888 662.36544523 -843.96433582 656.63474342 -840.8125 650.875 C-840.30098389 649.94413574 -839.78946777 649.01327148 -839.26245117 648.05419922 C-836.59829324 643.1476176 -834.13768093 638.2232353 -831.92260742 633.09863281 C-830.48112088 629.81971819 -828.86947648 626.63127443 -827.25 623.4375 C-826.93417969 622.81037109 -826.61835938 622.18324219 -826.29296875 621.53710938 C-825.53053195 620.02378785 -824.76555113 618.51174845 -824 617 C-824.97195312 617.30292969 -825.94390625 617.60585937 -826.9453125 617.91796875 C-838.83415309 621.5552274 -850.8350243 624.44545392 -863 627 C-864.16015625 627.25007813 -865.3203125 627.50015625 -866.515625 627.7578125 C-883.22834223 630.86410288 -902.93284181 631.35354832 -917.56640625 621.77734375 C-926.62958097 615.15817121 -933.16785887 607.5240712 -939 598 C-939.35868164 597.41976074 -939.71736328 596.83952148 -940.08691406 596.24169922 C-949.53783103 580.65154198 -955.37568523 562.08331205 -951.53564453 543.78759766 C-950.13677255 538.46266347 -948.40927595 533.2570152 -945.48046875 528.56640625 C-943.59927366 525.30533719 -942.64911232 521.90665871 -941.625 518.3125 C-937.00091475 503.04504611 -929.90579397 493.24414928 -916 485 C-915.37544922 484.62246582 -914.75089844 484.24493164 -914.10742188 483.85595703 C-911.97704153 482.57444673 -909.83472807 481.3155525 -907.6875 480.0625 C-906.99325928 479.64806641 -906.29901855 479.23363281 -905.58374023 478.80664062 C-900.55721129 475.93887487 -900.55721129 475.93887487 -897.88793945 476.23168945 C-893.42175168 478.04923671 -891.65121742 484.73669212 -889.80761719 489.00195312 C-884.23942673 502.77766979 -884.0005596 516.99949239 -883.859375 531.62890625 C-883.84485794 532.84924561 -883.84485794 532.84924561 -883.83004761 534.09423828 C-883.75013424 540.86062559 -883.75013424 540.86062559 -883.74951172 544.11547852 C-883.74617211 546.59990569 -883.71168286 549.08232983 -883.671875 551.56640625 C-883.6789447 552.31128799 -883.6860144 553.05616974 -883.69329834 553.82362366 C-883.57955187 558.73380762 -882.35826523 561.7113542 -879.46075439 565.66758728 C-877.67541104 567.29607062 -876.36917891 567.63829316 -874 568 C-857.96194986 567.00242611 -842.10165222 562.19842654 -827 557 C-826.18805176 556.72285156 -825.37610352 556.44570312 -824.53955078 556.16015625 C-786.99096987 543.10521192 -760.20931362 518.47012102 -742 483.375 C-739.14408484 477.90231456 -736.00206613 472.93016936 -732.2578125 468.00390625 C-729.98447819 464.97934901 -727.82470867 461.8951046 -725.66918945 458.78637695 C-720.78231725 451.74850835 -715.68521242 445.08315469 -710.11328125 438.578125 C-707.81611358 435.77566537 -705.95772686 432.89756445 -704.1328125 429.77734375 C-702.94335264 427.91112225 -701.61864997 426.38050272 -700.125 424.75 C-696.6679943 420.86751667 -694.27241693 416.48858691 -691.71875 411.98046875 C-689.78861578 408.63344054 -687.686506 405.45005107 -685.51953125 402.25390625 C-680.95105655 395.47753119 -676.68690179 388.51612807 -672.5 381.5 C-666.5894396 371.59922435 -660.31686249 361.94128925 -654.05175781 352.26269531 C-648.75213021 344.07435121 -643.50014071 335.87534011 -638.5 327.5 C-634.77494877 321.26046139 -630.9394864 315.10699499 -627 309 C-626.12202248 307.62002913 -625.24444985 306.23980062 -624.3671875 304.859375 C-623.41170852 303.3644234 -622.45597895 301.86963194 -621.5 300.375 C-621.06123535 299.68229004 -620.6224707 298.98958008 -620.17041016 298.27587891 C-617.78446523 294.56216485 -615.2859192 291.08343806 -612.4921875 287.6640625 C-608.65875392 282.80594273 -606.16019057 277.61864572 -603.625 272 C-602.67457061 269.9557758 -601.72142059 267.91281444 -600.765625 265.87109375 C-600.29962891 264.87319824 -599.83363281 263.87530273 -599.35351562 262.84716797 C-594.82218153 253.3153465 -589.6491675 244.10949947 -584.4375 234.9375 C-576.8959761 221.65478146 -570.44100867 207.84054025 -564 194 C-562.85444364 191.54153754 -561.70853345 189.08324009 -560.5625 186.625 C-560.13843872 185.71512329 -560.13843872 185.71512329 -559.70581055 184.78686523 C-556.25946023 177.40017809 -552.7693068 170.03435013 -549.26953125 162.67285156 C-548.38018422 160.80043402 -547.49228532 158.92732829 -546.60546875 157.05371094 C-545.15652407 153.99276648 -543.70359063 150.93374048 -542.25 147.875 C-541.80237305 146.92753906 -541.35474609 145.98007813 -540.89355469 145.00390625 C-533.2514698 128.95949938 -533.2514698 128.95949938 -527 124 C-525.56075866 120.89131191 -525.56075866 120.89131191 -524.5 117.25 C-520.49496637 105.45786549 -514.09364852 94.80979055 -508 84 C-507.59958496 83.28505371 -507.19916992 82.57010742 -506.78662109 81.83349609 C-504.56288744 77.86614141 -502.29389288 73.9271446 -500 70 C-499.42668945 69.01773437 -499.42668945 69.01773437 -498.84179688 68.015625 C-496.32267733 63.70397824 -493.78830913 59.40159965 -491.24365234 55.10498047 C-490.03799126 53.06430322 -488.84072374 51.01889397 -487.64453125 48.97265625 C-481.94164223 39.2681244 -476.17312563 29.53050185 -467.8359375 21.828125 C-465.97314875 20.14120197 -465.97314875 20.14120197 -465.02319336 18.24682617 C-463.52640022 15.87354062 -462.36520522 14.54556427 -460 13 C-454.58366069 12.21050231 -449.26280031 12.51683987 -443.8125 12.8125 C-441.60121649 12.91571408 -439.3910238 13.00835818 -437.1783905 13.07707214 C-435.17895058 13.14141247 -433.18074931 13.24131556 -431.18286133 13.34301758 C-427.91333042 13.35316378 -427.91333042 13.35316378 -426.2487793 11.01049805 C-425.83668213 10.34703369 -425.42458496 9.68356934 -425 9 C-421.87376745 8.68099668 -419.82883747 8.58558126 -417 10 C-416.3451755 19.81529373 -417.94015098 27.32745254 -421.5 36.4375 C-421.95342773 37.64962158 -422.40685547 38.86174316 -422.87402344 40.1105957 C-423.79648521 42.57486333 -424.72706557 45.03610819 -425.66601562 47.49414062 C-427.58517269 52.53789895 -429.41646017 57.61216051 -431.25 62.6875 C-431.90223342 64.47139451 -432.55457395 66.25524986 -433.20703125 68.0390625 C-434.33881459 71.14922463 -435.44356983 74.26586484 -436.51171875 77.3984375 C-439.843473 87.15134967 -443.71791428 96.58622727 -447.8515625 106.02734375 C-449.31726359 109.37789425 -450.70321774 112.74801069 -452.0390625 116.15234375 C-453.73551646 120.43106625 -455.64828379 124.53263388 -457.75 128.625 C-458.45323552 130.01296484 -459.15635726 131.40098734 -459.859375 132.7890625 C-460.21451172 133.48676758 -460.56964844 134.18447266 -460.93554688 134.90332031 C-462.30466982 137.60011568 -463.65713223 140.30504023 -465.00756836 143.01123047 C-466.00946051 145.01895825 -467.01450631 147.02508896 -468.01953125 149.03125 C-469.29876942 151.58848013 -470.56669863 154.15077583 -471.82421875 156.71875 C-479.67222121 172.68494568 -488.20910562 188.32235248 -497.11328125 203.72265625 C-498.86541575 206.76621907 -500.58466616 209.82559426 -502.2956543 212.89233398 C-506.29505459 220.05568148 -510.4318437 227.11985822 -514.67578125 234.140625 C-517.19054911 238.30433291 -519.66097033 242.49361522 -522.125 246.6875 C-522.5482959 247.40784424 -522.9715918 248.12818848 -523.40771484 248.87036133 C-525.80234628 252.94963699 -528.18557682 257.03537467 -530.5625 261.125 C-535.83754087 270.176772 -541.22876704 279.15878537 -546.75 288.0625 C-550.44132959 294.04423289 -554.04200728 300.07781265 -557.625 306.125 C-558.16350586 307.0312915 -558.70201172 307.93758301 -559.25683594 308.87133789 C-562.49286895 314.34812065 -565.60386442 319.87666247 -568.61254883 325.48168945 C-570.02939733 328.05335799 -571.52746692 330.55987459 -573.0625 333.0625 C-574.93863006 336.15401509 -576.66638256 339.24941684 -578.25 342.5 C-585.93367309 358.16382231 -594.78490709 372.8220719 -605.71142578 386.4296875 C-613.16553446 395.84323545 -619.3665142 406.17964817 -625.4921875 416.48828125 C-631.0289339 425.71141061 -636.75209133 434.27183785 -643.8359375 442.37890625 C-647.60579482 446.69134727 -647.60579482 446.69134727 -649 452 C-648.23816406 451.49210937 -647.47632812 450.98421875 -646.69140625 450.4609375 C-645.65886719 449.77257813 -644.62632812 449.08421875 -643.5625 448.375 C-643.01045898 448.00673096 -642.45841797 447.63846191 -641.88964844 447.2590332 C-639.51593479 445.6757538 -637.14154016 444.09361906 -634.76171875 442.51953125 C-629.13419457 438.79334534 -623.5749684 434.97025903 -618.02246094 431.13354492 C-613.04973264 427.70256061 -608.03277726 424.34212965 -603 421 C-601.57011336 420.04717377 -600.14042348 419.09405221 -598.7109375 418.140625 C-598.00453125 417.66971436 -597.298125 417.19880371 -596.5703125 416.71362305 C-595.05719234 415.70482018 -593.5441778 414.6958589 -592.03125 413.68676758 C-588.30699907 411.20304327 -584.58161446 408.72109928 -580.8515625 406.24609375 C-572.96765305 401.01184811 -572.96765305 401.01184811 -565.1875 395.625 C-560.57943417 392.36863348 -555.88774636 389.24587425 -551.1875 386.125 C-539.55388952 378.39399252 -528.1153912 370.40764607 -516.76611328 362.26611328 C-513.84694861 360.17338616 -510.92323622 358.0870338 -508 356 C-506.83722863 355.16928617 -505.67446822 354.33855698 -504.51171875 353.5078125 C-502.14024492 351.81380801 -499.76773834 350.12126283 -497.39453125 348.4296875 C-486.80579124 340.8802814 -476.29531625 333.24031823 -465.90283203 325.42236328 C-462.12430929 322.58287109 -458.33062465 319.76912625 -454.5 317 C-439.8193766 306.37298157 -425.38489635 295.37173243 -411.125 284.1875 C-408.04859935 281.78295697 -404.91564382 279.47329439 -401.75 277.1875 C-395.39458049 272.59354077 -389.19867307 267.80134819 -383 263 C-375.29553749 257.04264609 -367.54658699 251.15527956 -359.7421875 245.32958984 C-355.20276175 241.93051886 -350.76083521 238.43089488 -346.35546875 234.859375 C-343.78651664 232.83147914 -341.15641509 230.91172969 -338.5 229 C-334.20042829 225.90406884 -330.05503893 222.67214689 -325.9375 219.33984375 C-322.12187033 216.30053235 -318.2516071 213.33593589 -314.375 210.375 C-313.67036621 209.83657471 -312.96573242 209.29814941 -312.23974609 208.7434082 C-308.77483169 206.10083457 -305.29885465 203.47487282 -301.8046875 200.87109375 C-298.71449968 198.5574302 -295.71391384 196.16208844 -292.75 193.6875 C-287.96179052 189.74349274 -283.05546154 185.9979714 -278.078125 182.296875 C-268.83426873 175.39917514 -259.76509334 168.26708313 -250.66479492 161.18188477 C-245.15322694 156.89225134 -239.62769771 152.62163779 -234.0859375 148.37109375 C-231.94081718 146.72288105 -229.80007736 145.07005649 -227.6640625 143.41015625 C-227.10307861 142.97541992 -226.54209473 142.54068359 -225.96411133 142.09277344 C-224.42939764 140.90311511 -222.89627333 139.71140721 -221.36328125 138.51953125 C-212.87274691 132.07834516 -203.95745132 126.42025479 -194.85546875 120.89453125 C-180.36425035 112.02805244 -167.02480652 101.60104274 -153.64794922 91.16503906 C-147.48846745 86.36493605 -141.26729454 81.65871824 -135 77 C-125.48676852 69.89981927 -116.06077768 62.69398554 -106.67578125 55.42578125 C-97.17882434 48.08021585 -87.4792829 41.04160592 -77.70141602 34.07568359 C-74.23044934 31.60093004 -70.76931603 29.1131795 -67.31640625 26.61328125 C-66.51726807 26.03473389 -65.71812988 25.45618652 -64.89477539 24.86010742 C-63.33465649 23.72974092 -61.77521429 22.59843965 -60.21655273 21.46606445 C-47.53625316 12.27918671 -35.18057207 6.5828116 -20.0625 2.5625 C-18.6249939 2.17408936 -18.6249939 2.17408936 -17.15844727 1.77783203 C-11.28624206 0.29154644 -6.05957228 -0.44731095 0 0 Z " fill="#FEFEFE" transform="translate(3605,1719)"/>
<path d="M0 0 C2.42109809 -0.07706799 4.8412157 -0.12711846 7.26318359 -0.16748047 C8.00930908 -0.1889917 8.75543457 -0.21050293 9.52416992 -0.23266602 C14.32861848 -0.26153956 17.71229685 0.2503549 21.63818359 3.08251953 C24.7517395 8.34857603 25.15269193 13.04937865 25.07568359 19.08251953 C25.06541138 20.32884155 25.06541138 20.32884155 25.05493164 21.6003418 C24.85168438 29.54677696 23.25346719 36.55497629 20.63818359 44.08251953 C20.28755859 45.11763672 19.93693359 46.15275391 19.57568359 47.21923828 C16.49461669 55.40332225 11.85761944 62.1263841 6.63818359 69.08251953 C5.57277344 70.50757812 5.57277344 70.50757812 4.48583984 71.96142578 C3.57125 73.01136719 3.57125 73.01136719 2.63818359 74.08251953 C1.97818359 74.08251953 1.31818359 74.08251953 0.63818359 74.08251953 C0.63818359 74.74251953 0.63818359 75.40251953 0.63818359 76.08251953 C-0.02181641 76.08251953 -0.68181641 76.08251953 -1.36181641 76.08251953 C-1.69181641 77.07251953 -2.02181641 78.06251953 -2.36181641 79.08251953 C-4.47150512 80.92519619 -6.57470839 82.64001487 -8.79931641 84.33251953 C-9.75221558 85.06668091 -9.75221558 85.06668091 -10.72436523 85.81567383 C-19.26439708 92.35731882 -27.82932005 98.08031847 -37.36181641 103.08251953 C-38.64390433 103.77889571 -39.92509904 104.476918 -41.20556641 105.17626953 C-45.55867621 107.5423357 -49.94665416 109.83449568 -54.36181641 112.08251953 C-55.3237793 112.57341064 -55.3237793 112.57341064 -56.30517578 113.07421875 C-82.49112801 126.16041094 -111.71002703 133.76960495 -140.36181641 139.08251953 C-141.45993652 139.288125 -142.55805664 139.49373047 -143.68945312 139.70556641 C-150.89056591 141.02393934 -158.10859936 142.09671183 -165.36181641 143.08251953 C-166.87316162 143.30681641 -166.87316162 143.30681641 -168.41503906 143.53564453 C-187.16122514 146.25596676 -205.89025285 146.39840958 -224.79931641 146.45751953 C-226.03745087 146.46537476 -227.27558533 146.47322998 -228.55123901 146.48132324 C-272.64766505 146.69884006 -319.77778182 138.49651701 -354.36181641 109.08251953 C-355.37501953 108.26912109 -356.38822266 107.45572266 -357.43212891 106.61767578 C-362.05511003 102.61725612 -365.62525565 97.89882201 -369.36181641 93.08251953 C-369.98443359 92.29876953 -370.60705078 91.51501953 -371.24853516 90.70751953 C-382.98773809 75.0904226 -389.72313125 53.61123145 -387.36181641 34.08251953 C-386.15839505 30.20978084 -384.70469563 26.54358409 -381.36181641 24.08251953 C-374.2403149 20.53954291 -366.09152172 18.18340816 -358.28759766 20.77001953 C-355.62473979 22.58486789 -354.55515904 24.65217425 -352.98681641 27.45751953 C-352.37837891 28.53646484 -351.76994141 29.61541016 -351.14306641 30.72705078 C-349.49567281 33.8303646 -347.98250778 36.96667536 -346.48681641 40.14501953 C-337.16748126 58.83235475 -320.91721552 68.72305646 -301.76171875 75.29394531 C-283.35577205 81.341881 -264.68182887 82.47753009 -245.42431641 82.39501953 C-244.53473236 82.39319672 -243.64514832 82.3913739 -242.72860718 82.38949585 C-216.82016064 82.30062454 -190.80044842 80.01311466 -166.26318359 71.09863281 C-163.34657526 70.0771818 -160.41363911 69.19952156 -157.44775391 68.33251953 C-150.61516104 66.24203296 -144.01872815 63.6788254 -137.43041992 60.9284668 C-135.53709124 60.13992796 -133.6383167 59.3657053 -131.73876953 58.59228516 C-125.89757572 56.18676288 -120.33902212 53.70541524 -115.07299805 50.19262695 C-112.34564708 48.42329255 -109.42124005 47.09679631 -106.48681641 45.70751953 C-100.31486488 42.69769016 -94.88847049 39.13645491 -89.36181641 35.08251953 C-84.08575387 31.33173531 -78.74227279 27.681625 -73.36181641 24.08251953 C-72.66024414 23.61233398 -71.95867187 23.14214844 -71.23583984 22.65771484 C-48.84318694 7.83527625 -26.79759582 0.93628152 0 0 Z " fill="#FEFEFE" transform="translate(4477.36181640625,2328.91748046875)"/>
<path d="M0 0 C2.20246904 4.40493809 1.44413755 9.48527763 0.10546875 14.05078125 C-0.6094423 16.07930976 -1.35128072 18.09863437 -2.125 20.10546875 C-3.06447714 23.21329268 -3.15303099 25.77200262 -3 29 C-1.948125 28.01 -1.948125 28.01 -0.875 27 C2.44377677 24.69128572 4.04644974 24.55073292 8 25 C9.74006348 26.74006348 9.14032866 28.98992297 9.15179443 31.30839539 C9.14810852 32.04838272 9.14442261 32.78837006 9.140625 33.55078125 C9.13806702 34.31667068 9.13550903 35.08256012 9.13287354 35.87165833 C9.06209451 43.6799586 8.47111587 51.41559737 7.75 59.1875 C7.61415237 60.70896045 7.47858079 62.23044557 7.34326172 63.75195312 C6.23389934 76.06621124 4.94796142 88.36150483 3.62426758 100.65429688 C2.01797726 115.60102421 0.55958598 130.56120914 -0.884552 145.52438354 C-2.07835056 157.88688928 -3.34189318 170.22993127 -4.8125 182.5625 C-6.35599673 195.96896085 -6.95997785 208.4930922 -4.20629883 221.76855469 C-2.77969373 229.08931312 -2.4687093 236.43916406 -2.0625 243.875 C-0.82778358 264.62182211 1.60095086 287.11187449 18 302 C22.4697269 305.85060933 27.31528869 308.35832549 32.55078125 311.0234375 C35 313 35 313 35.35546875 316.2265625 C35.23816406 317.14179688 35.12085937 318.05703125 35 319 C35.59296875 319.09410156 36.1859375 319.18820312 36.796875 319.28515625 C39.49142641 320.15945219 40.46322756 321.26720318 42.25 323.4375 C42.77078125 324.05496094 43.2915625 324.67242188 43.828125 325.30859375 C45 327 45 327 45 329 C45.66 329 46.32 329 47 329 C56.77961393 337.9255723 67.99875577 350.98631352 69.23828125 364.62109375 C69.43736342 372.17573817 69.43736342 372.17573817 67.375 376.0625 C61.82726895 380.58828059 55.28904733 380.35574354 48.4375 380.65625 C44.99160101 381.0008399 42.25115539 381.84692356 39 383 C37.05103287 383.4209769 35.09164383 383.7963566 33.125 384.125 C32.15820312 384.29257813 31.19140625 384.46015625 30.1953125 384.6328125 C22.71581895 385.4923142 17.11369791 384.8298448 10.0625 382.375 C9.26908203 382.10212158 8.47566406 381.82924316 7.65820312 381.5480957 C1.79145528 379.44946584 -3.20635854 377.04022041 -8 373 C-9.15435547 372.03126953 -9.15435547 372.03126953 -10.33203125 371.04296875 C-20.81702649 361.87891779 -30.45829901 352.00171088 -39 341 C-39.54140625 340.31421875 -40.0828125 339.6284375 -40.640625 338.921875 C-42.14180114 336.97824694 -43.58092877 335.00429468 -45 333 C-45.52980469 332.26265625 -46.05960938 331.5253125 -46.60546875 330.765625 C-54.81393134 318.66894329 -61.34183563 304.39998397 -64 290 C-64.25136719 288.85402344 -64.50273437 287.70804688 -64.76171875 286.52734375 C-68.54737111 268.37467902 -69.13479613 249.78120546 -70.125 231.3125 C-70.16956329 230.50440887 -70.21412659 229.69631775 -70.26004028 228.86373901 C-71.32146202 209.35185132 -71.16934183 190.0014046 -69.9375 170.5 C-69.87542358 169.50997986 -69.81334717 168.51995972 -69.74938965 167.49993896 C-67.48273281 132.4929144 -62.80556677 97.60129392 -54.7890625 63.4375 C-54.0163233 60.07111139 -53.30853868 56.69802689 -52.625 53.3125 C-50.62944856 43.46645227 -48.70447124 33.97991837 -44 25 C-43.61070312 24.24847656 -43.22140625 23.49695312 -42.8203125 22.72265625 C-37.688719 13.71721275 -30.10009275 9.73831021 -20.8125 5.75 C-18.86052238 4.89097645 -16.90869353 4.03161474 -14.95703125 3.171875 C-13.67276245 2.6164502 -13.67276245 2.6164502 -12.36254883 2.04980469 C-10.01207975 1.04363427 -10.01207975 1.04363427 -7.8894043 -0.15136719 C-5.03894158 -1.43166289 -2.94666207 -0.78577655 0 0 Z " fill="#FEFEFE" transform="translate(3133,2173)"/>
<path d="M0 0 C5.79342021 3.36964237 10.46868262 6.61542821 14.1875 12.25 C17.27372233 25.00638564 9.64918748 43.47779712 4.125 55.125 C2 57.4375 2 57.4375 -0.875 60.125 C-1.54917969 60.94871094 -2.22335938 61.77242187 -2.91796875 62.62109375 C-9.56535878 70.68720385 -9.56535878 70.68720385 -13.8125 71.375 C-15.796875 71.3671875 -15.796875 71.3671875 -17.875 71.125 C-18.62265625 71.04507813 -19.3703125 70.96515625 -20.140625 70.8828125 C-29.49794747 69.40375185 -40.37663267 66.307406 -46.875 59.125 C-49.60446175 53.70062665 -50.72564373 48.55078633 -51.5625 42.5625 C-51.6877002 41.68134521 -51.81290039 40.80019043 -51.94189453 39.89233398 C-53.69687442 26.78012711 -54.83161199 11.53594597 -46.875 0.125 C-45.26171875 -1.38671875 -45.26171875 -1.38671875 -43.5625 -2.5625 C-43.00949219 -2.95824219 -42.45648437 -3.35398437 -41.88671875 -3.76171875 C-28.64371373 -11.09037201 -12.57510241 -6.510271 0 0 Z " fill="#FEFEFE" transform="translate(3567.875,1983.875)"/>
<path d="M0 0 C0.68964844 0.20496094 1.37929688 0.40992188 2.08984375 0.62109375 C10.84888608 3.38446275 15.17169384 9.11776158 19.875 16.75 C25.0691188 28.55481546 24.24511855 44.99528501 20.09765625 57 C17.04571465 63.91598783 12.05463182 67.98053202 5.25 71.0625 C-1.22439862 73.43214973 -9.09945117 74.99404716 -15.8046875 72.921875 C-27.8590824 66.83379677 -32.48943273 51.11543406 -36.48461914 39.18701172 C-36.84031982 38.09404785 -37.19602051 37.00108398 -37.5625 35.875 C-37.90466553 34.82973145 -38.24683105 33.78446289 -38.59936523 32.70751953 C-42.50306924 20.19460319 -42.50306924 20.19460319 -42.125 13.75 C-40.68359375 11.1640625 -40.68359375 11.1640625 -38.5625 9.375 C-37.81226562 8.73304687 -37.06203125 8.09109375 -36.2890625 7.4296875 C-35.57492187 6.87539062 -34.86078125 6.32109375 -34.125 5.75 C-33.238125 5.0075 -32.35125 4.265 -31.4375 3.5 C-20.95353021 -2.03870102 -11.24478374 -3.63489229 0 0 Z " fill="#FEFEFE" transform="translate(5015.125,1857.25)"/>
</svg>
