<?xml version="1.0" encoding="UTF-8"?>
<svg version="1.1" xmlns="http://www.w3.org/2000/svg" width="7681" height="4320">
<path d="M0 0 C1.78623092 1.59820661 3.379453 3.22752672 5 5 C5.33 5.33 5.66 5.66 6 6 C6.93725007 15.37250071 0.4321505 22.511315 -4.4375 30.0625 C-9.37667138 37.76130037 -14.14151446 45.53654969 -18.75 53.4375 C-22.74889788 60.28719224 -26.8770891 66.97834557 -31.33959961 73.53442383 C-35.98763468 80.38795669 -40.22878943 87.4830742 -44.51855469 94.56396484 C-47.13637845 98.86861967 -49.78597841 103.15354557 -52.4375 107.4375 C-52.97656982 108.30914795 -53.51563965 109.1807959 -54.07104492 110.07885742 C-56.82026804 114.51511314 -59.58812652 118.9384537 -62.38671875 123.34375 C-63.20281616 124.6287439 -63.20281616 124.6287439 -64.03540039 125.93969727 C-65.06435868 127.55654142 -66.0959289 129.17172756 -67.13061523 130.78491211 C-71.33262115 137.38182103 -74.8712507 143.01754324 -75 151 C-73.8213337 153.59912251 -73.8213337 153.59912251 -71 155 C-63.14117809 157.17175918 -54.89168299 157.77469798 -46.8125 158.62109375 C-45.46062166 158.76732876 -44.10881615 158.91423849 -42.75708008 159.06178284 C-37.07050068 159.68158026 -31.38293332 160.29182994 -25.69433594 160.89282227 C-22.19354307 161.26314368 -18.69385911 161.64278993 -15.19467163 162.02797127 C-13.24031003 162.2403548 -11.28483332 162.44239693 -9.3293457 162.64414978 C1.31930478 163.82039537 11.09290469 165.28252328 19 173 C22.60123815 177.95170246 22.80068205 183.08231543 22 189 C18.8506201 199.6761998 9.63663775 206.8942826 0.40234375 212.21484375 C-22.50520714 224.23407539 -48.14444751 224.34713871 -72.5 216.875 C-94.73363538 208.99022835 -115.85010154 194.10917404 -126.6875 172.66015625 C-128.94687182 167.83183522 -131.04719024 162.95995342 -133 158 C-155.73303414 169.08777414 -176.6123412 182.01443177 -197.40429688 196.42773438 C-213.68059508 207.7061928 -230.44761114 217.82277697 -248 227 C-249.22819458 227.64424927 -249.22819458 227.64424927 -250.48120117 228.30151367 C-256.57205794 231.4278527 -262.77810772 234.03697058 -269.1875 236.4375 C-270.21544678 236.82292969 -271.24339355 237.20835937 -272.30249023 237.60546875 C-289.56540356 243.9168393 -306.52564731 248.18748396 -324.94873047 248.24023438 C-326.96755721 248.24984555 -328.98532151 248.28089016 -331.00390625 248.3125 C-343.25046255 248.36038487 -354.97665552 246.53322343 -366.5625 242.375 C-367.26157471 242.1262915 -367.96064941 241.87758301 -368.6809082 241.62133789 C-380.82449244 237.04152687 -392.81207919 229.33646373 -399.6875 218.1875 C-400.07687744 217.56367432 -400.46625488 216.93984863 -400.86743164 216.29711914 C-411.08066367 199.61673743 -410.53715044 179.58632848 -406.10546875 161.03125 C-402.43663313 147.10260147 -396.29699037 133.98702381 -390.62036133 120.79345703 C-390.1745874 119.74399902 -389.72881348 118.69454102 -389.26953125 117.61328125 C-388.86581299 116.66880127 -388.46209473 115.72432129 -388.04614258 114.7512207 C-385.95741688 109.25814022 -385 103.85864926 -385 98 C-385.78761719 98.60585937 -386.57523438 99.21171875 -387.38671875 99.8359375 C-387.90596924 100.23530518 -388.42521973 100.63467285 -388.96020508 101.04614258 C-390.1308322 101.94673953 -391.30123546 102.84762754 -392.47143555 103.7487793 C-395.37439097 105.98369544 -398.27959243 108.21534893 -401.1953125 110.43359375 C-409.31971828 116.63379816 -417.26761346 123.03346556 -425.17529297 129.50732422 C-426.78223696 130.82186202 -428.39279191 132.13198302 -430.00390625 133.44140625 C-434.26719458 136.91037011 -438.49592706 140.41320753 -442.67724609 143.98022461 C-448.2979688 148.77437044 -454.01098471 153.41292588 -459.84350586 157.94702148 C-463.58986819 160.86697273 -467.24991988 163.86672848 -470.875 166.9375 C-477.4076878 172.42634954 -484.23967949 177.48381067 -491.08642578 182.57128906 C-497.56238577 187.40636407 -503.94312893 192.36886601 -510.28125 197.3828125 C-523.08381656 207.48475182 -535.9352327 217.47910787 -551 224 C-551.75796875 224.33902344 -552.5159375 224.67804687 -553.296875 225.02734375 C-558.97013229 227.14992449 -564.57369602 227.27203901 -570.5625 227.3125 C-571.35406494 227.31813965 -572.14562988 227.3237793 -572.96118164 227.32958984 C-584.90677033 227.18347401 -595.13869328 223.64472674 -604.1875 215.625 C-607.57098909 211.96360626 -609.94969753 207.95257061 -612.25 203.5625 C-612.72602661 202.67908936 -612.72602661 202.67908936 -613.21166992 201.77783203 C-619.9495397 188.00459915 -620.57267345 173.13811283 -620.5625 158.125 C-620.56611775 155.55929073 -620.57560229 152.9942488 -620.60325623 150.42868042 C-620.61996472 148.8517205 -620.62298313 147.27453727 -620.61024475 145.69754028 C-620.63573668 141.61279605 -620.63573668 141.61279605 -622.35522461 138.00341797 C-624.06145244 136.77412819 -624.06145244 136.77412819 -626.6875 136.9375 C-634.29939559 139.37905142 -639.81985657 145.57890911 -645.0625 151.375 C-645.67174316 152.03765869 -646.28098633 152.70031738 -646.90869141 153.38305664 C-649.94366156 156.69500545 -652.93640658 160.03954026 -655.875 163.4375 C-661.77582138 170.2483983 -668.19807825 176.08564922 -675.22265625 181.72265625 C-677.83524253 183.86490351 -680.32809016 186.08640571 -682.8125 188.375 C-687.24742303 192.41695516 -691.88602619 196.11026986 -696.62744141 199.77954102 C-700.04282019 202.43212435 -703.37757636 205.14501418 -706.64575195 207.97680664 C-745.49629102 241.63496962 -792.13276433 266.69445687 -844.39471436 267.34844971 C-846.39430915 267.37443864 -848.39370741 267.4143608 -850.39306641 267.45458984 C-857.73236787 267.46688031 -862.83207984 267.11690092 -869 263 C-876.88390178 253.29673627 -874.63349737 238.81828464 -873.6796875 227.046875 C-873.03655291 222.9344369 -872.11819541 219.00659757 -871 215 C-870.74089844 214.07074707 -870.48179687 213.14149414 -870.21484375 212.18408203 C-865.00218484 194.17389418 -857.82971247 177.01666862 -850.4375 159.8125 C-849.99110168 158.77336456 -849.54470337 157.73422913 -849.08477783 156.66360474 C-841.34235158 138.70074311 -841.34235158 138.70074311 -837.37939453 130.56787109 C-836.7555764 129.28489388 -836.7555764 129.28489388 -836.11915588 127.97599792 C-835.34293891 126.39385078 -834.5563067 124.81674724 -833.75669861 123.24629211 C-831.37981502 118.42175393 -830.39602727 114.37303468 -830 109 C-832.75063583 108.91748093 -835.49869317 108.85879603 -838.25 108.8125 C-839.00796875 108.78736328 -839.7659375 108.76222656 -840.546875 108.73632812 C-851.61209577 108.59801287 -861.42036742 112.21924086 -871.3125 116.875 C-872.3452002 117.35622314 -873.37790039 117.83744629 -874.44189453 118.33325195 C-885.6336054 123.63973996 -896.36140454 129.66845761 -907 136 C-908.01787598 136.60440918 -909.03575195 137.20881836 -910.08447266 137.83154297 C-927.51017558 148.23732345 -944.31914861 159.45355337 -961 171 C-961.8760791 171.60392578 -962.7521582 172.20785156 -963.65478516 172.83007812 C-976.32016084 181.5747883 -988.41550282 190.86687346 -1000.10644531 200.87524414 C-1004.55345441 204.66705339 -1009.13001266 208.27153452 -1013.74536133 211.85522461 C-1018.54847985 215.60204728 -1023.20909782 219.49944115 -1027.82617188 223.47265625 C-1030.15613898 225.47232151 -1032.44007583 227.29338389 -1035 229 C-1033.55955951 232.31670656 -1031.73676284 234.39798577 -1029.1875 236.9375 C-1017.68543789 249.5270298 -1018.27748364 266.34992689 -1018.7734375 282.30517578 C-1019.73584869 298.00035992 -1024.00788343 313.51066659 -1030 328 C-1030.29245605 328.71671875 -1030.58491211 329.4334375 -1030.88623047 330.171875 C-1041.65310818 356.25405203 -1057.06243687 380.27402354 -1075 402 C-1076.13115234 403.41732422 -1076.13115234 403.41732422 -1077.28515625 404.86328125 C-1079.48685874 407.60861399 -1081.72929489 410.3115161 -1084 413 C-1085.24330078 414.48306641 -1085.24330078 414.48306641 -1086.51171875 415.99609375 C-1097.79904663 429.10442994 -1111.3789123 438.86206471 -1129 441 C-1148.57642962 441.30084524 -1164.27856028 434.78813389 -1178.65209961 421.38891602 C-1195.7202904 404.83313298 -1205.56107269 381.63073243 -1206.04345703 357.85839844 C-1205.94045246 330.43494744 -1195.6175699 306.90970942 -1178.53125 285.90966797 C-1175.72396546 282.40861892 -1173.02634916 278.82360097 -1170.3125 275.25 C-1168.68172475 273.11579717 -1167.04913444 270.98299574 -1165.41601562 268.85058594 C-1164.23819668 267.31129842 -1163.06395515 265.76927436 -1161.890625 264.2265625 C-1155.46967758 255.96713868 -1148.26914403 247.37729927 -1140.30786133 240.54858398 C-1138.56984717 238.82850258 -1138.56984717 238.82850258 -1139 235 C-1139.52851563 234.74992187 -1140.05703125 234.49984375 -1140.6015625 234.2421875 C-1143.61846291 232.67968859 -1146.49464987 230.92233545 -1149.375 229.125 C-1150.04345947 228.70790771 -1150.71191895 228.29081543 -1151.40063477 227.86108398 C-1160.34763824 222.22009675 -1169.10867037 216.29368594 -1177.8984375 210.41235352 C-1184.86325661 205.7528955 -1191.83492396 201.10797757 -1198.875 196.5625 C-1199.50269287 196.15717041 -1200.13038574 195.75184082 -1200.77709961 195.33422852 C-1201.93087547 194.59245887 -1203.08801532 193.85588618 -1204.24902344 193.12548828 C-1205.530415 192.30183866 -1206.79161939 191.44654853 -1208.04003906 190.57373047 C-1212.00243263 187.83278412 -1212.00243263 187.83278412 -1216.60546875 186.8046875 C-1220.19028065 188.59416946 -1222.59487306 191.22208941 -1225.3125 194.125 C-1226.47213115 195.32468554 -1227.63357872 196.52261808 -1228.796875 197.71875 C-1229.62928711 198.57919922 -1229.62928711 198.57919922 -1230.47851562 199.45703125 C-1232.84021697 201.8520814 -1235.35949403 204.02833107 -1237.921875 206.203125 C-1240.08094945 208.06999389 -1242.1756234 209.99917395 -1244.26733398 211.94091797 C-1249.42879102 216.73131118 -1254.71961352 221.26124725 -1260.20703125 225.6796875 C-1264.35170781 229.12295725 -1268.28188194 232.78519212 -1272.234375 236.4453125 C-1278.26263294 242.01378805 -1284.52152514 247.30525416 -1290.79394531 252.5949707 C-1294.3453102 255.59162584 -1297.87656266 258.61025003 -1301.39624023 261.64404297 C-1306.670506 266.18866722 -1311.99180939 270.63800693 -1317.45703125 274.953125 C-1320.43600087 277.35094387 -1323.34313492 279.82844379 -1326.25 282.3125 C-1331.22939884 286.55944061 -1336.31249143 290.64259985 -1341.48071289 294.65673828 C-1346.29385884 298.40891127 -1350.99466273 302.28639431 -1355.6875 306.1875 C-1361.04539363 310.63430836 -1366.46562929 314.87180262 -1372.15234375 318.89453125 C-1375.75059031 321.5549632 -1379.17611611 324.40027255 -1382.625 327.25 C-1407.54026167 347.68811503 -1431.75862665 362.28842319 -1465 360 C-1475.17605129 358.1507695 -1485.17530075 352.8283315 -1492 345 C-1492.680625 344.236875 -1493.36125 343.47375 -1494.0625 342.6875 C-1504.88002722 327.68254288 -1502.70290258 308.03805953 -1500.00390625 290.63745117 C-1496.11865696 268.52290447 -1487.58976332 246.90443361 -1478.20263672 226.60351562 C-1477.02362354 224.05114118 -1475.8715874 221.48790431 -1474.72265625 218.921875 C-1466.61685513 201.04540304 -1455.83785431 185.59727441 -1444 170 C-1443.2575 169.00871094 -1442.515 168.01742187 -1441.75 166.99609375 C-1430.25703266 152.07917989 -1416.8941988 140.11958237 -1398 136 C-1393.9453834 135.63119131 -1389.87955679 135.48830937 -1385.8125 135.3125 C-1384.71357422 135.25255859 -1383.61464844 135.19261719 -1382.48242188 135.13085938 C-1369.61446976 134.57071596 -1369.61446976 134.57071596 -1364 137 C-1361.66073346 140.50889982 -1361.65376323 141.87251019 -1362 146 C-1362.91113281 148.54760742 -1362.91113281 148.54760742 -1364.203125 151.10546875 C-1364.68233398 152.07419922 -1365.16154297 153.04292969 -1365.65527344 154.04101562 C-1366.1815332 155.07935547 -1366.70779297 156.11769531 -1367.25 157.1875 C-1371.62616527 166.04346974 -1375.80357849 174.94449866 -1379.75 184 C-1384.56426987 194.9816274 -1389.70212121 205.77399133 -1394.96749878 216.54437256 C-1400.23664695 227.32285087 -1405.36983441 238.15060944 -1410.38916016 249.0480957 C-1414.41115348 257.77129314 -1418.53793556 266.44027388 -1422.7512207 275.07275391 C-1423.18007568 275.95882324 -1423.60893066 276.84489258 -1424.05078125 277.7578125 C-1424.61792847 278.92014404 -1424.61792847 278.92014404 -1425.1965332 280.10595703 C-1426.13017414 281.96396192 -1426.13017414 281.96396192 -1426 284 C-1415.67554739 278.04878714 -1405.87522771 271.57828954 -1396.21777344 264.60009766 C-1393.95595314 262.9682207 -1391.6858514 261.34843276 -1389.4140625 259.73046875 C-1375.48239974 249.7807575 -1362.16702628 239.2097106 -1348.984375 228.29296875 C-1346.6082721 226.32543416 -1344.22668058 224.3658807 -1341.828125 222.42578125 C-1336.57720917 218.17609937 -1331.51088841 213.78945573 -1326.51953125 209.23828125 C-1323.96795083 206.97152842 -1321.34828468 204.82459913 -1318.6875 202.6875 C-1312.71789914 197.85617049 -1307.13373816 192.65719271 -1301.52392578 187.41943359 C-1296.03333594 182.30532123 -1290.46433381 177.33817657 -1284.625 172.625 C-1279.47745451 168.46036631 -1274.61647612 164.04694859 -1269.76171875 159.55078125 C-1266.23507474 156.29349901 -1262.63796269 153.13181136 -1259 150 C-1258.49742676 149.56574707 -1257.99485352 149.13149414 -1257.47705078 148.68408203 C-1250.64040241 142.77871736 -1243.76228452 136.94120224 -1236.7421875 131.25390625 C-1234.33757266 129.27746357 -1231.97717583 127.25830553 -1229.62402344 125.22119141 C-1221.21084947 117.96818308 -1212.31672166 111.39049647 -1203.39257812 104.78417969 C-1201.28270385 103.2108163 -1199.19134403 101.61779588 -1197.109375 100.0078125 C-1132.01710855 49.8350464 -1132.01710855 49.8350464 -1099 53 C-1082.50448438 56.06085295 -1064.96599789 61.58894056 -1055 76 C-1051.31858193 84.32320607 -1052.19912184 94.61799557 -1054.84375 103.1640625 C-1058.33951876 111.73814398 -1063.99082714 119.23140213 -1069.5625 126.5625 C-1069.99691406 127.14620361 -1070.43132813 127.72990723 -1070.87890625 128.33129883 C-1074.11347985 132.45333449 -1077.24602392 134.75642824 -1082 137 C-1087.43156213 137.56911235 -1091.41745925 135.88459389 -1096.22070312 133.4140625 C-1105.7843098 128.50964882 -1114.35561288 126.86322192 -1124.9609375 130.1171875 C-1133.91441715 133.24691423 -1142.69754887 137.86320563 -1148 146 C-1148.56475601 149.32578538 -1148.78787041 151.71404414 -1146.97314453 154.67602539 C-1142.73988453 159.72042692 -1137.96936943 162.83169898 -1132.3125 166.125 C-1124.98317305 170.51719039 -1117.83032998 175.06232543 -1110.8125 179.9375 C-1109.2478061 181.01491898 -1107.68272024 182.09176901 -1106.1171875 183.16796875 C-1103.72427091 184.81316649 -1101.33344568 186.46113285 -1098.9453125 188.11328125 C-1093.47900424 191.68085627 -1088.61755783 193.5977149 -1082 193 C-1071.78297071 190.50087053 -1061.94612047 181.94801195 -1054.3359375 174.99609375 C-1051.11720922 172.24564199 -1047.71717546 169.76425246 -1044.3125 167.25 C-1039.22693267 163.48788865 -1034.2828862 159.64036414 -1029.5 155.5 C-1024.18276306 150.90497966 -1018.65715308 146.66346676 -1013.01171875 142.48046875 C-1008.6170466 139.22234974 -1004.28627954 135.89927311 -1000 132.5 C-987.66066491 122.74466272 -974.9904085 113.4914317 -962.1015625 104.47802734 C-960.07960744 103.05598785 -958.06926851 101.6191495 -956.0625 100.17578125 C-936.27730101 85.98008998 -915.74035535 72.9970058 -894.76953125 60.63671875 C-892.24511541 59.14485664 -889.73013788 57.63865484 -887.21875 56.125 C-871.63921363 46.76440541 -856.68013949 39.55606461 -839 35 C-838.27167969 34.80494873 -837.54335937 34.60989746 -836.79296875 34.40893555 C-820.89445163 30.45729122 -803.80700478 31.69831416 -789.3359375 39.421875 C-775.89700678 47.78187873 -768.26983979 61.10732961 -764.42700195 76.25927734 C-757.41872801 108.00722655 -770.04506734 139.14015913 -784.1262207 167.04174805 C-787.5761464 173.90232412 -790.58140432 180.70730193 -793 188 C-768.29036111 179.32533954 -746.3751666 166.53738868 -726.2734375 149.71875 C-724 148 -724 148 -722 148 C-722 147.34 -722 146.68 -722 146 C-720.57008411 144.73376779 -719.07605731 143.53996684 -717.5625 142.375 C-706.76913483 133.74589305 -696.74957691 124.02308507 -687.15234375 114.08984375 C-685.26599319 112.25826925 -683.33405992 110.55502314 -681.33984375 108.84375 C-675.64225752 103.89704427 -670.44558674 98.45755023 -665.18359375 93.05664062 C-664.41402344 92.27611328 -663.64445312 91.49558594 -662.8515625 90.69140625 C-662.15885254 89.98185791 -661.46614258 89.27230957 -660.75244141 88.54125977 C-659 87 -659 87 -657 87 C-656.77828125 86.443125 -656.5565625 85.88625 -656.328125 85.3125 C-654.57755886 82.26445543 -652.36497505 80.3492824 -649.75 78 C-648.96133545 77.29085449 -648.96133545 77.29085449 -648.15673828 76.56738281 C-646.44534572 75.0362161 -644.72399192 73.51696024 -643 72 C-642.41508789 71.48244141 -641.83017578 70.96488281 -641.22753906 70.43164062 C-623.74099199 55.00515253 -605.94872857 42.0601842 -581.609375 42.65625 C-569.74743098 43.78595895 -559.62230876 50.54380965 -551.53125 59.0546875 C-544.76147113 67.65506984 -542.6222594 77.61915796 -542.6875 88.3125 C-542.68878906 89.2195166 -542.69007812 90.1265332 -542.69140625 91.06103516 C-542.88704024 106.07349857 -544.56381519 121.06520588 -546 136 C-544.89640137 135.37996094 -543.79280273 134.75992188 -542.65576172 134.12109375 C-542.03498749 133.77232178 -541.41421326 133.4235498 -540.77462769 133.06420898 C-538.34179191 131.60528568 -536.26771029 129.85467382 -534.125 128 C-527.36693595 122.3496627 -520.15983912 117.3922862 -512.9375 112.35888672 C-510.43513474 110.6038256 -507.96483952 108.80729849 -505.5 107 C-500.95476337 103.6737132 -496.35781187 100.42608664 -491.75 97.1875 C-485.67293756 92.91422995 -479.65640214 88.56948039 -473.68041992 84.15625 C-468.1725966 80.10008405 -462.58996292 76.15407182 -456.984375 72.234375 C-453.58177243 69.84924971 -450.2313239 67.42313463 -446.93359375 64.89453125 C-443.99680741 62.67226273 -441.02231187 60.82166187 -437.80029297 59.05078125 C-434.21474934 56.95799853 -430.90955909 54.44944202 -427.5625 52 C-426.7782666 51.43039551 -425.9940332 50.86079102 -425.18603516 50.27392578 C-420.04218793 46.52663567 -414.95047792 42.71409503 -409.875 38.875 C-402.7211043 33.47105452 -395.40296714 28.34551485 -387.97021484 23.33349609 C-385.99993833 21.99995826 -384.0404605 20.65164176 -382.08203125 19.30078125 C-366.78100109 8.81667033 -350.94943672 0.04429526 -331.71875 2.40234375 C-322.19722071 4.43408422 -315.61506838 9.13890427 -310 17 C-307.39994261 22.14317921 -306.44985369 26.45360119 -306.5 32.25 C-306.50499512 33.02794922 -306.50999023 33.80589844 -306.51513672 34.60742188 C-306.89120517 47.56492506 -311.5446003 59.67321379 -315.62661743 71.83647156 C-318.39471602 80.1185028 -320.95462062 88.45989513 -323.5 96.8125 C-324.5363697 100.2022494 -325.57457023 103.59143613 -326.61328125 106.98046875 C-326.88203568 107.85779663 -327.1507901 108.73512451 -327.4276886 109.63903809 C-329.54892527 116.5538272 -331.69770801 123.45981106 -333.85546875 130.36328125 C-334.17569 131.38853409 -334.49591125 132.41378693 -334.82583618 133.47010803 C-336.09092413 137.51974823 -337.35623533 141.5693092 -338.62646484 145.61734009 C-339.50706559 148.42390311 -340.38463579 151.23139851 -341.26171875 154.0390625 C-341.52470261 154.87379593 -341.78768646 155.70852936 -342.05863953 156.56855774 C-345.64977192 167.9672519 -345.64977192 167.9672519 -343.5 179.375 C-343.005 180.24125 -342.51 181.1075 -342 182 C-342 182.66 -342 183.32 -342 184 C-333.65417044 187.91210761 -327.8148323 187.08250611 -319.3203125 184.21875 C-314.13111653 182.31400983 -309.06653926 180.20946825 -304 178 C-302.36104785 177.30381401 -300.72168867 176.60858582 -299.08203125 175.9140625 C-275.6574992 165.93463839 -252.9652016 154.88642429 -231 142 C-229.54170562 141.15488069 -228.08337517 140.30982362 -226.625 139.46484375 C-220.18104348 135.69815535 -214.02817124 131.69176615 -208.05078125 127.2109375 C-204.98261741 124.98740263 -201.85225049 122.90116404 -198.68359375 120.82519531 C-185.05368647 111.89426199 -172.23873381 102.09147429 -159.89453125 91.4609375 C-157.39378259 89.33479491 -154.85015035 87.31396027 -152.25 85.3125 C-145.8663173 80.2596176 -140.06650139 74.56215747 -134.17578125 68.953125 C-130.77450066 65.71702971 -127.31193158 62.56684444 -123.8125 59.4375 C-115.50173787 51.85936704 -107.92296838 43.525114 -100.546875 35.04296875 C-95.10099662 28.79286905 -89.38404336 22.79549511 -83.68115234 16.78076172 C-82.34521122 15.36566521 -81.02356976 13.93707168 -79.70703125 12.50390625 C-58.93653519 -9.50661943 -25.6204151 -20.0641805 0 0 Z M-1096 274 C-1097.63846223 275.6983828 -1097.63846223 275.6983828 -1099.375 278 C-1100.0865625 278.91265625 -1100.798125 279.8253125 -1101.53125 280.765625 C-1102.35558498 281.84266595 -1103.17840311 282.92086891 -1104 284 C-1104.68642578 284.90008789 -1104.68642578 284.90008789 -1105.38671875 285.81835938 C-1111.17013782 293.42363298 -1116.82805727 301.10748978 -1122.34228516 308.90991211 C-1125.21530693 312.95563125 -1128.20254811 316.89696524 -1131.25 320.8125 C-1141.90482703 334.29817712 -1141.90482703 334.29817712 -1144 351 C-1142.69276843 358.13035401 -1139.91701118 365.46362476 -1134 370 C-1129.63059802 370.70457874 -1127.69874525 370.47160743 -1124.0078125 367.98046875 C-1123.02751743 367.06988429 -1122.06719055 366.1374576 -1121.125 365.1875 C-1120.60744141 364.68468506 -1120.08988281 364.18187012 -1119.55664062 363.66381836 C-1100.20251316 344.52799302 -1083.94124546 317.14946285 -1083.50390625 289.48046875 C-1084.46620312 282.72923637 -1089.15992426 278.41919959 -1094 274 C-1094.66 274 -1095.32 274 -1096 274 Z " fill="#FEFEFE" transform="translate(4865,2040)"/>
<path d="M0 0 C2.92220701 2.69742186 4.43231389 5.07780502 5 9 C3.41888101 14.25670728 0.58752252 17.98189308 -4 21 C-4.66 21.33 -5.32 21.66 -6 22 C-5.01 22.33 -4.02 22.66 -3 23 C-3 23.66 -3 24.32 -3 25 C-1.96875 24.34 -0.9375 23.68 0.125 23 C3.53829845 21.03665963 6.01711099 20.52584655 10 21 C11 22 11 22 11.3125 25.0625 C11.02952969 28.62792587 10.78100313 29.77293704 9.1640625 32.70703125 C6.62941953 37.56336448 5.00603628 42.60353339 3.37695312 47.8203125 C0.22760903 57.29408873 -4.87421125 60.88586252 -13.5 65.25 C-22.11651143 69.8035864 -29.54243381 74.72755092 -37 81 C-38.13272293 81.94151402 -39.26553797 82.88291724 -40.3984375 83.82421875 C-45.6196416 88.18847647 -50.75533511 92.64903922 -55.8671875 97.140625 C-64.72262149 104.86074694 -73.77266831 112.28573197 -83.05322266 119.48730469 C-85.14726704 121.11443022 -87.23599267 122.74822757 -89.32421875 124.3828125 C-100.86436465 133.40463214 -112.47746691 142.32760941 -124.375 150.875 C-129.17611734 154.34326984 -133.83784526 157.97384906 -138.5 161.625 C-147.08023049 168.33824006 -155.81429016 174.82131673 -164.60888672 181.25 C-168.58011754 184.15645115 -172.53954387 187.07889347 -176.5 190 C-181.31689767 193.551547 -186.13554958 197.10061896 -190.9609375 200.640625 C-197.85409566 205.70142466 -204.73949776 210.76275016 -211.5 216 C-219.88265572 222.49151159 -228.43862064 228.74703743 -237 235 C-238.16402344 235.85029785 -238.16402344 235.85029785 -239.3515625 236.71777344 C-247.26373829 242.48762705 -255.21501158 248.18027164 -263.3125 253.6875 C-269.1632549 257.67306466 -274.81423587 261.8467756 -280.39453125 266.20703125 C-284.85699869 269.68609123 -289.40281133 273.0535304 -293.9375 276.4375 C-306.4701675 285.81089823 -318.69475238 295.50647682 -330.77197266 305.46044922 C-349.7095803 321.04669772 -369.53815076 335.37973963 -389.60083008 349.47607422 C-394.03914522 352.59927596 -398.4439212 355.76487731 -402.83251953 358.95751953 C-410.21344311 364.32617854 -417.67279771 369.52069861 -425.29296875 374.54296875 C-431.25474788 378.47682407 -437.11559356 382.55898013 -442.99267578 386.61767578 C-444.96911673 387.97873254 -446.95042947 389.33235635 -448.93359375 390.68359375 C-455.90571761 395.440503 -462.80236029 400.28075751 -469.625 405.25 C-477.41114832 410.92033787 -485.34168589 416.35864161 -493.31445312 421.76245117 C-498.65110015 425.38408363 -503.91930237 429.07039295 -509.11328125 432.89453125 C-532.6915924 450.09170271 -557.06117262 466.28014557 -582.10449219 481.25634766 C-587.38884481 484.43854382 -592.62817259 487.69395007 -597.875 490.9375 C-607.65536926 496.97577676 -617.48608215 502.92387961 -627.37841797 508.77709961 C-637.37339194 514.72536503 -647.04160775 521.09844019 -656.3125 528.125 C-656.96283203 528.61097656 -657.61316406 529.09695313 -658.28320312 529.59765625 C-664.5798567 534.34059011 -670.5427782 539.07196984 -675.5 545.25 C-676.1909375 546.10078125 -676.881875 546.9515625 -677.59375 547.828125 C-683.75788622 555.9535773 -688.8695908 564.19374749 -693.5625 573.25 C-698.4852118 582.56658069 -703.70765227 591.53906796 -709.45385742 600.36791992 C-715.40986698 609.5415153 -721.01006129 618.91543549 -726.60839844 628.30957031 C-727.32999793 629.52023009 -728.05167663 630.73084267 -728.7734375 631.94140625 C-729.1260968 632.5329248 -729.4787561 633.12444336 -729.84210205 633.73388672 C-733.50140074 639.859752 -737.24542034 645.93207679 -741 652 C-742.06778743 653.73172206 -743.13550088 655.46348975 -744.203125 657.1953125 C-745.21836967 658.83877668 -746.23399977 660.48200281 -747.25 662.125 C-747.80010742 663.01461426 -748.35021484 663.90422852 -748.91699219 664.82080078 C-752.65904083 670.86178097 -756.44283263 676.87489933 -760.25 682.875 C-765.29970148 690.8401029 -770.18633566 698.89067335 -775 707 C-780.10995793 715.59044675 -785.29696032 724.12886451 -790.5625 732.625 C-791.12751221 733.53677002 -791.69252441 734.44854004 -792.2746582 735.38793945 C-794.55023611 739.05752914 -796.82833074 742.72539252 -799.1171875 746.38671875 C-806.63492476 758.46994881 -813.68378776 770.83710916 -820.82470703 783.14501953 C-824.86516831 790.10729746 -828.92238993 797.05941303 -833 804 C-833.51224121 804.87543457 -834.02448242 805.75086914 -834.55224609 806.65283203 C-848.32663731 830.10945172 -848.32663731 830.10945172 -856 833 C-859.75 832.625 -859.75 832.625 -863 832 C-863.99 829.525 -863.99 829.525 -865 827 C-865.49628906 827.48210938 -865.99257812 827.96421875 -866.50390625 828.4609375 C-867.18324219 829.09257812 -867.86257812 829.72421875 -868.5625 830.375 C-869.55443359 831.31472656 -869.55443359 831.31472656 -870.56640625 832.2734375 C-876.9112088 836.7748865 -884.25724285 836.39508817 -891.75 836.4375 C-892.79027344 836.47037109 -893.83054687 836.50324219 -894.90234375 836.53710938 C-897.69010584 836.55694468 -900.25942921 836.51240964 -903 836 C-905.06640625 833.76171875 -905.06640625 833.76171875 -906 831 C-906.57814453 829.86691406 -906.57814453 829.86691406 -907.16796875 828.7109375 C-911.31820568 819.20196553 -910.90427036 811.60720834 -907.27539062 802.02661133 C-905.02552021 796.68747589 -902.28703302 791.63691702 -899.5 786.5625 C-898.88125 785.42651367 -898.2625 784.29052734 -897.625 783.12011719 C-885.37120679 760.77828828 -871.53850979 739.41673782 -857.5625 718.125 C-841.0259393 692.91181435 -825.41673946 667.13129759 -810.22119141 641.09082031 C-809.36844265 639.63081625 -808.51379832 638.17191842 -807.65771484 636.71386719 C-797.94573438 620.17054965 -789.00830828 603.43498179 -781 586 C-781.94206299 586.23187012 -782.88412598 586.46374023 -783.85473633 586.70263672 C-787.40063775 587.57445375 -790.94759973 588.44188895 -794.49487305 589.30810547 C-796.02054948 589.68128789 -797.5459484 590.05560701 -799.07104492 590.43115234 C-820.44796564 595.69294773 -846.46769332 602.08981752 -866.7421875 590.421875 C-869.29692509 588.73893214 -871.64810658 586.95433136 -874 585 C-874.90105469 584.26716797 -874.90105469 584.26716797 -875.8203125 583.51953125 C-890.15101464 570.5552449 -899.49663803 549.0182793 -901.3828125 530.17578125 C-901.73017685 518.90959734 -898.76251019 509.5120838 -893.99609375 499.44140625 C-892.73658334 496.35437094 -891.92029854 493.22105074 -891.0625 490 C-886.42002973 473.21846349 -876.43719168 464.76579426 -861.73388672 456.35302734 C-852.65443431 451.21814477 -852.65443431 451.21814477 -849 450 C-844.88268976 453.45527577 -843.29418238 457.31332721 -841.375 462.1875 C-841.06868652 462.95199463 -840.76237305 463.71648926 -840.44677734 464.50415039 C-835.95423109 475.95002718 -834.88780809 487.2432497 -834.82421875 499.48046875 C-834.80104625 501.2389446 -834.77693001 502.99740823 -834.75195312 504.75585938 C-834.71676458 507.4811258 -834.68740981 510.20592953 -834.67407227 512.93139648 C-834.6585538 515.59412639 -834.61836617 518.25557929 -834.57421875 520.91796875 C-834.57612717 521.72542038 -834.57803558 522.53287201 -834.58000183 523.36479187 C-834.45889801 529.00490207 -833.14302045 532.30754274 -830 537 C-796.69191352 537.65956607 -759.15040275 521.14768613 -734 500 C-733.06929687 499.24460937 -732.13859375 498.48921875 -731.1796875 497.7109375 C-718.37989194 486.80740795 -709.92213363 472.843135 -702.13623047 458.14379883 C-698.70236865 451.66491172 -695.17105838 445.54617805 -690.75 439.6875 C-690.27328857 439.04651367 -689.79657715 438.40552734 -689.30541992 437.74511719 C-687.87591796 435.82577922 -686.43906118 433.91217719 -685 432 C-684.18864431 430.91808705 -683.37743665 429.83606307 -682.56640625 428.75390625 C-681.08521331 426.77983801 -679.60219413 424.80713847 -678.1171875 422.8359375 C-676.02714335 420.03635807 -673.97864507 417.21036494 -671.9375 414.375 C-669.39850892 410.85560642 -666.76613995 407.46809312 -664 404.125 C-659.85911258 398.99512393 -656.47885504 393.5252686 -653.11132812 387.86621094 C-646.89763368 377.43179083 -640.48614318 367.14664387 -633.8125 357 C-626.91890888 346.51389945 -620.32715567 335.85942548 -613.77734375 325.15625 C-609.1129265 317.53742816 -604.34745976 309.98518224 -599.55224609 302.44824219 C-597.82458938 299.72333789 -596.10934715 296.99081451 -594.39453125 294.2578125 C-593.1589714 292.29680113 -591.92329627 290.33586239 -590.6875 288.375 C-590.12466309 287.47426758 -589.56182617 286.57353516 -588.98193359 285.64550781 C-586.40816254 281.57447672 -583.82212028 277.74235266 -580.69921875 274.07421875 C-574.86105703 266.72203951 -571.19996345 257.83837098 -567.125 249.4375 C-565.42537635 245.95401386 -563.71950346 242.47366596 -562.0078125 238.99609375 C-561.37821625 237.7165834 -561.37821625 237.7165834 -560.73590088 236.41122437 C-557.10015195 229.08215154 -553.12380517 221.98041112 -549.06610107 214.87948608 C-543.31418288 204.73912467 -538.19652375 194.37970358 -533.44372559 183.73773193 C-532.14438933 180.82888932 -530.83318164 177.92544604 -529.52264404 175.02163696 C-528.87859385 173.59444961 -528.23506889 172.16702511 -527.59210205 170.73934937 C-524.48985972 163.85369107 -521.30002943 157.01314058 -518.04248047 150.19970703 C-516.76461393 147.50331886 -515.51025632 144.79632209 -514.25390625 142.08984375 C-513.27371144 139.99726749 -512.29324392 137.90481896 -511.3125 135.8125 C-510.86036133 134.83071777 -510.40822266 133.84893555 -509.94238281 132.83740234 C-507.14217912 126.90060017 -504.37947748 121.92300777 -499.3515625 117.57421875 C-497.18054201 115.0455446 -496.41861457 111.92592543 -495.375 108.8125 C-492.51179639 100.79318004 -488.69940658 93.71986688 -484.39257812 86.39990234 C-482.22039887 82.65647281 -480.13189701 78.86719786 -478.03222656 75.08276367 C-453.10192602 30.2116378 -453.10192602 30.2116378 -438 16 C-437.4534375 15.27554687 -436.906875 14.55109375 -436.34375 13.8046875 C-432.73139131 11.02317131 -429.30030787 11.53211339 -424.875 11.6875 C-424.02276855 11.69934326 -423.17053711 11.71118652 -422.29248047 11.72338867 C-417.83786953 11.81054225 -413.53314392 12.13124139 -409.125 12.8125 C-406.93970758 13.17750964 -406.93970758 13.17750964 -405 13 C-402.18668622 10.60416349 -402.18668622 10.60416349 -400 8 C-395.80952381 8.19047619 -395.80952381 8.19047619 -394 10 C-392.32045248 20.93614467 -396.01269189 29.87374925 -399.8359375 39.89257812 C-401.36391809 43.97146592 -402.79910794 48.08080989 -404.23579407 52.19258118 C-412.26815749 75.17234669 -420.65282261 97.94590594 -431 120 C-431.39687012 120.85400391 -431.79374023 121.70800781 -432.20263672 122.58789062 C-437.65918109 134.31913635 -443.41393448 145.85288415 -449.53076172 157.25292969 C-451.18884247 160.35308332 -452.83079841 163.46153791 -454.47265625 166.5703125 C-462.02910172 180.83512198 -469.87019151 194.89196826 -478.09765625 208.78369141 C-481.33669085 214.25995447 -484.55195431 219.75014961 -487.769104 225.23928833 C-488.83299573 227.05337668 -489.89845715 228.86653348 -490.96435547 230.67944336 C-494.37309171 236.48216007 -497.74923054 242.30132796 -501.07421875 248.15234375 C-504.58223351 254.31814721 -508.22618713 260.39221423 -511.9375 266.4375 C-513.16303721 268.44384137 -514.38829796 270.45035163 -515.61328125 272.45703125 C-516.19674316 273.41174316 -516.78020508 274.36645508 -517.38134766 275.35009766 C-527.62779501 292.12459835 -537.41837605 309.1357913 -546.75 326.4375 C-548.83198121 330.29239926 -550.91480885 334.146836 -553 338 C-553.39703125 338.73428223 -553.7940625 339.46856445 -554.203125 340.22509766 C-559.22692533 349.46042624 -565.01807952 357.81663722 -571.61572266 366.00537109 C-575.93888067 371.43703116 -579.66661291 377.05960484 -583.25 383 C-584.38560966 384.85354455 -585.52234528 386.70639968 -586.66015625 388.55859375 C-587.22105957 389.47366699 -587.78196289 390.38874023 -588.35986328 391.33154297 C-594.68192323 401.61735948 -601.00597704 411.50918035 -609.00390625 420.58203125 C-610.75733127 422.70604317 -611.83461235 424.53822017 -613 427 C-591.79481052 412.90377259 -570.64005323 398.73712133 -549.56539917 384.44647217 C-544.1654631 380.78615254 -538.7577874 377.13741753 -533.34765625 373.4921875 C-513.32559178 359.99921743 -493.33690626 346.50946502 -473.94458008 332.11767578 C-468.70206185 328.23168997 -463.40631163 324.43278677 -458.0625 320.6875 C-452.39197122 316.71058119 -446.80096937 312.65403172 -441.28125 308.46875 C-437.91702381 305.92423374 -434.51170819 303.43677778 -431.10864258 300.94458008 C-424.63862387 296.20447889 -418.20829581 291.43900851 -411.9375 286.4375 C-406.73930813 282.29148701 -401.40830672 278.36744952 -396 274.5 C-388.7061243 269.28240455 -381.62185831 263.85854825 -374.60742188 258.2734375 C-365.43289927 251.00516443 -356.05339501 243.98809366 -346.74023438 236.89941406 C-341.79513978 233.13435829 -336.85793124 229.35972293 -331.9375 225.5625 C-327.00820213 221.76190294 -322.04015129 218.0168756 -317.046875 214.30078125 C-312.99773764 211.24316343 -308.99998284 208.12150138 -305 205 C-303.54701744 203.86830668 -302.09389489 202.73679306 -300.640625 201.60546875 C-299.92414795 201.04762695 -299.2076709 200.48978516 -298.46948242 199.91503906 C-290.33377887 193.58259617 -282.17864002 187.2768724 -274 181 C-271.28988719 178.91644084 -268.58070459 176.83167266 -265.87158203 174.74682617 C-263.17777935 172.67407893 -260.4828085 170.60289153 -257.78515625 168.53515625 C-252.26931493 164.30469771 -246.77440851 160.04991654 -241.3125 155.75 C-239.52699828 154.34568413 -237.74134897 152.94155637 -235.95556641 151.53759766 C-234.58775414 150.46213178 -233.22026782 149.38625129 -231.85302734 148.31005859 C-214.02887742 134.29624183 -195.7434413 121.38053198 -176.375 109.5625 C-169.77740944 105.39125339 -163.74675666 100.44403405 -157.62109375 95.62109375 C-153.41586638 92.31279469 -149.16208471 89.07625664 -144.875 85.875 C-143.89829346 85.14470581 -143.89829346 85.14470581 -142.90185547 84.3996582 C-140.26800726 82.43260287 -137.63151531 80.46914321 -134.99267578 78.50878906 C-127.77070606 73.14250071 -120.61304024 67.73121758 -113.625 62.0625 C-106.07004753 55.94882152 -98.21962966 50.28460956 -90.30712891 44.64550781 C-86.48780228 41.92145898 -82.6804274 39.18091904 -78.875 36.4375 C-78.13338623 35.90382813 -77.39177246 35.37015625 -76.62768555 34.8203125 C-72.22764003 31.64376009 -67.87804766 28.40937598 -63.55761719 25.12548828 C-57.24731985 20.33211814 -50.98273773 15.78683877 -44 12 C-43.26394531 11.57460937 -42.52789063 11.14921875 -41.76953125 10.7109375 C-33.97874501 6.45667232 -25.53014173 4.26856136 -17 2 C-15.6078125 1.62488281 -15.6078125 1.62488281 -14.1875 1.2421875 C-9.30857054 0.03939586 -4.97294202 -0.59001007 0 0 Z " fill="#FEFEFE" transform="translate(3618,1742)"/>
<path d="M0 0 C4.04115343 4.72106313 3.49614077 10.10802138 3.4375 16 C3.43137695 17.0314917 3.42525391 18.0629834 3.41894531 19.12573242 C3.25540842 27.12457343 2.08211786 33.57929114 -1 41 C-1.27714844 41.83917969 -1.55429687 42.67835938 -1.83984375 43.54296875 C-12.63938012 74.846694 -46.536476 91.93986935 -74.19555664 105.63745117 C-92.73678105 114.58886124 -111.94802981 120.51318321 -132 125 C-133.12825195 125.25523437 -134.25650391 125.51046875 -135.41894531 125.7734375 C-171.62065773 133.87395914 -207.90539846 137.76964783 -245 137 C-245.86383301 136.98598145 -246.72766602 136.97196289 -247.61767578 136.95751953 C-282.14069698 136.28114444 -322.19635733 127.70040404 -350 106 C-350.50917969 105.60296875 -351.01835937 105.2059375 -351.54296875 104.796875 C-369.48719892 90.64608066 -381.46212507 72.71797838 -386.3125 50.25 C-386.48418701 49.45779053 -386.65587402 48.66558105 -386.83276367 47.84936523 C-388.49644215 39.55353708 -388.92662672 31.74953122 -385 24 C-378.62842114 17.18389239 -371.61042157 15.71874113 -362.61328125 15.40625 C-358.76499018 16.28060014 -357.48672597 17.94210415 -355 21 C-353.07900805 24.15345631 -351.38523782 27.40976728 -349.6875 30.6875 C-338.96981013 50.63834091 -324.9066766 61.83044618 -303.36328125 68.47265625 C-246.31668703 85.21155479 -178.79419771 71.98902506 -127.375 44 C-119.27957783 39.49045031 -111.50829931 34.60044618 -103.89990234 29.31689453 C-79.96954388 12.72985347 -29.80664344 -19.20872577 0 0 Z " fill="#FEFEFE" transform="translate(4463,2322)"/>
<path d="M0 0 C2.71248837 5.28221419 1.52475706 8.79884376 -0.12890625 14.1640625 C-1.32754527 18.06635813 -2.14947694 22.00908411 -3 26 C-1.6696875 25.2265625 -1.6696875 25.2265625 -0.3125 24.4375 C3.20023331 22.9131063 4.44706507 22.85052105 8 24 C8.94261542 29.31888795 8.99335123 34.1259801 8.58203125 39.5 C8.49656792 40.72299805 8.49656792 40.72299805 8.40937805 41.97070312 C8.21902985 44.64784014 8.01653804 47.32387376 7.8125 50 C7.70938507 51.39605469 7.70938507 51.39605469 7.60418701 52.8203125 C6.338047 69.93633926 4.67002946 86.99602412 2.83972168 104.05952454 C1.64280771 115.26245387 0.54843962 126.47578999 -0.5625 137.6875 C-2.88639243 161.11756794 -2.88639243 161.11756794 -3.984375 171.12109375 C-4.12673584 172.41893799 -4.26909668 173.71678223 -4.41577148 175.05395508 C-4.66881034 177.33161624 -4.92572954 179.60885197 -5.18774414 181.88549805 C-6.07120781 189.78336422 -6.44103689 196.80345498 -4.625 204.625 C-2.92113066 212.63546301 -2.51002741 220.64968106 -2.0625 228.8125 C-0.87564038 248.80197383 1.37223983 270.14804701 16.0078125 285.390625 C20.44812093 288.97769769 25.73276892 291.89306925 31.14453125 293.7265625 C33.59340478 295.40726307 34.08608426 297.41763564 35.12402344 300.11865234 C36.65038937 303.39685074 39.11800859 305.75343576 41.625 308.3125 C42.70461937 309.452943 43.78404474 310.59356968 44.86328125 311.734375 C46.75328267 313.70625167 48.64831572 315.67321263 50.54296875 317.640625 C58.63571086 326.27659765 65.72701939 335.95431354 66.05859375 348.15625 C65.83840947 351.96330722 65.04828382 353.9386665 62.6875 356.9375 C58.50674784 360.14598422 54.93482388 360.11698744 49.75 360.375 C44.98111031 360.70499013 41.24678748 361.42695716 36.88671875 363.30078125 C33.37202075 364.60332979 29.72139651 364.83573744 26 365 C25.03090698 365.06223755 25.03090698 365.06223755 24.04223633 365.12573242 C17.98568899 365.35636363 13.18158911 364.11997022 7.5625 361.9375 C6.72412598 361.61442871 5.88575195 361.29135742 5.02197266 360.95849609 C-12.35092762 354.02758412 -26.0640631 338.88376474 -37 324 C-37.87602968 322.87377352 -38.75377101 321.74887728 -39.6328125 320.625 C-56.92295631 298.21371984 -63.58668952 272.95944009 -66 245 C-66.09168457 243.97422852 -66.18336914 242.94845703 -66.27783203 241.89160156 C-69.39487631 205.67903642 -69.2649674 169.10366403 -65 133 C-64.89065125 132.07209656 -64.78130249 131.14419312 -64.66864014 130.18817139 C-61.89360785 106.91468293 -58.58036165 83.8027493 -53.375 60.9375 C-53.19322205 60.13872437 -53.01144409 59.33994873 -52.82415771 58.51696777 C-50.91013622 50.20735573 -48.78090402 41.96347983 -46.43359375 33.765625 C-46.23982147 33.07560898 -46.04604919 32.38559296 -45.84640503 31.67466736 C-43.37292662 23.26415452 -39.08870475 15.48104105 -31.71484375 10.47265625 C-25.66865867 7.19292708 -19.31692385 4.52751313 -12.97949219 1.86621094 C-10.96075795 1.02150242 -10.96075795 1.02150242 -8.98144531 -0.13183594 C-5.88982929 -1.48641782 -3.22970891 -0.62109787 0 0 Z " fill="#FEFEFE" transform="translate(3172,2172)"/>
<path d="M0 0 C3.90150681 2.79056928 7.17686861 5.46112955 9 10 C10.14025613 17.79115912 7.93017927 24.94415912 5.625 32.3125 C5.30789062 33.37017578 4.99078125 34.42785156 4.6640625 35.51757812 C0.69663038 48.61836962 0.69663038 48.61836962 -3.3671875 52.40234375 C-6.4268166 55.39609567 -9.18474565 58.67880346 -12.01171875 61.890625 C-14.8716166 64.92470131 -15.6315472 64.97660617 -19.9375 65.25 C-29.76265777 65.0930486 -39.90498503 61.5209686 -48 56 C-51.95558528 51.30230491 -53.14321218 46.6350384 -54.25 40.75 C-54.50148804 39.44023193 -54.50148804 39.44023193 -54.75805664 38.10400391 C-57.15111324 24.62161795 -57.82534103 10.98511778 -51.1875 -1.375 C-37.82525588 -17.40969295 -14.81520507 -9.28419518 0 0 Z " fill="#FEFEFE" transform="translate(3588,1996)"/>
<path d="M0 0 C8.89883605 9.40734097 12.57653224 20.6329583 12.40234375 33.46484375 C11.64223162 43.53978454 9.10351198 52.25603054 2 59.5625 C-5.74175834 64.37959408 -13.66338465 66.59759991 -22.8125 66.3125 C-29.41375879 64.68923964 -33.24539119 60.91576964 -36.8125 55.3125 C-41.70311237 45.87888048 -45.17693709 35.75367461 -48.3125 25.625 C-48.56781494 24.81256836 -48.82312988 24.00013672 -49.08618164 23.16308594 C-50.59129466 18.04771061 -51.23142802 13.64801376 -50.8125 8.3125 C-48.8125 5.6875 -48.8125 5.6875 -45.8125 3.3125 C-45.2659375 2.81878906 -44.719375 2.32507812 -44.15625 1.81640625 C-31.08249453 -9.29074617 -14.18375669 -8.51025401 0 0 Z " fill="#FEFEFE" transform="translate(4961.8125,1877.6875)"/>
</svg>
