<?xml version="1.0" encoding="UTF-8"?>
<svg version="1.1" xmlns="http://www.w3.org/2000/svg" width="7681" height="4320">
<path d="M0 0 C11.72617144 8.60803816 11.72617144 8.60803816 12.75 13.8125 C13.53793264 19.17251549 11.19017552 22.97178159 8.1875 27.25 C6.1948992 30.16705261 4.356922 33.07472356 2.6875 36.1875 C-1.75347929 44.36749735 -7.03091138 52.11198424 -12.25 59.8125 C-14.14026142 62.61940874 -15.83357587 65.45804223 -17.4375 68.4375 C-19.25608779 71.79984077 -21.27535886 74.89126822 -23.5 78 C-25.62237335 80.97223164 -27.58229255 83.9091374 -29.3125 87.125 C-31.52280463 91.2318886 -33.95075161 95.18167141 -36.4375 99.125 C-40.6789499 105.85156058 -44.82071211 112.63400166 -48.9375 119.4375 C-53.47124978 126.91776046 -58.09284684 134.32262533 -62.88208008 141.64160156 C-67.13068965 148.15110339 -71.20907553 154.76175615 -75.28295898 161.3815918 C-79.16374342 167.67874674 -83.13484805 173.90721204 -87.1953125 180.08984375 C-90.40929177 185.27255923 -92.40920828 189.43286863 -92.9375 195.5625 C-93.04964844 196.65691406 -93.16179687 197.75132812 -93.27734375 198.87890625 C-92.92550532 202.83832751 -91.86324116 204.28593611 -89 207 C-82.80582146 209.79245754 -75.58649107 210.23146158 -68.88671875 210.9296875 C-67.28412878 211.10231123 -65.68159175 211.27542701 -64.07910156 211.44897461 C-63.2468103 211.53863495 -62.41451904 211.62829529 -61.55700684 211.72067261 C-57.27399918 212.18854831 -52.99447057 212.68587964 -48.71484375 213.18359375 C-47.40607269 213.33544884 -47.40607269 213.33544884 -46.07086182 213.4903717 C-41.45841865 214.02617942 -36.8463238 214.56493525 -32.234375 215.10498047 C-31.29353058 215.21513489 -30.35268616 215.32528931 -29.3833313 215.43878174 C-27.51358826 215.65771061 -25.64385744 215.87674391 -23.7741394 216.09588623 C-18.52951062 216.70921638 -13.28352825 217.30631378 -8.03515625 217.88671875 C-6.90537354 218.0144165 -5.77559082 218.14211426 -4.61157227 218.27368164 C-2.63235144 218.49714957 -0.6524204 218.7144769 1.32836914 218.92358398 C9.43379163 219.85366529 18.22574973 221.10058266 25 225.9375 C25.70125 226.42089844 26.4025 226.90429688 27.125 227.40234375 C32.36193807 231.8646514 33.64276784 236.98904324 34.4375 243.6875 C34.333834 249.52735124 31.42535276 254.80281551 29 260 C28.34 260 27.68 260 27 260 C26.7525 260.556875 26.505 261.11375 26.25 261.6875 C20.10271025 273.05998604 6.51759394 279.38488935 -5 284 C-6.1034375 284.45246094 -7.206875 284.90492188 -8.34375 285.37109375 C-36.60889752 295.90799056 -68.21041777 293.01533844 -95.68359375 281.44921875 C-98.81737947 280.01571632 -101.91621041 278.53769345 -105 277 C-106.010625 276.50113281 -107.02125 276.00226562 -108.0625 275.48828125 C-110.70230559 274.15082655 -113.29401102 272.75941806 -115.875 271.3125 C-116.65617187 270.87550781 -117.43734375 270.43851563 -118.2421875 269.98828125 C-118.82226562 269.66214844 -119.40234375 269.33601563 -120 269 C-120 268.34 -120 267.68 -120 267 C-120.721875 266.76023437 -121.44375 266.52046875 -122.1875 266.2734375 C-125.40508721 264.81658551 -127.43203525 263.04049184 -130 260.625 C-132.48471336 258.30334596 -134.93844058 256.0487307 -137.60546875 253.9375 C-139.75626638 252.1972135 -141.5227396 250.47461556 -143.3125 248.375 C-143.82425781 247.78460937 -144.33601563 247.19421875 -144.86328125 246.5859375 C-146 245 -146 245 -146 243 C-146.66 243 -147.32 243 -148 243 C-149.52369179 240.96739515 -150.8988919 238.95674719 -152.25 236.8125 C-152.65041504 236.18190674 -153.05083008 235.55131348 -153.46337891 234.90161133 C-158.91957672 226.12591621 -162.9870259 216.87585955 -166 207 C-170.25806074 208.61512649 -174.31195122 210.57866498 -178.375 212.625 C-179.07544434 212.97763916 -179.77588867 213.33027832 -180.49755859 213.69360352 C-182.66758927 214.79080182 -184.8344498 215.89398726 -187 217 C-187.65419922 217.33338379 -188.30839844 217.66676758 -188.98242188 218.01025391 C-197.18319597 222.2134654 -205.027603 226.77352723 -212.72265625 231.84375 C-215.68619829 233.79354166 -218.67827898 235.68440461 -221.6875 237.5625 C-225.29801251 239.85055735 -228.75847075 242.26113895 -232.1875 244.8125 C-237.31636614 248.60595321 -242.65608094 251.94479337 -248.08544922 255.28173828 C-253.04545577 258.35030696 -257.75700079 261.6581107 -262.4375 265.140625 C-265.87891164 267.63774686 -269.44595268 269.89606245 -273.05078125 272.1484375 C-275.18737331 273.48982112 -277.30704826 274.84600518 -279.41796875 276.2265625 C-285.64158185 280.29089325 -291.87591677 284.13849066 -298.453125 287.6171875 C-300.86973826 288.92927507 -303.17519633 290.34546872 -305.5 291.8125 C-312.6304151 296.14779238 -320.27919022 299.50998026 -327.84570312 303.00292969 C-329.60504941 303.81720555 -331.3581553 304.64495315 -333.109375 305.4765625 C-350.34095521 313.57018351 -368.31628217 318.98472547 -386.9375 322.75 C-387.97962646 322.96084229 -389.02175293 323.17168457 -390.09545898 323.38891602 C-420.33477979 329.27931642 -454.03744135 327.79970427 -482 314 C-483.485 313.319375 -483.485 313.319375 -485 312.625 C-501.69663525 303.58098924 -516.4383181 290.92520237 -522.25 272.375 C-522.85819657 270.25698213 -523.44044773 268.13138547 -524 266 C-524.35835937 264.80246094 -524.71671875 263.60492187 -525.0859375 262.37109375 C-528.98294564 246.51872923 -526.24405826 228.50064988 -522 213 C-521.64556946 211.60944223 -521.29139927 210.21881807 -520.9375 208.828125 C-516.71416518 192.91416413 -510.13207731 177.53979022 -502.5078125 162.97265625 C-499.72537725 157.48707794 -497.65469017 152.28726325 -496.4375 146.25 C-496.07011719 144.44402344 -496.07011719 144.44402344 -495.6953125 142.6015625 C-494.75696273 137.74112158 -493.8460775 132.87738795 -493 128 C-498.54588148 130.00595713 -502.55026591 132.80684756 -507.08203125 136.57421875 C-509 138 -509 138 -511 138 C-511 138.66 -511 139.32 -511 140 C-512.49023438 141.3059082 -512.49023438 141.3059082 -514.59375 142.80078125 C-515.36984619 143.36007324 -516.14594238 143.91936523 -516.94555664 144.49560547 C-518.2100061 145.39496826 -518.2100061 145.39496826 -519.5 146.3125 C-526.91635691 151.66225609 -534.0998551 157.19997257 -541.09765625 163.0871582 C-545.79673756 167 -545.79673756 167 -548 167 C-548 167.66 -548 168.32 -548 169 C-549.7578125 170.55078125 -549.7578125 170.55078125 -552.125 172.3125 C-554.96789202 174.45250375 -557.75095871 176.60427555 -560.4375 178.9375 C-563 181 -563 181 -565 181 C-565 181.66 -565 182.32 -565 183 C-566.4765625 184.3046875 -566.4765625 184.3046875 -568.625 185.875 C-572.81630239 189.03490039 -576.7933668 192.36907712 -580.75 195.8125 C-586.30687258 200.62735472 -592.01117551 205.16385758 -597.875 209.59765625 C-601.96849802 212.74453286 -605.9139234 216.04721483 -609.85546875 219.3828125 C-612 221 -612 221 -614 221 C-614 221.66 -614 222.32 -614 223 C-615.40527344 224.28100586 -615.40527344 224.28100586 -617.359375 225.71484375 C-618.06320312 226.23626953 -618.76703125 226.75769531 -619.4921875 227.29492188 C-620.23726562 227.83697266 -620.98234375 228.37902344 -621.75 228.9375 C-622.47960938 229.47568359 -623.20921875 230.01386719 -623.9609375 230.56835938 C-625.33085679 231.57836351 -626.70272907 232.58572779 -628.07714844 233.58959961 C-629.44418195 234.59231071 -630.78926781 235.62524639 -632.11816406 236.67797852 C-634 238 -634 238 -636 238 C-636 238.66 -636 239.32 -636 240 C-637.50610352 241.32177734 -637.50610352 241.32177734 -639.62890625 242.8359375 C-640.40886963 243.39933838 -641.18883301 243.96273926 -641.99243164 244.54321289 C-643.26461548 245.44994751 -643.26461548 245.44994751 -644.5625 246.375 C-650.68266278 250.80229128 -656.71185138 255.28430938 -662.5625 260.0625 C-710.19171866 298.71275765 -710.19171866 298.71275765 -739.8125 298.4375 C-740.95452881 298.42992676 -742.09655762 298.42235352 -743.27319336 298.41455078 C-755.8353099 298.16954972 -765.9361895 295.89524883 -776 288 C-776.73992187 287.48566406 -777.47984375 286.97132813 -778.2421875 286.44140625 C-778.82226562 285.96574219 -779.40234375 285.49007812 -780 285 C-780 284.34 -780 283.68 -780 283 C-780.99 282.67 -781.98 282.34 -783 282 C-783 281.34 -783 280.68 -783 280 C-783.66 280 -784.32 280 -785 280 C-793.40033526 268.66974648 -798.13836386 255.72923699 -801 242 C-801.1617572 241.23197052 -801.3235144 240.46394104 -801.49017334 239.67263794 C-802.81343217 232.98060455 -803.31931824 226.56193304 -803.37890625 219.75 C-803.39590073 218.72946533 -803.4128952 217.70893066 -803.43040466 216.6574707 C-803.48298179 213.43837454 -803.52361737 210.21928829 -803.5625 207 C-803.60650608 203.75220668 -803.65315817 200.504509 -803.70530701 197.25683594 C-803.73714867 195.24584249 -803.7640742 193.2347638 -803.78553772 191.22363281 C-803.79902756 190.31838867 -803.8125174 189.41314453 -803.82641602 188.48046875 C-803.83592789 187.68535889 -803.84543976 186.89024902 -803.85523987 186.07104492 C-803.9273294 183.8024964 -803.9273294 183.8024964 -805 181 C-814.93801437 180.26686779 -820.40207751 182.74288736 -828 189 C-828.66 189 -829.32 189 -830 189 C-830.33 189.99 -830.66 190.98 -831 192 C-831.66 192 -832.32 192 -833 192 C-833.2371875 192.55558594 -833.474375 193.11117187 -833.71875 193.68359375 C-835.3007374 196.54371121 -837.27662715 198.66948669 -839.5 201.0625 C-841.90536731 203.65920335 -844.03404204 206.05106306 -846 209 C-846.66 209 -847.32 209 -848 209 C-848.25523438 209.57975586 -848.51046875 210.15951172 -848.7734375 210.75683594 C-850.12584777 213.23015312 -851.63732524 214.89602109 -853.625 216.890625 C-854.33140625 217.59960938 -855.0378125 218.30859375 -855.765625 219.0390625 C-856.87164063 220.13347656 -856.87164063 220.13347656 -858 221.25 C-858.73734375 221.99507812 -859.4746875 222.74015625 -860.234375 223.5078125 C-860.94078125 224.21164063 -861.6471875 224.91546875 -862.375 225.640625 C-863.02210937 226.28547852 -863.66921875 226.93033203 -864.3359375 227.59472656 C-866 229 -866 229 -868 229 C-868.33 229.99 -868.66 230.98 -869 232 C-869.66 232 -870.32 232 -871 232 C-871 232.66 -871 233.32 -871 234 C-872.57286684 235.41438406 -874.21139996 236.75604401 -875.875 238.0625 C-879.63353953 241.06454367 -883.27873994 244.11171076 -886.8125 247.375 C-891.28296817 251.44809322 -895.95357124 255.18801381 -900.73071289 258.8894043 C-905.54777217 262.62221253 -910.23459851 266.48514164 -914.890625 270.41796875 C-917 272 -917 272 -919 272 C-919 272.66 -919 273.32 -919 274 C-921.0897227 275.79539556 -923.17842082 277.47061442 -925.375 279.125 C-925.97828125 279.59292969 -926.5815625 280.06085937 -927.203125 280.54296875 C-931.73858874 284 -931.73858874 284 -934 284 C-934 284.66 -934 285.32 -934 286 C-935.47436523 287.33764648 -935.47436523 287.33764648 -937.55859375 288.87109375 C-938.3283252 289.43989258 -939.09805664 290.00869141 -939.89111328 290.59472656 C-940.7314209 291.2028418 -941.57172852 291.81095703 -942.4375 292.4375 C-943.29843262 293.06495117 -944.15936523 293.69240234 -945.04638672 294.33886719 C-953.17036539 300.21007806 -961.47914042 305.72479865 -970 311 C-970.66644531 311.41701172 -971.33289062 311.83402344 -972.01953125 312.26367188 C-988.0632117 322.24813708 -1005.18359219 330.68050492 -1023 337 C-1024.26457031 337.49693359 -1024.26457031 337.49693359 -1025.5546875 338.00390625 C-1033.75408522 341.1814844 -1042.22825344 343.32397498 -1050.75048828 345.44042969 C-1052.67900125 345.92015095 -1054.60360223 346.41555141 -1056.52734375 346.9140625 C-1071.97023609 350.62035666 -1088.05544301 351.16493791 -1103.875 351.3125 C-1104.94975586 351.33014404 -1106.02451172 351.34778809 -1107.13183594 351.3659668 C-1114.88200444 351.35927513 -1122.05230443 350.50552487 -1128.375 345.6875 C-1135.71700766 338.17068263 -1135.16082584 329.0625253 -1135.11523438 319.19995117 C-1134.81933722 294.56366795 -1127.86688615 272.62778742 -1118.78759766 249.98388672 C-1117.69535074 247.23261628 -1116.66318196 244.45955286 -1115.625 241.6875 C-1113.03115052 234.9055746 -1110.12321992 228.26359488 -1107.23583984 221.60302734 C-1105.27007785 217.04599606 -1103.384209 212.50167929 -1101.75 207.8125 C-1100.3031008 203.66558354 -1098.49175064 199.86882921 -1096.47265625 195.97265625 C-1094.5839154 192.1601051 -1092.89135076 188.27291785 -1091.1875 184.375 C-1088.21941515 177.59141439 -1085.06091572 170.94432816 -1081.61401367 164.39013672 C-1078.14300495 157.66935036 -1076.46922012 152.50082143 -1078 145 C-1099.18162699 138.20129364 -1121.0517478 147.77434015 -1140 157 C-1140.64791504 157.31372559 -1141.29583008 157.62745117 -1141.96337891 157.95068359 C-1149.32396038 161.52522387 -1156.59912345 165.15052238 -1163.55175781 169.48071289 C-1165.90850726 170.94322304 -1168.27993183 172.37685549 -1170.66015625 173.80078125 C-1174.12159237 175.87381107 -1177.58030485 177.95117043 -1181.03515625 180.03515625 C-1182.7109375 181.04427083 -1184.38671875 182.05338542 -1186.0625 183.0625 C-1186.89587891 183.56587891 -1187.72925781 184.06925781 -1188.58789062 184.58789062 C-1192.58879625 186.99466109 -1196.60298386 189.35322512 -1200.6953125 191.6015625 C-1204.50651291 193.70050264 -1208.16225453 195.94395401 -1211.8125 198.3125 C-1212.4094165 198.69929932 -1213.00633301 199.08609863 -1213.62133789 199.48461914 C-1220.80438087 204.15097553 -1227.92494559 208.91156007 -1235.01171875 213.72265625 C-1235.69435791 214.18357666 -1236.37699707 214.64449707 -1237.08032227 215.11938477 C-1238.42326642 216.02617273 -1239.76368969 216.93670753 -1241.10131836 217.85131836 C-1245.77453361 221 -1245.77453361 221 -1248 221 C-1248 221.66 -1248 222.32 -1248 223 C-1250.01953125 224.4453125 -1250.01953125 224.4453125 -1252.8125 226.125 C-1259.54610344 230.28347861 -1265.98455788 234.82200303 -1272.19140625 239.734375 C-1274 241 -1274 241 -1276 241 C-1276 241.66 -1276 242.32 -1276 243 C-1277.90414768 244.6014215 -1279.81249359 246.08922242 -1281.8125 247.5625 C-1283.01408768 248.46603088 -1284.21459136 249.37100497 -1285.4140625 250.27734375 C-1286.01895508 250.73351074 -1286.62384766 251.18967773 -1287.24707031 251.65966797 C-1290.69877669 254.29892535 -1294.03104645 257.08366367 -1297.3828125 259.84765625 C-1300.72988428 262.60024812 -1304.11209469 265.3067377 -1307.50390625 268.00390625 C-1309.27091574 269.41696079 -1311.02777742 270.84274857 -1312.77734375 272.27734375 C-1313.67582031 273.01082031 -1314.57429688 273.74429688 -1315.5 274.5 C-1316.3146875 275.1703125 -1317.129375 275.840625 -1317.96875 276.53125 C-1320 278 -1320 278 -1322 278 C-1322 278.66 -1322 279.32 -1322 280 C-1323.8984375 281.7265625 -1323.8984375 281.7265625 -1326.375 283.625 C-1327.18710938 284.25664062 -1327.99921875 284.88828125 -1328.8359375 285.5390625 C-1331 287 -1331 287 -1333 287 C-1333 287.66 -1333 288.32 -1333 289 C-1334.65234375 290.48046875 -1334.65234375 290.48046875 -1336.9375 292.1875 C-1337.74960938 292.80109375 -1338.56171875 293.4146875 -1339.3984375 294.046875 C-1340.25695313 294.69140625 -1341.11546875 295.3359375 -1342 296 C-1343.68995643 297.30933562 -1345.37759545 298.62166978 -1347.0625 299.9375 C-1347.81660156 300.52402344 -1348.57070312 301.11054688 -1349.34765625 301.71484375 C-1349.89292969 302.13894531 -1350.43820312 302.56304688 -1351 303 C-1350.80528889 304.94999129 -1350.80528889 304.94999129 -1350 307 C-1348.12623945 308.07249361 -1348.12623945 308.07249361 -1346 309 C-1332.42260654 321.92642254 -1327.62744113 337.45499511 -1326.9765625 355.80078125 C-1326.62715818 388.547731 -1336.54884114 420.89299165 -1351 450 C-1351.66708984 451.39025391 -1351.66708984 451.39025391 -1352.34765625 452.80859375 C-1355.4011228 459.07713092 -1358.70163261 465.20493703 -1362.0625 471.3125 C-1362.4740332 472.0655542 -1362.88556641 472.8186084 -1363.30957031 473.59448242 C-1365.59050533 477.70061982 -1368.03231989 481.5330181 -1370.81665039 485.3137207 C-1372.35757666 487.50954858 -1373.63308205 489.84059788 -1374.93652344 492.18261719 C-1376.95777933 495.63675604 -1379.30378573 498.86819236 -1381.625 502.125 C-1382.15134033 502.86637207 -1382.67768066 503.60774414 -1383.2199707 504.37158203 C-1390.20965857 514.16241233 -1397.5852013 523.61281633 -1405.28515625 532.85546875 C-1407.02808171 534.88173689 -1407.02808171 534.88173689 -1408 537 C-1408.66 537 -1409.32 537 -1410 537 C-1410.309375 537.61875 -1410.61875 538.2375 -1410.9375 538.875 C-1411.625 540.25 -1412.3125 541.625 -1413 543 C-1413.66 543 -1414.32 543 -1415 543 C-1415.27585937 543.5878125 -1415.55171875 544.175625 -1415.8359375 544.78125 C-1423.18679849 558.79228705 -1441.5451174 569.65147993 -1456 575 C-1474.8939286 580.82020922 -1495.53299766 577.88425205 -1513 569 C-1516.89768661 566.5849628 -1520.4462136 563.89175465 -1524 561 C-1524.93714844 560.27554688 -1525.87429688 559.55109375 -1526.83984375 558.8046875 C-1534.14239721 553.05480316 -1540.71331799 546.68825402 -1546 539 C-1546 538.34 -1546 537.68 -1546 537 C-1546.66 537 -1547.32 537 -1548 537 C-1566.37522462 514.10627752 -1570.17836205 482.10306344 -1568 454 C-1565.69989876 434.81899143 -1559.48255628 417.71667137 -1550 401 C-1549.32280046 399.67198532 -1548.65129797 398.34090759 -1548 397 C-1547.34 397 -1546.68 397 -1546 397 C-1545.73123047 396.26628174 -1545.46246094 395.53256348 -1545.18554688 394.77661133 C-1543.27560166 390.30342209 -1540.35058618 386.6047372 -1537.5 382.6875 C-1536.90574219 381.85154297 -1536.31148437 381.01558594 -1535.69921875 380.15429688 C-1534.84263672 378.9699707 -1534.84263672 378.9699707 -1533.96875 377.76171875 C-1533.18661133 376.678302 -1533.18661133 376.678302 -1532.38867188 375.57299805 C-1531.7012793 374.79436401 -1531.7012793 374.79436401 -1531 374 C-1530.34 374 -1529.68 374 -1529 374 C-1528.72164307 373.41226807 -1528.44328613 372.82453613 -1528.15649414 372.21899414 C-1527.07210894 370.13835722 -1525.90229136 368.36902707 -1524.49609375 366.49609375 C-1524.00713623 365.84318359 -1523.51817871 365.19027344 -1523.0144043 364.51757812 C-1522.49402588 363.83115234 -1521.97364746 363.14472656 -1521.4375 362.4375 C-1520.9010083 361.72658203 -1520.3645166 361.01566406 -1519.81176758 360.28320312 C-1513.67170439 352.187863 -1507.28202556 344.32989815 -1500.5078125 336.75390625 C-1498.9267529 334.9708987 -1498.9267529 334.9708987 -1497.4296875 332.77734375 C-1496.95789062 332.19082031 -1496.48609375 331.60429687 -1496 331 C-1495.34 331 -1494.68 331 -1494 331 C-1493.67708984 330.18015625 -1493.67708984 330.18015625 -1493.34765625 329.34375 C-1491.21654927 325.63747699 -1488.00096835 322.9581776 -1484.90039062 320.06640625 C-1481.31671446 316.63604293 -1481.31671446 316.63604293 -1480 312 C-1480.66 312 -1481.32 312 -1482 312 C-1483.625 310.625 -1483.625 310.625 -1485 309 C-1485 308.34 -1485 307.68 -1485 307 C-1485.8669751 306.57787231 -1485.8669751 306.57787231 -1486.75146484 306.1472168 C-1490.49502692 304.23722785 -1494.04125542 302.00417817 -1497.625 299.8125 C-1498.43751221 299.31564697 -1499.25002441 298.81879395 -1500.0871582 298.30688477 C-1504.98973204 295.28882205 -1509.77631911 292.17404997 -1514.44921875 288.80859375 C-1518.38666786 286.01680364 -1522.42271916 283.37530318 -1526.44702148 280.7109375 C-1531.04708865 277.65714594 -1535.57152085 274.51208102 -1540.046875 271.27734375 C-1542.07209523 269.83452519 -1542.07209523 269.83452519 -1545 269 C-1545 268.34 -1545 267.68 -1545 267 C-1545.73734375 266.72800781 -1546.4746875 266.45601562 -1547.234375 266.17578125 C-1549.85498993 265.06164976 -1551.92690131 263.81797112 -1554.25 262.1875 C-1557.86902709 259.71538954 -1561.54033088 257.56773323 -1565.40234375 255.50390625 C-1567.50685683 254.28550394 -1569.49458095 253.01610269 -1571.50390625 251.65234375 C-1572.12177002 251.23702393 -1572.73963379 250.8217041 -1573.3762207 250.39379883 C-1574.60597459 249.56109121 -1575.82757335 248.71618427 -1577.03979492 247.8581543 C-1579.68065424 246.07877773 -1581.44210933 244.9918437 -1584.671875 245.0390625 C-1587.28234051 246.11653652 -1588.93158148 247.33170863 -1591 249.25 C-1592.03447266 250.19939453 -1592.03447266 250.19939453 -1593.08984375 251.16796875 C-1594.59829133 252.61472113 -1596.08457806 254.08457806 -1597.5625 255.5625 C-1599.98895314 257.98895314 -1602.51835068 260.18504585 -1605.15625 262.375 C-1607.5449823 264.48032338 -1609.74998198 266.74677682 -1612 269 C-1614.44065349 271.33150712 -1616.90674091 273.63527842 -1619.375 275.9375 C-1620.32632813 276.82985352 -1620.32632813 276.82985352 -1621.296875 277.74023438 C-1624.44608281 280.68056616 -1627.62054833 283.59105274 -1630.8515625 286.44140625 C-1631.40924316 286.93455322 -1631.96692383 287.4277002 -1632.54150391 287.93579102 C-1634 289 -1634 289 -1636 289 C-1636.33 289.99 -1636.66 290.98 -1637 292 C-1638.55003004 293.39589947 -1640.16634239 294.71887019 -1641.8125 296 C-1646.02985685 299.36079149 -1650.05951086 302.82019333 -1654 306.5 C-1658.6420212 310.82009635 -1663.43601823 314.87978855 -1668.3828125 318.8515625 C-1671.77541097 321.63653139 -1675.00538659 324.58185049 -1678.22265625 327.56640625 C-1680 329 -1680 329 -1682 329 C-1682 329.66 -1682 330.32 -1682 331 C-1683.71332754 332.58533702 -1685.49689047 334.09541215 -1687.3125 335.5625 C-1688.29863281 336.36816406 -1689.28476563 337.17382812 -1690.30078125 338.00390625 C-1693 340 -1693 340 -1696 341 C-1696 341.66 -1696 342.32 -1696 343 C-1697.61048394 344.48022421 -1699.29102118 345.88467453 -1701 347.25 C-1702.50433594 348.4565625 -1702.50433594 348.4565625 -1704.0390625 349.6875 C-1706.46061512 351.57873898 -1708.90030392 353.42953392 -1711.375 355.25 C-1714.54504642 357.5871829 -1717.24906678 360.17471724 -1720 363 C-1724.64864865 367 -1724.64864865 367 -1727 367 C-1727 367.66 -1727 368.32 -1727 369 C-1728.58203125 370.41015625 -1728.58203125 370.41015625 -1730.8125 372.0625 C-1734.40774819 374.77440865 -1737.91245339 377.55785692 -1741.375 380.4375 C-1745.94014233 384.20117774 -1750.6425483 387.69061583 -1755.4921875 391.078125 C-1758.06866908 392.96179392 -1758.06866908 392.96179392 -1760.33203125 395.359375 C-1763.59709292 398.59097337 -1767.13691461 401.25599913 -1770.8125 404 C-1777.59829877 409.12177711 -1784.24923312 414.38078102 -1790.8215332 419.7734375 C-1799.63004681 427 -1799.63004681 427 -1802 427 C-1802 427.66 -1802 428.32 -1802 429 C-1803.58544922 430.40112305 -1803.58544922 430.40112305 -1805.8046875 432.01171875 C-1806.61172119 432.60194824 -1807.41875488 433.19217773 -1808.25024414 433.80029297 C-1809.11641357 434.42307129 -1809.98258301 435.04584961 -1810.875 435.6875 C-1811.74310303 436.3180127 -1812.61120605 436.94852539 -1813.50561523 437.59814453 C-1815.99900037 439.40544607 -1818.49886853 441.20344214 -1821 443 C-1822.13950597 443.82657061 -1823.27886159 444.65334861 -1824.41796875 445.48046875 C-1830.72667526 450 -1830.72667526 450 -1833 450 C-1833 450.66 -1833 451.32 -1833 452 C-1852.80839415 463.44484995 -1871.67910447 472.56706053 -1895 472.4375 C-1896.27617187 472.45748047 -1897.55234375 472.47746094 -1898.8671875 472.49804688 C-1916.49699166 472.48903368 -1931.05842513 465.30657276 -1943.75 453.3515625 C-1955.05001402 441.28644337 -1956.58219875 426.05306147 -1956.25 410.3203125 C-1954.90427506 374.42982827 -1943.73133279 336.85595387 -1927.06640625 305.12109375 C-1925.96493254 302.93025044 -1925.06708194 300.72593613 -1924.1875 298.4375 C-1919.49756571 286.42899889 -1913.70180728 275.00320762 -1907 264 C-1906.566875 263.23300781 -1906.13375 262.46601563 -1905.6875 261.67578125 C-1898.37434085 248.85598739 -1888.99064482 237.12058084 -1879.92578125 225.50390625 C-1878.55192698 223.71761703 -1877.25002212 221.87503318 -1876 220 C-1875.34 220 -1874.68 220 -1874 220 C-1873.73316406 219.41605469 -1873.46632813 218.83210938 -1873.19140625 218.23046875 C-1864.67658083 202.28959887 -1846.22774729 189.83862129 -1829.60083008 184.18408203 C-1820.82667084 181.60844915 -1812.20288676 181.47468919 -1803.1340332 181.49902344 C-1800.54204148 181.50000777 -1797.95290351 181.45799992 -1795.36132812 181.4140625 C-1793.70052693 181.40886253 -1792.03971558 181.40616719 -1790.37890625 181.40625 C-1789.61115372 181.38985474 -1788.84340118 181.37345947 -1788.05238342 181.35656738 C-1784.08945335 181.40766593 -1782.18084134 181.86432151 -1778.97827148 184.26708984 C-1777 187 -1777 187 -1776.60742188 189.18017578 C-1777.51342171 194.54638829 -1779.02605141 199.03484498 -1781.5 203.875 C-1782.23199908 205.36837772 -1782.96376123 206.86187161 -1783.6953125 208.35546875 C-1784.0759082 209.12036621 -1784.45650391 209.88526367 -1784.84863281 210.67333984 C-1786.73705345 214.48942312 -1788.55469142 218.33858282 -1790.375 222.1875 C-1790.74544434 222.96681885 -1791.11588867 223.7461377 -1791.49755859 224.54907227 C-1794.44637432 230.77106085 -1797.29353862 237.03639793 -1800.125 243.3125 C-1803.31159784 250.37303672 -1806.62353245 257.32283676 -1810.14453125 264.22265625 C-1813.10733612 270.14660986 -1815.75888891 276.22423078 -1818.44921875 282.27539062 C-1820.22077379 286.23016013 -1821.99459361 290.11400405 -1824.1796875 293.859375 C-1825.71239237 296.50378426 -1826.88242429 298.95844726 -1827.9375 301.8125 C-1829.57651408 306.0397641 -1831.46977784 310.03535784 -1833.53125 314.0703125 C-1835.69374502 318.38379992 -1837.72830457 322.7552852 -1839.77416992 327.125 C-1841.59305503 331.00889696 -1843.420174 334.88831512 -1845.26953125 338.7578125 C-1849.47687736 347.56761538 -1853.55268288 356.41315086 -1857.42578125 365.375 C-1859.55523609 370.27855853 -1861.76697007 375.14290265 -1864 380 C-1851.98249375 373.09408931 -1851.98249375 373.09408931 -1840.33203125 365.59765625 C-1837.89283661 363.92658321 -1835.42298796 362.30536942 -1832.95166016 360.68237305 C-1824.83691935 355.3351175 -1816.94759012 349.70243815 -1809.09375 343.98046875 C-1808.40796875 343.48208496 -1807.7221875 342.98370117 -1807.015625 342.47021484 C-1805.66752238 341.48689678 -1804.32377457 340.49758154 -1802.984375 339.50244141 C-1798.21760764 336 -1798.21760764 336 -1796 336 C-1796 335.34 -1796 334.68 -1796 334 C-1793.66113093 332.1076423 -1791.30954699 330.32455077 -1788.875 328.5625 C-1787.39621554 327.47260117 -1785.91836771 326.38143048 -1784.44140625 325.2890625 C-1783.69391113 324.73766602 -1782.94641602 324.18626953 -1782.17626953 323.61816406 C-1773.81650765 317.40226753 -1765.74523059 310.85005182 -1757.84106445 304.06762695 C-1753.00101191 299.93880209 -1747.96963909 296.09730522 -1742.875 292.2890625 C-1739.9193365 290.02952749 -1739.9193365 290.02952749 -1737.25 287.2109375 C-1735 285 -1735 285 -1733 285 C-1733 284.34 -1733 283.68 -1733 283 C-1731.44759659 281.60674046 -1729.82970015 280.28619872 -1728.1875 279 C-1724.16052706 275.78254658 -1720.28942988 272.49961778 -1716.5 269 C-1711.17730992 264.1037343 -1705.63252996 259.53306011 -1700 255 C-1697.123902 252.67115109 -1694.33307546 250.33364482 -1691.71484375 247.7109375 C-1688.85419908 244.85440887 -1685.91829506 242.1045834 -1682.9375 239.375 C-1682.42123047 238.89804688 -1681.90496094 238.42109375 -1681.37304688 237.9296875 C-1673.81776259 231 -1673.81776259 231 -1671 231 C-1670.67 230.01 -1670.34 229.02 -1670 228 C-1669.34 228 -1668.68 228 -1668 228 C-1668 227.34 -1668 226.68 -1668 226 C-1666.32464541 224.48015117 -1664.58294378 223.03293547 -1662.8125 221.625 C-1661.84957031 220.85414063 -1660.88664062 220.08328125 -1659.89453125 219.2890625 C-1658.03087175 217.81523731 -1656.16635546 216.34249454 -1654.30078125 214.87109375 C-1651.04695619 212.224944 -1648.16775828 209.2542589 -1645.3125 206.1875 C-1644 205 -1644 205 -1642 205 C-1642 204.34 -1642 203.68 -1642 203 C-1639.953125 201.125 -1639.953125 201.125 -1637.25 199 C-1636.36828125 198.29875 -1635.4865625 197.5975 -1634.578125 196.875 C-1632.42201936 195.30692317 -1630.42251379 194.08673516 -1628 193 C-1628 192.34 -1628 191.68 -1628 191 C-1624.53846154 188 -1624.53846154 188 -1622 188 C-1621.67 187.01 -1621.34 186.02 -1621 185 C-1619.24710944 183.37090909 -1617.42426823 181.81595653 -1615.5625 180.3125 C-1614.57378906 179.50425781 -1613.58507813 178.69601563 -1612.56640625 177.86328125 C-1610 176 -1610 176 -1608 176 C-1608 175.34 -1608 174.68 -1608 174 C-1606.11647895 172.42027267 -1604.22787967 170.95339135 -1602.25 169.5 C-1597.6478301 166.04584252 -1593.15327336 162.51783183 -1588.75 158.8125 C-1583.91682677 154.75338967 -1579.02355122 150.81999208 -1574 147 C-1573.07767578 146.29061279 -1573.07767578 146.29061279 -1572.13671875 145.56689453 C-1570.01248988 143.93421862 -1567.88186049 142.31019489 -1565.75 140.6875 C-1564.72084473 139.89496826 -1564.72084473 139.89496826 -1563.67089844 139.08642578 C-1560.23465353 136.48699968 -1557.15757059 134.32945571 -1553 133 C-1553 132.34 -1553 131.68 -1553 131 C-1551.32296117 129.73995461 -1549.57900767 128.56870478 -1547.8125 127.4375 C-1546.71550781 126.72464844 -1545.61851562 126.01179688 -1544.48828125 125.27734375 C-1543.91158691 124.90335449 -1543.33489258 124.52936523 -1542.74072266 124.14404297 C-1539.95749027 122.31483863 -1537.23126937 120.40561358 -1534.5 118.5 C-1525.23313951 112.06228727 -1515.83844026 105.8584126 -1506.3125 99.8125 C-1505.52858887 99.31322998 -1504.74467773 98.81395996 -1503.93701172 98.29956055 C-1479.88893145 83.11223017 -1452.89583335 68.68263192 -1423.62915039 75.18286133 C-1406.59798492 79.47125444 -1385.54442328 86.14748088 -1376 102 C-1372.80511788 107.98755818 -1372.51207052 113.08704122 -1372.5625 119.8125 C-1372.54251953 120.74642578 -1372.52253906 121.68035156 -1372.50195312 122.64257812 C-1372.5067421 129.54349539 -1374.04948114 134.79679646 -1377 141 C-1377.42023437 141.93972656 -1377.84046875 142.87945313 -1378.2734375 143.84765625 C-1381.06301127 149.45648011 -1384.00093915 155.14483521 -1388 160 C-1388.66 160 -1389.32 160 -1390 160 C-1390.39445312 160.83724609 -1390.39445312 160.83724609 -1390.796875 161.69140625 C-1394.98432222 169.7264105 -1400.41906476 177.3963304 -1409 181 C-1418.02375796 181.70952936 -1427.08131217 176.87324024 -1434.5 172.25 C-1443.41876653 167.1650198 -1454.40603641 168.66539143 -1464 171 C-1471.58763883 173.45594859 -1478.13172304 177.09484963 -1484.72265625 181.546875 C-1487 183 -1487 183 -1490 184 C-1490 184.66 -1490 185.32 -1490 186 C-1491.64488294 187.68816933 -1493.31337542 189.35353315 -1495 191 C-1497.70454841 195.05682262 -1497.42076588 198.24210884 -1497 203 C-1496.11539972 206.41471924 -1496.11539972 206.41471924 -1495 209 C-1494.34 209 -1493.68 209 -1493 209 C-1493 209.66 -1493 210.32 -1493 211 C-1492.34 211 -1491.68 211 -1491 211 C-1491 211.66 -1491 212.32 -1491 213 C-1490.34386719 213.22300781 -1489.68773438 213.44601563 -1489.01171875 213.67578125 C-1484.992916 215.44280347 -1481.47272916 217.77781544 -1477.8125 220.1875 C-1477.0601709 220.67782715 -1476.3078418 221.1681543 -1475.53271484 221.67333984 C-1470.56825486 224.92356144 -1465.68017714 228.26426124 -1460.8828125 231.7578125 C-1458.91672341 233.17135919 -1458.91672341 233.17135919 -1456 234 C-1456 234.66 -1456 235.32 -1456 236 C-1455.27683594 236.26683594 -1454.55367187 236.53367187 -1453.80859375 236.80859375 C-1450.99251184 238.00317648 -1448.62284649 239.39373796 -1446.0625 241.0625 C-1445.11117187 241.67609375 -1444.15984375 242.2896875 -1443.1796875 242.921875 C-1440.90980047 244.40538839 -1438.64491101 245.89535988 -1436.3828125 247.390625 C-1435.76913818 247.79273193 -1435.15546387 248.19483887 -1434.52319336 248.60913086 C-1433.32736708 249.39304198 -1432.13525241 250.18265389 -1430.94750977 250.97875977 C-1423.84770835 255.6252482 -1416.45090521 257.40974086 -1408 257 C-1400.17918864 254.89101716 -1393.46568479 250.76817223 -1387 246 C-1386.06414063 245.31808594 -1385.12828125 244.63617187 -1384.1640625 243.93359375 C-1377.98875737 239.36958289 -1372.0353437 234.61692183 -1366.1796875 229.65234375 C-1364 228 -1364 228 -1362 228 C-1362 227.34 -1362 226.68 -1362 226 C-1360.2808104 224.58084349 -1358.4962319 223.24061434 -1356.6875 221.9375 C-1352.6339959 218.97713596 -1348.67258148 215.96277551 -1344.8125 212.75 C-1340.1543624 208.89290051 -1335.38084442 205.21509028 -1330.5625 201.5625 C-1325.56554557 197.77359448 -1320.65602258 193.93338489 -1315.875 189.875 C-1309.695391 184.64412765 -1303.18424484 179.92634578 -1296.61767578 175.20019531 C-1295.10203034 174.07569894 -1293.64017774 172.87970261 -1292.18359375 171.6796875 C-1290 170 -1290 170 -1288 170 C-1288 169.34 -1288 168.68 -1288 168 C-1285.8448556 166.31115591 -1283.68977466 164.73693718 -1281.4375 163.1875 C-1280.82841797 162.76146484 -1280.21933594 162.33542969 -1279.59179688 161.89648438 C-1278.3578143 161.03334947 -1277.12129875 160.17382494 -1275.88232422 159.31787109 C-1273.95220664 157.96653845 -1272.05809983 156.57180561 -1270.16015625 155.17578125 C-1267 153 -1267 153 -1265 153 C-1265 152.34 -1265 151.68 -1265 151 C-1263.34285844 149.76169642 -1261.61971839 148.61151772 -1259.875 147.5 C-1255.15232285 144.42942546 -1250.51310835 141.28553836 -1245.9375 138 C-1245.35363525 137.58250488 -1244.76977051 137.16500977 -1244.16821289 136.73486328 C-1241.3488552 134.71245973 -1238.54779189 132.66969474 -1235.7734375 130.5859375 C-1234.79632812 129.85632812 -1233.81921875 129.12671875 -1232.8125 128.375 C-1231.95269531 127.72273438 -1231.09289063 127.07046875 -1230.20703125 126.3984375 C-1228 125 -1228 125 -1225 125 C-1225 124.34 -1225 123.68 -1225 123 C-1222.59078537 121.37370455 -1220.18172878 119.86059694 -1217.6875 118.375 C-1212.66218643 115.31941848 -1207.77769027 112.21381751 -1203.0625 108.6875 C-1199.2380677 105.83489654 -1195.39021852 103.44356783 -1191.1796875 101.2109375 C-1188.16465709 99.53592061 -1185.35719676 97.59867711 -1182.53125 95.625 C-1180.33694353 94.21630943 -1178.13318739 92.95430067 -1175.84765625 91.703125 C-1170.75731123 88.90432424 -1165.8545585 85.84018533 -1160.9375 82.75 C-1152.69790417 77.61755279 -1144.41770617 72.6229613 -1135.87109375 68.01757812 C-1134.03544592 67.01927695 -1132.2217703 65.98745737 -1130.40625 64.953125 C-1118.04377088 58.13108708 -1104.57714549 54.61659056 -1091 51 C-1090.24299805 50.78939941 -1089.48599609 50.57879883 -1088.70605469 50.36181641 C-1066.78320733 44.35214248 -1045.33524406 47.76014981 -1025 57 C-1025 57.66 -1025 58.32 -1025 59 C-1024.27425781 59.23976563 -1023.54851562 59.47953125 -1022.80078125 59.7265625 C-1011.10697755 65.04341048 -1003.10092836 79.26435274 -998.6875 90.8125 C-997.72585825 93.52304415 -996.84273488 96.25034677 -996 99 C-995.65839844 100.11246094 -995.31679688 101.22492187 -994.96484375 102.37109375 C-990.25500677 121.31997275 -991.7746731 142.34537142 -997 161 C-997.19255371 161.72719238 -997.38510742 162.45438477 -997.58349609 163.20361328 C-1000.87221025 175.61940215 -1005.10395801 187.74177915 -1011.08203125 199.13671875 C-1012.12723416 201.25825828 -1012.96688706 203.41641599 -1013.8125 205.625 C-1015.3379307 209.52332289 -1017.08553121 213.21517933 -1019 216.9375 C-1024.83139477 228.38336677 -1029.83813089 240.24106623 -1035 252 C-1021.70980452 248.29400989 -1021.70980452 248.29400989 -1009 243 C-1007.67955761 242.39197911 -1006.35780312 241.78680414 -1005.03515625 241.18359375 C-997.06562016 237.53088971 -989.38169224 233.75230114 -982 229 C-980.78563532 228.24792382 -979.57074482 227.49669633 -978.35546875 226.74609375 C-963.02410117 217.1653674 -948.60113192 206.15024993 -934.86328125 194.40625 C-933 193 -933 193 -931 193 C-931 192.34 -931 191.68 -931 191 C-929.5390625 189.4921875 -929.5390625 189.4921875 -927.625 187.875 C-926.68527344 187.06675781 -926.68527344 187.06675781 -925.7265625 186.2421875 C-924 185 -924 185 -922 185 C-922 184.34 -922 183.68 -922 183 C-920.671875 181.66015625 -920.671875 181.66015625 -918.75 180.0625 C-916.06723221 177.79320538 -913.43344885 175.49329006 -910.8671875 173.09375 C-910.0632959 172.34339478 -910.0632959 172.34339478 -909.24316406 171.57788086 C-908.17155617 170.5743398 -907.1031417 169.5673769 -906.03808594 168.55688477 C-902.22069869 165 -902.22069869 165 -900 165 C-899.67 164.01 -899.34 163.02 -899 162 C-898.34 162 -897.68 162 -897 162 C-897 161.34 -897 160.68 -897 160 C-895.33784732 158.66104368 -893.67036393 157.32869858 -892 156 C-891.401875 155.236875 -890.80375 154.47375 -890.1875 153.6875 C-888.36527707 151.44876898 -886.73504369 149.85517755 -884.55078125 148.01953125 C-879.08982175 143.29468661 -874.06605098 138.13837394 -869 133 C-863.37855386 127.29830208 -857.76170672 121.65979638 -851.67089844 116.45263672 C-848.82289745 113.9766569 -846.26430829 111.23364635 -843.6640625 108.50390625 C-842 107 -842 107 -840 107 C-840 106.34 -840 105.68 -840 105 C-838.56640625 103.5546875 -838.56640625 103.5546875 -836.5625 101.875 C-835.83160156 101.25367187 -835.10070313 100.63234375 -834.34765625 99.9921875 C-833.57292969 99.33476562 -832.79820313 98.67734375 -832 98 C-830.49626746 96.67087765 -828.99626132 95.33752751 -827.5 94 C-826.74332031 93.32839844 -825.98664063 92.65679688 -825.20703125 91.96484375 C-823.82417713 90.73373645 -822.44582489 89.49753292 -821.07421875 88.25390625 C-801.41933527 70.6336898 -780.73399924 60.5828321 -754 61 C-739.19687443 61.82239587 -726.88942983 70.52721304 -717.125 81.125 C-704.2092171 95.61474927 -704.02185778 112.79687485 -704.77734375 131.26269531 C-705.21356017 138.58462626 -706.04438919 145.85868709 -706.92504883 153.13867188 C-708.03748418 162.47592168 -708.33535063 171.61018248 -708 181 C-707.01 181.33 -706.02 181.66 -705 182 C-702.58897668 180.72873316 -700.3125083 179.42429489 -698 178 C-696.67353844 177.3197633 -695.34391123 176.64507739 -694 176 C-694 175.34 -694 174.68 -694 174 C-692.42700195 172.61132812 -692.42700195 172.61132812 -690.23828125 171.03125 C-689.44873047 170.46019531 -688.65917969 169.88914062 -687.84570312 169.30078125 C-687.00974609 168.70652344 -686.17378906 168.11226562 -685.3125 167.5 C-684.08756836 166.60861328 -684.08756836 166.60861328 -682.83789062 165.69921875 C-678.96941876 162.92394258 -675.49575849 160.64684861 -671 159 C-671 158.34 -671 157.68 -671 157 C-669.38256349 155.80530258 -667.70109405 154.69723216 -666 153.625 C-660.97543957 150.35962408 -656.14746493 146.93510857 -651.375 143.3125 C-634.99784618 130.91290826 -618.21841448 119.04130902 -601.3125 107.375 C-596.41262659 103.99348242 -591.55881216 100.55209811 -586.72192383 97.08154297 C-581.50885915 93.34806347 -576.25686839 89.67146364 -571 86 C-564.5291768 81.4802308 -558.07894352 76.93473348 -551.6640625 72.3359375 C-547.67179645 69.4748135 -543.65368382 66.65322687 -539.625 63.84375 C-536.4033588 61.58093058 -533.20155408 59.29110679 -530 57 C-528.80735842 56.14834402 -527.61465104 55.29678017 -526.421875 54.4453125 C-524.26195445 52.90337593 -522.10630289 51.35607977 -519.953125 49.8046875 C-519.06109375 49.16789062 -518.1690625 48.53109375 -517.25 47.875 C-516.47140625 47.31554688 -515.6928125 46.75609375 -514.890625 46.1796875 C-513 45 -513 45 -511 45 C-511 44.34 -511 43.68 -511 43 C-509.015625 41.58984375 -509.015625 41.58984375 -506.25 39.9375 C-499.2212315 35.59886584 -492.65959659 30.67968143 -486.1796875 25.5625 C-481.31774144 21.84885276 -475.83942506 19.2910471 -470.35546875 16.63671875 C-467.81728992 15.39865481 -465.35009665 14.10429817 -462.875 12.75 C-454.1596497 8.53758069 -445.43547776 7.69366265 -435.875 7.5625 C-434.95702637 7.54026367 -434.03905273 7.51802734 -433.09326172 7.49511719 C-421.36248483 7.53293807 -412.78248353 12.49435253 -404.46875 20.46875 C-396.15365096 29.59507821 -395.36098021 40.90583689 -395.82080078 52.61181641 C-396.29605514 58.9455196 -398.16858701 64.9502874 -400 71 C-400.46488266 72.60377857 -400.92836563 74.20796335 -401.390625 75.8125 C-404.0150142 84.81940375 -406.87411077 93.73502124 -409.88574219 102.61914062 C-411.75489818 108.16487954 -413.41259627 113.74928341 -414.9453125 119.3984375 C-415.85606526 122.50848951 -416.84594503 125.56590877 -417.87890625 128.63671875 C-419.97454162 134.86954395 -421.90429862 141.14522994 -423.8125 147.4375 C-426.61512117 156.62577353 -429.55073403 165.7551309 -432.6315918 174.85351562 C-434.62322677 180.76914911 -436.37305453 186.70845652 -438.03125 192.7265625 C-439.09275857 196.31343419 -440.33714817 199.80085751 -441.625 203.3125 C-444.63828062 211.69405594 -446.17172006 218.79379788 -446.3125 227.6875 C-446.33030518 228.41300049 -446.34811035 229.13850098 -446.36645508 229.88598633 C-446.35928653 234.68725748 -445.45127874 237.7614598 -443 242 C-442.67 242.99 -442.34 243.98 -442 245 C-439.88214887 246.11785113 -439.88214887 246.11785113 -437 247 C-436.36964844 247.28359375 -435.73929688 247.5671875 -435.08984375 247.859375 C-423.84692917 252.51161552 -412.75829613 247.09628959 -402.16357422 242.85742188 C-399.95184189 241.980915 -397.73028577 241.13542518 -395.50390625 240.296875 C-387.06097916 237.10183843 -378.83627037 233.63634181 -370.6953125 229.73828125 C-367.57217779 228.24969208 -364.41041667 226.87734466 -361.22558594 225.52685547 C-351.87782325 221.55532703 -342.97403157 216.87194446 -334.02783203 212.07470703 C-331.56388869 210.76887046 -329.07011636 209.53209512 -326.5625 208.3125 C-321.9082148 206.01767883 -317.46911327 203.39425216 -313.00390625 200.75390625 C-310.1954625 199.1141257 -307.36186901 197.54417393 -304.5 196 C-290.57929169 188.46127831 -277.0804993 180.25001393 -264.125 171.15625 C-261.24954358 169.17218507 -258.33706148 167.28878843 -255.375 165.4375 C-248.92009994 161.36850856 -242.82502407 156.85081786 -236.7109375 152.29394531 C-235.00889232 151.02597435 -233.30574135 149.75948657 -231.6015625 148.49438477 C-229.88528626 147.21990148 -228.1716782 145.94181617 -226.4609375 144.65991211 C-225.66945312 144.07218018 -224.87796875 143.48444824 -224.0625 142.87890625 C-223.35222656 142.3485376 -222.64195313 141.81816895 -221.91015625 141.27172852 C-220 140 -220 140 -217 139 C-217 138.34 -217 137.68 -217 137 C-215.25714852 135.58355885 -213.45267785 134.24265534 -211.625 132.9375 C-206.59352767 129.28136131 -201.97305287 125.36131473 -197.390625 121.1484375 C-187.92485549 112.6416185 -187.92485549 112.6416185 -183 111 C-182.67 110.01 -182.34 109.02 -182 108 C-181.34 108 -180.68 108 -180 108 C-180 107.34 -180 106.68 -180 106 C-178.671875 104.66015625 -178.671875 104.66015625 -176.75 103.0625 C-173.13630082 99.99149416 -169.60992883 96.84069969 -166.125 93.625 C-161.52120853 89.37910303 -156.86589934 85.19910509 -152.15625 81.0703125 C-149.86190518 78.86740896 -147.97110467 76.49177382 -146 74 C-144.8553125 73.1028125 -144.8553125 73.1028125 -143.6875 72.1875 C-140.82316946 69.85606817 -138.62030782 67.35211579 -136.23046875 64.55078125 C-132.78951752 60.61568291 -129.20034329 56.8195583 -125.61914062 53.01220703 C-123.20008365 50.42729256 -120.90352025 47.8756225 -118.73046875 45.07421875 C-117.87388672 44.04748047 -117.87388672 44.04748047 -117 43 C-116.34 43 -115.68 43 -115 43 C-114.67515625 42.19949219 -114.67515625 42.19949219 -114.34375 41.3828125 C-112.51055146 38.13208253 -110.04530155 35.57168461 -107.5 32.875 C-106.96971191 32.30821533 -106.43942383 31.74143066 -105.89306641 31.1574707 C-104.26981543 29.43073687 -102.63737732 27.71333812 -101 26 C-100.50209961 25.47873535 -100.00419922 24.9574707 -99.49121094 24.42041016 C-93.62224837 18.31405583 -93.62224837 18.31405583 -91 16 C-90.34 16 -89.68 16 -89 16 C-89 15.34 -89 14.68 -89 14 C-87.62988281 12.76660156 -87.62988281 12.76660156 -85.703125 11.390625 C-84.99744385 10.88587646 -84.2917627 10.38112793 -83.56469727 9.86108398 C-82.80084717 9.32942627 -82.03699707 8.79776855 -81.25 8.25 C-80.47519287 7.70867432 -79.70038574 7.16734863 -78.90209961 6.60961914 C-69.81853343 0.36684123 -60.71615749 -4.3045248 -50 -7 C-48.74832031 -7.34804687 -47.49664063 -7.69609375 -46.20703125 -8.0546875 C-30.88398542 -11.84521926 -13.21100025 -8.39106649 0 0 Z M-1429.3125 361.8125 C-1431.20360115 363.80346833 -1431.20360115 363.80346833 -1431 366 C-1431.66 366 -1432.32 366 -1433 366 C-1434.47573971 367.57366259 -1434.47573971 367.57366259 -1436 369.6875 C-1436.62648438 370.51765625 -1437.25296875 371.3478125 -1437.8984375 372.203125 C-1438.59195313 373.12609375 -1439.28546875 374.0490625 -1440 375 C-1441.54134777 376.97941503 -1443.08303721 378.95856404 -1444.625 380.9375 C-1452.66552877 391.35693885 -1460.34012426 402.06192321 -1467.75 412.9375 C-1470.53718829 417.00597815 -1473.45809147 420.84496945 -1476.625 424.625 C-1485.66626575 435.49980916 -1492.35976026 446.46968283 -1492 461 C-1490.23142858 471.21690105 -1485.63471393 480.06687969 -1479 488 C-1476.13678305 489.85692128 -1475.14523418 490.00537904 -1471.625 489.875 C-1467.64925288 488.9153369 -1465.17418483 487.55483169 -1462 485 C-1462 484.34 -1462 483.68 -1462 483 C-1461.12021484 482.59394531 -1461.12021484 482.59394531 -1460.22265625 482.1796875 C-1455.44082192 479.64170162 -1450.82080888 475.64603816 -1448 471 C-1448 470.34 -1448 469.68 -1448 469 C-1447.01 468.67 -1446.02 468.34 -1445 468 C-1443.67958977 466.56329698 -1443.67958977 466.56329698 -1442.51171875 464.75390625 C-1442.05579346 464.08673584 -1441.59986816 463.41956543 -1441.13012695 462.73217773 C-1440.65406006 462.01618408 -1440.17799316 461.30019043 -1439.6875 460.5625 C-1439.19403076 459.83039307 -1438.70056152 459.09828613 -1438.19213867 458.34399414 C-1424.09095723 437.29332654 -1409.83575449 413.49851952 -1409.8125 387.5 C-1409.80025391 386.77941406 -1409.78800781 386.05882813 -1409.77539062 385.31640625 C-1409.75382602 377.36625521 -1411.42650386 371.71283355 -1417 366 C-1417.66 366 -1418.32 366 -1419 366 C-1419.495 364.515 -1419.495 364.515 -1420 363 C-1420.66 363 -1421.32 363 -1422 363 C-1422 362.34 -1422 361.68 -1422 361 C-1425.39789082 359.86736973 -1426.40499937 359.53364816 -1429.3125 361.8125 Z " fill="#FEFEFE" transform="translate(5174,2000)"/>
<path d="M0 0 C2.72068844 2.10853354 3.66739292 3.69728894 4.515625 7.01953125 C5.03372527 11.95011882 3.8505178 14.85706863 0.75 18.6875 C-6.49968296 26.03965198 -16.50283491 29.42805738 -26 33 C-26 33.66 -26 34.32 -26 35 C-21.48130878 34.55915208 -18.7074238 33.22795054 -14.87890625 30.85546875 C-11.58489629 29.35570122 -8.56178006 29.75005052 -5 30 C-4.67 31.32 -4.34 32.64 -4 34 C-3.06027344 33.36771484 -3.06027344 33.36771484 -2.1015625 32.72265625 C-1.28429688 32.17480469 -0.46703125 31.62695312 0.375 31.0625 C1.18710938 30.51722656 1.99921875 29.97195313 2.8359375 29.41015625 C6.47493167 27.03889831 8.65707031 26.90558848 13 27 C14.31781835 30.95345506 13.68898915 32.96942206 12.01831055 36.6652832 C10.73407218 39.60970218 9.5913006 42.59823178 8.44140625 45.59765625 C7.97283203 46.81130859 7.50425781 48.02496094 7.02148438 49.27539062 C6.28962968 51.17192788 5.55995972 53.06917241 4.83666992 54.96899414 C4.12833332 56.82696945 3.4099606 58.68110861 2.69140625 60.53515625 C2.06020874 62.18076538 2.06020874 62.18076538 1.41625977 63.85961914 C-3.28374402 74.28129622 -11.37416467 78.85780112 -21.3125 83.640625 C-39.03240762 92.60360153 -53.94011729 106.0299259 -68.7578125 119.03515625 C-69.49773437 119.68355469 -70.23765625 120.33195312 -71 121 C-71.54366211 121.47679199 -72.08732422 121.95358398 -72.64746094 122.44482422 C-74.5316188 124.09308831 -76.42161125 125.73446444 -78.3125 127.375 C-78.92407959 127.91181396 -79.53565918 128.44862793 -80.16577148 129.00170898 C-82.7548968 131.24030214 -84.72005002 132.90668334 -88 134 C-88.33 134.99 -88.66 135.98 -89 137 C-90.48364258 138.37524414 -90.48364258 138.37524414 -92.39453125 139.78515625 C-93.09666748 140.31069092 -93.79880371 140.83622559 -94.5222168 141.37768555 C-95.27801025 141.93367432 -96.03380371 142.48966309 -96.8125 143.0625 C-102.05393228 146.98442614 -107.20819064 150.93687006 -112.1875 155.1875 C-116.92572914 159.19777075 -121.83856234 162.82019061 -126.91503906 166.38037109 C-131.3538541 169.50237889 -135.59546099 172.8164123 -139.80859375 176.23828125 C-148.2195122 183 -148.2195122 183 -151 183 C-151 183.66 -151 184.32 -151 185 C-152.703125 186.41796875 -152.703125 186.41796875 -155.25 188.1875 C-160.73688814 192.077563 -166.12874257 196.07676591 -171.5 200.125 C-179.23637335 205.94506435 -187.00905451 211.7129435 -194.8203125 217.43212891 C-197.90837866 219.69765388 -200.9515264 221.96011501 -203.91015625 224.39453125 C-206 226 -206 226 -208 226 C-208 226.66 -208 227.32 -208 228 C-210.1171875 229.7265625 -210.1171875 229.7265625 -212.875 231.625 C-213.77992188 232.25664063 -214.68484375 232.88828125 -215.6171875 233.5390625 C-218 235 -218 235 -220 235 C-220 235.66 -220 236.32 -220 237 C-221.8984375 238.5078125 -221.8984375 238.5078125 -224.375 240.125 C-225.18710938 240.66382813 -225.99921875 241.20265625 -226.8359375 241.7578125 C-229 243 -229 243 -231 243 C-231 243.66 -231 244.32 -231 245 C-232.44262695 246.29003906 -232.44262695 246.29003906 -234.48828125 247.765625 C-235.24778076 248.31879395 -236.00728027 248.87196289 -236.78979492 249.44189453 C-237.6222876 250.03856934 -238.45478027 250.63524414 -239.3125 251.25 C-241.06521233 252.52328862 -242.81781343 253.79673037 -244.5703125 255.0703125 C-245.47297852 255.72290039 -246.37564453 256.37548828 -247.30566406 257.04785156 C-251.4499417 260.05053768 -255.56906677 263.08701338 -259.6875 266.125 C-260.47745361 266.70668945 -261.26740723 267.28837891 -262.08129883 267.88769531 C-267.07327882 271.56670067 -272.04419971 275.2724384 -277 279 C-295.42475015 292.85380373 -314.07263583 306.40727784 -332.859375 319.765625 C-334.91562818 321.22853149 -336.96788393 322.69707703 -339.015625 324.171875 C-339.91796875 324.81640625 -340.8203125 325.4609375 -341.75 326.125 C-342.91789062 326.96417969 -342.91789062 326.96417969 -344.109375 327.8203125 C-346 329 -346 329 -348 329 C-348 329.66 -348 330.32 -348 331 C-349.70053641 332.25731149 -351.46435681 333.42930336 -353.25 334.5625 C-359.72082862 338.77005758 -365.85918882 343.32280185 -372 348 C-375.07276295 350.30839405 -378.14905929 352.61199317 -381.2265625 354.9140625 C-382.97899499 356.23208919 -384.72474587 357.55908967 -386.4609375 358.8984375 C-387.53214844 359.72214844 -387.53214844 359.72214844 -388.625 360.5625 C-389.23601563 361.03816406 -389.84703125 361.51382812 -390.4765625 362.00390625 C-392 363 -392 363 -394 363 C-394 363.66 -394 364.32 -394 365 C-396.36099859 366.88819271 -398.73615256 368.67327268 -401.1875 370.4375 C-406.53230516 374.3560362 -411.73722528 378.35143828 -416.75 382.6875 C-421.6944541 386.95477722 -426.7980395 390.91381761 -432.0625 394.78515625 C-436.10359144 397.8320962 -439.95975052 401.0745711 -443.8203125 404.34765625 C-446 406 -446 406 -448 406 C-448 406.66 -448 407.32 -448 408 C-449.34179688 409.23339844 -449.34179688 409.23339844 -451.21875 410.609375 C-451.90453125 411.11726563 -452.5903125 411.62515625 -453.296875 412.1484375 C-454.02390625 412.67695312 -454.7509375 413.20546875 -455.5 413.75 C-456.19609375 414.26304687 -456.8921875 414.77609375 -457.609375 415.3046875 C-459.0195372 416.34402927 -460.43232079 417.37982342 -461.84765625 418.41210938 C-463.32526233 419.50221259 -464.79090972 420.60865661 -466.24609375 421.72851562 C-466.95894531 422.27701172 -467.67179687 422.82550781 -468.40625 423.390625 C-469.37014648 424.14134277 -469.37014648 424.14134277 -470.35351562 424.90722656 C-472 426 -472 426 -474 426 C-474 426.66 -474 427.32 -474 428 C-479.41176471 432 -479.41176471 432 -482 432 C-482 432.66 -482 433.32 -482 434 C-483.64411907 435.03665339 -485.3190922 436.0241277 -487 437 C-489.99381654 439.07581088 -492.93132059 441.2288692 -495.875 443.375 C-498.19029391 445.05675578 -500.505885 446.73808037 -502.82324219 448.41699219 C-504.2402087 449.4474555 -505.65259178 450.48426085 -507.05957031 451.52832031 C-511.78389271 455 -511.78389271 455 -514 455 C-514 455.66 -514 456.32 -514 457 C-515.3921875 457.7425 -515.3921875 457.7425 -516.8125 458.5 C-521.36936763 461.07724481 -525.47404729 464.23831437 -529.64453125 467.390625 C-532 469 -532 469 -534 469 C-534 469.66 -534 470.32 -534 471 C-535.84375 472.33984375 -535.84375 472.33984375 -538.5 473.9375 C-543.32197122 476.91958975 -548.02524281 480.02407469 -552.6875 483.25 C-553.36627197 483.71921875 -554.04504395 484.1884375 -554.74438477 484.671875 C-556.13784121 485.63578441 -557.53098724 486.60014272 -558.92382812 487.56494141 C-560.9403969 488.95880209 -562.96134734 490.34600288 -564.984375 491.73046875 C-572.58019845 496.93013042 -580.12729011 502.19259195 -587.63769531 507.51489258 C-592.45946873 510.92691021 -597.31238023 514.28973343 -602.1875 517.625 C-607.64426581 521.36014428 -613.05127269 525.15527207 -618.42163086 529.01342773 C-626.08412637 534.51036505 -633.8266564 539.89374219 -641.55761719 545.29370117 C-648.46496153 550.11931389 -655.3661561 554.95341306 -662.25 559.8125 C-663.34223877 560.58279541 -663.34223877 560.58279541 -664.45654297 561.36865234 C-667.87362397 563.78110408 -671.28568249 566.19969713 -674.6796875 568.64453125 C-681.22981069 573.36205368 -687.84828599 577.93532028 -694.58837891 582.37792969 C-698.46941765 584.94627913 -702.25545159 587.60884933 -706 590.375 C-708.79011054 592.43368245 -711.52388105 594.39161209 -714.5625 596.0625 C-717.322353 597.61805351 -719.75379818 599.21744971 -722.3125 601.0625 C-727.90883819 605.05248186 -733.76804314 608.5733206 -739.66723633 612.09204102 C-743.68830708 614.50833464 -747.3604078 617.02564082 -751 620 C-752.39472666 620.82970965 -753.81148038 621.62377309 -755.25 622.375 C-758.45527034 624.10499691 -761.49059035 625.94812979 -764.5 628 C-768.0891713 630.43839714 -771.75264698 632.58832899 -775.56713867 634.65234375 C-777.96154175 635.97869648 -780.30638345 637.36474333 -782.6484375 638.78125 C-786.92864653 641.36000214 -791.22658355 643.90629598 -795.53417969 646.43896484 C-804.47183229 651.69727831 -813.37951065 657.00413076 -822.25 662.375 C-823.17707764 662.93316406 -824.10415527 663.49132813 -825.05932617 664.06640625 C-830.43581149 667.33352443 -835.64080795 670.76764932 -840.76318359 674.42089844 C-842.93739483 675.95580329 -845.14399665 677.42426015 -847.375 678.875 C-855.59105356 684.33795491 -863.36923717 690.36655092 -870.9375 696.6875 C-871.46891602 697.12666748 -872.00033203 697.56583496 -872.54785156 698.01831055 C-876.13184598 701.05358384 -879.03583019 704.36972461 -882 708 C-882.82757812 708.82242188 -883.65515625 709.64484375 -884.5078125 710.4921875 C-887.20374607 713.20502347 -889.56317336 716.08778693 -891.875 719.125 C-892.30917236 719.69484619 -892.74334473 720.26469238 -893.19067383 720.85180664 C-899.54465678 729.28659865 -904.61517197 738.02586136 -909.24609375 747.515625 C-911.42154123 751.8374494 -913.84179791 755.97723414 -916.31640625 760.1328125 C-917.94728103 762.91021873 -919.48298739 765.72162227 -921 768.5625 C-923.5582234 773.29793481 -926.37176413 777.81729854 -929.29296875 782.3359375 C-930.84734576 784.76176158 -932.34191084 787.21028221 -933.8125 789.6875 C-938.51511243 797.58339832 -943.44800409 805.338681 -948.33203125 813.12304688 C-949.6387962 815.20654674 -950.94472298 817.29056767 -952.25 819.375 C-952.66958984 820.04490967 -953.08917969 820.71481934 -953.52148438 821.4050293 C-955.80493257 825.05936322 -958.05057482 828.73169767 -960.25 832.4375 C-962.09703889 835.54885001 -964.03059482 838.5686549 -966.0625 841.5625 C-967.93620925 844.33693837 -969.66001583 847.11684512 -971.25 850.0625 C-974.7523964 856.50780455 -978.74119625 862.65865658 -982.65185547 868.86083984 C-984.85795516 872.36135514 -987.05500561 875.86751324 -989.25 879.375 C-989.87926392 880.37974365 -989.87926392 880.37974365 -990.52124023 881.40478516 C-992.8048712 885.05913918 -995.05051708 888.73160039 -997.25 892.4375 C-999.49975988 896.22723636 -1001.89714061 899.88370691 -1004.41015625 903.50390625 C-1006.30731365 906.48248998 -1007.98344916 909.55811786 -1009.68579102 912.65112305 C-1011.67297876 916.20281045 -1013.79960856 919.66261956 -1015.9375 923.125 C-1016.91172715 924.71077238 -1017.8856718 926.29671835 -1018.859375 927.8828125 C-1019.62604492 929.13046387 -1019.62604492 929.13046387 -1020.40820312 930.40332031 C-1023.18147461 934.92732577 -1025.93259375 939.46479688 -1028.6875 944 C-1032.52927786 950.32245644 -1036.38586174 956.63530438 -1040.2734375 962.9296875 C-1040.63164078 963.51002747 -1040.98984406 964.09036743 -1041.35890198 964.68829346 C-1043.09756943 967.50477405 -1044.83837518 970.31986749 -1046.58276367 973.1328125 C-1049.74684021 978.25387983 -1052.81344782 983.39503966 -1055.70141602 988.67626953 C-1058.40898668 993.52128881 -1061.31853238 998.24946748 -1064.1875 1003 C-1068.55382061 1010.2518062 -1072.91099181 1017.50731586 -1077.1875 1024.8125 C-1081.1816637 1031.63262946 -1085.2318795 1038.4176701 -1089.32006836 1045.18188477 C-1092.05630358 1049.71895372 -1094.74340398 1054.27799583 -1097.37109375 1058.87890625 C-1097.93530029 1059.85835205 -1098.49950684 1060.83779785 -1099.08081055 1061.84692383 C-1100.15910894 1063.72231452 -1101.22770508 1065.60333252 -1102.28442383 1067.4909668 C-1106.62633537 1075.00783545 -1112.37268553 1083.24660177 -1121 1086 C-1124.875 1085.6875 -1124.875 1085.6875 -1128 1085 C-1127.50269348 1080.02693484 -1126.44697666 1076.36200187 -1124 1072 C-1124.48210938 1072.3609375 -1124.96421875 1072.721875 -1125.4609375 1073.09375 C-1126.09257812 1073.5578125 -1126.72421875 1074.021875 -1127.375 1074.5 C-1128.31472656 1075.19609375 -1128.31472656 1075.19609375 -1129.2734375 1075.90625 C-1131 1077 -1131 1077 -1133 1077 C-1133.33 1077.99 -1133.66 1078.98 -1134 1080 C-1134.66 1080 -1135.32 1080 -1136 1080 C-1136 1080.66 -1136 1081.32 -1136 1082 C-1137.86328125 1083.47265625 -1137.86328125 1083.47265625 -1140.3125 1085.0625 C-1141.11300781 1085.58972656 -1141.91351562 1086.11695312 -1142.73828125 1086.66015625 C-1148.21303204 1089.9034024 -1154.5722755 1089.72434399 -1160.76904297 1090.20458984 C-1162.17036333 1090.3179821 -1163.57084357 1090.44229785 -1164.97021484 1090.57763672 C-1166.99711467 1090.77292577 -1169.02420699 1090.93297135 -1171.0546875 1091.0859375 C-1172.87202393 1091.2413501 -1172.87202393 1091.2413501 -1174.72607422 1091.39990234 C-1179.03822755 1090.87318294 -1180.32907924 1089.33722914 -1183 1086 C-1184.1184082 1084.12231445 -1184.1184082 1084.12231445 -1184.80078125 1082.36328125 C-1185.05617676 1081.70875977 -1185.31157227 1081.05423828 -1185.57470703 1080.37988281 C-1185.81817871 1079.69764648 -1186.06165039 1079.01541016 -1186.3125 1078.3125 C-1186.5688623 1077.60061523 -1186.82522461 1076.88873047 -1187.08935547 1076.15527344 C-1191.35085404 1063.67941781 -1187.91452588 1053.88725871 -1182.36450195 1042.31738281 C-1178.75001374 1034.993875 -1174.70431994 1027.95445858 -1170.51025391 1020.95019531 C-1167.82840779 1016.46203776 -1165.39561671 1011.92459632 -1163.11328125 1007.21875 C-1155.05350517 991.15575767 -1144.15107256 976.1635742 -1134.36767578 961.10595703 C-1130.23565628 954.74344361 -1126.11798232 948.37160449 -1122 942 C-1121.61634277 941.40654785 -1121.23268555 940.8130957 -1120.83740234 940.20166016 C-1115.64850876 932.16997618 -1110.52228839 924.09980094 -1105.42407227 916.01025391 C-1102.83370804 911.90012101 -1100.23273016 907.7972906 -1097.6171875 903.703125 C-1093.76475861 897.65330275 -1090.00198988 891.54997395 -1086.25 885.4375 C-1085.54779796 884.29433515 -1084.84556777 883.15118759 -1084.14331055 882.00805664 C-1082.74712958 879.73489969 -1081.3516791 877.46129886 -1079.95654297 875.1875 C-1078.20374998 872.33193907 -1076.44808103 869.47817373 -1074.69140625 866.625 C-1073.73161785 865.06259397 -1072.77197107 863.50010093 -1071.8125 861.9375 C-1071.39194336 861.25550537 -1070.97138672 860.57351074 -1070.53808594 859.87084961 C-1068.03961665 855.79288243 -1065.68406386 851.65502558 -1063.37719727 847.46606445 C-1060.10497676 841.60669566 -1056.66085325 835.84375904 -1053.25976562 830.05859375 C-1049.91353181 824.34622521 -1046.66855287 818.59643411 -1043.52856445 812.76831055 C-1041.9175619 809.85070027 -1040.21888555 806.99665178 -1038.5078125 804.13671875 C-1034.83974565 797.88850263 -1031.82893395 791.42202413 -1028.875 784.8125 C-1025.52795948 777.36165916 -1022.12375436 770.05713494 -1018 763 C-1029.28737467 765.04805923 -1040.4662438 767.25925102 -1051.57421875 770.12890625 C-1056.02398493 771.26037473 -1060.48735392 772.16287145 -1065 773 C-1066.28132813 773.2475 -1067.56265625 773.495 -1068.8828125 773.75 C-1070.29681277 774.02115803 -1071.71087557 774.29199021 -1073.125 774.5625 C-1073.78242188 774.68955322 -1074.43984375 774.81660645 -1075.1171875 774.94750977 C-1097.86558489 779.24411332 -1118.81688685 777.71343495 -1138.4296875 764.84765625 C-1158.31449639 750.55356111 -1171.81186677 722.24250019 -1176.45703125 698.734375 C-1178.77343457 682.80285287 -1175.71192543 669.0008853 -1168.57470703 654.63793945 C-1166.42843785 650.22462288 -1164.98150032 645.88650873 -1163.8125 641.125 C-1159.40360184 623.3226843 -1149.05478824 610.32777799 -1133.53515625 600.44140625 C-1129.13271239 597.93832183 -1124.59706123 595.72014726 -1120.0390625 593.515625 C-1116.93318458 592.04577427 -1116.93318458 592.04577427 -1114 590 C-1111.4375 589.75 -1111.4375 589.75 -1109 590 C-1106.82782673 592.17217327 -1106.2131212 593.65829505 -1105.125 596.5 C-1103.57759181 600.51268821 -1103.57759181 600.51268821 -1101.95703125 604.49609375 C-1098.03036431 613.89903181 -1095.85779517 622.79634944 -1094.9375 632.9375 C-1094.85027679 633.89847595 -1094.76305359 634.8594519 -1094.67318726 635.84954834 C-1093.68139095 647.62490791 -1093.6423786 659.41732583 -1093.61914062 671.22802734 C-1093.60958011 674.13681454 -1093.57584583 677.04457192 -1093.5390625 679.953125 C-1093.54663071 681.24866302 -1093.54663071 681.24866302 -1093.55435181 682.57037354 C-1093.45372589 688.86113606 -1092.21126368 694.52046837 -1089 700 C-1085.21983412 703.31700099 -1082.81174566 703.42241699 -1077.91699219 703.26660156 C-1072.39205304 702.76164395 -1067.03197844 701.58710732 -1061.625 700.375 C-1060.39128662 700.10284668 -1059.15757324 699.83069336 -1057.88647461 699.55029297 C-1032.66624077 693.86422894 -1006.0827218 685.8062788 -984 672 C-983.16082031 671.47921875 -982.32164062 670.9584375 -981.45703125 670.421875 C-970.12384414 663.59935959 -970.12384414 663.59935959 -960.0625 655.125 C-958 653 -958 653 -955 652 C-955 651.34 -955 650.68 -955 650 C-953.56640625 648.625 -953.56640625 648.625 -951.5625 647 C-943.73483795 640.30638086 -937.6148542 632.93835633 -932.41015625 624.0546875 C-931.94480469 623.37664063 -931.47945312 622.69859375 -931 622 C-930.34 622 -929.68 622 -929 622 C-928.6596875 621.0409375 -928.6596875 621.0409375 -928.3125 620.0625 C-926.92135553 616.81649623 -925.27956547 613.83831281 -923.5390625 610.76953125 C-922.06188425 608.11136024 -920.65221242 605.42335907 -919.25 602.72509766 C-909.16367917 583.43402408 -895.94027613 566.3719503 -882.70874023 549.16430664 C-879.01939658 544.3591171 -875.3930196 539.51180465 -871.8125 534.625 C-871.35464111 534.00012695 -870.89678223 533.37525391 -870.42504883 532.73144531 C-868.56585312 530.18351418 -866.74989901 527.62484852 -865 525 C-864.34 525 -863.68 525 -863 525 C-862.59394531 523.89785156 -862.59394531 523.89785156 -862.1796875 522.7734375 C-861.0490383 520.11528871 -859.77171708 517.98842296 -858.125 515.625 C-855.94223482 512.48227527 -854.0015103 509.26902793 -852.12060547 505.93701172 C-850.02124602 502.3081843 -847.74986858 498.78671825 -845.5 495.25 C-844.43354373 493.56774004 -843.367139 491.88544741 -842.30078125 490.203125 C-841.75631348 489.34525391 -841.2118457 488.48738281 -840.65087891 487.60351562 C-837.98964411 483.40662006 -835.3392891 479.20286726 -832.6875 475 C-829.63275311 470.16170013 -826.57534787 465.32524315 -823.5 460.5 C-812.04054336 442.51147701 -812.04054336 442.51147701 -800.91699219 424.31420898 C-798.60593626 420.48759546 -796.17770898 416.8007073 -793.58203125 413.16015625 C-789.89556251 407.95128745 -786.68173015 402.52738523 -783.5 397 C-779.77495404 390.52875227 -775.92160779 384.28576859 -771.54077148 378.23413086 C-770.04953553 376.07182692 -768.78553985 373.88493232 -767.5625 371.5625 C-764.59294967 366.03913639 -761.05370299 360.78748587 -757 356 C-756.34 356 -755.68 356 -755 356 C-754.75507813 355.33484375 -754.51015625 354.6696875 -754.2578125 353.984375 C-752.69207487 350.26939503 -750.79632657 346.79075937 -748.875 343.25 C-745.71658066 337.36695756 -742.73535175 331.4375937 -739.9375 325.375 C-735.26413297 315.28085168 -730.10986669 305.50961879 -724.4375 295.9375 C-720.97091928 290.06313584 -717.92931252 284.01871191 -714.93115234 277.89453125 C-713.26455345 274.50365359 -711.56740004 271.12805113 -709.875 267.75 C-709.19524066 266.38935881 -708.51555097 265.02868281 -707.8359375 263.66796875 C-706.78400498 261.56356974 -705.72739546 259.46196473 -704.6640625 257.36328125 C-698.87760597 245.92629167 -693.51583456 234.2939555 -688.43408203 222.52880859 C-686.53632814 218.15799318 -684.48007985 213.90891369 -682.3046875 209.671875 C-680.63122793 206.24479013 -679.13217663 202.75269832 -677.625 199.25 C-674.87136628 192.87024969 -671.91421778 186.64953039 -668.7578125 180.45703125 C-667.54240414 178.06672814 -666.34874856 175.67423567 -665.1796875 173.26171875 C-657.64374818 157.75967879 -657.64374818 157.75967879 -652.55859375 154.375 C-649.01829653 151.08873938 -648.13064653 147.64819537 -646.6875 143.125 C-644.11389189 135.61317432 -641.08879981 129.14066039 -636.97265625 122.3359375 C-634.93966902 118.89797494 -633.17241176 115.40547782 -631.4375 111.8125 C-628.81199789 106.46580549 -625.88750559 101.49162879 -622.62109375 96.515625 C-620.67784078 93.50007099 -618.958762 90.39628026 -617.24609375 87.24609375 C-615.46023257 84.02706497 -613.54436315 80.89077606 -611.625 77.75 C-610.2997066 75.50719578 -609.0219989 73.25201832 -607.76171875 70.97265625 C-604.50727752 65.09173828 -601.17095766 59.25952849 -597.8125 53.4375 C-597.18408203 52.33341797 -596.55566406 51.22933594 -595.90820312 50.09179688 C-595.30556641 49.04958984 -594.70292969 48.00738281 -594.08203125 46.93359375 C-593.26569214 45.5113147 -593.26569214 45.5113147 -592.43286133 44.06030273 C-591.72359497 43.04045288 -591.72359497 43.04045288 -591 42 C-590.34 42 -589.68 42 -589 42 C-588.73445313 41.42765625 -588.46890625 40.8553125 -588.1953125 40.265625 C-584.61147164 33.47272402 -579.10842953 27.89125988 -573.6015625 22.62890625 C-571.90898352 21.07478934 -571.90898352 21.07478934 -571 19 C-570.34 19 -569.68 19 -569 19 C-568.67 18.01 -568.34 17.02 -568 16 C-563.56262836 15.91182233 -559.12548653 15.85921565 -554.6875 15.8125 C-552.82254883 15.77479492 -552.82254883 15.77479492 -550.91992188 15.73632812 C-543.11662913 15.67488488 -536.39269267 16.45873205 -529 19 C-528.56107422 18.08154297 -528.56107422 18.08154297 -528.11328125 17.14453125 C-526.73039618 14.48065791 -525.38134565 12.83703807 -523 11 C-519.60845705 11.16150205 -518.41703243 11.58296757 -516 14 C-514.98485285 20.45195818 -516.66251996 26.47003363 -518.625 32.5625 C-518.89570313 33.43237549 -519.16640625 34.30225098 -519.4453125 35.19848633 C-521.56874499 41.91470177 -523.96187955 48.50935712 -526.5 55.078125 C-528.07939262 59.1705616 -529.54885077 63.29810982 -531 67.4375 C-531.37016235 68.49227539 -531.37016235 68.49227539 -531.74780273 69.56835938 C-532.2475209 70.99398276 -532.74678699 72.41976469 -533.24560547 73.84570312 C-535.24894114 79.56655555 -537.27191493 85.28050646 -539.29296875 90.99511719 C-539.96991521 92.9146905 -540.64133716 94.83620936 -541.3125 96.7578125 C-541.93125 98.51738281 -541.93125 98.51738281 -542.5625 100.3125 C-542.91441406 101.31925781 -543.26632812 102.32601563 -543.62890625 103.36328125 C-545.18909173 107.501551 -546.88555838 111.57070785 -548.59741211 115.64819336 C-550.06134635 119.14660123 -551.50163739 122.65404542 -552.9375 126.1640625 C-553.70111495 128.02489685 -554.46525628 129.88551435 -555.22949219 131.74609375 C-555.74442133 133.0017638 -556.25808759 134.25795245 -556.77050781 135.51464844 C-559.55917872 142.34990407 -562.43186359 149.09184402 -565.80712891 155.66210938 C-567.02803033 158.05493624 -568.18364855 160.47028086 -569.32421875 162.90234375 C-574.19668081 173.28663146 -579.28975697 183.50423182 -584.6875 193.625 C-586.76468945 197.52739198 -588.73837024 201.46962871 -590.6875 205.4375 C-593.35344767 210.81946009 -596.2617808 215.99757233 -599.328125 221.16015625 C-601.39944953 224.67850423 -603.34296215 228.25691543 -605.28515625 231.84765625 C-607.83946533 236.54316292 -610.44109894 241.21211842 -613.04174805 245.88208008 C-615.23289114 249.81715254 -617.41777987 253.75533305 -619.5859375 257.703125 C-623.91201968 265.56541712 -628.31555722 273.32329981 -633.11328125 280.91015625 C-634.55183782 283.26605324 -635.91026571 285.62195269 -637.23828125 288.0390625 C-640.64099296 294.2137803 -644.26811605 300.25586356 -647.875 306.3125 C-652.43245529 313.97379507 -656.97404734 321.64339193 -661.45532227 329.34960938 C-665.25534031 335.86976046 -669.10510226 342.30213282 -673.41015625 348.50390625 C-674.76939395 350.63794283 -675.99879573 352.77948082 -677.21484375 354.99609375 C-681.0906664 362.04152953 -685.31203336 368.88227298 -689.47265625 375.76171875 C-692.66821611 381.06182915 -695.80852859 386.37457635 -698.78417969 391.80126953 C-700.11687749 394.2113652 -701.48792277 396.59672954 -702.8671875 398.98046875 C-709.6840954 410.74444958 -709.6840954 410.74444958 -715.9375 422.8125 C-717.97143086 426.98303611 -720.08998521 430.93203176 -722.62109375 434.81640625 C-724.50734956 437.80342323 -726.25172319 440.86862602 -728 443.9375 C-728.35070557 444.55036865 -728.70141113 445.1632373 -729.06274414 445.79467773 C-730.90064863 449.01910947 -732.66224579 452.2706107 -734.375 455.5625 C-738.47171085 462.97494337 -744.19122512 469.50669665 -749.484375 476.08984375 C-755.88039955 484.16635246 -761.22761443 492.65425161 -766.50097656 501.49658203 C-773.57380371 513.30843376 -780.6707852 525.02554901 -789 536 C-789.66 536.99 -790.32 537.98 -791 539 C-791.66 539 -792.32 539 -793 539 C-793.26039063 539.56332031 -793.52078125 540.12664063 -793.7890625 540.70703125 C-795.11900184 543.22533574 -796.68500996 545.39605062 -798.375 547.6875 C-801.61390958 552.23820176 -803.97943589 556.80426372 -806 562 C-802.24787305 559.80782326 -798.68281969 557.43159498 -795.125 554.9375 C-790.10644428 551.44483673 -785.06972804 547.98052643 -780 544.5625 C-779.37754395 544.13767334 -778.75508789 543.71284668 -778.11376953 543.27514648 C-774.84740202 541.08325362 -771.72195097 539.28999437 -768 538 C-768 537.34 -768 536.68 -768 536 C-767.05125 535.484375 -766.1025 534.96875 -765.125 534.4375 C-762.17122995 532.7496314 -759.39542755 530.91095524 -756.625 528.9375 C-751.39352283 525.22227798 -746.02383369 521.74857475 -740.62524414 518.28369141 C-736.9392314 515.91402427 -733.27178646 513.52340031 -729.640625 511.0703125 C-728.95379639 510.60665283 -728.26696777 510.14299316 -727.55932617 509.6652832 C-726.25214245 508.77970978 -724.94750575 507.89036218 -723.64575195 506.99682617 C-719.2187197 504 -719.2187197 504 -717 504 C-717 503.34 -717 502.68 -717 502 C-714.98046875 500.5546875 -714.98046875 500.5546875 -712.1875 498.875 C-708.16432002 496.39206434 -704.29725073 493.81643128 -700.5 491 C-696.08136784 487.73952784 -691.56175424 484.73396084 -686.8984375 481.8359375 C-681.18535118 478.21713619 -675.59267968 474.42293397 -670.03515625 470.5703125 C-668.80635742 469.71953125 -668.80635742 469.71953125 -667.55273438 468.8515625 C-665.86313433 467.68010647 -664.17570114 466.50552016 -662.49023438 465.328125 C-661.68005859 464.76867188 -660.86988281 464.20921875 -660.03515625 463.6328125 C-659.3069165 463.12637207 -658.57867676 462.61993164 -657.82836914 462.09814453 C-656 461 -656 461 -654 461 C-654 460.34 -654 459.68 -654 459 C-652.515 458.195625 -652.515 458.195625 -651 457.375 C-648.1080428 455.73583397 -645.5008659 453.91179332 -642.875 451.875 C-640.03080309 449.68375102 -637.46587364 448.08308551 -634 447 C-634 446.34 -634 445.68 -634 445 C-632.05078125 443.625 -632.05078125 443.625 -629.3125 442 C-624.13541123 438.80946855 -619.35639477 435.31617433 -614.59301758 431.55273438 C-605.00255547 424 -605.00255547 424 -602 424 C-602 423.34 -602 422.68 -602 422 C-600.19140625 420.73046875 -600.19140625 420.73046875 -597.5625 419.1875 C-592.47101181 416.04027103 -587.73005527 412.60311497 -583 408.9375 C-576.02397347 403.53432182 -568.96497481 398.26249324 -561.84399414 393.05200195 C-555.92756975 388.71263669 -550.12164326 384.25179886 -544.37109375 379.6953125 C-542 378 -542 378 -540 378 C-540 377.34 -540 376.68 -540 376 C-539.01 376 -538.02 376 -537 376 C-536.67 375.01 -536.34 374.02 -536 373 C-534.11415037 371.50652876 -532.23981464 370.15458419 -530.25 368.8125 C-523.73870545 364.29814124 -517.41455487 359.5679674 -511.125 354.75 C-510.24618164 354.07686768 -509.36736328 353.40373535 -508.46191406 352.71020508 C-507.18525879 351.73216919 -507.18525879 351.73216919 -505.8828125 350.734375 C-504.65159668 349.79368164 -504.65159668 349.79368164 -503.39550781 348.83398438 C-501.81249979 347.62204427 -500.23362861 346.40467938 -498.65917969 345.18164062 C-497.94407227 344.63185547 -497.22896484 344.08207031 -496.4921875 343.515625 C-495.86425293 343.02868164 -495.23631836 342.54173828 -494.58935547 342.04003906 C-493 341 -493 341 -491 341 C-491 340.34 -491 339.68 -491 339 C-489.4621582 337.64648438 -489.4621582 337.64648438 -487.30078125 336.09375 C-486.11343384 335.23160889 -486.11343384 335.23160889 -484.90209961 334.35205078 C-484.04753174 333.74087402 -483.19296387 333.12969727 -482.3125 332.5 C-480.56939178 331.23825016 -478.82720862 329.97522141 -477.0859375 328.7109375 C-475.79187988 327.77266113 -475.79187988 327.77266113 -474.47167969 326.81542969 C-470.0223553 323.5474352 -465.69752827 320.12339183 -461.37109375 316.6953125 C-459 315 -459 315 -457 315 C-457 314.34 -457 313.68 -457 313 C-455.49047852 311.69067383 -455.49047852 311.69067383 -453.37890625 310.20703125 C-452.22841797 309.38948364 -452.22841797 309.38948364 -451.0546875 308.55541992 C-449.82105469 307.69267456 -449.82105469 307.69267456 -448.5625 306.8125 C-446.90657863 305.63939373 -445.25161994 304.46492731 -443.59765625 303.2890625 C-442.80117676 302.72348633 -442.00469727 302.15791016 -441.18408203 301.57519531 C-437.87422258 299.1880711 -434.68696257 296.66014989 -431.53125 294.07421875 C-430 293 -430 293 -428 293 C-428 292.34 -428 291.68 -428 291 C-426.4621582 289.64648438 -426.4621582 289.64648438 -424.30078125 288.09375 C-423.11343384 287.23160889 -423.11343384 287.23160889 -421.90209961 286.35205078 C-421.04753174 285.74087402 -420.19296387 285.12969727 -419.3125 284.5 C-417.56939178 283.23825016 -415.82720862 281.97522141 -414.0859375 280.7109375 C-412.79187988 279.77266113 -412.79187988 279.77266113 -411.47167969 278.81542969 C-407.0223553 275.5474352 -402.69752827 272.12339183 -398.37109375 268.6953125 C-396 267 -396 267 -394 267 C-394 266.34 -394 265.68 -394 265 C-392.67407227 263.7824707 -392.67407227 263.7824707 -390.81640625 262.42578125 C-390.1406958 261.92675293 -389.46498535 261.42772461 -388.76879883 260.91357422 C-388.04072021 260.38521973 -387.3126416 259.85686523 -386.5625 259.3125 C-385.07771489 258.21800404 -383.59333657 257.12295603 -382.109375 256.02734375 C-381.03526367 255.2381958 -381.03526367 255.2381958 -379.93945312 254.43310547 C-377.70333316 252.78078621 -375.50071215 251.09019637 -373.3125 249.375 C-372.64734375 248.85550781 -371.9821875 248.33601563 -371.296875 247.80078125 C-369.99705275 246.78170292 -368.69779179 245.76190495 -367.40039062 244.73974609 C-365.62456711 243.3428372 -363.84380036 241.95241537 -362.0625 240.5625 C-361.49378174 240.11245605 -360.92506348 239.66241211 -360.33911133 239.19873047 C-356.22672406 236 -356.22672406 236 -354 236 C-354 235.34 -354 234.68 -354 234 C-352.24035652 232.53809653 -350.41433225 231.15571415 -348.5625 229.8125 C-347.46160557 229.00868011 -346.36135154 228.20398245 -345.26171875 227.3984375 C-344.43679932 226.79660645 -344.43679932 226.79660645 -343.59521484 226.18261719 C-340.57759555 223.9454963 -337.66405061 221.57481011 -334.7421875 219.21484375 C-333 218 -333 218 -331 218 C-331 217.34 -331 216.68 -331 216 C-329.59472656 214.71899414 -329.59472656 214.71899414 -327.640625 213.28515625 C-326.93679688 212.76373047 -326.23296875 212.24230469 -325.5078125 211.70507812 C-324.76273438 211.16302734 -324.01765625 210.62097656 -323.25 210.0625 C-322.52039062 209.52431641 -321.79078125 208.98613281 -321.0390625 208.43164062 C-319.66914321 207.42163649 -318.29727093 206.41427221 -316.92285156 205.41040039 C-315.55581805 204.40768929 -314.21073219 203.37475361 -312.88183594 202.32202148 C-311 201 -311 201 -309 201 C-309 200.34 -309 199.68 -309 199 C-307.33520508 197.55126953 -307.33520508 197.55126953 -305.01953125 195.8828125 C-304.18486328 195.27566406 -303.35019531 194.66851563 -302.49023438 194.04296875 C-301.60658203 193.41003906 -300.72292969 192.77710938 -299.8125 192.125 C-298.08921275 190.87847604 -296.36653912 189.63110326 -294.64453125 188.3828125 C-293.42757568 187.50544434 -293.42757568 187.50544434 -292.18603516 186.61035156 C-290.42163945 185.31060239 -288.7077064 183.94251531 -287.01171875 182.5546875 C-285 181 -285 181 -283 181 C-283 180.34 -283 179.68 -283 179 C-281.31933594 177.50366211 -281.31933594 177.50366211 -278.984375 175.77734375 C-278.14519531 175.15666016 -277.30601562 174.53597656 -276.44140625 173.89648438 C-275.55324219 173.25001953 -274.66507813 172.60355469 -273.75 171.9375 C-272.44095703 170.96200195 -272.44095703 170.96200195 -271.10546875 169.96679688 C-263.92989807 164.70288587 -263.92989807 164.70288587 -260 164 C-260 163.34 -260 162.68 -260 162 C-255.27890114 158.19410234 -249.83570949 155.30319288 -244.5234375 152.4140625 C-237.76081105 148.62447926 -231.06104273 144.59183098 -224.8125 140 C-222 138 -222 138 -220 138 C-220 137.34 -220 136.68 -220 136 C-219.01 136 -218.02 136 -217 136 C-217 135.34 -217 134.68 -217 134 C-215.33203125 132.6171875 -215.33203125 132.6171875 -212.8125 130.875 C-208.69527169 127.96808552 -204.65769045 124.98942198 -200.6640625 121.9140625 C-199.72328857 121.18977051 -198.78251465 120.46547852 -197.81323242 119.71923828 C-195.90200894 118.24432348 -193.99329611 116.76614937 -192.0871582 115.28466797 C-191.20116943 114.60291504 -190.31518066 113.92116211 -189.40234375 113.21875 C-188.60304443 112.59935547 -187.80374512 111.97996094 -186.98022461 111.34179688 C-185 110 -185 110 -183 110 C-183 109.34 -183 108.68 -183 108 C-181.52563477 106.6940918 -181.52563477 106.6940918 -179.44140625 105.19921875 C-178.28499634 104.36028076 -178.28499634 104.36028076 -177.10522461 103.50439453 C-176.26612549 102.90481934 -175.42702637 102.30524414 -174.5625 101.6875 C-172.82440301 100.42992892 -171.08744897 99.17077685 -169.3515625 97.91015625 C-168.0197998 96.94360107 -168.0197998 96.94360107 -166.66113281 95.95751953 C-161.78701164 92.37213389 -157.015968 88.65062967 -152.25805664 84.9128418 C-151.59410889 84.39761963 -150.93016113 83.88239746 -150.24609375 83.3515625 C-149.66529053 82.89604004 -149.0844873 82.44051758 -148.48608398 81.97119141 C-147 81 -147 81 -145 81 C-145 80.34 -145 79.68 -145 79 C-143.55737305 77.70996094 -143.55737305 77.70996094 -141.51171875 76.234375 C-140.75205811 75.68104492 -139.99239746 75.12771484 -139.2097168 74.55761719 C-138.37738525 73.96110352 -137.54505371 73.36458984 -136.6875 72.75 C-134.93734387 71.47938169 -133.18734836 70.20854212 -131.4375 68.9375 C-130.08398438 67.95910156 -130.08398438 67.95910156 -128.703125 66.9609375 C-125.31152779 64.50055918 -121.94259482 62.01043015 -118.57519531 59.51708984 C-114.72464017 56.66736406 -110.86357561 53.83203843 -107 51 C-105.93168945 50.21641113 -105.93168945 50.21641113 -104.84179688 49.41699219 C-102.87784047 47.98051419 -100.90886781 46.55128319 -98.9375 45.125 C-98.35959717 44.70186523 -97.78169434 44.27873047 -97.1862793 43.84277344 C-93.23119515 41 -93.23119515 41 -91 41 C-91 40.34 -91 39.68 -91 39 C-89.38256349 37.80530258 -87.70109405 36.69723216 -86 35.625 C-81.5802579 32.7718801 -77.38737824 29.79445325 -73.24487305 26.55419922 C-57.6822352 14.42939778 -40.88136278 7.99430862 -21.8125 3.25 C-19.98428711 2.77626953 -19.98428711 2.77626953 -18.11914062 2.29296875 C-11.96718479 0.75080728 -6.34997923 -0.62520555 0 0 Z " fill="#FEFEFE" transform="translate(3549,1615)"/>
<path d="M0 0 C0.99177246 -0.01297119 1.98354492 -0.02594238 3.00537109 -0.03930664 C3.94590332 -0.04051514 4.88643555 -0.04172363 5.85546875 -0.04296875 C6.69102295 -0.04707764 7.52657715 -0.05118652 8.38745117 -0.05541992 C12.49321287 0.35585894 15.12599629 1.4813819 18 4.4375 C21.74185397 10.11479568 22.17056959 15.46362107 22.125 22.0625 C22.12081055 22.89386475 22.11662109 23.72522949 22.11230469 24.58178711 C21.90233995 36.3051907 19.88976868 47.55163136 14.8125 58.1875 C14.41635498 59.06075928 14.41635498 59.06075928 14.01220703 59.95166016 C0.54031346 89.5838683 -24.85331392 110.17648633 -53.1875 125.1875 C-54.39232499 125.83519787 -55.59673233 126.48367308 -56.80078125 127.1328125 C-77.61439856 138.33375801 -77.61439856 138.33375801 -87.57617188 142.13842773 C-90.09268723 143.14941001 -92.50877634 144.2798764 -94.953125 145.453125 C-101.69392056 148.53467995 -108.64255411 150.85011224 -115.67700195 153.15454102 C-117.88404155 153.87796364 -120.08767713 154.61109409 -122.29101562 155.34570312 C-123.718562 155.81827662 -125.14629025 156.29030114 -126.57421875 156.76171875 C-127.22025558 156.97632248 -127.86629242 157.19092621 -128.53190613 157.41203308 C-133.04645238 158.88613869 -137.57570663 160.06917992 -142.1875 161.1875 C-144.56351327 161.82959549 -146.93852277 162.47541722 -149.3125 163.125 C-166.52562719 167.75723278 -184.11698279 170.88135917 -201.75512695 173.38525391 C-203.83061806 173.68117214 -205.90452788 173.98671589 -207.97851562 174.29296875 C-212.70806644 174.97969702 -217.44569069 175.59196633 -222.1875 176.1875 C-223.20631256 176.31811829 -224.22512512 176.44873657 -225.27481079 176.58331299 C-243.9476112 178.92267859 -262.32091915 179.66718968 -281.10961914 179.57861328 C-284.78104649 179.56144227 -288.45182505 179.57176248 -292.12323093 179.58892632 C-314.13029504 179.67629203 -335.62790777 178.40619534 -357.125 173.3125 C-358.25268799 173.05275391 -359.38037598 172.79300781 -360.54223633 172.52539062 C-381.14956874 167.69916547 -400.4862204 161.15747117 -419.1875 151.1875 C-420.20199219 150.65640625 -421.21648437 150.1253125 -422.26171875 149.578125 C-452.39332891 132.97079825 -473.44352795 107.05483919 -483.37451172 74.27612305 C-485.6216711 66.4014414 -486.33193266 58.7452949 -486.375 50.5625 C-486.38917969 49.33273438 -486.40335938 48.10296875 -486.41796875 46.8359375 C-486.04666042 40.9579379 -484.82887485 35.99101201 -480.80078125 31.53515625 C-475.08800758 26.76298454 -466.437004 24.22795477 -459.125 23.8125 C-454.03810139 24.29696653 -451.07288319 25.990441 -447.74609375 29.8671875 C-445.68140585 32.94093339 -444.15090197 36.22844825 -442.5625 39.5625 C-429.4739762 66.33838902 -410.55327703 82.98968274 -382.20556641 92.87890625 C-367.75254199 97.82252565 -353.25342991 100.4721386 -338.0625 101.875 C-337.38819946 101.93753967 -336.71389893 102.00007935 -336.01916504 102.06451416 C-305.50369854 104.85454579 -274.12844932 102.8689443 -244.1875 96.1875 C-243.20700684 95.97222656 -242.22651367 95.75695313 -241.21630859 95.53515625 C-219.82900276 90.78167562 -199.12816562 84.90323342 -179.08056641 76.01416016 C-176.7662011 75.0035281 -174.42180481 74.08760452 -172.0625 73.1875 C-160.27938644 68.5113343 -148.98226276 62.82254414 -138.1875 56.1875 C-136.65416016 55.26517578 -136.65416016 55.26517578 -135.08984375 54.32421875 C-120.87203567 45.70370085 -106.90354283 36.42674751 -93.5625 26.5 C-89.04586585 23.25956469 -84.10489696 20.75736304 -79.1875 18.1875 C-78.259375 17.69121094 -77.33125 17.19492188 -76.375 16.68359375 C-62.49891602 9.46275113 -48.48371809 5.20343784 -33.1875 2.1875 C-32.33285156 1.99929687 -31.47820312 1.81109375 -30.59765625 1.6171875 C-20.61939974 -0.16175612 -10.10397601 0.07101989 0 0 Z " fill="#FEFEFE" transform="translate(4636.1875,2369.8125)"/>
<path d="M0 0 C2 2 2 2 2.4375 5.75 C2.31900209 13.01392188 -0.78000238 20.56000477 -4 27 C-4.2275015 28.87056791 -4.40962811 30.74685958 -4.5625 32.625 C-4.68818359 34.12933594 -4.68818359 34.12933594 -4.81640625 35.6640625 C-4.87699219 36.43492187 -4.93757813 37.20578125 -5 38 C-3.03075104 37.64586283 -3.03075104 37.64586283 -1 37 C0.16666667 35.08333333 0.16666667 35.08333333 1 33 C3 31 3 31 4.91015625 30.76953125 C10.88888889 30.88888889 10.88888889 30.88888889 12 32 C12.54832081 39.65098802 11.83205436 47.16510865 10.85009766 54.74780273 C10.02128213 61.33909733 9.5236062 67.93632211 9.0625 74.5625 C7.96841844 90.06691711 6.51203601 105.53204543 5 121 C4.82815186 122.75812012 4.82815186 122.75812012 4.65283203 124.55175781 C3.86570868 132.56465069 3.0577799 140.57539539 2.24475098 148.58569336 C1.97210516 151.27516418 1.70036326 153.96472553 1.42871094 156.65429688 C-2.82419685 198.74716822 -2.82419685 198.74716822 -4.6875 215.1875 C-5.12809873 219.12466079 -5.56480944 223.06223826 -6 227 C-6.10973145 227.97839844 -6.21946289 228.95679687 -6.33251953 229.96484375 C-8.77894907 249.1292924 -8.77894907 249.1292924 -6.0300293 268.03344727 C-4.61077991 272.90067356 -4.3804239 277.83758681 -4.03515625 282.875 C-3.87311415 285.01693217 -3.71100252 287.15885909 -3.54882812 289.30078125 C-3.30489828 292.63961685 -3.06402549 295.97864948 -2.82543945 299.31787109 C-0.8446673 326.7311062 2.63042996 355.29936073 24 375 C26.88856771 377.21943783 29.86190878 379.15514559 33 381 C33.9075 381.5775 34.815 382.155 35.75 382.75 C37.99842343 384.10310769 37.99842343 384.10310769 40.6875 384.8125 C43 386 43 386 44.375 389 C45 392 45 392 44 394 C44.58265625 394.08378906 45.1653125 394.16757813 45.765625 394.25390625 C48.65066337 395.21726696 49.79700726 396.62979704 51.75 398.9375 C52.36359375 399.64777344 52.9771875 400.35804688 53.609375 401.08984375 C55 403 55 403 55 405 C55.66 405 56.32 405 57 405 C58.33895632 406.66215268 59.67130142 408.32963607 61 410 C62.66270287 411.33827304 64.32916181 412.67189785 66 414 C69 417.51724138 69 417.51724138 69 420 C69.66 420 70.32 420 71 420 C73.57043521 423.15962817 75.74735621 426.60887101 78 430 C78.48339844 430.70253906 78.96679688 431.40507812 79.46484375 432.12890625 C85.12066654 440.63842686 87.69063601 449.72306302 86 460 C83.5048566 464.02405815 81.4178047 465.51742146 77 467 C75.16713831 467.31158147 73.32219219 467.55719756 71.47265625 467.74609375 C70.43302734 467.86146484 69.39339844 467.97683594 68.32226562 468.09570312 C66.15335468 468.32312039 63.98407972 468.54709292 61.81445312 468.76757812 C56.16073668 469.40121446 52.04866871 470.26769492 47 473 C31.81571985 476.29891975 20.39249387 473.59639313 6.1875 467.6875 C5.30352539 467.32100342 4.41955078 466.95450684 3.50878906 466.5769043 C-2.14213475 464.11727208 -7.52438313 461.31860522 -12 457 C-12 456.34 -12 455.68 -12 455 C-12.59329102 454.73123047 -13.18658203 454.46246094 -13.79785156 454.18554688 C-16.00540033 452.99709268 -17.46542882 451.79257611 -19.234375 450.03125 C-19.80800781 449.46019531 -20.38164062 448.88914062 -20.97265625 448.30078125 C-21.55917969 447.70652344 -22.14570313 447.11226562 -22.75 446.5 C-23.35199219 445.90574219 -23.95398437 445.31148437 -24.57421875 444.69921875 C-25.42693359 443.84263672 -25.42693359 443.84263672 -26.296875 442.96875 C-26.81604492 442.44732422 -27.33521484 441.92589844 -27.87011719 441.38867188 C-29 440 -29 440 -29 438 C-29.99 437.67 -30.98 437.34 -32 437 C-32 436.34 -32 435.68 -32 435 C-32.99 434.67 -33.98 434.34 -35 434 C-36.33447266 432.64892578 -36.33447266 432.64892578 -37.6640625 430.9453125 C-38.38722656 430.02298828 -38.38722656 430.02298828 -39.125 429.08203125 C-39.62 428.43621094 -40.115 427.79039062 -40.625 427.125 C-41.12773437 426.48691406 -41.63046875 425.84882813 -42.1484375 425.19140625 C-44.30345695 422.41652906 -45.87651892 420.37044325 -47 417 C-47.66 417 -48.32 417 -49 417 C-58.75114904 404.50204841 -67.19271228 389.31880783 -72.0625 374.25 C-72.32071533 373.45779053 -72.57893066 372.66558105 -72.8449707 371.84936523 C-92.89810135 309.52172458 -90.67816246 226.05266435 -79.51391602 162.16748047 C-78.92614038 158.54477212 -78.46401258 154.91232894 -78.0234375 151.26953125 C-77.02605724 143.05418207 -75.86394351 134.8696894 -74.625 126.6875 C-74.51639648 125.96844482 -74.40779297 125.24938965 -74.29589844 124.50854492 C-72.70972268 114.06313821 -70.84693903 103.7327662 -68.52685547 93.42480469 C-67.69168628 89.58101396 -66.94927075 85.71958164 -66.19555664 81.85913086 C-55.13057765 25.33087144 -55.13057765 25.33087144 -39 14 C-35.27950404 12.05865845 -31.44658259 10.45860666 -27.5625 8.875 C-25.56295056 8.04110139 -23.56423558 7.20519875 -21.56640625 6.3671875 C-20.61781738 5.97112305 -19.66922852 5.57505859 -18.69189453 5.16699219 C-15.04928755 3.58784641 -11.53996124 1.79592171 -8 0 C-4.67679974 -1.10773342 -3.30835256 -0.93312508 0 0 Z " fill="#FEFEFE" transform="translate(2964,2177)"/>
<path d="M0 0 C8.91646571 6.81253803 8.91646571 6.81253803 10.81958008 11.86938477 C11.43760736 18.53114392 9.84811848 23.5938431 7.56958008 29.80688477 C4.92990597 37.2818807 2.7120657 44.65658241 1.23852539 52.45117188 C0.08258578 58.09308982 -2.38595964 61.1247706 -6.43041992 65.05688477 C-8.91421867 67.59713349 -10.9690375 70.1742324 -13.11791992 72.99438477 C-18.46912002 79.66846518 -18.46912002 79.66846518 -23.18041992 80.86938477 C-36.95457821 81.11655563 -52.22605449 76.61025312 -62.74291992 67.59204102 C-73.78094336 54.36440967 -72.25347405 28.88399845 -70.90698242 12.55297852 C-69.95106443 6.21325828 -67.8566791 0.1710523 -64.18041992 -5.13061523 C-63.19041992 -5.46061523 -62.20041992 -5.79061523 -61.18041992 -6.13061523 C-61.18041992 -6.79061523 -61.18041992 -7.45061523 -61.18041992 -8.13061523 C-40.80612896 -19.24386485 -18.03224958 -13.16512717 0 0 Z " fill="#FEFEFE" transform="translate(3510.180419921875,1948.130615234375)"/>
<path d="M0 0 C7.98358483 7.17560757 13.03453495 18.26300705 13.7980957 28.9296875 C14.49637788 58.44115085 14.49637788 58.44115085 4.62109375 70.45703125 C2.70974496 72.38354948 0.83722295 73.84110371 -1.37890625 75.45703125 C-2.10078125 75.99328125 -2.82265625 76.52953125 -3.56640625 77.08203125 C-12.50615039 81.45257283 -22.52518129 82.86154648 -32.37890625 81.45703125 C-48.08054554 72.63077804 -54.01422258 54.1425828 -58.68652344 37.84570312 C-59.37143532 35.48280542 -60.0918941 33.13374817 -60.82421875 30.78515625 C-62.09173377 26.69548477 -63.26231574 22.59060553 -64.37890625 18.45703125 C-64.76369141 17.06484375 -64.76369141 17.06484375 -65.15625 15.64453125 C-65.62890625 13.33203125 -65.62890625 13.33203125 -65.37890625 9.45703125 C-63.41969659 6.61644272 -61.21973749 4.416008 -58.37890625 2.45703125 C-57.71890625 2.45703125 -57.05890625 2.45703125 -56.37890625 2.45703125 C-56.37890625 1.79703125 -56.37890625 1.13703125 -56.37890625 0.45703125 C-39.78646956 -13.05019046 -16.96899858 -12.97168252 0 0 Z " fill="#FEFEFE" transform="translate(5307.37890625,1793.54296875)"/>
</svg>
