<?xml version="1.0" encoding="utf-8" ?>
<svg baseProfile="full" height="1024" version="1.1" viewBox="0 0 1536 1024" width="1536" xmlns="http://www.w3.org/2000/svg" xmlns:ev="http://www.w3.org/2001/xml-events" xmlns:xlink="http://www.w3.org/1999/xlink"><defs /><rect fill="#2d0000" height="1024" width="1536" x="0" y="0" /><path d="M 918.00 662.00 L 917.00 663.00 L 916.00 663.00 L 915.00 664.00 L 914.00 664.00 L 913.00 665.00 L 912.00 666.00 L 911.00 667.00 L 910.00 668.00 L 910.00 669.00 L 910.00 670.00 L 910.00 671.00 L 910.00 672.00 L 910.00 673.00 L 910.00 674.00 L 910.00 675.00 L 910.00 676.00 L 911.00 677.00 L 912.00 678.00 L 913.00 679.00 L 914.00 680.00 L 915.00 680.00 L 916.00 681.00 L 917.00 681.00 L 918.00 681.00 L 919.00 681.00 L 920.00 681.00 L 921.00 681.00 L 922.00 681.00 L 923.00 680.00 L 924.00 679.00 L 925.00 678.00 L 925.00 677.00 L 925.00 676.00 L 926.00 675.00 L 926.00 674.00 L 927.00 673.00 L 927.00 672.00 L 927.00 671.00 L 927.00 670.00 L 927.00 669.00 L 927.00 668.00 L 927.00 667.00 L 927.00 666.00 L 927.00 665.00 L 926.00 664.00 L 926.00 663.00 L 925.00 663.00 L 924.00 662.00 L 923.00 662.00 L 922.00 662.00 L 921.00 662.00 L 920.00 662.00 L 919.00 662.00 Z M 731.00 494.00 L 730.00 495.00 L 729.00 495.00 L 728.00 495.00 L 727.00 496.00 L 726.00 496.00 L 725.00 497.00 L 724.00 498.00 L 724.00 499.00 L 723.00 500.00 L 723.00 501.00 L 722.00 502.00 L 722.00 503.00 L 721.00 504.00 L 720.00 505.00 L 720.00 506.00 L 719.00 507.00 L 719.00 508.00 L 718.00 509.00 L 717.00 510.00 L 717.00 511.00 L 716.00 512.00 L 715.00 513.00 L 715.00 514.00 L 714.00 515.00 L 714.00 516.00 L 713.00 517.00 L 712.00 518.00 L 711.00 519.00 L 711.00 520.00 L 710.00 521.00 L 709.00 522.00 L 709.00 523.00 L 708.00 524.00 L 707.00 525.00 L 707.00 526.00 L 706.00 527.00 L 705.00 528.00 L 704.00 529.00 L 704.00 530.00 L 703.00 531.00 L 702.00 532.00 L 702.00 533.00 L 701.00 534.00 L 700.00 535.00 L 699.00 536.00 L 699.00 537.00 L 698.00 538.00 L 697.00 539.00 L 697.00 540.00 L 696.00 541.00 L 695.00 542.00 L 694.00 543.00 L 694.00 544.00 L 693.00 545.00 L 692.00 546.00 L 692.00 547.00 L 691.00 548.00 L 690.00 549.00 L 689.00 550.00 L 688.00 551.00 L 688.00 552.00 L 687.00 553.00 L 686.00 554.00 L 685.00 555.00 L 685.00 556.00 L 684.00 557.00 L 683.00 558.00 L 682.00 559.00 L 681.00 560.00 L 681.00 561.00 L 680.00 562.00 L 679.00 563.00 L 678.00 564.00 L 677.00 565.00 L 676.00 566.00 L 676.00 567.00 L 675.00 568.00 L 674.00 569.00 L 673.00 570.00 L 672.00 571.00 L 672.00 572.00 L 671.00 573.00 L 670.00 574.00 L 669.00 575.00 L 668.00 576.00 L 667.00 577.00 L 666.00 578.00 L 665.00 579.00 L 665.00 580.00 L 664.00 581.00 L 663.00 582.00 L 662.00 583.00 L 661.00 584.00 L 660.00 585.00 L 659.00 586.00 L 658.00 587.00 L 657.00 588.00 L 656.00 589.00 L 655.00 590.00 L 654.00 591.00 L 653.00 592.00 L 652.00 593.00 L 651.00 594.00 L 650.00 595.00 L 649.00 596.00 L 648.00 597.00 L 647.00 598.00 L 646.00 599.00 L 645.00 600.00 L 644.00 601.00 L 643.00 602.00 L 642.00 603.00 L 641.00 604.00 L 640.00 605.00 L 639.00 605.00 L 638.00 606.00 L 637.00 607.00 L 636.00 608.00 L 635.00 609.00 L 634.00 610.00 L 633.00 611.00 L 632.00 612.00 L 631.00 612.00 L 630.00 613.00 L 629.00 614.00 L 628.00 615.00 L 627.00 615.00 L 626.00 616.00 L 625.00 617.00 L 624.00 617.00 L 623.00 618.00 L 622.00 619.00 L 621.00 619.00 L 620.00 620.00 L 619.00 621.00 L 618.00 621.00 L 617.00 622.00 L 616.00 622.00 L 615.00 623.00 L 614.00 623.00 L 613.00 624.00 L 612.00 624.00 L 611.00 625.00 L 610.00 625.00 L 609.00 626.00 L 608.00 626.00 L 607.00 626.00 L 606.00 626.00 L 605.00 627.00 L 604.00 627.00 L 603.00 627.00 L 602.00 627.00 L 601.00 626.00 L 600.00 625.00 L 599.00 624.00 L 598.00 623.00 L 598.00 622.00 L 597.00 621.00 L 597.00 620.00 L 597.00 619.00 L 597.00 618.00 L 597.00 617.00 L 596.00 616.00 L 596.00 615.00 L 596.00 614.00 L 596.00 613.00 L 597.00 612.00 L 597.00 611.00 L 597.00 610.00 L 597.00 609.00 L 597.00 608.00 L 597.00 607.00 L 598.00 606.00 L 598.00 605.00 L 598.00 604.00 L 598.00 603.00 L 598.00 602.00 L 599.00 601.00 L 599.00 600.00 L 600.00 599.00 L 600.00 598.00 L 600.00 597.00 L 600.00 596.00 L 601.00 595.00 L 601.00 594.00 L 601.00 593.00 L 602.00 592.00 L 602.00 591.00 L 602.00 590.00 L 603.00 589.00 L 603.00 588.00 L 604.00 587.00 L 604.00 586.00 L 605.00 585.00 L 605.00 584.00 L 605.00 583.00 L 606.00 582.00 L 606.00 581.00 L 606.00 580.00 L 607.00 579.00 L 607.00 578.00 L 608.00 577.00 L 608.00 576.00 L 609.00 575.00 L 609.00 574.00 L 610.00 573.00 L 610.00 572.00 L 610.00 571.00 L 611.00 570.00 L 611.00 569.00 L 612.00 568.00 L 612.00 567.00 L 612.00 566.00 L 613.00 565.00 L 613.00 564.00 L 614.00 563.00 L 614.00 562.00 L 615.00 561.00 L 615.00 560.00 L 616.00 559.00 L 616.00 558.00 L 616.00 557.00 L 617.00 556.00 L 617.00 555.00 L 618.00 554.00 L 618.00 553.00 L 619.00 552.00 L 619.00 551.00 L 620.00 550.00 L 620.00 549.00 L 620.00 548.00 L 621.00 547.00 L 621.00 546.00 L 622.00 545.00 L 622.00 544.00 L 623.00 543.00 L 623.00 542.00 L 624.00 541.00 L 624.00 540.00 L 625.00 539.00 L 625.00 538.00 L 626.00 537.00 L 626.00 536.00 L 626.00 535.00 L 627.00 534.00 L 627.00 533.00 L 628.00 532.00 L 628.00 531.00 L 629.00 530.00 L 629.00 529.00 L 630.00 528.00 L 631.00 527.00 L 631.00 526.00 L 632.00 525.00 L 632.00 524.00 L 633.00 523.00 L 634.00 522.00 L 634.00 521.00 L 635.00 520.00 L 636.00 519.00 L 637.00 518.00 L 637.00 517.00 L 638.00 516.00 L 638.00 515.00 L 638.00 514.00 L 638.00 513.00 L 638.00 512.00 L 637.00 511.00 L 636.00 510.00 L 635.00 509.00 L 634.00 509.00 L 633.00 509.00 L 632.00 509.00 L 631.00 509.00 L 630.00 510.00 L 629.00 511.00 L 628.00 511.00 L 627.00 512.00 L 626.00 513.00 L 626.00 514.00 L 625.00 515.00 L 624.00 516.00 L 624.00 517.00 L 623.00 518.00 L 623.00 519.00 L 622.00 520.00 L 621.00 521.00 L 621.00 522.00 L 620.00 523.00 L 620.00 524.00 L 619.00 525.00 L 618.00 526.00 L 618.00 527.00 L 617.00 528.00 L 617.00 529.00 L 617.00 530.00 L 616.00 531.00 L 616.00 532.00 L 615.00 533.00 L 615.00 534.00 L 614.00 535.00 L 614.00 536.00 L 613.00 537.00 L 613.00 538.00 L 612.00 539.00 L 612.00 540.00 L 611.00 541.00 L 611.00 542.00 L 610.00 543.00 L 610.00 544.00 L 610.00 545.00 L 609.00 546.00 L 609.00 547.00 L 608.00 548.00 L 608.00 549.00 L 608.00 550.00 L 607.00 551.00 L 607.00 552.00 L 606.00 553.00 L 606.00 554.00 L 605.00 555.00 L 605.00 556.00 L 604.00 557.00 L 604.00 558.00 L 604.00 559.00 L 603.00 560.00 L 603.00 561.00 L 602.00 562.00 L 602.00 563.00 L 601.00 564.00 L 601.00 565.00 L 601.00 566.00 L 600.00 567.00 L 600.00 568.00 L 599.00 569.00 L 599.00 570.00 L 598.00 571.00 L 598.00 572.00 L 597.00 573.00 L 597.00 574.00 L 597.00 575.00 L 596.00 576.00 L 596.00 577.00 L 596.00 578.00 L 595.00 579.00 L 595.00 580.00 L 594.00 581.00 L 594.00 582.00 L 594.00 583.00 L 593.00 584.00 L 593.00 585.00 L 593.00 586.00 L 592.00 587.00 L 592.00 588.00 L 592.00 589.00 L 591.00 590.00 L 591.00 591.00 L 591.00 592.00 L 590.00 593.00 L 590.00 594.00 L 590.00 595.00 L 589.00 596.00 L 589.00 597.00 L 589.00 598.00 L 589.00 599.00 L 588.00 600.00 L 588.00 601.00 L 587.00 602.00 L 587.00 603.00 L 587.00 604.00 L 587.00 605.00 L 587.00 606.00 L 587.00 607.00 L 586.00 608.00 L 586.00 609.00 L 586.00 610.00 L 586.00 611.00 L 586.00 612.00 L 586.00 613.00 L 586.00 614.00 L 586.00 615.00 L 586.00 616.00 L 586.00 617.00 L 586.00 618.00 L 586.00 619.00 L 586.00 620.00 L 587.00 621.00 L 587.00 622.00 L 587.00 623.00 L 587.00 624.00 L 588.00 625.00 L 588.00 626.00 L 588.00 627.00 L 589.00 628.00 L 589.00 629.00 L 590.00 630.00 L 591.00 631.00 L 592.00 632.00 L 593.00 633.00 L 594.00 634.00 L 595.00 634.00 L 596.00 635.00 L 597.00 635.00 L 598.00 636.00 L 599.00 636.00 L 600.00 636.00 L 601.00 637.00 L 602.00 637.00 L 603.00 637.00 L 604.00 637.00 L 605.00 637.00 L 606.00 637.00 L 607.00 636.00 L 608.00 636.00 L 609.00 636.00 L 610.00 636.00 L 611.00 636.00 L 612.00 635.00 L 613.00 635.00 L 614.00 635.00 L 615.00 634.00 L 616.00 634.00 L 617.00 633.00 L 618.00 633.00 L 619.00 632.00 L 620.00 632.00 L 621.00 631.00 L 622.00 631.00 L 623.00 630.00 L 624.00 629.00 L 625.00 629.00 L 626.00 628.00 L 627.00 627.00 L 628.00 627.00 L 629.00 626.00 L 630.00 625.00 L 631.00 625.00 L 632.00 624.00 L 633.00 623.00 L 634.00 622.00 L 635.00 622.00 L 636.00 621.00 L 637.00 620.00 L 638.00 619.00 L 639.00 618.00 L 640.00 617.00 L 641.00 617.00 L 642.00 616.00 L 643.00 615.00 L 644.00 614.00 L 645.00 613.00 L 646.00 612.00 L 647.00 611.00 L 648.00 610.00 L 649.00 609.00 L 650.00 608.00 L 651.00 608.00 L 652.00 607.00 L 653.00 606.00 L 654.00 605.00 L 655.00 604.00 L 656.00 603.00 L 657.00 602.00 L 658.00 601.00 L 659.00 600.00 L 660.00 599.00 L 661.00 598.00 L 662.00 597.00 L 663.00 596.00 L 664.00 595.00 L 665.00 594.00 L 666.00 593.00 L 667.00 592.00 L 667.00 591.00 L 668.00 590.00 L 669.00 589.00 L 670.00 588.00 L 671.00 587.00 L 672.00 586.00 L 673.00 585.00 L 674.00 584.00 L 675.00 583.00 L 676.00 582.00 L 677.00 581.00 L 677.00 580.00 L 678.00 579.00 L 679.00 578.00 L 680.00 577.00 L 681.00 576.00 L 682.00 575.00 L 683.00 574.00 L 683.00 573.00 L 684.00 572.00 L 685.00 571.00 L 686.00 570.00 L 687.00 569.00 L 688.00 568.00 L 688.00 567.00 L 689.00 566.00 L 690.00 565.00 L 691.00 564.00 L 692.00 563.00 L 692.00 562.00 L 693.00 561.00 L 694.00 560.00 L 695.00 559.00 L 696.00 558.00 L 696.00 557.00 L 697.00 556.00 L 698.00 555.00 L 699.00 554.00 L 699.00 553.00 L 700.00 552.00 L 701.00 551.00 L 702.00 552.00 L 702.00 553.00 L 702.00 554.00 L 701.00 555.00 L 701.00 556.00 L 700.00 557.00 L 700.00 558.00 L 700.00 559.00 L 699.00 560.00 L 699.00 561.00 L 698.00 562.00 L 698.00 563.00 L 698.00 564.00 L 697.00 565.00 L 697.00 566.00 L 696.00 567.00 L 696.00 568.00 L 695.00 569.00 L 695.00 570.00 L 695.00 571.00 L 694.00 572.00 L 694.00 573.00 L 694.00 574.00 L 693.00 575.00 L 693.00 576.00 L 692.00 577.00 L 692.00 578.00 L 691.00 579.00 L 691.00 580.00 L 691.00 581.00 L 690.00 582.00 L 690.00 583.00 L 689.00 584.00 L 689.00 585.00 L 688.00 586.00 L 688.00 587.00 L 688.00 588.00 L 687.00 589.00 L 687.00 590.00 L 686.00 591.00 L 686.00 592.00 L 686.00 593.00 L 685.00 594.00 L 685.00 595.00 L 685.00 596.00 L 684.00 597.00 L 684.00 598.00 L 683.00 599.00 L 683.00 600.00 L 683.00 601.00 L 682.00 602.00 L 682.00 603.00 L 681.00 604.00 L 681.00 605.00 L 681.00 606.00 L 680.00 607.00 L 680.00 608.00 L 679.00 609.00 L 679.00 610.00 L 678.00 611.00 L 678.00 612.00 L 678.00 613.00 L 677.00 614.00 L 677.00 615.00 L 676.00 616.00 L 676.00 617.00 L 676.00 618.00 L 675.00 619.00 L 675.00 620.00 L 674.00 621.00 L 674.00 622.00 L 674.00 623.00 L 673.00 624.00 L 672.00 625.00 L 672.00 626.00 L 672.00 627.00 L 672.00 628.00 L 671.00 629.00 L 671.00 630.00 L 670.00 631.00 L 670.00 632.00 L 669.00 633.00 L 669.00 634.00 L 669.00 635.00 L 668.00 636.00 L 668.00 637.00 L 667.00 638.00 L 667.00 639.00 L 666.00 640.00 L 666.00 641.00 L 666.00 642.00 L 665.00 643.00 L 665.00 644.00 L 664.00 645.00 L 664.00 646.00 L 663.00 647.00 L 663.00 648.00 L 663.00 649.00 L 662.00 650.00 L 662.00 651.00 L 662.00 652.00 L 661.00 653.00 L 660.00 654.00 L 660.00 655.00 L 659.00 656.00 L 658.00 657.00 L 657.00 658.00 L 656.00 659.00 L 655.00 660.00 L 654.00 661.00 L 653.00 662.00 L 652.00 663.00 L 651.00 664.00 L 650.00 665.00 L 649.00 666.00 L 648.00 667.00 L 647.00 668.00 L 646.00 669.00 L 645.00 670.00 L 644.00 671.00 L 643.00 672.00 L 642.00 673.00 L 642.00 674.00 L 641.00 675.00 L 640.00 676.00 L 639.00 677.00 L 639.00 678.00 L 638.00 679.00 L 637.00 680.00 L 636.00 681.00 L 635.00 682.00 L 634.00 683.00 L 633.00 684.00 L 633.00 685.00 L 632.00 686.00 L 631.00 687.00 L 630.00 688.00 L 629.00 689.00 L 628.00 690.00 L 627.00 691.00 L 627.00 692.00 L 626.00 693.00 L 625.00 694.00 L 624.00 695.00 L 623.00 696.00 L 622.00 697.00 L 622.00 698.00 L 621.00 699.00 L 620.00 700.00 L 619.00 701.00 L 619.00 702.00 L 618.00 703.00 L 617.00 704.00 L 616.00 705.00 L 616.00 706.00 L 615.00 707.00 L 614.00 708.00 L 613.00 709.00 L 612.00 710.00 L 612.00 711.00 L 611.00 712.00 L 610.00 713.00 L 610.00 714.00 L 609.00 715.00 L 608.00 716.00 L 608.00 717.00 L 607.00 718.00 L 606.00 719.00 L 606.00 720.00 L 605.00 721.00 L 604.00 722.00 L 604.00 723.00 L 603.00 724.00 L 602.00 725.00 L 602.00 726.00 L 601.00 727.00 L 600.00 728.00 L 600.00 729.00 L 599.00 730.00 L 598.00 731.00 L 598.00 732.00 L 597.00 733.00 L 597.00 734.00 L 596.00 735.00 L 596.00 736.00 L 595.00 737.00 L 594.00 738.00 L 594.00 739.00 L 594.00 740.00 L 593.00 741.00 L 593.00 742.00 L 592.00 743.00 L 592.00 744.00 L 592.00 745.00 L 592.00 746.00 L 591.00 747.00 L 591.00 748.00 L 591.00 749.00 L 591.00 750.00 L 591.00 751.00 L 591.00 752.00 L 590.00 753.00 L 591.00 754.00 L 591.00 755.00 L 591.00 756.00 L 591.00 757.00 L 591.00 758.00 L 592.00 759.00 L 592.00 760.00 L 593.00 761.00 L 594.00 762.00 L 595.00 763.00 L 596.00 764.00 L 597.00 764.00 L 598.00 764.00 L 599.00 765.00 L 600.00 765.00 L 601.00 765.00 L 602.00 765.00 L 603.00 765.00 L 604.00 765.00 L 605.00 764.00 L 606.00 764.00 L 607.00 764.00 L 608.00 763.00 L 609.00 763.00 L 610.00 762.00 L 611.00 761.00 L 612.00 761.00 L 613.00 760.00 L 614.00 759.00 L 615.00 758.00 L 616.00 757.00 L 617.00 756.00 L 618.00 755.00 L 619.00 754.00 L 619.00 753.00 L 620.00 752.00 L 621.00 751.00 L 622.00 750.00 L 623.00 749.00 L 624.00 748.00 L 625.00 747.00 L 625.00 746.00 L 626.00 745.00 L 627.00 744.00 L 628.00 743.00 L 628.00 742.00 L 629.00 741.00 L 630.00 740.00 L 630.00 739.00 L 631.00 738.00 L 631.00 737.00 L 632.00 736.00 L 633.00 735.00 L 634.00 734.00 L 634.00 733.00 L 635.00 732.00 L 635.00 731.00 L 636.00 730.00 L 637.00 729.00 L 637.00 728.00 L 638.00 727.00 L 638.00 726.00 L 639.00 725.00 L 639.00 724.00 L 640.00 723.00 L 641.00 722.00 L 641.00 721.00 L 642.00 720.00 L 642.00 719.00 L 643.00 718.00 L 643.00 717.00 L 644.00 716.00 L 644.00 715.00 L 645.00 714.00 L 645.00 713.00 L 646.00 712.00 L 646.00 711.00 L 647.00 710.00 L 647.00 709.00 L 648.00 708.00 L 648.00 707.00 L 649.00 706.00 L 649.00 705.00 L 650.00 704.00 L 650.00 703.00 L 651.00 702.00 L 651.00 701.00 L 652.00 700.00 L 652.00 699.00 L 653.00 698.00 L 653.00 697.00 L 654.00 696.00 L 654.00 695.00 L 654.00 694.00 L 655.00 693.00 L 655.00 692.00 L 656.00 691.00 L 656.00 690.00 L 657.00 689.00 L 657.00 688.00 L 658.00 687.00 L 658.00 686.00 L 659.00 685.00 L 659.00 684.00 L 659.00 683.00 L 660.00 682.00 L 660.00 681.00 L 661.00 680.00 L 661.00 679.00 L 661.00 678.00 L 662.00 677.00 L 662.00 676.00 L 663.00 675.00 L 663.00 674.00 L 664.00 673.00 L 664.00 672.00 L 665.00 671.00 L 665.00 670.00 L 665.00 669.00 L 666.00 668.00 L 667.00 667.00 L 668.00 666.00 L 669.00 665.00 L 670.00 664.00 L 671.00 663.00 L 672.00 662.00 L 673.00 661.00 L 674.00 660.00 L 675.00 659.00 L 676.00 658.00 L 677.00 658.00 L 678.00 657.00 L 679.00 656.00 L 680.00 655.00 L 681.00 654.00 L 682.00 653.00 L 683.00 653.00 L 684.00 652.00 L 685.00 651.00 L 686.00 650.00 L 687.00 649.00 L 688.00 648.00 L 689.00 648.00 L 690.00 647.00 L 691.00 646.00 L 692.00 645.00 L 693.00 644.00 L 694.00 644.00 L 695.00 643.00 L 696.00 642.00 L 697.00 641.00 L 698.00 641.00 L 699.00 640.00 L 700.00 639.00 L 701.00 638.00 L 702.00 638.00 L 703.00 637.00 L 704.00 636.00 L 705.00 636.00 L 706.00 635.00 L 707.00 634.00 L 708.00 633.00 L 709.00 632.00 L 710.00 632.00 L 711.00 631.00 L 712.00 630.00 L 713.00 629.00 L 714.00 629.00 L 715.00 628.00 L 716.00 627.00 L 717.00 626.00 L 718.00 625.00 L 719.00 625.00 L 720.00 624.00 L 721.00 623.00 L 722.00 624.00 L 722.00 625.00 L 722.00 626.00 L 721.00 627.00 L 721.00 628.00 L 721.00 629.00 L 721.00 630.00 L 721.00 631.00 L 721.00 632.00 L 721.00 633.00 L 720.00 634.00 L 720.00 635.00 L 720.00 636.00 L 720.00 637.00 L 720.00 638.00 L 720.00 639.00 L 720.00 640.00 L 720.00 641.00 L 721.00 642.00 L 721.00 643.00 L 721.00 644.00 L 722.00 645.00 L 722.00 646.00 L 723.00 647.00 L 723.00 648.00 L 724.00 649.00 L 725.00 650.00 L 726.00 651.00 L 727.00 652.00 L 728.00 652.00 L 729.00 653.00 L 730.00 653.00 L 731.00 654.00 L 732.00 654.00 L 733.00 654.00 L 734.00 654.00 L 735.00 654.00 L 736.00 654.00 L 737.00 654.00 L 738.00 654.00 L 739.00 654.00 L 740.00 654.00 L 741.00 654.00 L 742.00 653.00 L 743.00 653.00 L 744.00 652.00 L 745.00 652.00 L 746.00 651.00 L 747.00 650.00 L 748.00 650.00 L 749.00 649.00 L 750.00 648.00 L 751.00 647.00 L 752.00 646.00 L 753.00 646.00 L 754.00 645.00 L 755.00 644.00 L 756.00 643.00 L 757.00 642.00 L 758.00 641.00 L 759.00 640.00 L 759.00 639.00 L 760.00 638.00 L 761.00 637.00 L 762.00 636.00 L 763.00 635.00 L 764.00 634.00 L 764.00 633.00 L 765.00 632.00 L 766.00 631.00 L 767.00 630.00 L 767.00 629.00 L 768.00 628.00 L 768.00 627.00 L 769.00 626.00 L 770.00 625.00 L 770.00 624.00 L 771.00 623.00 L 771.00 622.00 L 772.00 621.00 L 773.00 620.00 L 774.00 619.00 L 775.00 619.00 L 776.00 618.00 L 777.00 617.00 L 778.00 617.00 L 779.00 617.00 L 780.00 616.00 L 781.00 616.00 L 782.00 616.00 L 783.00 615.00 L 784.00 615.00 L 785.00 614.00 L 786.00 614.00 L 787.00 613.00 L 788.00 613.00 L 789.00 612.00 L 790.00 611.00 L 791.00 610.00 L 792.00 610.00 L 793.00 609.00 L 794.00 608.00 L 795.00 607.00 L 796.00 607.00 L 797.00 606.00 L 798.00 607.00 L 798.00 608.00 L 798.00 609.00 L 797.00 610.00 L 797.00 611.00 L 797.00 612.00 L 796.00 613.00 L 796.00 614.00 L 796.00 615.00 L 795.00 616.00 L 795.00 617.00 L 795.00 618.00 L 794.00 619.00 L 794.00 620.00 L 794.00 621.00 L 793.00 622.00 L 793.00 623.00 L 793.00 624.00 L 793.00 625.00 L 793.00 626.00 L 793.00 627.00 L 793.00 628.00 L 793.00 629.00 L 793.00 630.00 L 793.00 631.00 L 793.00 632.00 L 793.00 633.00 L 793.00 634.00 L 794.00 635.00 L 794.00 636.00 L 795.00 637.00 L 796.00 638.00 L 797.00 639.00 L 798.00 639.00 L 799.00 640.00 L 800.00 640.00 L 801.00 640.00 L 802.00 640.00 L 803.00 640.00 L 804.00 640.00 L 805.00 640.00 L 806.00 640.00 L 807.00 640.00 L 808.00 640.00 L 809.00 639.00 L 810.00 639.00 L 811.00 639.00 L 812.00 638.00 L 813.00 638.00 L 814.00 637.00 L 815.00 637.00 L 816.00 636.00 L 817.00 636.00 L 818.00 635.00 L 819.00 634.00 L 820.00 633.00 L 821.00 633.00 L 822.00 632.00 L 823.00 631.00 L 824.00 630.00 L 825.00 629.00 L 826.00 629.00 L 827.00 628.00 L 828.00 627.00 L 829.00 626.00 L 830.00 625.00 L 830.00 624.00 L 831.00 623.00 L 832.00 622.00 L 833.00 621.00 L 834.00 620.00 L 835.00 619.00 L 836.00 618.00 L 837.00 617.00 L 838.00 616.00 L 839.00 615.00 L 840.00 614.00 L 841.00 613.00 L 842.00 614.00 L 842.00 615.00 L 841.00 616.00 L 841.00 617.00 L 841.00 618.00 L 841.00 619.00 L 841.00 620.00 L 840.00 621.00 L 840.00 622.00 L 840.00 623.00 L 840.00 624.00 L 840.00 625.00 L 840.00 626.00 L 840.00 627.00 L 840.00 628.00 L 840.00 629.00 L 840.00 630.00 L 840.00 631.00 L 840.00 632.00 L 840.00 633.00 L 840.00 634.00 L 841.00 635.00 L 841.00 636.00 L 842.00 637.00 L 842.00 638.00 L 843.00 639.00 L 843.00 640.00 L 844.00 641.00 L 845.00 641.00 L 846.00 642.00 L 847.00 643.00 L 848.00 643.00 L 849.00 644.00 L 850.00 644.00 L 851.00 644.00 L 852.00 645.00 L 853.00 645.00 L 854.00 645.00 L 855.00 645.00 L 856.00 645.00 L 857.00 645.00 L 858.00 645.00 L 859.00 645.00 L 860.00 644.00 L 861.00 644.00 L 862.00 644.00 L 863.00 644.00 L 864.00 644.00 L 865.00 643.00 L 866.00 643.00 L 867.00 643.00 L 868.00 642.00 L 869.00 642.00 L 870.00 641.00 L 871.00 641.00 L 872.00 640.00 L 873.00 640.00 L 874.00 639.00 L 875.00 639.00 L 876.00 638.00 L 877.00 637.00 L 878.00 637.00 L 879.00 636.00 L 880.00 635.00 L 881.00 634.00 L 882.00 634.00 L 883.00 633.00 L 884.00 632.00 L 885.00 631.00 L 886.00 630.00 L 887.00 629.00 L 888.00 628.00 L 889.00 627.00 L 890.00 626.00 L 891.00 625.00 L 891.00 624.00 L 892.00 623.00 L 893.00 622.00 L 894.00 621.00 L 895.00 620.00 L 895.00 619.00 L 896.00 618.00 L 897.00 617.00 L 898.00 616.00 L 898.00 615.00 L 899.00 614.00 L 899.00 613.00 L 900.00 612.00 L 900.00 611.00 L 901.00 610.00 L 901.00 609.00 L 901.00 608.00 L 902.00 607.00 L 902.00 606.00 L 902.00 605.00 L 901.00 604.00 L 901.00 603.00 L 900.00 603.00 L 899.00 604.00 L 898.00 605.00 L 897.00 606.00 L 896.00 607.00 L 896.00 608.00 L 895.00 609.00 L 894.00 610.00 L 893.00 611.00 L 892.00 611.00 L 891.00 612.00 L 891.00 613.00 L 890.00 614.00 L 889.00 615.00 L 888.00 616.00 L 887.00 617.00 L 886.00 618.00 L 885.00 619.00 L 884.00 620.00 L 883.00 621.00 L 882.00 622.00 L 881.00 623.00 L 880.00 623.00 L 879.00 624.00 L 878.00 625.00 L 877.00 626.00 L 876.00 626.00 L 875.00 627.00 L 874.00 628.00 L 873.00 628.00 L 872.00 629.00 L 871.00 629.00 L 870.00 630.00 L 869.00 630.00 L 868.00 631.00 L 867.00 631.00 L 866.00 632.00 L 865.00 633.00 L 864.00 633.00 L 863.00 633.00 L 862.00 634.00 L 861.00 634.00 L 860.00 634.00 L 859.00 635.00 L 858.00 635.00 L 857.00 635.00 L 856.00 635.00 L 855.00 635.00 L 854.00 635.00 L 853.00 634.00 L 852.00 633.00 L 851.00 632.00 L 850.00 631.00 L 850.00 630.00 L 850.00 629.00 L 850.00 628.00 L 850.00 627.00 L 850.00 626.00 L 850.00 625.00 L 851.00 624.00 L 851.00 623.00 L 851.00 622.00 L 852.00 621.00 L 852.00 620.00 L 852.00 619.00 L 853.00 618.00 L 853.00 617.00 L 854.00 616.00 L 854.00 615.00 L 854.00 614.00 L 855.00 613.00 L 855.00 612.00 L 856.00 611.00 L 856.00 610.00 L 856.00 609.00 L 857.00 608.00 L 857.00 607.00 L 858.00 606.00 L 858.00 605.00 L 859.00 604.00 L 859.00 603.00 L 860.00 602.00 L 860.00 601.00 L 861.00 600.00 L 862.00 599.00 L 862.00 598.00 L 862.00 597.00 L 863.00 596.00 L 863.00 595.00 L 864.00 594.00 L 864.00 593.00 L 865.00 592.00 L 865.00 591.00 L 866.00 590.00 L 866.00 589.00 L 867.00 588.00 L 867.00 587.00 L 868.00 586.00 L 868.00 585.00 L 869.00 584.00 L 869.00 583.00 L 870.00 582.00 L 870.00 581.00 L 870.00 580.00 L 870.00 579.00 L 870.00 578.00 L 870.00 577.00 L 870.00 576.00 L 869.00 575.00 L 868.00 574.00 L 867.00 573.00 L 866.00 573.00 L 865.00 573.00 L 864.00 573.00 L 863.00 573.00 L 862.00 574.00 L 861.00 574.00 L 860.00 575.00 L 859.00 576.00 L 859.00 577.00 L 858.00 578.00 L 857.00 579.00 L 857.00 580.00 L 856.00 581.00 L 855.00 582.00 L 854.00 583.00 L 854.00 584.00 L 853.00 585.00 L 852.00 586.00 L 852.00 587.00 L 851.00 588.00 L 850.00 589.00 L 849.00 590.00 L 848.00 591.00 L 848.00 592.00 L 847.00 593.00 L 846.00 594.00 L 846.00 595.00 L 845.00 596.00 L 844.00 597.00 L 843.00 598.00 L 842.00 599.00 L 841.00 600.00 L 840.00 601.00 L 839.00 602.00 L 838.00 603.00 L 837.00 604.00 L 836.00 605.00 L 835.00 606.00 L 834.00 607.00 L 833.00 608.00 L 832.00 609.00 L 831.00 610.00 L 830.00 611.00 L 829.00 612.00 L 829.00 613.00 L 828.00 614.00 L 827.00 615.00 L 826.00 615.00 L 825.00 616.00 L 824.00 617.00 L 823.00 618.00 L 822.00 619.00 L 821.00 620.00 L 820.00 621.00 L 819.00 622.00 L 818.00 622.00 L 817.00 623.00 L 816.00 624.00 L 815.00 625.00 L 814.00 625.00 L 813.00 626.00 L 812.00 627.00 L 811.00 627.00 L 810.00 628.00 L 809.00 629.00 L 808.00 629.00 L 807.00 629.00 L 806.00 630.00 L 805.00 630.00 L 804.00 629.00 L 803.00 628.00 L 803.00 627.00 L 803.00 626.00 L 803.00 625.00 L 804.00 624.00 L 804.00 623.00 L 804.00 622.00 L 805.00 621.00 L 805.00 620.00 L 805.00 619.00 L 805.00 618.00 L 806.00 617.00 L 806.00 616.00 L 806.00 615.00 L 807.00 614.00 L 807.00 613.00 L 808.00 612.00 L 808.00 611.00 L 809.00 610.00 L 809.00 609.00 L 810.00 608.00 L 810.00 607.00 L 810.00 606.00 L 811.00 605.00 L 811.00 604.00 L 812.00 603.00 L 812.00 602.00 L 813.00 601.00 L 814.00 600.00 L 814.00 599.00 L 815.00 598.00 L 815.00 597.00 L 816.00 596.00 L 816.00 595.00 L 817.00 594.00 L 818.00 593.00 L 818.00 592.00 L 819.00 591.00 L 819.00 590.00 L 820.00 589.00 L 821.00 588.00 L 821.00 587.00 L 822.00 586.00 L 823.00 585.00 L 823.00 584.00 L 824.00 583.00 L 824.00 582.00 L 824.00 581.00 L 824.00 580.00 L 824.00 579.00 L 824.00 578.00 L 823.00 577.00 L 822.00 576.00 L 821.00 576.00 L 820.00 575.00 L 819.00 575.00 L 818.00 575.00 L 817.00 576.00 L 816.00 576.00 L 815.00 577.00 L 814.00 577.00 L 813.00 578.00 L 812.00 579.00 L 812.00 580.00 L 811.00 581.00 L 810.00 582.00 L 810.00 583.00 L 809.00 584.00 L 808.00 585.00 L 807.00 586.00 L 806.00 586.00 L 805.00 587.00 L 804.00 588.00 L 803.00 589.00 L 802.00 590.00 L 801.00 591.00 L 800.00 592.00 L 799.00 593.00 L 798.00 594.00 L 797.00 595.00 L 796.00 596.00 L 795.00 597.00 L 794.00 598.00 L 793.00 599.00 L 792.00 599.00 L 791.00 600.00 L 790.00 601.00 L 789.00 602.00 L 788.00 603.00 L 787.00 603.00 L 786.00 604.00 L 785.00 604.00 L 784.00 605.00 L 783.00 606.00 L 782.00 607.00 L 781.00 607.00 L 780.00 608.00 L 779.00 608.00 L 778.00 607.00 L 778.00 606.00 L 779.00 605.00 L 779.00 604.00 L 779.00 603.00 L 779.00 602.00 L 780.00 601.00 L 780.00 600.00 L 780.00 599.00 L 780.00 598.00 L 781.00 597.00 L 781.00 596.00 L 781.00 595.00 L 781.00 594.00 L 781.00 593.00 L 781.00 592.00 L 781.00 591.00 L 781.00 590.00 L 781.00 589.00 L 781.00 588.00 L 781.00 587.00 L 780.00 586.00 L 780.00 585.00 L 779.00 584.00 L 779.00 583.00 L 778.00 582.00 L 777.00 581.00 L 776.00 580.00 L 775.00 579.00 L 774.00 579.00 L 773.00 578.00 L 772.00 578.00 L 771.00 577.00 L 770.00 577.00 L 769.00 577.00 L 768.00 577.00 L 767.00 577.00 L 766.00 577.00 L 765.00 577.00 L 764.00 577.00 L 763.00 577.00 L 762.00 577.00 L 761.00 578.00 L 760.00 578.00 L 759.00 578.00 L 758.00 579.00 L 757.00 579.00 L 756.00 580.00 L 755.00 580.00 L 754.00 581.00 L 753.00 582.00 L 752.00 583.00 L 751.00 584.00 L 751.00 585.00 L 750.00 586.00 L 750.00 587.00 L 749.00 588.00 L 748.00 589.00 L 747.00 590.00 L 746.00 591.00 L 745.00 592.00 L 744.00 593.00 L 743.00 594.00 L 742.00 595.00 L 741.00 596.00 L 740.00 597.00 L 739.00 597.00 L 738.00 598.00 L 737.00 599.00 L 736.00 600.00 L 735.00 600.00 L 734.00 601.00 L 733.00 602.00 L 732.00 603.00 L 731.00 604.00 L 730.00 604.00 L 729.00 605.00 L 728.00 606.00 L 727.00 607.00 L 726.00 607.00 L 725.00 608.00 L 724.00 609.00 L 723.00 610.00 L 722.00 611.00 L 721.00 611.00 L 720.00 612.00 L 719.00 613.00 L 718.00 614.00 L 717.00 615.00 L 716.00 615.00 L 715.00 616.00 L 714.00 617.00 L 713.00 617.00 L 712.00 618.00 L 711.00 619.00 L 710.00 620.00 L 709.00 620.00 L 708.00 621.00 L 707.00 622.00 L 706.00 623.00 L 705.00 623.00 L 704.00 624.00 L 703.00 625.00 L 702.00 626.00 L 701.00 626.00 L 700.00 627.00 L 699.00 628.00 L 698.00 629.00 L 697.00 629.00 L 696.00 630.00 L 695.00 631.00 L 694.00 632.00 L 693.00 632.00 L 692.00 633.00 L 691.00 634.00 L 690.00 635.00 L 689.00 635.00 L 688.00 636.00 L 687.00 637.00 L 686.00 638.00 L 685.00 638.00 L 684.00 639.00 L 683.00 640.00 L 682.00 641.00 L 681.00 641.00 L 680.00 642.00 L 679.00 643.00 L 678.00 642.00 L 678.00 641.00 L 678.00 640.00 L 679.00 639.00 L 679.00 638.00 L 679.00 637.00 L 680.00 636.00 L 680.00 635.00 L 681.00 634.00 L 681.00 633.00 L 682.00 632.00 L 682.00 631.00 L 682.00 630.00 L 683.00 629.00 L 683.00 628.00 L 684.00 627.00 L 684.00 626.00 L 684.00 625.00 L 685.00 624.00 L 685.00 623.00 L 686.00 622.00 L 686.00 621.00 L 686.00 620.00 L 687.00 619.00 L 687.00 618.00 L 688.00 617.00 L 688.00 616.00 L 688.00 615.00 L 689.00 614.00 L 689.00 613.00 L 690.00 612.00 L 690.00 611.00 L 690.00 610.00 L 691.00 609.00 L 691.00 608.00 L 692.00 607.00 L 692.00 606.00 L 692.00 605.00 L 693.00 604.00 L 693.00 603.00 L 694.00 602.00 L 694.00 601.00 L 694.00 600.00 L 695.00 599.00 L 695.00 598.00 L 695.00 597.00 L 696.00 596.00 L 696.00 595.00 L 697.00 594.00 L 697.00 593.00 L 697.00 592.00 L 698.00 591.00 L 698.00 590.00 L 699.00 589.00 L 699.00 588.00 L 699.00 587.00 L 700.00 586.00 L 700.00 585.00 L 701.00 584.00 L 701.00 583.00 L 702.00 582.00 L 702.00 581.00 L 702.00 580.00 L 703.00 579.00 L 703.00 578.00 L 704.00 577.00 L 704.00 576.00 L 704.00 575.00 L 705.00 574.00 L 705.00 573.00 L 706.00 572.00 L 706.00 571.00 L 707.00 570.00 L 707.00 569.00 L 707.00 568.00 L 708.00 567.00 L 708.00 566.00 L 709.00 565.00 L 709.00 564.00 L 709.00 563.00 L 710.00 562.00 L 710.00 561.00 L 711.00 560.00 L 711.00 559.00 L 712.00 558.00 L 712.00 557.00 L 712.00 556.00 L 713.00 555.00 L 713.00 554.00 L 714.00 553.00 L 714.00 552.00 L 714.00 551.00 L 715.00 550.00 L 715.00 549.00 L 716.00 548.00 L 716.00 547.00 L 717.00 546.00 L 717.00 545.00 L 718.00 544.00 L 718.00 543.00 L 718.00 542.00 L 719.00 541.00 L 719.00 540.00 L 720.00 539.00 L 720.00 538.00 L 721.00 537.00 L 721.00 536.00 L 721.00 535.00 L 722.00 534.00 L 722.00 533.00 L 723.00 532.00 L 723.00 531.00 L 723.00 530.00 L 724.00 529.00 L 724.00 528.00 L 725.00 527.00 L 725.00 526.00 L 725.00 525.00 L 726.00 524.00 L 726.00 523.00 L 727.00 522.00 L 727.00 521.00 L 728.00 520.00 L 728.00 519.00 L 729.00 518.00 L 729.00 517.00 L 730.00 516.00 L 730.00 515.00 L 730.00 514.00 L 731.00 513.00 L 731.00 512.00 L 732.00 511.00 L 732.00 510.00 L 733.00 509.00 L 733.00 508.00 L 734.00 507.00 L 734.00 506.00 L 735.00 505.00 L 735.00 504.00 L 736.00 503.00 L 736.00 502.00 L 736.00 501.00 L 737.00 500.00 L 737.00 499.00 L 736.00 498.00 L 736.00 497.00 L 735.00 496.00 L 734.00 495.00 L 733.00 495.00 L 732.00 495.00 Z M 642.00 688.00 L 643.00 687.00 L 644.00 687.00 L 645.00 688.00 L 644.00 689.00 L 644.00 690.00 L 644.00 691.00 L 643.00 692.00 L 643.00 693.00 L 642.00 694.00 L 642.00 695.00 L 641.00 696.00 L 641.00 697.00 L 640.00 698.00 L 640.00 699.00 L 639.00 700.00 L 639.00 701.00 L 638.00 702.00 L 638.00 703.00 L 637.00 704.00 L 637.00 705.00 L 636.00 706.00 L 636.00 707.00 L 635.00 708.00 L 635.00 709.00 L 634.00 710.00 L 634.00 711.00 L 633.00 712.00 L 633.00 713.00 L 632.00 714.00 L 632.00 715.00 L 631.00 716.00 L 631.00 717.00 L 630.00 718.00 L 630.00 719.00 L 629.00 720.00 L 628.00 721.00 L 628.00 722.00 L 627.00 723.00 L 627.00 724.00 L 626.00 725.00 L 626.00 726.00 L 625.00 727.00 L 624.00 728.00 L 624.00 729.00 L 623.00 730.00 L 623.00 731.00 L 622.00 732.00 L 621.00 733.00 L 621.00 734.00 L 620.00 735.00 L 619.00 736.00 L 619.00 737.00 L 618.00 738.00 L 618.00 739.00 L 617.00 740.00 L 616.00 741.00 L 615.00 742.00 L 614.00 743.00 L 614.00 744.00 L 613.00 745.00 L 612.00 746.00 L 611.00 747.00 L 610.00 748.00 L 609.00 749.00 L 608.00 750.00 L 607.00 751.00 L 606.00 752.00 L 605.00 753.00 L 604.00 753.00 L 603.00 754.00 L 602.00 753.00 L 601.00 752.00 L 601.00 751.00 L 602.00 750.00 L 602.00 749.00 L 602.00 748.00 L 602.00 747.00 L 603.00 746.00 L 603.00 745.00 L 604.00 744.00 L 604.00 743.00 L 605.00 742.00 L 605.00 741.00 L 606.00 740.00 L 606.00 739.00 L 607.00 738.00 L 607.00 737.00 L 608.00 736.00 L 608.00 735.00 L 609.00 734.00 L 609.00 733.00 L 610.00 732.00 L 611.00 731.00 L 611.00 730.00 L 612.00 729.00 L 612.00 728.00 L 613.00 727.00 L 614.00 726.00 L 614.00 725.00 L 615.00 724.00 L 616.00 723.00 L 616.00 722.00 L 617.00 721.00 L 617.00 720.00 L 618.00 719.00 L 619.00 718.00 L 619.00 717.00 L 620.00 716.00 L 621.00 715.00 L 621.00 714.00 L 622.00 713.00 L 623.00 712.00 L 623.00 711.00 L 624.00 710.00 L 625.00 709.00 L 626.00 708.00 L 626.00 707.00 L 627.00 706.00 L 628.00 705.00 L 629.00 704.00 L 630.00 703.00 L 630.00 702.00 L 631.00 701.00 L 632.00 700.00 L 633.00 699.00 L 633.00 698.00 L 634.00 697.00 L 635.00 696.00 L 636.00 695.00 L 637.00 694.00 L 638.00 693.00 L 639.00 692.00 L 640.00 691.00 L 641.00 690.00 L 642.00 689.00 Z M 746.00 603.00 L 747.00 602.00 L 748.00 602.00 L 749.00 603.00 L 750.00 604.00 L 750.00 605.00 L 750.00 606.00 L 750.00 607.00 L 751.00 608.00 L 751.00 609.00 L 752.00 610.00 L 753.00 611.00 L 753.00 612.00 L 754.00 613.00 L 755.00 614.00 L 756.00 615.00 L 757.00 616.00 L 758.00 616.00 L 759.00 617.00 L 760.00 617.00 L 761.00 618.00 L 761.00 619.00 L 760.00 620.00 L 760.00 621.00 L 759.00 622.00 L 758.00 623.00 L 758.00 624.00 L 757.00 625.00 L 756.00 626.00 L 756.00 627.00 L 755.00 628.00 L 755.00 629.00 L 754.00 630.00 L 753.00 631.00 L 752.00 632.00 L 751.00 633.00 L 750.00 634.00 L 749.00 635.00 L 748.00 636.00 L 747.00 637.00 L 746.00 638.00 L 745.00 639.00 L 744.00 640.00 L 743.00 641.00 L 742.00 642.00 L 741.00 642.00 L 740.00 643.00 L 739.00 643.00 L 738.00 644.00 L 737.00 644.00 L 736.00 644.00 L 735.00 644.00 L 734.00 644.00 L 733.00 643.00 L 732.00 642.00 L 732.00 641.00 L 731.00 640.00 L 731.00 639.00 L 731.00 638.00 L 731.00 637.00 L 731.00 636.00 L 731.00 635.00 L 731.00 634.00 L 731.00 633.00 L 731.00 632.00 L 731.00 631.00 L 732.00 630.00 L 732.00 629.00 L 732.00 628.00 L 732.00 627.00 L 733.00 626.00 L 733.00 625.00 L 734.00 624.00 L 734.00 623.00 L 734.00 622.00 L 735.00 621.00 L 735.00 620.00 L 736.00 619.00 L 736.00 618.00 L 737.00 617.00 L 737.00 616.00 L 738.00 615.00 L 738.00 614.00 L 739.00 613.00 L 740.00 612.00 L 740.00 611.00 L 741.00 610.00 L 742.00 609.00 L 742.00 608.00 L 743.00 607.00 L 744.00 606.00 L 745.00 605.00 L 745.00 604.00 Z M 765.00 587.00 L 766.00 586.00 L 767.00 587.00 L 768.00 587.00 L 769.00 588.00 L 770.00 589.00 L 771.00 590.00 L 771.00 591.00 L 771.00 592.00 L 771.00 593.00 L 771.00 594.00 L 770.00 595.00 L 770.00 596.00 L 770.00 597.00 L 770.00 598.00 L 770.00 599.00 L 769.00 600.00 L 769.00 601.00 L 769.00 602.00 L 768.00 603.00 L 768.00 604.00 L 768.00 605.00 L 768.00 606.00 L 767.00 607.00 L 766.00 608.00 L 765.00 608.00 L 764.00 607.00 L 763.00 606.00 L 762.00 605.00 L 761.00 604.00 L 761.00 603.00 L 760.00 602.00 L 760.00 601.00 L 760.00 600.00 L 759.00 599.00 L 759.00 598.00 L 759.00 597.00 L 759.00 596.00 L 759.00 595.00 L 759.00 594.00 L 759.00 593.00 L 759.00 592.00 L 759.00 591.00 L 760.00 590.00 L 761.00 589.00 L 762.00 588.00 L 763.00 588.00 L 764.00 587.00 Z M 988.00 485.00 L 987.00 486.00 L 986.00 486.00 L 986.00 487.00 L 985.00 488.00 L 984.00 489.00 L 984.00 490.00 L 983.00 491.00 L 983.00 492.00 L 983.00 493.00 L 982.00 494.00 L 982.00 495.00 L 981.00 496.00 L 981.00 497.00 L 981.00 498.00 L 980.00 499.00 L 980.00 500.00 L 979.00 501.00 L 979.00 502.00 L 978.00 503.00 L 978.00 504.00 L 978.00 505.00 L 977.00 506.00 L 977.00 507.00 L 977.00 508.00 L 976.00 509.00 L 976.00 510.00 L 975.00 511.00 L 975.00 512.00 L 975.00 513.00 L 974.00 514.00 L 973.00 515.00 L 973.00 516.00 L 973.00 517.00 L 972.00 518.00 L 972.00 519.00 L 972.00 520.00 L 971.00 521.00 L 971.00 522.00 L 970.00 523.00 L 970.00 524.00 L 969.00 525.00 L 969.00 526.00 L 969.00 527.00 L 968.00 528.00 L 968.00 529.00 L 967.00 530.00 L 967.00 531.00 L 967.00 532.00 L 966.00 533.00 L 966.00 534.00 L 965.00 535.00 L 965.00 536.00 L 964.00 537.00 L 964.00 538.00 L 963.00 539.00 L 963.00 540.00 L 963.00 541.00 L 962.00 542.00 L 962.00 543.00 L 962.00 544.00 L 961.00 545.00 L 961.00 546.00 L 960.00 547.00 L 960.00 548.00 L 959.00 549.00 L 959.00 550.00 L 959.00 551.00 L 958.00 552.00 L 958.00 553.00 L 958.00 554.00 L 957.00 555.00 L 957.00 556.00 L 956.00 557.00 L 956.00 558.00 L 956.00 559.00 L 955.00 560.00 L 955.00 561.00 L 954.00 562.00 L 954.00 563.00 L 954.00 564.00 L 953.00 565.00 L 953.00 566.00 L 952.00 567.00 L 952.00 568.00 L 952.00 569.00 L 951.00 570.00 L 951.00 571.00 L 950.00 572.00 L 950.00 573.00 L 950.00 574.00 L 949.00 575.00 L 949.00 576.00 L 948.00 577.00 L 948.00 578.00 L 948.00 579.00 L 947.00 580.00 L 947.00 581.00 L 946.00 582.00 L 946.00 583.00 L 946.00 584.00 L 945.00 585.00 L 945.00 586.00 L 945.00 587.00 L 944.00 588.00 L 944.00 589.00 L 944.00 590.00 L 943.00 591.00 L 943.00 592.00 L 942.00 593.00 L 942.00 594.00 L 942.00 595.00 L 941.00 596.00 L 941.00 597.00 L 940.00 598.00 L 940.00 599.00 L 939.00 600.00 L 939.00 601.00 L 939.00 602.00 L 939.00 603.00 L 938.00 604.00 L 938.00 605.00 L 937.00 606.00 L 937.00 607.00 L 937.00 608.00 L 936.00 609.00 L 936.00 610.00 L 935.00 611.00 L 935.00 612.00 L 935.00 613.00 L 934.00 614.00 L 934.00 615.00 L 934.00 616.00 L 933.00 617.00 L 933.00 618.00 L 933.00 619.00 L 932.00 620.00 L 932.00 621.00 L 931.00 622.00 L 931.00 623.00 L 931.00 624.00 L 930.00 625.00 L 930.00 626.00 L 930.00 627.00 L 929.00 628.00 L 929.00 629.00 L 929.00 630.00 L 928.00 631.00 L 928.00 632.00 L 928.00 633.00 L 928.00 634.00 L 928.00 635.00 L 928.00 636.00 L 928.00 637.00 L 928.00 638.00 L 929.00 639.00 L 930.00 639.00 L 931.00 640.00 L 932.00 640.00 L 933.00 640.00 L 934.00 640.00 L 935.00 640.00 L 936.00 639.00 L 937.00 638.00 L 938.00 637.00 L 938.00 636.00 L 938.00 635.00 L 939.00 634.00 L 939.00 633.00 L 939.00 632.00 L 939.00 631.00 L 940.00 630.00 L 940.00 629.00 L 941.00 628.00 L 941.00 627.00 L 941.00 626.00 L 942.00 625.00 L 942.00 624.00 L 942.00 623.00 L 943.00 622.00 L 943.00 621.00 L 943.00 620.00 L 944.00 619.00 L 944.00 618.00 L 945.00 617.00 L 945.00 616.00 L 945.00 615.00 L 946.00 614.00 L 946.00 613.00 L 947.00 612.00 L 947.00 611.00 L 947.00 610.00 L 948.00 609.00 L 948.00 608.00 L 948.00 607.00 L 949.00 606.00 L 949.00 605.00 L 949.00 604.00 L 950.00 603.00 L 950.00 602.00 L 950.00 601.00 L 951.00 600.00 L 951.00 599.00 L 952.00 598.00 L 952.00 597.00 L 952.00 596.00 L 953.00 595.00 L 953.00 594.00 L 954.00 593.00 L 954.00 592.00 L 955.00 591.00 L 955.00 590.00 L 955.00 589.00 L 956.00 588.00 L 956.00 587.00 L 956.00 586.00 L 957.00 585.00 L 957.00 584.00 L 958.00 583.00 L 958.00 582.00 L 958.00 581.00 L 959.00 580.00 L 959.00 579.00 L 959.00 578.00 L 960.00 577.00 L 960.00 576.00 L 961.00 575.00 L 961.00 574.00 L 961.00 573.00 L 962.00 572.00 L 962.00 571.00 L 963.00 570.00 L 963.00 569.00 L 963.00 568.00 L 964.00 567.00 L 964.00 566.00 L 965.00 565.00 L 965.00 564.00 L 965.00 563.00 L 966.00 562.00 L 966.00 561.00 L 967.00 560.00 L 967.00 559.00 L 968.00 558.00 L 968.00 557.00 L 968.00 556.00 L 969.00 555.00 L 969.00 554.00 L 969.00 553.00 L 970.00 552.00 L 970.00 551.00 L 971.00 550.00 L 971.00 549.00 L 971.00 548.00 L 972.00 547.00 L 972.00 546.00 L 973.00 545.00 L 973.00 544.00 L 973.00 543.00 L 974.00 542.00 L 974.00 541.00 L 975.00 540.00 L 975.00 539.00 L 976.00 538.00 L 976.00 537.00 L 976.00 536.00 L 977.00 535.00 L 977.00 534.00 L 978.00 533.00 L 978.00 532.00 L 978.00 531.00 L 979.00 530.00 L 979.00 529.00 L 980.00 528.00 L 980.00 527.00 L 981.00 526.00 L 981.00 525.00 L 982.00 524.00 L 982.00 523.00 L 982.00 522.00 L 983.00 521.00 L 983.00 520.00 L 984.00 519.00 L 984.00 518.00 L 984.00 517.00 L 985.00 516.00 L 985.00 515.00 L 986.00 514.00 L 986.00 513.00 L 987.00 512.00 L 987.00 511.00 L 987.00 510.00 L 988.00 509.00 L 988.00 508.00 L 989.00 507.00 L 989.00 506.00 L 990.00 505.00 L 990.00 504.00 L 990.00 503.00 L 991.00 502.00 L 991.00 501.00 L 992.00 500.00 L 992.00 499.00 L 992.00 498.00 L 993.00 497.00 L 993.00 496.00 L 994.00 495.00 L 994.00 494.00 L 995.00 493.00 L 995.00 492.00 L 995.00 491.00 L 995.00 490.00 L 995.00 489.00 L 995.00 488.00 L 994.00 487.00 L 993.00 486.00 L 992.00 485.00 L 991.00 485.00 L 990.00 485.00 L 989.00 485.00 Z M 695.00 266.00 L 694.00 267.00 L 693.00 267.00 L 692.00 267.00 L 691.00 267.00 L 690.00 267.00 L 689.00 267.00 L 688.00 268.00 L 687.00 268.00 L 686.00 268.00 L 685.00 268.00 L 684.00 268.00 L 683.00 269.00 L 682.00 269.00 L 681.00 269.00 L 680.00 269.00 L 679.00 269.00 L 678.00 269.00 L 677.00 269.00 L 676.00 270.00 L 675.00 270.00 L 674.00 270.00 L 673.00 270.00 L 672.00 270.00 L 671.00 270.00 L 670.00 271.00 L 669.00 271.00 L 668.00 271.00 L 667.00 271.00 L 666.00 271.00 L 665.00 271.00 L 664.00 272.00 L 663.00 272.00 L 662.00 272.00 L 661.00 272.00 L 660.00 272.00 L 659.00 272.00 L 658.00 273.00 L 657.00 273.00 L 656.00 273.00 L 655.00 273.00 L 654.00 273.00 L 653.00 274.00 L 652.00 274.00 L 651.00 274.00 L 650.00 274.00 L 649.00 274.00 L 648.00 274.00 L 647.00 275.00 L 646.00 275.00 L 645.00 275.00 L 644.00 275.00 L 643.00 275.00 L 642.00 275.00 L 641.00 276.00 L 640.00 276.00 L 639.00 276.00 L 638.00 276.00 L 637.00 277.00 L 636.00 277.00 L 635.00 277.00 L 634.00 277.00 L 633.00 277.00 L 632.00 277.00 L 631.00 278.00 L 630.00 278.00 L 629.00 278.00 L 628.00 278.00 L 627.00 278.00 L 626.00 278.00 L 625.00 278.00 L 624.00 279.00 L 623.00 279.00 L 622.00 279.00 L 621.00 279.00 L 620.00 280.00 L 619.00 280.00 L 618.00 280.00 L 617.00 280.00 L 616.00 280.00 L 615.00 281.00 L 614.00 281.00 L 613.00 281.00 L 612.00 281.00 L 611.00 281.00 L 610.00 281.00 L 609.00 282.00 L 608.00 282.00 L 607.00 282.00 L 606.00 282.00 L 605.00 283.00 L 604.00 283.00 L 603.00 283.00 L 602.00 283.00 L 601.00 284.00 L 600.00 284.00 L 599.00 284.00 L 598.00 284.00 L 597.00 284.00 L 596.00 285.00 L 595.00 285.00 L 594.00 285.00 L 593.00 285.00 L 592.00 286.00 L 591.00 286.00 L 590.00 286.00 L 589.00 286.00 L 588.00 286.00 L 587.00 287.00 L 586.00 287.00 L 585.00 287.00 L 584.00 287.00 L 583.00 287.00 L 582.00 288.00 L 581.00 288.00 L 580.00 288.00 L 579.00 288.00 L 578.00 289.00 L 577.00 289.00 L 576.00 289.00 L 575.00 289.00 L 574.00 289.00 L 573.00 289.00 L 572.00 290.00 L 571.00 290.00 L 570.00 290.00 L 569.00 290.00 L 568.00 290.00 L 567.00 291.00 L 566.00 291.00 L 565.00 291.00 L 564.00 291.00 L 563.00 292.00 L 562.00 292.00 L 561.00 292.00 L 560.00 292.00 L 559.00 293.00 L 558.00 293.00 L 557.00 293.00 L 556.00 293.00 L 555.00 293.00 L 554.00 294.00 L 553.00 294.00 L 552.00 294.00 L 551.00 294.00 L 550.00 295.00 L 549.00 295.00 L 548.00 295.00 L 547.00 295.00 L 546.00 295.00 L 545.00 295.00 L 544.00 296.00 L 543.00 296.00 L 542.00 296.00 L 541.00 296.00 L 540.00 297.00 L 539.00 297.00 L 538.00 297.00 L 537.00 297.00 L 536.00 297.00 L 535.00 298.00 L 534.00 298.00 L 533.00 298.00 L 532.00 298.00 L 531.00 299.00 L 530.00 299.00 L 529.00 299.00 L 528.00 299.00 L 527.00 299.00 L 526.00 299.00 L 525.00 300.00 L 524.00 300.00 L 523.00 300.00 L 522.00 300.00 L 521.00 301.00 L 520.00 302.00 L 519.00 303.00 L 519.00 304.00 L 519.00 305.00 L 519.00 306.00 L 519.00 307.00 L 519.00 308.00 L 520.00 309.00 L 521.00 310.00 L 522.00 310.00 L 523.00 310.00 L 524.00 310.00 L 525.00 310.00 L 526.00 310.00 L 527.00 310.00 L 528.00 309.00 L 529.00 309.00 L 530.00 309.00 L 531.00 309.00 L 532.00 309.00 L 533.00 308.00 L 534.00 308.00 L 535.00 308.00 L 536.00 308.00 L 537.00 308.00 L 538.00 307.00 L 539.00 307.00 L 540.00 307.00 L 541.00 307.00 L 542.00 306.00 L 543.00 306.00 L 544.00 306.00 L 545.00 306.00 L 546.00 305.00 L 547.00 305.00 L 548.00 305.00 L 549.00 305.00 L 550.00 305.00 L 551.00 304.00 L 552.00 304.00 L 553.00 304.00 L 554.00 304.00 L 555.00 304.00 L 556.00 303.00 L 557.00 303.00 L 558.00 303.00 L 559.00 303.00 L 560.00 302.00 L 561.00 302.00 L 562.00 302.00 L 563.00 302.00 L 564.00 301.00 L 565.00 301.00 L 566.00 301.00 L 567.00 301.00 L 568.00 301.00 L 569.00 301.00 L 570.00 300.00 L 571.00 300.00 L 572.00 300.00 L 573.00 300.00 L 574.00 299.00 L 575.00 299.00 L 576.00 299.00 L 577.00 299.00 L 578.00 298.00 L 579.00 298.00 L 580.00 298.00 L 581.00 298.00 L 582.00 298.00 L 583.00 297.00 L 584.00 297.00 L 585.00 297.00 L 586.00 297.00 L 587.00 297.00 L 588.00 296.00 L 589.00 296.00 L 590.00 296.00 L 591.00 296.00 L 592.00 295.00 L 593.00 295.00 L 594.00 295.00 L 595.00 295.00 L 596.00 294.00 L 597.00 294.00 L 598.00 294.00 L 599.00 294.00 L 600.00 294.00 L 601.00 293.00 L 602.00 293.00 L 603.00 293.00 L 604.00 293.00 L 605.00 293.00 L 606.00 293.00 L 607.00 292.00 L 608.00 292.00 L 609.00 292.00 L 610.00 292.00 L 611.00 292.00 L 612.00 291.00 L 613.00 291.00 L 614.00 291.00 L 615.00 291.00 L 616.00 291.00 L 617.00 290.00 L 618.00 290.00 L 619.00 290.00 L 620.00 290.00 L 621.00 289.00 L 622.00 289.00 L 623.00 289.00 L 624.00 290.00 L 624.00 291.00 L 623.00 292.00 L 622.00 293.00 L 622.00 294.00 L 621.00 295.00 L 621.00 296.00 L 620.00 297.00 L 619.00 298.00 L 619.00 299.00 L 618.00 300.00 L 618.00 301.00 L 617.00 302.00 L 617.00 303.00 L 617.00 304.00 L 616.00 305.00 L 616.00 306.00 L 616.00 307.00 L 615.00 308.00 L 615.00 309.00 L 614.00 310.00 L 614.00 311.00 L 613.00 312.00 L 613.00 313.00 L 613.00 314.00 L 612.00 315.00 L 612.00 316.00 L 611.00 317.00 L 611.00 318.00 L 610.00 319.00 L 610.00 320.00 L 610.00 321.00 L 609.00 322.00 L 609.00 323.00 L 608.00 324.00 L 608.00 325.00 L 607.00 326.00 L 607.00 327.00 L 607.00 328.00 L 606.00 329.00 L 605.00 330.00 L 605.00 331.00 L 605.00 332.00 L 604.00 333.00 L 604.00 334.00 L 603.00 335.00 L 603.00 336.00 L 602.00 337.00 L 602.00 338.00 L 601.00 339.00 L 601.00 340.00 L 600.00 341.00 L 600.00 342.00 L 599.00 343.00 L 599.00 344.00 L 598.00 345.00 L 598.00 346.00 L 597.00 347.00 L 597.00 348.00 L 596.00 349.00 L 596.00 350.00 L 595.00 351.00 L 595.00 352.00 L 594.00 353.00 L 594.00 354.00 L 593.00 355.00 L 593.00 356.00 L 592.00 357.00 L 592.00 358.00 L 591.00 359.00 L 591.00 360.00 L 591.00 361.00 L 590.00 362.00 L 590.00 363.00 L 589.00 364.00 L 588.00 365.00 L 588.00 366.00 L 587.00 367.00 L 587.00 368.00 L 586.00 369.00 L 586.00 370.00 L 585.00 371.00 L 585.00 372.00 L 584.00 373.00 L 584.00 374.00 L 583.00 375.00 L 583.00 376.00 L 582.00 377.00 L 582.00 378.00 L 581.00 379.00 L 581.00 380.00 L 580.00 381.00 L 580.00 382.00 L 579.00 383.00 L 579.00 384.00 L 578.00 385.00 L 578.00 386.00 L 578.00 387.00 L 577.00 388.00 L 577.00 389.00 L 576.00 390.00 L 576.00 391.00 L 575.00 392.00 L 574.00 393.00 L 574.00 394.00 L 573.00 395.00 L 573.00 396.00 L 573.00 397.00 L 572.00 398.00 L 572.00 399.00 L 571.00 400.00 L 571.00 401.00 L 570.00 402.00 L 570.00 403.00 L 569.00 404.00 L 569.00 405.00 L 569.00 406.00 L 568.00 407.00 L 567.00 408.00 L 567.00 409.00 L 566.00 410.00 L 566.00 411.00 L 565.00 412.00 L 565.00 413.00 L 564.00 414.00 L 564.00 415.00 L 563.00 416.00 L 563.00 417.00 L 562.00 418.00 L 562.00 419.00 L 562.00 420.00 L 561.00 421.00 L 561.00 422.00 L 560.00 423.00 L 560.00 424.00 L 559.00 425.00 L 559.00 426.00 L 558.00 427.00 L 558.00 428.00 L 557.00 429.00 L 557.00 430.00 L 556.00 431.00 L 556.00 432.00 L 556.00 433.00 L 555.00 434.00 L 554.00 435.00 L 554.00 436.00 L 553.00 437.00 L 553.00 438.00 L 553.00 439.00 L 552.00 440.00 L 552.00 441.00 L 551.00 442.00 L 551.00 443.00 L 550.00 444.00 L 550.00 445.00 L 550.00 446.00 L 549.00 447.00 L 548.00 448.00 L 548.00 449.00 L 548.00 450.00 L 547.00 451.00 L 547.00 452.00 L 546.00 453.00 L 546.00 454.00 L 546.00 455.00 L 545.00 456.00 L 544.00 457.00 L 544.00 458.00 L 543.00 459.00 L 543.00 460.00 L 542.00 461.00 L 542.00 462.00 L 542.00 463.00 L 541.00 464.00 L 540.00 465.00 L 540.00 466.00 L 539.00 467.00 L 539.00 468.00 L 538.00 469.00 L 537.00 470.00 L 537.00 471.00 L 536.00 472.00 L 536.00 473.00 L 536.00 474.00 L 536.00 475.00 L 536.00 476.00 L 536.00 477.00 L 537.00 478.00 L 538.00 479.00 L 539.00 479.00 L 540.00 480.00 L 541.00 480.00 L 542.00 479.00 L 543.00 479.00 L 544.00 479.00 L 545.00 478.00 L 546.00 477.00 L 546.00 476.00 L 547.00 475.00 L 548.00 474.00 L 548.00 473.00 L 549.00 472.00 L 549.00 471.00 L 550.00 470.00 L 550.00 469.00 L 550.00 468.00 L 551.00 467.00 L 551.00 466.00 L 552.00 465.00 L 552.00 464.00 L 553.00 463.00 L 553.00 462.00 L 554.00 461.00 L 554.00 460.00 L 555.00 459.00 L 555.00 458.00 L 556.00 457.00 L 556.00 456.00 L 556.00 455.00 L 557.00 454.00 L 557.00 453.00 L 558.00 452.00 L 558.00 451.00 L 559.00 450.00 L 559.00 449.00 L 560.00 448.00 L 560.00 447.00 L 561.00 446.00 L 561.00 445.00 L 562.00 444.00 L 562.00 443.00 L 562.00 442.00 L 563.00 441.00 L 564.00 440.00 L 564.00 439.00 L 564.00 438.00 L 565.00 437.00 L 565.00 436.00 L 566.00 435.00 L 566.00 434.00 L 567.00 433.00 L 567.00 432.00 L 568.00 431.00 L 568.00 430.00 L 569.00 429.00 L 569.00 428.00 L 569.00 427.00 L 570.00 426.00 L 570.00 425.00 L 571.00 424.00 L 571.00 423.00 L 572.00 422.00 L 572.00 421.00 L 573.00 420.00 L 573.00 419.00 L 574.00 418.00 L 574.00 417.00 L 575.00 416.00 L 575.00 415.00 L 576.00 414.00 L 576.00 413.00 L 577.00 412.00 L 577.00 411.00 L 578.00 410.00 L 578.00 409.00 L 579.00 408.00 L 579.00 407.00 L 580.00 406.00 L 580.00 405.00 L 581.00 404.00 L 581.00 403.00 L 581.00 402.00 L 582.00 401.00 L 582.00 400.00 L 583.00 399.00 L 583.00 398.00 L 584.00 397.00 L 584.00 396.00 L 585.00 395.00 L 585.00 394.00 L 586.00 393.00 L 586.00 392.00 L 587.00 391.00 L 587.00 390.00 L 588.00 389.00 L 588.00 388.00 L 589.00 387.00 L 589.00 386.00 L 590.00 385.00 L 590.00 384.00 L 591.00 383.00 L 591.00 382.00 L 592.00 381.00 L 592.00 380.00 L 593.00 379.00 L 593.00 378.00 L 594.00 377.00 L 594.00 376.00 L 594.00 375.00 L 595.00 374.00 L 595.00 373.00 L 596.00 372.00 L 596.00 371.00 L 597.00 370.00 L 597.00 369.00 L 598.00 368.00 L 598.00 367.00 L 599.00 366.00 L 599.00 365.00 L 600.00 364.00 L 600.00 363.00 L 601.00 362.00 L 601.00 361.00 L 602.00 360.00 L 602.00 359.00 L 603.00 358.00 L 603.00 357.00 L 604.00 356.00 L 604.00 355.00 L 605.00 354.00 L 605.00 353.00 L 606.00 352.00 L 606.00 351.00 L 607.00 350.00 L 607.00 349.00 L 608.00 348.00 L 608.00 347.00 L 609.00 346.00 L 609.00 345.00 L 610.00 344.00 L 610.00 343.00 L 611.00 342.00 L 611.00 341.00 L 612.00 340.00 L 612.00 339.00 L 613.00 338.00 L 614.00 337.00 L 614.00 336.00 L 615.00 335.00 L 615.00 334.00 L 616.00 333.00 L 616.00 332.00 L 617.00 331.00 L 617.00 330.00 L 617.00 329.00 L 618.00 328.00 L 618.00 327.00 L 619.00 326.00 L 619.00 325.00 L 620.00 324.00 L 620.00 323.00 L 621.00 322.00 L 621.00 321.00 L 621.00 320.00 L 622.00 319.00 L 622.00 318.00 L 623.00 317.00 L 623.00 316.00 L 624.00 315.00 L 624.00 314.00 L 624.00 313.00 L 625.00 312.00 L 625.00 311.00 L 626.00 310.00 L 626.00 309.00 L 627.00 308.00 L 627.00 307.00 L 628.00 306.00 L 628.00 305.00 L 628.00 304.00 L 629.00 303.00 L 629.00 302.00 L 630.00 301.00 L 630.00 300.00 L 631.00 299.00 L 631.00 298.00 L 632.00 297.00 L 633.00 296.00 L 633.00 295.00 L 634.00 294.00 L 635.00 293.00 L 635.00 292.00 L 636.00 291.00 L 636.00 290.00 L 637.00 289.00 L 638.00 288.00 L 639.00 287.00 L 640.00 286.00 L 641.00 286.00 L 642.00 286.00 L 643.00 286.00 L 644.00 286.00 L 645.00 285.00 L 646.00 285.00 L 647.00 285.00 L 648.00 285.00 L 649.00 284.00 L 650.00 284.00 L 651.00 284.00 L 652.00 284.00 L 653.00 284.00 L 654.00 284.00 L 655.00 284.00 L 656.00 283.00 L 657.00 283.00 L 658.00 283.00 L 659.00 283.00 L 660.00 282.00 L 661.00 282.00 L 662.00 282.00 L 663.00 282.00 L 664.00 282.00 L 665.00 282.00 L 666.00 281.00 L 667.00 281.00 L 668.00 281.00 L 669.00 281.00 L 670.00 281.00 L 671.00 281.00 L 672.00 280.00 L 673.00 280.00 L 674.00 280.00 L 675.00 280.00 L 676.00 280.00 L 677.00 280.00 L 678.00 280.00 L 679.00 279.00 L 680.00 279.00 L 681.00 279.00 L 682.00 279.00 L 683.00 279.00 L 684.00 279.00 L 685.00 279.00 L 686.00 279.00 L 687.00 279.00 L 688.00 279.00 L 689.00 278.00 L 690.00 278.00 L 691.00 278.00 L 692.00 278.00 L 693.00 278.00 L 694.00 278.00 L 695.00 278.00 L 696.00 278.00 L 697.00 278.00 L 698.00 278.00 L 699.00 277.00 L 700.00 277.00 L 701.00 276.00 L 701.00 275.00 L 702.00 274.00 L 702.00 273.00 L 702.00 272.00 L 702.00 271.00 L 702.00 270.00 L 701.00 269.00 L 701.00 268.00 L 700.00 268.00 L 699.00 267.00 L 698.00 266.00 L 697.00 266.00 L 696.00 266.00 Z M 728.00 262.00 L 727.00 263.00 L 726.00 264.00 L 725.00 265.00 L 724.00 266.00 L 724.00 267.00 L 723.00 268.00 L 722.00 269.00 L 722.00 270.00 L 721.00 271.00 L 721.00 272.00 L 720.00 273.00 L 720.00 274.00 L 719.00 275.00 L 718.00 276.00 L 718.00 277.00 L 718.00 278.00 L 717.00 279.00 L 717.00 280.00 L 716.00 281.00 L 715.00 282.00 L 715.00 283.00 L 714.00 284.00 L 714.00 285.00 L 713.00 286.00 L 713.00 287.00 L 712.00 288.00 L 712.00 289.00 L 711.00 290.00 L 711.00 291.00 L 710.00 292.00 L 710.00 293.00 L 709.00 294.00 L 709.00 295.00 L 708.00 296.00 L 707.00 297.00 L 707.00 298.00 L 706.00 299.00 L 706.00 300.00 L 705.00 301.00 L 705.00 302.00 L 704.00 303.00 L 704.00 304.00 L 703.00 305.00 L 703.00 306.00 L 702.00 307.00 L 702.00 308.00 L 701.00 309.00 L 701.00 310.00 L 700.00 311.00 L 699.00 312.00 L 699.00 313.00 L 698.00 314.00 L 698.00 315.00 L 697.00 316.00 L 697.00 317.00 L 696.00 318.00 L 696.00 319.00 L 695.00 320.00 L 694.00 321.00 L 694.00 322.00 L 693.00 323.00 L 693.00 324.00 L 692.00 325.00 L 692.00 326.00 L 691.00 327.00 L 691.00 328.00 L 690.00 329.00 L 690.00 330.00 L 689.00 331.00 L 689.00 332.00 L 688.00 333.00 L 688.00 334.00 L 687.00 335.00 L 687.00 336.00 L 686.00 337.00 L 685.00 338.00 L 684.00 338.00 L 683.00 338.00 L 682.00 338.00 L 681.00 338.00 L 681.00 339.00 L 681.00 340.00 L 682.00 341.00 L 683.00 342.00 L 683.00 343.00 L 683.00 344.00 L 682.00 345.00 L 682.00 346.00 L 681.00 347.00 L 681.00 348.00 L 680.00 349.00 L 680.00 350.00 L 679.00 351.00 L 679.00 352.00 L 678.00 353.00 L 678.00 354.00 L 677.00 355.00 L 677.00 356.00 L 676.00 357.00 L 676.00 358.00 L 675.00 359.00 L 675.00 360.00 L 674.00 361.00 L 674.00 362.00 L 673.00 363.00 L 673.00 364.00 L 673.00 365.00 L 672.00 366.00 L 672.00 367.00 L 671.00 368.00 L 671.00 369.00 L 670.00 370.00 L 670.00 371.00 L 669.00 372.00 L 669.00 373.00 L 668.00 374.00 L 668.00 375.00 L 667.00 376.00 L 667.00 377.00 L 666.00 378.00 L 666.00 379.00 L 665.00 380.00 L 665.00 381.00 L 665.00 382.00 L 664.00 383.00 L 664.00 384.00 L 663.00 385.00 L 663.00 386.00 L 662.00 387.00 L 662.00 388.00 L 661.00 389.00 L 661.00 390.00 L 660.00 391.00 L 660.00 392.00 L 659.00 393.00 L 659.00 394.00 L 658.00 395.00 L 658.00 396.00 L 658.00 397.00 L 657.00 398.00 L 657.00 399.00 L 656.00 400.00 L 656.00 401.00 L 655.00 402.00 L 655.00 403.00 L 654.00 404.00 L 654.00 405.00 L 653.00 406.00 L 653.00 407.00 L 653.00 408.00 L 652.00 409.00 L 652.00 410.00 L 651.00 411.00 L 651.00 412.00 L 650.00 413.00 L 650.00 414.00 L 649.00 415.00 L 649.00 416.00 L 648.00 417.00 L 648.00 418.00 L 647.00 419.00 L 647.00 420.00 L 647.00 421.00 L 646.00 422.00 L 646.00 423.00 L 645.00 424.00 L 645.00 425.00 L 644.00 426.00 L 644.00 427.00 L 644.00 428.00 L 643.00 429.00 L 642.00 430.00 L 642.00 431.00 L 642.00 432.00 L 641.00 433.00 L 641.00 434.00 L 641.00 435.00 L 640.00 436.00 L 640.00 437.00 L 639.00 438.00 L 639.00 439.00 L 638.00 440.00 L 638.00 441.00 L 637.00 442.00 L 637.00 443.00 L 636.00 444.00 L 636.00 445.00 L 636.00 446.00 L 635.00 447.00 L 635.00 448.00 L 635.00 449.00 L 634.00 450.00 L 634.00 451.00 L 633.00 452.00 L 633.00 453.00 L 632.00 454.00 L 632.00 455.00 L 632.00 456.00 L 631.00 457.00 L 631.00 458.00 L 631.00 459.00 L 630.00 460.00 L 630.00 461.00 L 630.00 462.00 L 630.00 463.00 L 630.00 464.00 L 630.00 465.00 L 631.00 466.00 L 632.00 467.00 L 633.00 468.00 L 634.00 468.00 L 635.00 468.00 L 636.00 467.00 L 637.00 467.00 L 638.00 466.00 L 639.00 465.00 L 640.00 464.00 L 641.00 463.00 L 642.00 462.00 L 643.00 461.00 L 644.00 460.00 L 645.00 459.00 L 646.00 458.00 L 646.00 457.00 L 647.00 456.00 L 648.00 455.00 L 649.00 454.00 L 649.00 453.00 L 650.00 452.00 L 651.00 451.00 L 652.00 450.00 L 653.00 449.00 L 653.00 448.00 L 654.00 447.00 L 655.00 446.00 L 656.00 445.00 L 657.00 444.00 L 657.00 443.00 L 658.00 442.00 L 659.00 441.00 L 660.00 440.00 L 661.00 439.00 L 662.00 438.00 L 662.00 437.00 L 663.00 436.00 L 664.00 435.00 L 665.00 434.00 L 666.00 433.00 L 667.00 432.00 L 668.00 431.00 L 668.00 430.00 L 669.00 429.00 L 670.00 428.00 L 671.00 427.00 L 672.00 426.00 L 673.00 425.00 L 674.00 424.00 L 675.00 423.00 L 676.00 422.00 L 677.00 421.00 L 678.00 420.00 L 679.00 419.00 L 680.00 418.00 L 681.00 417.00 L 682.00 416.00 L 683.00 415.00 L 684.00 414.00 L 685.00 413.00 L 686.00 412.00 L 687.00 411.00 L 688.00 410.00 L 689.00 410.00 L 690.00 409.00 L 691.00 408.00 L 692.00 407.00 L 693.00 407.00 L 694.00 406.00 L 695.00 405.00 L 696.00 405.00 L 697.00 404.00 L 698.00 403.00 L 699.00 402.00 L 700.00 401.00 L 701.00 401.00 L 702.00 402.00 L 702.00 403.00 L 701.00 404.00 L 701.00 405.00 L 701.00 406.00 L 700.00 407.00 L 700.00 408.00 L 700.00 409.00 L 699.00 410.00 L 699.00 411.00 L 698.00 412.00 L 698.00 413.00 L 698.00 414.00 L 697.00 415.00 L 697.00 416.00 L 697.00 417.00 L 696.00 418.00 L 696.00 419.00 L 695.00 420.00 L 695.00 421.00 L 695.00 422.00 L 694.00 423.00 L 694.00 424.00 L 694.00 425.00 L 693.00 426.00 L 693.00 427.00 L 693.00 428.00 L 693.00 429.00 L 692.00 430.00 L 692.00 431.00 L 692.00 432.00 L 692.00 433.00 L 691.00 434.00 L 691.00 435.00 L 691.00 436.00 L 691.00 437.00 L 691.00 438.00 L 691.00 439.00 L 691.00 440.00 L 691.00 441.00 L 691.00 442.00 L 691.00 443.00 L 690.00 444.00 L 690.00 445.00 L 690.00 446.00 L 690.00 447.00 L 690.00 448.00 L 690.00 449.00 L 691.00 450.00 L 691.00 451.00 L 691.00 452.00 L 692.00 453.00 L 692.00 454.00 L 693.00 455.00 L 694.00 456.00 L 694.00 457.00 L 695.00 458.00 L 696.00 458.00 L 697.00 459.00 L 698.00 459.00 L 699.00 460.00 L 700.00 460.00 L 701.00 460.00 L 702.00 460.00 L 703.00 460.00 L 704.00 460.00 L 705.00 460.00 L 706.00 460.00 L 707.00 460.00 L 708.00 460.00 L 709.00 459.00 L 710.00 459.00 L 711.00 459.00 L 712.00 458.00 L 713.00 458.00 L 714.00 457.00 L 715.00 457.00 L 716.00 456.00 L 717.00 456.00 L 718.00 455.00 L 719.00 454.00 L 720.00 453.00 L 721.00 453.00 L 722.00 452.00 L 723.00 451.00 L 724.00 450.00 L 725.00 449.00 L 726.00 448.00 L 727.00 447.00 L 728.00 447.00 L 729.00 446.00 L 730.00 445.00 L 731.00 444.00 L 731.00 443.00 L 732.00 442.00 L 733.00 442.00 L 734.00 443.00 L 734.00 444.00 L 734.00 445.00 L 734.00 446.00 L 734.00 447.00 L 734.00 448.00 L 734.00 449.00 L 734.00 450.00 L 735.00 451.00 L 735.00 452.00 L 735.00 453.00 L 736.00 454.00 L 737.00 455.00 L 738.00 456.00 L 739.00 456.00 L 740.00 457.00 L 741.00 457.00 L 742.00 457.00 L 743.00 458.00 L 744.00 458.00 L 745.00 458.00 L 746.00 458.00 L 747.00 458.00 L 748.00 458.00 L 749.00 458.00 L 750.00 457.00 L 751.00 457.00 L 752.00 457.00 L 753.00 456.00 L 754.00 456.00 L 755.00 455.00 L 756.00 455.00 L 757.00 454.00 L 758.00 454.00 L 759.00 453.00 L 760.00 452.00 L 761.00 451.00 L 762.00 451.00 L 763.00 450.00 L 764.00 449.00 L 765.00 448.00 L 766.00 447.00 L 767.00 446.00 L 768.00 445.00 L 769.00 444.00 L 770.00 443.00 L 771.00 442.00 L 772.00 441.00 L 773.00 440.00 L 773.00 439.00 L 774.00 438.00 L 775.00 437.00 L 776.00 437.00 L 777.00 438.00 L 777.00 439.00 L 777.00 440.00 L 777.00 441.00 L 777.00 442.00 L 777.00 443.00 L 777.00 444.00 L 778.00 445.00 L 778.00 446.00 L 778.00 447.00 L 779.00 448.00 L 780.00 449.00 L 781.00 449.00 L 782.00 450.00 L 783.00 450.00 L 784.00 450.00 L 785.00 451.00 L 786.00 451.00 L 787.00 451.00 L 788.00 451.00 L 789.00 451.00 L 790.00 451.00 L 791.00 451.00 L 792.00 451.00 L 793.00 450.00 L 794.00 450.00 L 795.00 450.00 L 796.00 449.00 L 797.00 449.00 L 798.00 449.00 L 799.00 448.00 L 800.00 447.00 L 801.00 447.00 L 802.00 446.00 L 803.00 445.00 L 804.00 444.00 L 805.00 443.00 L 806.00 442.00 L 807.00 441.00 L 808.00 440.00 L 809.00 439.00 L 810.00 438.00 L 811.00 437.00 L 812.00 436.00 L 813.00 435.00 L 814.00 434.00 L 815.00 433.00 L 816.00 432.00 L 817.00 431.00 L 818.00 430.00 L 819.00 429.00 L 820.00 428.00 L 821.00 427.00 L 821.00 426.00 L 822.00 425.00 L 823.00 424.00 L 824.00 423.00 L 824.00 422.00 L 825.00 421.00 L 826.00 420.00 L 827.00 419.00 L 828.00 418.00 L 828.00 417.00 L 829.00 416.00 L 830.00 417.00 L 830.00 418.00 L 830.00 419.00 L 829.00 420.00 L 829.00 421.00 L 829.00 422.00 L 828.00 423.00 L 828.00 424.00 L 828.00 425.00 L 827.00 426.00 L 827.00 427.00 L 827.00 428.00 L 826.00 429.00 L 826.00 430.00 L 826.00 431.00 L 825.00 432.00 L 825.00 433.00 L 824.00 434.00 L 824.00 435.00 L 824.00 436.00 L 823.00 437.00 L 823.00 438.00 L 823.00 439.00 L 822.00 440.00 L 822.00 441.00 L 822.00 442.00 L 822.00 443.00 L 822.00 444.00 L 822.00 445.00 L 821.00 446.00 L 821.00 447.00 L 822.00 448.00 L 822.00 449.00 L 823.00 450.00 L 824.00 451.00 L 825.00 451.00 L 826.00 451.00 L 827.00 451.00 L 828.00 451.00 L 829.00 450.00 L 830.00 449.00 L 831.00 448.00 L 832.00 447.00 L 833.00 446.00 L 834.00 445.00 L 834.00 444.00 L 835.00 443.00 L 836.00 442.00 L 837.00 441.00 L 837.00 440.00 L 838.00 439.00 L 839.00 438.00 L 839.00 437.00 L 840.00 436.00 L 841.00 435.00 L 842.00 434.00 L 842.00 433.00 L 843.00 432.00 L 844.00 431.00 L 844.00 430.00 L 845.00 429.00 L 846.00 428.00 L 847.00 427.00 L 847.00 426.00 L 848.00 425.00 L 849.00 424.00 L 850.00 423.00 L 851.00 422.00 L 852.00 421.00 L 853.00 420.00 L 853.00 419.00 L 854.00 418.00 L 855.00 417.00 L 856.00 416.00 L 857.00 415.00 L 858.00 414.00 L 859.00 413.00 L 860.00 412.00 L 861.00 411.00 L 862.00 410.00 L 863.00 409.00 L 864.00 408.00 L 865.00 407.00 L 866.00 406.00 L 867.00 405.00 L 868.00 404.00 L 869.00 403.00 L 870.00 402.00 L 871.00 401.00 L 872.00 400.00 L 873.00 399.00 L 874.00 398.00 L 875.00 397.00 L 876.00 397.00 L 877.00 396.00 L 878.00 395.00 L 879.00 395.00 L 880.00 394.00 L 881.00 393.00 L 882.00 392.00 L 883.00 393.00 L 883.00 394.00 L 883.00 395.00 L 882.00 396.00 L 882.00 397.00 L 882.00 398.00 L 881.00 399.00 L 881.00 400.00 L 880.00 401.00 L 880.00 402.00 L 880.00 403.00 L 879.00 404.00 L 879.00 405.00 L 878.00 406.00 L 878.00 407.00 L 878.00 408.00 L 877.00 409.00 L 877.00 410.00 L 876.00 411.00 L 876.00 412.00 L 876.00 413.00 L 875.00 414.00 L 875.00 415.00 L 874.00 416.00 L 874.00 417.00 L 874.00 418.00 L 874.00 419.00 L 873.00 420.00 L 873.00 421.00 L 873.00 422.00 L 873.00 423.00 L 872.00 424.00 L 872.00 425.00 L 872.00 426.00 L 872.00 427.00 L 872.00 428.00 L 872.00 429.00 L 872.00 430.00 L 872.00 431.00 L 872.00 432.00 L 872.00 433.00 L 872.00 434.00 L 872.00 435.00 L 872.00 436.00 L 872.00 437.00 L 872.00 438.00 L 873.00 439.00 L 873.00 440.00 L 874.00 441.00 L 875.00 442.00 L 876.00 443.00 L 877.00 444.00 L 878.00 444.00 L 879.00 445.00 L 880.00 445.00 L 881.00 446.00 L 882.00 446.00 L 883.00 446.00 L 884.00 446.00 L 885.00 446.00 L 886.00 445.00 L 887.00 445.00 L 888.00 445.00 L 889.00 445.00 L 890.00 444.00 L 891.00 444.00 L 892.00 443.00 L 893.00 443.00 L 894.00 442.00 L 895.00 441.00 L 896.00 440.00 L 897.00 440.00 L 898.00 439.00 L 899.00 438.00 L 900.00 437.00 L 900.00 436.00 L 900.00 435.00 L 900.00 434.00 L 900.00 433.00 L 900.00 432.00 L 899.00 431.00 L 898.00 431.00 L 897.00 431.00 L 896.00 431.00 L 895.00 431.00 L 894.00 432.00 L 893.00 432.00 L 892.00 433.00 L 891.00 433.00 L 890.00 433.00 L 889.00 434.00 L 888.00 434.00 L 887.00 435.00 L 886.00 435.00 L 885.00 435.00 L 884.00 435.00 L 883.00 435.00 L 882.00 434.00 L 882.00 433.00 L 882.00 432.00 L 882.00 431.00 L 882.00 430.00 L 882.00 429.00 L 882.00 428.00 L 883.00 427.00 L 883.00 426.00 L 883.00 425.00 L 883.00 424.00 L 884.00 423.00 L 884.00 422.00 L 884.00 421.00 L 884.00 420.00 L 885.00 419.00 L 885.00 418.00 L 885.00 417.00 L 886.00 416.00 L 886.00 415.00 L 886.00 414.00 L 887.00 413.00 L 887.00 412.00 L 888.00 411.00 L 888.00 410.00 L 889.00 409.00 L 889.00 408.00 L 889.00 407.00 L 890.00 406.00 L 890.00 405.00 L 891.00 404.00 L 891.00 403.00 L 892.00 402.00 L 892.00 401.00 L 893.00 400.00 L 893.00 399.00 L 893.00 398.00 L 894.00 397.00 L 894.00 396.00 L 894.00 395.00 L 895.00 394.00 L 895.00 393.00 L 895.00 392.00 L 895.00 391.00 L 895.00 390.00 L 895.00 389.00 L 895.00 388.00 L 895.00 387.00 L 895.00 386.00 L 895.00 385.00 L 895.00 384.00 L 894.00 383.00 L 894.00 382.00 L 893.00 381.00 L 892.00 381.00 L 891.00 380.00 L 890.00 380.00 L 889.00 379.00 L 888.00 379.00 L 887.00 380.00 L 886.00 380.00 L 885.00 380.00 L 884.00 380.00 L 883.00 381.00 L 882.00 381.00 L 881.00 381.00 L 880.00 382.00 L 879.00 382.00 L 878.00 383.00 L 877.00 383.00 L 876.00 384.00 L 875.00 385.00 L 874.00 386.00 L 873.00 386.00 L 872.00 387.00 L 871.00 388.00 L 870.00 389.00 L 869.00 390.00 L 868.00 391.00 L 867.00 392.00 L 866.00 392.00 L 865.00 393.00 L 864.00 394.00 L 863.00 395.00 L 862.00 396.00 L 861.00 397.00 L 860.00 398.00 L 860.00 399.00 L 859.00 400.00 L 858.00 401.00 L 857.00 402.00 L 856.00 403.00 L 855.00 404.00 L 854.00 405.00 L 853.00 406.00 L 852.00 407.00 L 851.00 408.00 L 850.00 409.00 L 849.00 410.00 L 848.00 411.00 L 848.00 412.00 L 847.00 413.00 L 846.00 414.00 L 845.00 415.00 L 844.00 416.00 L 843.00 415.00 L 843.00 414.00 L 843.00 413.00 L 844.00 412.00 L 844.00 411.00 L 845.00 410.00 L 845.00 409.00 L 846.00 408.00 L 846.00 407.00 L 847.00 406.00 L 847.00 405.00 L 848.00 404.00 L 848.00 403.00 L 848.00 402.00 L 849.00 401.00 L 849.00 400.00 L 849.00 399.00 L 850.00 398.00 L 850.00 397.00 L 850.00 396.00 L 851.00 395.00 L 851.00 394.00 L 852.00 393.00 L 852.00 392.00 L 852.00 391.00 L 852.00 390.00 L 853.00 389.00 L 853.00 388.00 L 853.00 387.00 L 853.00 386.00 L 853.00 385.00 L 853.00 384.00 L 853.00 383.00 L 853.00 382.00 L 852.00 381.00 L 851.00 381.00 L 850.00 381.00 L 849.00 380.00 L 848.00 380.00 L 847.00 381.00 L 846.00 381.00 L 845.00 381.00 L 845.00 382.00 L 844.00 383.00 L 843.00 384.00 L 843.00 385.00 L 842.00 386.00 L 842.00 387.00 L 841.00 388.00 L 840.00 389.00 L 840.00 390.00 L 839.00 391.00 L 838.00 392.00 L 838.00 393.00 L 837.00 394.00 L 837.00 395.00 L 836.00 396.00 L 835.00 397.00 L 835.00 398.00 L 834.00 399.00 L 833.00 400.00 L 832.00 401.00 L 832.00 402.00 L 831.00 403.00 L 830.00 403.00 L 829.00 404.00 L 828.00 405.00 L 827.00 406.00 L 826.00 407.00 L 825.00 408.00 L 825.00 409.00 L 824.00 410.00 L 823.00 411.00 L 822.00 412.00 L 821.00 413.00 L 820.00 414.00 L 819.00 415.00 L 818.00 416.00 L 817.00 417.00 L 816.00 418.00 L 815.00 419.00 L 815.00 420.00 L 814.00 421.00 L 813.00 422.00 L 812.00 423.00 L 811.00 424.00 L 810.00 425.00 L 809.00 426.00 L 808.00 427.00 L 807.00 428.00 L 806.00 429.00 L 805.00 430.00 L 804.00 431.00 L 803.00 432.00 L 802.00 433.00 L 801.00 434.00 L 800.00 435.00 L 799.00 436.00 L 798.00 436.00 L 797.00 437.00 L 796.00 438.00 L 795.00 438.00 L 794.00 439.00 L 793.00 440.00 L 792.00 440.00 L 791.00 440.00 L 790.00 440.00 L 789.00 439.00 L 789.00 438.00 L 788.00 437.00 L 788.00 436.00 L 788.00 435.00 L 788.00 434.00 L 788.00 433.00 L 788.00 432.00 L 789.00 431.00 L 789.00 430.00 L 789.00 429.00 L 789.00 428.00 L 789.00 427.00 L 790.00 426.00 L 790.00 425.00 L 790.00 424.00 L 790.00 423.00 L 791.00 422.00 L 791.00 421.00 L 791.00 420.00 L 792.00 419.00 L 792.00 418.00 L 792.00 417.00 L 793.00 416.00 L 793.00 415.00 L 793.00 414.00 L 794.00 413.00 L 794.00 412.00 L 794.00 411.00 L 795.00 410.00 L 795.00 409.00 L 796.00 408.00 L 796.00 407.00 L 797.00 406.00 L 797.00 405.00 L 798.00 404.00 L 798.00 403.00 L 799.00 402.00 L 799.00 401.00 L 800.00 400.00 L 800.00 399.00 L 801.00 398.00 L 801.00 397.00 L 802.00 396.00 L 802.00 395.00 L 803.00 394.00 L 804.00 393.00 L 805.00 392.00 L 806.00 391.00 L 807.00 390.00 L 808.00 389.00 L 808.00 388.00 L 808.00 387.00 L 807.00 386.00 L 807.00 385.00 L 806.00 384.00 L 805.00 384.00 L 804.00 384.00 L 803.00 384.00 L 802.00 384.00 L 801.00 384.00 L 800.00 384.00 L 799.00 385.00 L 798.00 385.00 L 798.00 386.00 L 797.00 387.00 L 796.00 387.00 L 795.00 387.00 L 794.00 386.00 L 793.00 385.00 L 793.00 384.00 L 792.00 384.00 L 791.00 383.00 L 790.00 382.00 L 789.00 382.00 L 788.00 381.00 L 787.00 381.00 L 786.00 381.00 L 785.00 381.00 L 784.00 381.00 L 783.00 381.00 L 782.00 381.00 L 781.00 382.00 L 780.00 382.00 L 779.00 383.00 L 778.00 383.00 L 777.00 384.00 L 776.00 384.00 L 775.00 384.00 L 774.00 385.00 L 773.00 386.00 L 772.00 387.00 L 771.00 387.00 L 770.00 388.00 L 769.00 389.00 L 768.00 389.00 L 767.00 390.00 L 766.00 390.00 L 765.00 391.00 L 764.00 392.00 L 763.00 393.00 L 762.00 394.00 L 761.00 395.00 L 760.00 396.00 L 759.00 397.00 L 758.00 398.00 L 757.00 399.00 L 756.00 400.00 L 755.00 401.00 L 754.00 402.00 L 753.00 403.00 L 752.00 404.00 L 752.00 405.00 L 751.00 406.00 L 750.00 407.00 L 749.00 408.00 L 748.00 409.00 L 747.00 410.00 L 746.00 411.00 L 746.00 412.00 L 745.00 413.00 L 744.00 414.00 L 743.00 415.00 L 742.00 416.00 L 741.00 417.00 L 741.00 418.00 L 740.00 419.00 L 739.00 420.00 L 738.00 421.00 L 737.00 422.00 L 737.00 423.00 L 736.00 424.00 L 735.00 425.00 L 735.00 426.00 L 734.00 427.00 L 733.00 428.00 L 732.00 429.00 L 731.00 430.00 L 730.00 431.00 L 729.00 432.00 L 728.00 433.00 L 727.00 434.00 L 726.00 435.00 L 725.00 436.00 L 724.00 437.00 L 723.00 438.00 L 722.00 438.00 L 721.00 439.00 L 720.00 440.00 L 719.00 441.00 L 718.00 442.00 L 717.00 443.00 L 716.00 443.00 L 715.00 444.00 L 714.00 445.00 L 713.00 446.00 L 712.00 446.00 L 711.00 447.00 L 710.00 448.00 L 709.00 448.00 L 708.00 449.00 L 707.00 449.00 L 706.00 450.00 L 705.00 450.00 L 704.00 450.00 L 703.00 450.00 L 702.00 449.00 L 701.00 448.00 L 701.00 447.00 L 701.00 446.00 L 701.00 445.00 L 701.00 444.00 L 701.00 443.00 L 701.00 442.00 L 701.00 441.00 L 701.00 440.00 L 701.00 439.00 L 701.00 438.00 L 702.00 437.00 L 702.00 436.00 L 702.00 435.00 L 702.00 434.00 L 702.00 433.00 L 703.00 432.00 L 703.00 431.00 L 703.00 430.00 L 704.00 429.00 L 704.00 428.00 L 704.00 427.00 L 704.00 426.00 L 705.00 425.00 L 705.00 424.00 L 705.00 423.00 L 706.00 422.00 L 706.00 421.00 L 706.00 420.00 L 707.00 419.00 L 707.00 418.00 L 708.00 417.00 L 708.00 416.00 L 708.00 415.00 L 709.00 414.00 L 709.00 413.00 L 709.00 412.00 L 710.00 411.00 L 710.00 410.00 L 711.00 409.00 L 711.00 408.00 L 711.00 407.00 L 712.00 406.00 L 712.00 405.00 L 712.00 404.00 L 713.00 403.00 L 713.00 402.00 L 713.00 401.00 L 713.00 400.00 L 713.00 399.00 L 713.00 398.00 L 713.00 397.00 L 713.00 396.00 L 713.00 395.00 L 713.00 394.00 L 713.00 393.00 L 712.00 392.00 L 711.00 391.00 L 711.00 390.00 L 710.00 390.00 L 709.00 389.00 L 708.00 389.00 L 707.00 389.00 L 706.00 389.00 L 705.00 389.00 L 704.00 389.00 L 703.00 389.00 L 702.00 390.00 L 701.00 390.00 L 700.00 390.00 L 699.00 391.00 L 698.00 391.00 L 697.00 392.00 L 696.00 393.00 L 695.00 393.00 L 694.00 394.00 L 693.00 395.00 L 692.00 396.00 L 691.00 397.00 L 690.00 397.00 L 689.00 398.00 L 688.00 399.00 L 687.00 400.00 L 686.00 400.00 L 685.00 401.00 L 684.00 402.00 L 683.00 402.00 L 682.00 403.00 L 681.00 404.00 L 680.00 405.00 L 679.00 406.00 L 678.00 407.00 L 677.00 408.00 L 676.00 409.00 L 675.00 410.00 L 674.00 411.00 L 673.00 412.00 L 672.00 413.00 L 671.00 414.00 L 670.00 415.00 L 669.00 416.00 L 668.00 417.00 L 667.00 418.00 L 666.00 419.00 L 665.00 420.00 L 664.00 421.00 L 663.00 422.00 L 662.00 423.00 L 661.00 424.00 L 660.00 425.00 L 659.00 426.00 L 658.00 427.00 L 657.00 428.00 L 656.00 429.00 L 655.00 428.00 L 655.00 427.00 L 655.00 426.00 L 656.00 425.00 L 657.00 424.00 L 657.00 423.00 L 657.00 422.00 L 658.00 421.00 L 658.00 420.00 L 659.00 419.00 L 659.00 418.00 L 659.00 417.00 L 660.00 416.00 L 660.00 415.00 L 661.00 414.00 L 661.00 413.00 L 662.00 412.00 L 662.00 411.00 L 663.00 410.00 L 663.00 409.00 L 664.00 408.00 L 664.00 407.00 L 664.00 406.00 L 665.00 405.00 L 665.00 404.00 L 666.00 403.00 L 666.00 402.00 L 667.00 401.00 L 667.00 400.00 L 668.00 399.00 L 668.00 398.00 L 669.00 397.00 L 669.00 396.00 L 670.00 395.00 L 670.00 394.00 L 670.00 393.00 L 671.00 392.00 L 671.00 391.00 L 672.00 390.00 L 672.00 389.00 L 673.00 388.00 L 673.00 387.00 L 674.00 386.00 L 674.00 385.00 L 675.00 384.00 L 675.00 383.00 L 676.00 382.00 L 676.00 381.00 L 677.00 380.00 L 677.00 379.00 L 677.00 378.00 L 678.00 377.00 L 678.00 376.00 L 679.00 375.00 L 679.00 374.00 L 680.00 373.00 L 680.00 372.00 L 681.00 371.00 L 681.00 370.00 L 682.00 369.00 L 682.00 368.00 L 683.00 367.00 L 683.00 366.00 L 684.00 365.00 L 684.00 364.00 L 685.00 363.00 L 685.00 362.00 L 686.00 361.00 L 686.00 360.00 L 687.00 359.00 L 687.00 358.00 L 688.00 357.00 L 688.00 356.00 L 689.00 355.00 L 689.00 354.00 L 690.00 353.00 L 690.00 352.00 L 691.00 351.00 L 691.00 350.00 L 692.00 349.00 L 692.00 348.00 L 693.00 347.00 L 693.00 346.00 L 694.00 345.00 L 694.00 344.00 L 695.00 343.00 L 695.00 342.00 L 696.00 341.00 L 696.00 340.00 L 697.00 339.00 L 697.00 338.00 L 698.00 337.00 L 698.00 336.00 L 699.00 335.00 L 699.00 334.00 L 700.00 333.00 L 700.00 332.00 L 701.00 331.00 L 701.00 330.00 L 702.00 329.00 L 702.00 328.00 L 703.00 327.00 L 703.00 326.00 L 704.00 325.00 L 704.00 324.00 L 705.00 323.00 L 706.00 322.00 L 706.00 321.00 L 707.00 320.00 L 707.00 319.00 L 708.00 318.00 L 708.00 317.00 L 709.00 316.00 L 709.00 315.00 L 710.00 314.00 L 710.00 313.00 L 711.00 312.00 L 711.00 311.00 L 712.00 310.00 L 712.00 309.00 L 713.00 308.00 L 714.00 307.00 L 714.00 306.00 L 715.00 305.00 L 715.00 304.00 L 716.00 303.00 L 716.00 302.00 L 717.00 301.00 L 717.00 300.00 L 718.00 299.00 L 718.00 298.00 L 719.00 297.00 L 719.00 296.00 L 720.00 295.00 L 721.00 294.00 L 721.00 293.00 L 722.00 292.00 L 722.00 291.00 L 723.00 290.00 L 723.00 289.00 L 724.00 288.00 L 724.00 287.00 L 725.00 286.00 L 725.00 285.00 L 726.00 284.00 L 727.00 283.00 L 727.00 282.00 L 728.00 281.00 L 728.00 280.00 L 729.00 279.00 L 729.00 278.00 L 730.00 277.00 L 730.00 276.00 L 731.00 275.00 L 731.00 274.00 L 732.00 273.00 L 733.00 272.00 L 733.00 271.00 L 734.00 270.00 L 734.00 269.00 L 735.00 268.00 L 735.00 267.00 L 735.00 266.00 L 735.00 265.00 L 735.00 264.00 L 734.00 263.00 L 733.00 262.00 L 732.00 262.00 L 731.00 262.00 L 730.00 262.00 L 729.00 262.00 Z M 654.00 429.00 L 655.00 428.00 L 656.00 429.00 L 655.00 430.00 Z M 780.00 392.00 L 781.00 391.00 L 782.00 391.00 L 783.00 391.00 L 784.00 391.00 L 785.00 392.00 L 786.00 393.00 L 786.00 394.00 L 786.00 395.00 L 786.00 396.00 L 786.00 397.00 L 786.00 398.00 L 786.00 399.00 L 786.00 400.00 L 785.00 401.00 L 785.00 402.00 L 785.00 403.00 L 785.00 404.00 L 784.00 405.00 L 784.00 406.00 L 784.00 407.00 L 783.00 408.00 L 783.00 409.00 L 783.00 410.00 L 782.00 411.00 L 781.00 412.00 L 781.00 413.00 L 781.00 414.00 L 780.00 415.00 L 780.00 416.00 L 779.00 417.00 L 779.00 418.00 L 778.00 419.00 L 777.00 420.00 L 776.00 421.00 L 776.00 422.00 L 775.00 423.00 L 774.00 424.00 L 773.00 425.00 L 772.00 426.00 L 771.00 427.00 L 770.00 428.00 L 769.00 429.00 L 768.00 430.00 L 768.00 431.00 L 767.00 432.00 L 766.00 433.00 L 765.00 434.00 L 764.00 435.00 L 763.00 436.00 L 762.00 437.00 L 761.00 437.00 L 760.00 438.00 L 759.00 439.00 L 758.00 440.00 L 757.00 441.00 L 756.00 442.00 L 755.00 442.00 L 754.00 443.00 L 753.00 444.00 L 752.00 445.00 L 751.00 445.00 L 750.00 446.00 L 749.00 447.00 L 748.00 447.00 L 747.00 447.00 L 746.00 447.00 L 745.00 446.00 L 744.00 445.00 L 744.00 444.00 L 744.00 443.00 L 745.00 442.00 L 745.00 441.00 L 745.00 440.00 L 745.00 439.00 L 745.00 438.00 L 745.00 437.00 L 746.00 436.00 L 746.00 435.00 L 746.00 434.00 L 747.00 433.00 L 747.00 432.00 L 748.00 431.00 L 748.00 430.00 L 748.00 429.00 L 749.00 428.00 L 749.00 427.00 L 750.00 426.00 L 750.00 425.00 L 751.00 424.00 L 751.00 423.00 L 752.00 422.00 L 752.00 421.00 L 753.00 420.00 L 754.00 419.00 L 754.00 418.00 L 755.00 417.00 L 755.00 416.00 L 756.00 415.00 L 757.00 414.00 L 757.00 413.00 L 758.00 412.00 L 759.00 411.00 L 760.00 410.00 L 760.00 409.00 L 761.00 408.00 L 762.00 407.00 L 763.00 406.00 L 764.00 405.00 L 765.00 404.00 L 766.00 403.00 L 767.00 402.00 L 768.00 401.00 L 769.00 400.00 L 770.00 399.00 L 771.00 398.00 L 772.00 397.00 L 773.00 396.00 L 774.00 396.00 L 775.00 395.00 L 776.00 394.00 L 777.00 393.00 L 778.00 393.00 L 779.00 392.00 Z M 990.00 259.00 L 989.00 260.00 L 988.00 260.00 L 987.00 261.00 L 986.00 262.00 L 985.00 263.00 L 985.00 264.00 L 984.00 265.00 L 984.00 266.00 L 983.00 267.00 L 983.00 268.00 L 982.00 269.00 L 982.00 270.00 L 981.00 271.00 L 981.00 272.00 L 980.00 273.00 L 980.00 274.00 L 980.00 275.00 L 979.00 276.00 L 979.00 277.00 L 978.00 278.00 L 978.00 279.00 L 977.00 280.00 L 977.00 281.00 L 976.00 282.00 L 976.00 283.00 L 975.00 284.00 L 975.00 285.00 L 975.00 286.00 L 974.00 287.00 L 974.00 288.00 L 973.00 289.00 L 973.00 290.00 L 972.00 291.00 L 972.00 292.00 L 971.00 293.00 L 971.00 294.00 L 970.00 295.00 L 970.00 296.00 L 970.00 297.00 L 969.00 298.00 L 969.00 299.00 L 968.00 300.00 L 968.00 301.00 L 967.00 302.00 L 967.00 303.00 L 967.00 304.00 L 966.00 305.00 L 966.00 306.00 L 965.00 307.00 L 965.00 308.00 L 964.00 309.00 L 964.00 310.00 L 964.00 311.00 L 963.00 312.00 L 963.00 313.00 L 962.00 314.00 L 962.00 315.00 L 961.00 316.00 L 961.00 317.00 L 961.00 318.00 L 960.00 319.00 L 960.00 320.00 L 959.00 321.00 L 959.00 322.00 L 959.00 323.00 L 958.00 324.00 L 958.00 325.00 L 957.00 326.00 L 957.00 327.00 L 956.00 328.00 L 956.00 329.00 L 956.00 330.00 L 955.00 331.00 L 955.00 332.00 L 954.00 333.00 L 954.00 334.00 L 954.00 335.00 L 953.00 336.00 L 953.00 337.00 L 952.00 338.00 L 952.00 339.00 L 951.00 340.00 L 951.00 341.00 L 950.00 342.00 L 950.00 343.00 L 949.00 344.00 L 949.00 345.00 L 949.00 346.00 L 948.00 347.00 L 948.00 348.00 L 947.00 349.00 L 947.00 350.00 L 946.00 351.00 L 946.00 352.00 L 945.00 353.00 L 945.00 354.00 L 944.00 355.00 L 944.00 356.00 L 944.00 357.00 L 943.00 358.00 L 943.00 359.00 L 942.00 360.00 L 942.00 361.00 L 941.00 362.00 L 941.00 363.00 L 941.00 364.00 L 940.00 365.00 L 940.00 366.00 L 939.00 367.00 L 939.00 368.00 L 938.00 369.00 L 938.00 370.00 L 937.00 371.00 L 937.00 372.00 L 936.00 373.00 L 936.00 374.00 L 936.00 375.00 L 935.00 376.00 L 935.00 377.00 L 934.00 378.00 L 934.00 379.00 L 933.00 380.00 L 933.00 381.00 L 932.00 382.00 L 932.00 383.00 L 932.00 384.00 L 931.00 385.00 L 931.00 386.00 L 930.00 387.00 L 930.00 388.00 L 929.00 389.00 L 929.00 390.00 L 928.00 391.00 L 928.00 392.00 L 927.00 393.00 L 927.00 394.00 L 926.00 395.00 L 926.00 396.00 L 926.00 397.00 L 925.00 398.00 L 925.00 399.00 L 924.00 400.00 L 924.00 401.00 L 923.00 402.00 L 923.00 403.00 L 923.00 404.00 L 922.00 405.00 L 922.00 406.00 L 921.00 407.00 L 921.00 408.00 L 921.00 409.00 L 920.00 410.00 L 920.00 411.00 L 919.00 412.00 L 919.00 413.00 L 918.00 414.00 L 918.00 415.00 L 917.00 416.00 L 917.00 417.00 L 916.00 418.00 L 916.00 419.00 L 916.00 420.00 L 915.00 421.00 L 915.00 422.00 L 915.00 423.00 L 915.00 424.00 L 914.00 425.00 L 914.00 426.00 L 913.00 427.00 L 913.00 428.00 L 912.00 429.00 L 912.00 430.00 L 911.00 431.00 L 911.00 432.00 L 910.00 433.00 L 910.00 434.00 L 909.00 435.00 L 909.00 436.00 L 908.00 437.00 L 908.00 438.00 L 908.00 439.00 L 908.00 440.00 L 907.00 441.00 L 907.00 442.00 L 907.00 443.00 L 907.00 444.00 L 907.00 445.00 L 907.00 446.00 L 908.00 447.00 L 909.00 447.00 L 910.00 448.00 L 911.00 448.00 L 912.00 448.00 L 913.00 447.00 L 914.00 447.00 L 915.00 446.00 L 916.00 445.00 L 916.00 444.00 L 917.00 443.00 L 917.00 442.00 L 918.00 441.00 L 918.00 440.00 L 919.00 439.00 L 919.00 438.00 L 920.00 437.00 L 920.00 436.00 L 921.00 435.00 L 921.00 434.00 L 922.00 433.00 L 922.00 432.00 L 923.00 431.00 L 923.00 430.00 L 924.00 429.00 L 925.00 428.00 L 925.00 427.00 L 926.00 426.00 L 926.00 425.00 L 927.00 424.00 L 927.00 423.00 L 928.00 422.00 L 928.00 421.00 L 929.00 420.00 L 930.00 419.00 L 930.00 418.00 L 930.00 417.00 L 931.00 416.00 L 932.00 415.00 L 932.00 414.00 L 933.00 413.00 L 933.00 412.00 L 934.00 411.00 L 935.00 410.00 L 935.00 409.00 L 936.00 408.00 L 937.00 407.00 L 938.00 408.00 L 938.00 409.00 L 937.00 410.00 L 937.00 411.00 L 937.00 412.00 L 937.00 413.00 L 937.00 414.00 L 938.00 415.00 L 938.00 416.00 L 939.00 417.00 L 940.00 418.00 L 941.00 419.00 L 942.00 420.00 L 943.00 421.00 L 944.00 422.00 L 944.00 423.00 L 945.00 424.00 L 945.00 425.00 L 946.00 426.00 L 947.00 427.00 L 947.00 428.00 L 948.00 429.00 L 949.00 430.00 L 949.00 431.00 L 950.00 432.00 L 951.00 433.00 L 952.00 434.00 L 953.00 435.00 L 954.00 436.00 L 955.00 437.00 L 956.00 438.00 L 957.00 439.00 L 958.00 440.00 L 959.00 440.00 L 960.00 441.00 L 961.00 442.00 L 962.00 442.00 L 963.00 443.00 L 964.00 443.00 L 965.00 444.00 L 966.00 444.00 L 967.00 445.00 L 968.00 445.00 L 969.00 445.00 L 970.00 445.00 L 971.00 446.00 L 972.00 446.00 L 973.00 446.00 L 974.00 446.00 L 975.00 446.00 L 976.00 447.00 L 977.00 447.00 L 978.00 447.00 L 979.00 447.00 L 980.00 447.00 L 981.00 447.00 L 982.00 447.00 L 983.00 447.00 L 984.00 447.00 L 985.00 446.00 L 986.00 446.00 L 987.00 446.00 L 988.00 446.00 L 989.00 446.00 L 990.00 445.00 L 991.00 445.00 L 992.00 445.00 L 993.00 445.00 L 994.00 444.00 L 995.00 444.00 L 996.00 444.00 L 997.00 443.00 L 998.00 443.00 L 999.00 442.00 L 1000.00 442.00 L 1001.00 441.00 L 1002.00 441.00 L 1003.00 440.00 L 1004.00 440.00 L 1005.00 439.00 L 1006.00 438.00 L 1007.00 438.00 L 1008.00 437.00 L 1009.00 436.00 L 1010.00 435.00 L 1011.00 434.00 L 1012.00 434.00 L 1013.00 433.00 L 1014.00 432.00 L 1015.00 432.00 L 1016.00 431.00 L 1017.00 430.00 L 1018.00 429.00 L 1019.00 428.00 L 1020.00 427.00 L 1020.00 426.00 L 1020.00 425.00 L 1020.00 424.00 L 1020.00 423.00 L 1019.00 422.00 L 1018.00 423.00 L 1017.00 423.00 L 1016.00 423.00 L 1015.00 424.00 L 1014.00 424.00 L 1013.00 425.00 L 1012.00 425.00 L 1011.00 426.00 L 1010.00 427.00 L 1009.00 427.00 L 1008.00 428.00 L 1007.00 429.00 L 1006.00 429.00 L 1005.00 430.00 L 1004.00 431.00 L 1003.00 431.00 L 1002.00 432.00 L 1001.00 432.00 L 1000.00 432.00 L 999.00 433.00 L 998.00 433.00 L 997.00 433.00 L 996.00 434.00 L 995.00 434.00 L 994.00 434.00 L 993.00 435.00 L 992.00 435.00 L 991.00 435.00 L 990.00 436.00 L 989.00 436.00 L 988.00 436.00 L 987.00 436.00 L 986.00 437.00 L 985.00 437.00 L 984.00 437.00 L 983.00 437.00 L 982.00 437.00 L 981.00 437.00 L 980.00 437.00 L 979.00 437.00 L 978.00 437.00 L 977.00 437.00 L 976.00 437.00 L 975.00 437.00 L 974.00 436.00 L 973.00 436.00 L 972.00 436.00 L 971.00 435.00 L 970.00 435.00 L 969.00 434.00 L 968.00 434.00 L 967.00 433.00 L 966.00 433.00 L 965.00 432.00 L 964.00 431.00 L 963.00 430.00 L 962.00 429.00 L 961.00 428.00 L 960.00 427.00 L 959.00 426.00 L 958.00 425.00 L 957.00 424.00 L 956.00 423.00 L 956.00 422.00 L 955.00 421.00 L 954.00 420.00 L 953.00 419.00 L 953.00 418.00 L 952.00 417.00 L 951.00 416.00 L 951.00 415.00 L 952.00 414.00 L 953.00 414.00 L 954.00 413.00 L 955.00 413.00 L 956.00 413.00 L 957.00 412.00 L 958.00 412.00 L 959.00 411.00 L 960.00 411.00 L 961.00 410.00 L 962.00 410.00 L 963.00 409.00 L 964.00 408.00 L 965.00 408.00 L 966.00 407.00 L 967.00 407.00 L 968.00 406.00 L 969.00 405.00 L 970.00 405.00 L 971.00 404.00 L 972.00 404.00 L 973.00 403.00 L 974.00 402.00 L 975.00 402.00 L 976.00 401.00 L 977.00 400.00 L 978.00 400.00 L 979.00 399.00 L 980.00 398.00 L 981.00 398.00 L 982.00 397.00 L 983.00 396.00 L 984.00 395.00 L 985.00 394.00 L 986.00 393.00 L 987.00 392.00 L 988.00 391.00 L 989.00 390.00 L 989.00 389.00 L 990.00 388.00 L 991.00 387.00 L 992.00 386.00 L 992.00 385.00 L 993.00 384.00 L 993.00 383.00 L 994.00 382.00 L 994.00 381.00 L 995.00 380.00 L 995.00 379.00 L 996.00 378.00 L 996.00 377.00 L 997.00 376.00 L 997.00 375.00 L 997.00 374.00 L 997.00 373.00 L 997.00 372.00 L 998.00 371.00 L 998.00 370.00 L 998.00 369.00 L 998.00 368.00 L 998.00 367.00 L 999.00 366.00 L 999.00 365.00 L 999.00 364.00 L 999.00 363.00 L 998.00 362.00 L 998.00 361.00 L 998.00 360.00 L 998.00 359.00 L 998.00 358.00 L 997.00 357.00 L 997.00 356.00 L 996.00 355.00 L 995.00 354.00 L 994.00 354.00 L 993.00 353.00 L 992.00 353.00 L 991.00 352.00 L 990.00 352.00 L 989.00 352.00 L 988.00 353.00 L 987.00 353.00 L 986.00 353.00 L 985.00 353.00 L 984.00 354.00 L 983.00 354.00 L 982.00 355.00 L 981.00 356.00 L 980.00 356.00 L 979.00 357.00 L 978.00 357.00 L 977.00 358.00 L 976.00 358.00 L 975.00 359.00 L 974.00 360.00 L 973.00 360.00 L 972.00 361.00 L 971.00 362.00 L 970.00 363.00 L 969.00 363.00 L 968.00 364.00 L 967.00 365.00 L 966.00 366.00 L 965.00 366.00 L 964.00 367.00 L 963.00 368.00 L 962.00 369.00 L 961.00 370.00 L 960.00 371.00 L 959.00 372.00 L 958.00 373.00 L 957.00 374.00 L 956.00 375.00 L 955.00 376.00 L 954.00 376.00 L 953.00 377.00 L 952.00 378.00 L 951.00 379.00 L 950.00 380.00 L 949.00 381.00 L 948.00 382.00 L 948.00 383.00 L 947.00 384.00 L 946.00 385.00 L 945.00 386.00 L 944.00 387.00 L 943.00 386.00 L 943.00 385.00 L 943.00 384.00 L 944.00 383.00 L 944.00 382.00 L 945.00 381.00 L 945.00 380.00 L 946.00 379.00 L 946.00 378.00 L 947.00 377.00 L 947.00 376.00 L 948.00 375.00 L 948.00 374.00 L 948.00 373.00 L 949.00 372.00 L 949.00 371.00 L 950.00 370.00 L 950.00 369.00 L 950.00 368.00 L 951.00 367.00 L 951.00 366.00 L 952.00 365.00 L 952.00 364.00 L 953.00 363.00 L 953.00 362.00 L 953.00 361.00 L 954.00 360.00 L 954.00 359.00 L 955.00 358.00 L 955.00 357.00 L 956.00 356.00 L 956.00 355.00 L 957.00 354.00 L 957.00 353.00 L 958.00 352.00 L 958.00 351.00 L 959.00 350.00 L 959.00 349.00 L 960.00 348.00 L 960.00 347.00 L 960.00 346.00 L 961.00 345.00 L 961.00 344.00 L 962.00 343.00 L 962.00 342.00 L 962.00 341.00 L 963.00 340.00 L 963.00 339.00 L 964.00 338.00 L 964.00 337.00 L 964.00 336.00 L 965.00 335.00 L 965.00 334.00 L 966.00 333.00 L 966.00 332.00 L 967.00 331.00 L 967.00 330.00 L 967.00 329.00 L 968.00 328.00 L 968.00 327.00 L 969.00 326.00 L 969.00 325.00 L 970.00 324.00 L 970.00 323.00 L 970.00 322.00 L 971.00 321.00 L 971.00 320.00 L 972.00 319.00 L 972.00 318.00 L 973.00 317.00 L 973.00 316.00 L 973.00 315.00 L 974.00 314.00 L 974.00 313.00 L 975.00 312.00 L 975.00 311.00 L 976.00 310.00 L 976.00 309.00 L 977.00 308.00 L 977.00 307.00 L 977.00 306.00 L 978.00 305.00 L 978.00 304.00 L 979.00 303.00 L 979.00 302.00 L 980.00 301.00 L 980.00 300.00 L 980.00 299.00 L 981.00 298.00 L 981.00 297.00 L 982.00 296.00 L 982.00 295.00 L 983.00 294.00 L 983.00 293.00 L 984.00 292.00 L 984.00 291.00 L 985.00 290.00 L 985.00 289.00 L 985.00 288.00 L 986.00 287.00 L 986.00 286.00 L 987.00 285.00 L 987.00 284.00 L 988.00 283.00 L 988.00 282.00 L 988.00 281.00 L 989.00 280.00 L 989.00 279.00 L 990.00 278.00 L 990.00 277.00 L 991.00 276.00 L 991.00 275.00 L 992.00 274.00 L 992.00 273.00 L 993.00 272.00 L 993.00 271.00 L 994.00 270.00 L 994.00 269.00 L 995.00 268.00 L 995.00 267.00 L 996.00 266.00 L 996.00 265.00 L 996.00 264.00 L 996.00 263.00 L 996.00 262.00 L 995.00 261.00 L 994.00 260.00 L 993.00 259.00 L 992.00 259.00 L 991.00 259.00 Z M 986.00 365.00 L 987.00 364.00 L 988.00 364.00 L 989.00 365.00 L 989.00 366.00 L 988.00 367.00 L 988.00 368.00 L 988.00 369.00 L 987.00 370.00 L 987.00 371.00 L 987.00 372.00 L 986.00 373.00 L 986.00 374.00 L 985.00 375.00 L 985.00 376.00 L 984.00 377.00 L 984.00 378.00 L 983.00 379.00 L 982.00 380.00 L 982.00 381.00 L 981.00 382.00 L 980.00 383.00 L 979.00 384.00 L 978.00 385.00 L 978.00 386.00 L 977.00 387.00 L 976.00 388.00 L 975.00 389.00 L 974.00 390.00 L 973.00 391.00 L 972.00 392.00 L 971.00 392.00 L 970.00 393.00 L 969.00 394.00 L 968.00 395.00 L 967.00 396.00 L 966.00 397.00 L 965.00 397.00 L 964.00 398.00 L 963.00 398.00 L 962.00 399.00 L 961.00 399.00 L 960.00 400.00 L 959.00 400.00 L 958.00 401.00 L 957.00 401.00 L 956.00 402.00 L 955.00 402.00 L 954.00 403.00 L 953.00 403.00 L 952.00 404.00 L 951.00 404.00 L 950.00 404.00 L 949.00 405.00 L 948.00 405.00 L 947.00 405.00 L 946.00 405.00 L 945.00 405.00 L 944.00 406.00 L 943.00 406.00 L 942.00 406.00 L 941.00 406.00 L 940.00 405.00 L 941.00 404.00 L 942.00 403.00 L 943.00 402.00 L 943.00 401.00 L 944.00 400.00 L 945.00 399.00 L 946.00 398.00 L 947.00 397.00 L 948.00 396.00 L 949.00 395.00 L 950.00 394.00 L 951.00 393.00 L 952.00 392.00 L 953.00 391.00 L 954.00 390.00 L 955.00 389.00 L 956.00 388.00 L 957.00 387.00 L 958.00 386.00 L 959.00 385.00 L 960.00 384.00 L 961.00 383.00 L 962.00 382.00 L 963.00 381.00 L 964.00 380.00 L 965.00 379.00 L 966.00 378.00 L 967.00 378.00 L 968.00 377.00 L 969.00 376.00 L 970.00 375.00 L 971.00 374.00 L 972.00 374.00 L 973.00 373.00 L 974.00 372.00 L 975.00 371.00 L 976.00 371.00 L 977.00 370.00 L 978.00 369.00 L 979.00 369.00 L 980.00 368.00 L 981.00 367.00 L 982.00 367.00 L 983.00 366.00 L 984.00 366.00 L 985.00 365.00 Z" fill="white" fill-rule="evenodd" stroke="none" transform="translate(153.59999999999997,102.39999999999998) scale(0.8)" /></svg>